<svg xmlns="http://www.w3.org/2000/svg" viewBox="0 0 497.88 443.56"><title>515972-PIS4U2-630</title><g id="Objects"><path d="M260.67,139.8a.93.93,0,0,1-.33-.07.77.77,0,0,1-.38-.43l-7.47-21.12a.75.75,0,0,1,.46-1l34.8-12.31a.71.71,0,0,1,.57,0,.78.78,0,0,1,.39.43l7.47,21.12a.76.76,0,0,1-.46,1l-34.8,12.31A.77.77,0,0,1,260.67,139.8Z" transform="translate(0 -31.81)" style="fill:#fff"/><path d="M275.1,125.07a.54.54,0,0,1-.22,0l-21.25-6.62a.75.75,0,0,1,0-1.42l33.52-11.86a.76.76,0,0,1,.88,1.13l-12.28,18.47A.74.74,0,0,1,275.1,125.07Z" transform="translate(0 -31.81)" style="fill:#dbdbdb"/><path d="M262.27,136.7a.8.8,0,0,1-.33-.08.75.75,0,0,1-.34-1l5.09-10.22a.75.75,0,0,1,1-.34.76.76,0,0,1,.34,1L263,136.28A.76.76,0,0,1,262.27,136.7Z" transform="translate(0 -31.81)" style="fill:#dbdbdb"/><path d="M291.64,126.31a.85.85,0,0,1-.31-.06L281,121.5a.75.75,0,1,1,.63-1.37L292,124.88a.75.75,0,0,1-.31,1.43Z" transform="translate(0 -31.81)" style="fill:#dbdbdb"/><path d="M310.44,252.69a.68.68,0,0,1-.28-.17.75.75,0,0,1-.22-.53l-.1-22.41a.75.75,0,0,1,.74-.75l36.92-.16a.7.7,0,0,1,.53.21.75.75,0,0,1,.22.53l.1,22.41a.75.75,0,0,1-.74.75l-36.92.16A.69.69,0,0,1,310.44,252.69Z" transform="translate(0 -31.81)" style="fill:#fff"/><path d="M328.92,243.53a.75.75,0,0,1-.2-.1l-17.88-13.25a.75.75,0,0,1,.44-1.35l35.55-.16a.75.75,0,0,1,.46,1.35l-17.67,13.4A.71.71,0,0,1,328.92,243.53Z" transform="translate(0 -31.81)" style="fill:#dbdbdb"/><path d="M313,250.29a.59.59,0,0,1-.29-.18.75.75,0,0,1,0-1.06l8.16-8a.75.75,0,1,1,1.05,1.07l-8.16,8A.72.72,0,0,1,313,250.29Z" transform="translate(0 -31.81)" style="fill:#dbdbdb"/><path d="M344.13,250.16a.77.77,0,0,1-.27-.17l-8.24-7.9a.75.75,0,1,1,1-1.08l8.23,7.9a.75.75,0,0,1-.76,1.25Z" transform="translate(0 -31.81)" style="fill:#dbdbdb"/><path d="M338.87,359.61a.88.88,0,0,1-.22-.25.76.76,0,0,1,0-.57l6.76-21.37a.74.74,0,0,1,.94-.48l35.19,11.13a.77.77,0,0,1,.44.37.75.75,0,0,1,.05.57l-6.76,21.37a.74.74,0,0,1-.94.48l-35.2-11.13A.94.94,0,0,1,338.87,359.61Z" transform="translate(0 -31.81)" style="fill:#fff"/><path d="M359.26,356.54a.46.46,0,0,1-.15-.16l-13-18.08a.75.75,0,0,1,.83-1.15l33.9,10.72a.77.77,0,0,1,.52.71.73.73,0,0,1-.5.71L360,356.65A.73.73,0,0,1,359.26,356.54Z" transform="translate(0 -31.81)" style="fill:#dbdbdb"/><path d="M342,358.1a.63.63,0,0,1-.22-.26.76.76,0,0,1,.34-1l10.21-5.09a.75.75,0,0,1,1,.34.74.74,0,0,1-.33,1l-10.21,5.1A.75.75,0,0,1,342,358.1Z" transform="translate(0 -31.81)" style="fill:#dbdbdb"/><path d="M371.72,367.5a.61.61,0,0,1-.21-.24l-5.42-10a.74.74,0,0,1,.3-1,.76.76,0,0,1,1,.3l5.42,10a.75.75,0,0,1-1.11.95Z" transform="translate(0 -31.81)" style="fill:#dbdbdb"/><path d="M457.88,180.18a.75.75,0,0,1-.33,0A.78.78,0,0,1,457,180l-14.2-17.33a.76.76,0,0,1,.11-1.06l28.56-23.39a.74.74,0,0,1,1.05.1l14.2,17.34a.75.75,0,0,1-.1,1l-28.56,23.4A.94.94,0,0,1,457.88,180.18Z" transform="translate(0 -31.81)" style="fill:#fff"/><path d="M466.45,161.42a.79.79,0,0,1-.22.05l-22.23,1a.77.77,0,0,1-.74-.48.76.76,0,0,1,.23-.85L471,138.59a.76.76,0,0,1,1.21.76l-5.28,21.55A.73.73,0,0,1,466.45,161.42Z" transform="translate(0 -31.81)" style="fill:#dbdbdb"/><path d="M458.33,176.72a.72.72,0,0,1-.33,0,.74.74,0,0,1-.66-.83l1.31-11.34a.75.75,0,0,1,1.49.18l-1.31,11.33A.75.75,0,0,1,458.33,176.72Z" transform="translate(0 -31.81)" style="fill:#dbdbdb"/><path d="M482.43,157a.65.65,0,0,1-.31,0l-11.37-.94a.75.75,0,0,1,.12-1.5l11.37.95a.75.75,0,0,1,.69.81A.76.76,0,0,1,482.43,157Z" transform="translate(0 -31.81)" style="fill:#dbdbdb"/><path d="M398.88,53.5a.74.74,0,0,1-.19-.27.78.78,0,0,1,0-.58L408,32.25a.75.75,0,0,1,1-.38L442.58,47.1a.8.8,0,0,1,.39.42.78.78,0,0,1,0,.58l-9.24,20.4a.76.76,0,0,1-1,.38L399.09,53.65A.8.8,0,0,1,398.88,53.5Z" transform="translate(0 -31.81)" style="fill:#fff"/><path d="M419.49,52.88a.86.86,0,0,1-.14-.18L408.62,33.21a.75.75,0,0,1,1-1.05L442,46.83a.74.74,0,0,1-.15,1.41l-21.65,4.83A.74.74,0,0,1,419.49,52.88Z" transform="translate(0 -31.81)" style="fill:#dbdbdb"/><path d="M402.18,52.38a.68.68,0,0,1-.18-.28.75.75,0,0,1,.45-1l10.74-3.85a.75.75,0,0,1,.51,1.41L403,52.55A.76.76,0,0,1,402.18,52.38Z" transform="translate(0 -31.81)" style="fill:#dbdbdb"/><path d="M430.56,65.23a.68.68,0,0,1-.18-.26l-4.19-10.61a.75.75,0,0,1,1.39-.55l4.19,10.61a.74.74,0,0,1-1.21.81Z" transform="translate(0 -31.81)" style="fill:#dbdbdb"/><path d="M133.21,292l-4.08-75.85-32,3.41c2.93-5.21,9.58-6.39,15.42-14.77,4.75-6.8,7.34-12.28,6.45-18.56s-8.12-6.86-10.75-6.12c-4.66,1.3-7.12,4.17-13.82,11s-11.64,10.15-27.17,18.82-22.68,14.4-26.58,21c-4.26,7.19-10,13.23-21.38,15.71S0,246,0,246v62s12.83-1.67,17.27-.2c13.73,4.51,19.42,4.93,29.58,10.5C56.09,323.38,75.1,315,88,312,103.16,311.86,133.21,292,133.21,292Z" transform="translate(0 -31.81)" style="fill:#efc29a"/><path d="M88,312c15.19-.13,45.24-20,45.24-20l-3.8-70.67-28.7,4c1.76-2.9,4.7-4.58,8-7.05l-11.62,1.24c2.93-5.21,9.58-6.39,15.42-14.77,4.26-6.1,6.77-11.13,6.61-16.63a10.75,10.75,0,0,0-6.09-.26c-4.6,1.41-7.12,4.19-13.92,10.89s-11.75,10-27.24,18.7-22.7,14.38-26.76,20.7c-4.43,6.91-10.25,12.8-21.48,15.56C12.82,256.38,3.28,252.24,0,251.5V308s12.83-1.67,17.27-.2c13.73,4.51,19.42,4.93,29.58,10.5C56.09,323.38,75.1,315,88,312Z" transform="translate(0 -31.81)" style="fill:#eab783"/><rect x="195.5" y="166.03" width="17.5" height="28" style="fill:#dbdbdb"/><rect x="195.5" y="269.69" width="17.5" height="28" style="fill:#dbdbdb"/><path d="M201.47,301.43c-8,.14-16.64-.11-24.84-.35-7.34-.22-14.93-.44-22.46-.44-15.18,0-25.84-2.8-31.66-8.35-7.22-6.86-8.74-18.43-8.74-26.92,0-12.75,3.38-23.29,9.55-29.67,2.25-2.33,9.1-9.41,30.8-9.43,6.49,0,13-.15,19.39-.3,9.23-.22,19-.44,27.91-.12l0-27.81c-15.62-.46-32,.45-47.3.46-54.16,0-74.39,31-74.37,66.89s20.3,63.06,74.46,63c15.3,0,31.68,1,47.3.81Z" transform="translate(0 -31.81)" style="fill:#ff1d25"/><path d="M113.79,264c.23-12.12,3.59-22.13,9.53-28.28,2.25-2.33,9.1-9.41,30.8-9.43,6.49,0,13-.15,19.39-.3,9.23-.22,19-.44,27.91-.12l0-27.81c-15.62-.46-32,.45-47.3.46-53.46,0-73.86,30.23-74.35,65.5Z" transform="translate(0 -31.81)" style="fill:#00a7ff"/><path d="M201.47,301.43c-8,.14-16.64-.11-24.84-.35l-4-.12,0,27.79c9.62.27,19.37.6,28.84.47Z" transform="translate(0 -31.81)" style="fill:#fff"/><path d="M173.51,226c9.23-.22,19-.44,27.91-.12l0-27.81c-9.47-.28-19.22,0-28.84.17l0,27.78Z" transform="translate(0 -31.81)" style="fill:#fff"/><path d="M85.6,253.08c-8.72,15.25-23.67,23.1-33.39,17.55S41.67,248.2,50.39,233s23.67-23.11,33.39-17.55S94.32,237.83,85.6,253.08Z" transform="translate(0 -31.81)" style="fill:#eab783"/><path d="M126.18,220.83c11-.31,26.41-.07,26.08,11.3-.26,9.08-9.62,10.55-20.64,11.2s-27.24,1-28.08-9.73S110.54,221.27,126.18,220.83Z" transform="translate(0 -31.81)" style="fill:#efc29a"/><path d="M149.48,232.5c.3-10.84-14.15-11-24.52-10.71-14.69.41-22,1.88-21.25,12.07.51,6.35,6.5,7.52,13.58,8.69a64.73,64.73,0,0,0,13.08.52C140.59,242.42,149.24,241.09,149.48,232.5Z" transform="translate(0 -31.81)" style="fill:#eab783"/><path d="M123.66,232.29c0-7.12-2.75-7.44-9.11-7.88a15.59,15.59,0,0,0-7.71,1.06c-2,.8-3.38,1.43-3.46,6.43h0v.78h0c.08,5,1.5,5.62,3.46,6.42a15.47,15.47,0,0,0,7.71,1.07C120.91,239.72,123.66,239.56,123.66,232.29Z" transform="translate(0 -31.81)" style="fill:#e5ac7a"/><path d="M123.16,232.29c0-7.12-2.76-7.44-9.12-7.88a15.61,15.61,0,0,0-7.71,1.06c-2,.8-3.38,1.43-3.46,6.43h0c0,.12,0,.22,0,.35v.08c0,.12,0,.23,0,.35h0c.08,5,1.5,5.62,3.46,6.42a15.49,15.49,0,0,0,7.71,1.07C120.4,239.72,123.16,239.56,123.16,232.29Z" transform="translate(0 -31.81)" style="fill:#fff"/><path d="M120.25,241.94c11-.31,26.41-.07,26.07,11.29-.26,9.09-9.61,10.56-20.63,11.21s-27.25,1-28.09-9.73S104.61,242.38,120.25,241.94Z" transform="translate(0 -31.81)" style="fill:#efc29a"/><path d="M143.54,253.61c.3-10.84-14.15-11-24.51-10.71-14.7.41-22,1.88-21.25,12.07.5,6.35,6.49,7.52,13.58,8.69a64.6,64.6,0,0,0,13.07.52C134.66,263.53,143.31,262.2,143.54,253.61Z" transform="translate(0 -31.81)" style="fill:#eab783"/><path d="M117.73,253.4c0-7.12-2.75-7.44-9.12-7.88a15.55,15.55,0,0,0-7.7,1.06c-2,.8-3.39,1.43-3.47,6.43h0c0,.12,0,.22,0,.34s0,0,0,.05,0,0,0,0,0,.23,0,.35h0c.08,5,1.51,5.62,3.47,6.42a15.55,15.55,0,0,0,7.7,1.07C115,260.83,117.73,260.67,117.73,253.4Z" transform="translate(0 -31.81)" style="fill:#e5ac7a"/><path d="M117.22,253.4c0-7.12-2.75-7.44-9.11-7.88a15.57,15.57,0,0,0-7.71,1.06c-2,.8-3.39,1.43-3.47,6.43h0v.78h0c.08,5,1.51,5.62,3.47,6.42a15.57,15.57,0,0,0,7.71,1.07C114.47,260.83,117.22,260.67,117.22,253.4Z" transform="translate(0 -31.81)" style="fill:#fff"/><path d="M120.25,262.65c11-.31,26.41-.07,26.07,11.29-.26,9.09-9.61,10.56-20.63,11.21s-27.25,1-28.09-9.73S104.61,263.08,120.25,262.65Z" transform="translate(0 -31.81)" style="fill:#efc29a"/><path d="M143.54,274.32c.3-10.84-14.15-11-24.51-10.71-14.7.41-22,1.88-21.25,12.07.5,6.35,6.49,7.52,13.58,8.69a64.6,64.6,0,0,0,13.07.52C134.66,284.24,143.31,282.91,143.54,274.32Z" transform="translate(0 -31.81)" style="fill:#eab783"/><path d="M117.73,274.11c0-7.12-2.75-7.44-9.12-7.88a15.55,15.55,0,0,0-7.7,1.06c-2,.8-3.39,1.43-3.47,6.43h0c0,.11,0,.22,0,.34s0,0,0,.05,0,0,0,0,0,.23,0,.35h0c.08,5,1.51,5.62,3.47,6.42a15.55,15.55,0,0,0,7.7,1.07C115,281.54,117.73,281.38,117.73,274.11Z" transform="translate(0 -31.81)" style="fill:#e5ac7a"/><path d="M117.22,274.11c0-7.12-2.75-7.44-9.11-7.88a15.57,15.57,0,0,0-7.71,1.06c-2,.8-3.39,1.43-3.47,6.43h0v.78h0c.08,5,1.51,5.62,3.47,6.42a15.57,15.57,0,0,0,7.71,1.07C114.47,281.54,117.22,281.38,117.22,274.11Z" transform="translate(0 -31.81)" style="fill:#fff"/><path d="M126,282.53c11-.31,26.42-.07,26.08,11.3-.26,9.08-9.62,10.55-20.63,11.2s-27.25,1-28.09-9.73S110.4,283,126,282.53Z" transform="translate(0 -31.81)" style="fill:#efc29a"/><path d="M149.34,294.2c.3-10.84-14.15-11-24.52-10.71-14.69.41-22,1.88-21.24,12.07.5,6.35,6.49,7.52,13.58,8.69a64.6,64.6,0,0,0,13.07.52C140.46,304.12,149.1,302.79,149.34,294.2Z" transform="translate(0 -31.81)" style="fill:#eab783"/><path d="M123.53,294c0-7.11-2.75-7.44-9.12-7.88a15.55,15.55,0,0,0-7.7,1.06c-2,.8-3.39,1.43-3.47,6.43h0c0,.12,0,.22,0,.35V294c0,.12,0,.23,0,.35h0c.08,5,1.51,5.62,3.47,6.42a15.43,15.43,0,0,0,7.7,1.07C120.78,301.42,123.53,301.26,123.53,294Z" transform="translate(0 -31.81)" style="fill:#e5ac7a"/><path d="M123,294c0-7.11-2.75-7.44-9.12-7.88a15.55,15.55,0,0,0-7.7,1.06c-2,.8-3.39,1.43-3.47,6.43h0c0,.12,0,.22,0,.35V294c0,.12,0,.23,0,.35h0c.08,5,1.51,5.62,3.47,6.42a15.43,15.43,0,0,0,7.7,1.07C120.27,301.42,123,301.26,123,294Z" transform="translate(0 -31.81)" style="fill:#fff"/><path d="M451.05,295.55a8.58,8.58,0,1,1-7.19-9.77A8.58,8.58,0,0,1,451.05,295.55Z" transform="translate(0 -31.81)" style="fill:#f9da23"/><path d="M440.31,292.13a1.22,1.22,0,0,1-2.42-.37,1.22,1.22,0,0,1,2.42.37Z" transform="translate(0 -31.81)" style="fill:#1c1c1b"/><path d="M448.22,293.51a1.22,1.22,0,1,1-1-1.39A1.23,1.23,0,0,1,448.22,293.51Z" transform="translate(0 -31.81)" style="fill:#1c1c1b"/><path d="M444.09,297.47c-.21,1.41-1.26,2.4-2.33,2.24a2.33,2.33,0,0,1-1.56-2.83c.22-1.39,1.26-2.4,2.33-2.23A2.32,2.32,0,0,1,444.09,297.47Z" transform="translate(0 -31.81)" style="fill:#1c1c1b"/><path d="M393.75,251.59a17.7,17.7,0,1,1-14.84-20.16A17.71,17.71,0,0,1,393.75,251.59Z" transform="translate(0 -31.81)" style="fill:#f9da23"/><path d="M371.58,244.53a2.51,2.51,0,1,1-2.11-2.87A2.52,2.52,0,0,1,371.58,244.53Z" transform="translate(0 -31.81)" style="fill:#1c1c1b"/><path d="M387.91,247.37a2.52,2.52,0,1,1-2.11-2.86A2.51,2.51,0,0,1,387.91,247.37Z" transform="translate(0 -31.81)" style="fill:#1c1c1b"/><path d="M379.39,255.55c-.44,2.89-2.59,4.95-4.81,4.61s-3.65-2.94-3.21-5.83,2.59-5,4.8-4.61S379.82,252.67,379.39,255.55Z" transform="translate(0 -31.81)" style="fill:#1c1c1b"/><path d="M289.68,321.35a8.58,8.58,0,1,1-7.19-9.78A8.58,8.58,0,0,1,289.68,321.35Z" transform="translate(0 -31.81)" style="fill:#f9da23"/><path d="M278.94,317.92a1.22,1.22,0,1,1-2.41-.36,1.22,1.22,0,0,1,2.41.36Z" transform="translate(0 -31.81)" style="fill:#1c1c1b"/><path d="M286.86,319.3a1.22,1.22,0,1,1-1-1.39A1.22,1.22,0,0,1,286.86,319.3Z" transform="translate(0 -31.81)" style="fill:#1c1c1b"/><path d="M282.72,323.27c-.21,1.4-1.25,2.4-2.32,2.23s-1.77-1.42-1.56-2.82,1.25-2.4,2.32-2.24A2.31,2.31,0,0,1,282.72,323.27Z" transform="translate(0 -31.81)" style="fill:#1c1c1b"/><path d="M482.33,253.81a10.24,10.24,0,1,1,14.07-3.45A10.23,10.23,0,0,1,482.33,253.81Z" transform="translate(0 -31.81)" style="fill:#f9da23"/><path d="M491,243.53a1.44,1.44,0,0,1-.49-2,1.45,1.45,0,1,1,.49,2Z" transform="translate(0 -31.81)" style="fill:#1c1c1b"/><path d="M485.88,251.63a1.46,1.46,0,1,1,1.51-2.49,1.47,1.47,0,0,1,.49,2A1.45,1.45,0,0,1,485.88,251.63Z" transform="translate(0 -31.81)" style="fill:#1c1c1b"/><path d="M483.4,245.26c-1.45-.87-2.07-2.48-1.4-3.59s2.38-1.3,3.83-.42,2.07,2.48,1.4,3.59S484.84,246.13,483.4,245.26Z" transform="translate(0 -31.81)" style="fill:#1c1c1b"/><path d="M390.73,306.64a9.75,9.75,0,1,1-8.18-11.11A9.75,9.75,0,0,1,390.73,306.64Z" transform="translate(0 -31.81)" style="fill:#4762a3"/><rect x="374.7" y="304.09" width="5.5" height="2.75" transform="translate(18.65 600.83) rotate(-81.34)" style="fill:#fff"/><path d="M383.7,300s.1.33-.31,1.17-.27.89-1.31,1.36-1.54.07-1.75.6c-.31.74-1.2,5.21-.27,5.26,1.51.09,3.12.6,3.83.54a4.48,4.48,0,0,0,.7-.09c.72-.13.92-.58.83-1-.05-.18-1-.25-1-.25a1,1,0,0,0,.75,0c.25-.15.49-.16.54-.58a.84.84,0,0,0-.18-.67c-.25-.36-.48-.31-.48-.31l.39,0c.38,0,.64-.26.68-.77s.05-.35-.08-.65-.43-.36-.43-.36l.26-.2a.72.72,0,0,0,.42-.64c0-.3,0-.71-.31-.87a3.16,3.16,0,0,0-1.28-.13s.71-1.63.32-2.42-.83-.94-1.19-.82S383.7,300,383.7,300Z" transform="translate(0 -31.81)" style="fill:#fff"/><path d="M481.82,300.69a13.65,13.65,0,1,1,12.13-15A13.65,13.65,0,0,1,481.82,300.69Z" transform="translate(0 -31.81)" style="fill:#4762a3"/><rect x="474.83" y="280.37" width="7.7" height="3.85" transform="translate(-27.23 20.54) rotate(-6.09)" style="fill:#fff"/><path d="M488.3,288.81s-.39.26-1.69,0-1.3-.06-2.3-1.29-.65-2.06-1.44-2.16c-1.11-.15-7.47.24-7.22,1.51.42,2.08.31,4.44.63,5.38a8.19,8.19,0,0,0,.37.92c.45.92,1.12,1,1.59.77.23-.12,0-1.42,0-1.42a1.33,1.33,0,0,0,.31,1c.29.28.4.61,1,.52a1.19,1.19,0,0,0,.84-.47c.4-.47.24-.77.24-.77s0,0,.09.55.58.77,1.28.64.5-.05.85-.33.34-.72.34-.72l.36.29a1,1,0,0,0,1,.34c.43-.07,1-.21,1.08-.74a4.33,4.33,0,0,0-.28-1.78s2.45.39,3.39-.42,1-1.47.69-1.91S488.3,288.81,488.3,288.81Z" transform="translate(0 -31.81)" style="fill:#fff"/><path d="M331.5,317.72A15.75,15.75,0,1,1,311,309.09,15.74,15.74,0,0,1,331.5,317.72Z" transform="translate(0 -31.81)" style="fill:#4762a3"/><rect x="309.89" y="322.65" width="4.44" height="8.88" transform="translate(-100.42 110.3) rotate(-22.19)" style="fill:#fff"/><path d="M316.25,314.34s.42.36.55,1.87.35,1.46-.7,3-2.07,1.38-1.93,2.29c.19,1.28,2.65,8.21,4,7.52,2.17-1.13,4.82-1.76,5.76-2.43.39-.28.68-.51.9-.7.87-.79.78-1.57.34-2-.21-.22-1.57.46-1.57.46a1.55,1.55,0,0,0,1-.67c.22-.41.55-.63.26-1.25a1.37,1.37,0,0,0-.79-.77c-.65-.31-.93,0-.93,0l.59-.27c.55-.27.66-.9.29-1.63s-.22-.53-.64-.84-.9-.14-.9-.14a4.34,4.34,0,0,1,.2-.49,1.17,1.17,0,0,0,.05-1.23c-.21-.45-.54-1-1.16-1a5.13,5.13,0,0,0-1.88.88s-.35-2.85-1.56-3.63-1.93-.6-2.33-.15S316.25,314.34,316.25,314.34Z" transform="translate(0 -31.81)" style="fill:#fff"/><path d="M415.45,381.43a12.78,12.78,0,1,1-10.71-14.56A12.79,12.79,0,0,1,415.45,381.43Z" transform="translate(0 -31.81)" style="fill:#4762a3"/><rect x="394.43" y="378.09" width="7.21" height="3.61" transform="translate(-37.39 684.48) rotate(-81.35)" style="fill:#fff"/><path d="M406.23,372.73s.14.42-.4,1.53-.36,1.16-1.72,1.77-2,.11-2.29.8c-.4,1-1.57,6.82-.36,6.9,2,.11,4.09.78,5,.7.39,0,.69-.07.92-.11.94-.18,1.2-.76,1.08-1.26-.06-.24-1.29-.33-1.29-.33a1.25,1.25,0,0,0,1-.05c.32-.2.65-.21.7-.76a1.1,1.1,0,0,0-.23-.87c-.32-.48-.63-.4-.63-.4l.52.05c.5.05.83-.35.88-1s.07-.47-.1-.85-.57-.48-.57-.48l.35-.26a.94.94,0,0,0,.55-.83c0-.4.05-.94-.41-1.15a4.13,4.13,0,0,0-1.68-.18s.94-2.12.43-3.17-1.1-1.23-1.57-1.07S406.23,372.73,406.23,372.73Z" transform="translate(0 -31.81)" style="fill:#fff"/><path d="M396,325.64a10.25,10.25,0,1,1-14.16,3.09A10.25,10.25,0,0,1,396,325.64Z" transform="translate(0 -31.81)" style="fill:red"/><path d="M389.62,328c-2.35,1.12-.87,4.47-.53,5.16-.77,0-4.44,0-4.48,2.64a3.89,3.89,0,0,0,2.87,3.81c3.18,1.09,7.58-2.46,7.62-2.58s1.5-5.57-.83-8A3.86,3.86,0,0,0,389.62,328Z" transform="translate(0 -31.81)" style="fill:#fff"/><path d="M419.2,275.68a8.5,8.5,0,1,1-10.89-5.09A8.5,8.5,0,0,1,419.2,275.68Z" transform="translate(0 -31.81)" style="fill:red"/><path d="M413.78,274c-2.12-.44-2.82,2.52-2.95,3.14-.5-.39-2.94-2.21-4.28-.51a3.21,3.21,0,0,0,0,3.95c1.54,2.33,6.23,2.19,6.32,2.13s3.78-2.91,3.47-5.69A3.21,3.21,0,0,0,413.78,274Z" transform="translate(0 -31.81)" style="fill:#fff"/><path d="M434.89,208.13a17,17,0,1,1,7-23A17,17,0,0,1,434.89,208.13Z" transform="translate(0 -31.81)" style="fill:red"/><path d="M436.65,196.93c.27-4.32-5.79-4.87-7.06-4.94.64-1.1,3.54-6.46-.2-8.62-2.58-1.49-5.44-1.05-7.84,1.09-4.16,3.72-2.55,13-2.41,13.12s6.85,6.67,12.26,5.26C434.51,202,436.46,199.9,436.65,196.93Z" transform="translate(0 -31.81)" style="fill:#fff"/><path d="M294.85,223.14a10.25,10.25,0,1,1-8.59-11.67A10.25,10.25,0,0,1,294.85,223.14Z" transform="translate(0 -31.81)" style="fill:red"/><path d="M290.08,218.25c-2-1.69-4.44,1-4.94,1.62-.29-.71-1.83-4-4.23-3a3.88,3.88,0,0,0-2.3,4.18c.29,3.35,5.34,5.92,5.46,5.91s5.69-.91,7-4A3.88,3.88,0,0,0,290.08,218.25Z" transform="translate(0 -31.81)" style="fill:#fff"/><path d="M347,397.62a11.14,11.14,0,1,1-.84-15.74A11.15,11.15,0,0,1,347,397.62Z" transform="translate(0 -31.81)" style="fill:red"/><path d="M345.59,390.32c-.8-2.72-4.66-1.71-5.46-1.47.16-.82.75-4.76-2-5.26a4.19,4.19,0,0,0-4.58,2.42c-1.74,3.22,1.31,8.56,1.43,8.62s5.71,2.58,8.73.51A4.24,4.24,0,0,0,345.59,390.32Z" transform="translate(0 -31.81)" style="fill:#fff"/><path d="M322.83,283.61a12.83,12.83,0,1,1-2.2-18A12.83,12.83,0,0,1,322.83,283.61Z" transform="translate(0 -31.81)" style="fill:#f9da23"/><path d="M311.34,271.27a1.83,1.83,0,1,1-.32-2.56A1.83,1.83,0,0,1,311.34,271.27Z" transform="translate(0 -31.81)" style="fill:#1c1c1b"/><path d="M320.64,278.87a1.82,1.82,0,1,1-.31-2.56A1.82,1.82,0,0,1,320.64,278.87Z" transform="translate(0 -31.81)" style="fill:#1c1c1b"/><path d="M305,274a7.26,7.26,0,0,0,2.88,7.19,9.2,9.2,0,0,0,7.93,1.81" transform="translate(0 -31.81)" style="fill:none;stroke:#1c1c1b;stroke-linecap:round;stroke-linejoin:round;stroke-width:2px"/><path d="M263.39,254.36a9.56,9.56,0,1,1-13.43-1.6A9.56,9.56,0,0,1,263.39,254.36Z" transform="translate(0 -31.81)" style="fill:#f9da23"/><path d="M252.42,260.49a1.36,1.36,0,1,1-1.91-.23A1.36,1.36,0,0,1,252.42,260.49Z" transform="translate(0 -31.81)" style="fill:#1c1c1b"/><path d="M259.57,255.11a1.36,1.36,0,1,1-1.91-.23A1.36,1.36,0,0,1,259.57,255.11Z" transform="translate(0 -31.81)" style="fill:#1c1c1b"/><path d="M253.25,265.53a5.43,5.43,0,0,0,5.72-.81,6.84,6.84,0,0,0,2.71-5.42" transform="translate(0 -31.81)" style="fill:none;stroke:#1c1c1b;stroke-linecap:round;stroke-linejoin:round;stroke-width:1.5px"/><path d="M316.64,132.14a15.93,15.93,0,1,1-18.07,13.45A15.92,15.92,0,0,1,316.64,132.14Z" transform="translate(0 -31.81)" style="fill:#f9da23"/><polyline points="306.43 124.7 311.68 120.31 313.6 125.75" style="fill:none;stroke:#1c1c1b;stroke-linecap:round;stroke-linejoin:round;stroke-width:2px"/><polyline points="309.26 105.31 313.04 111.01 316.44 106.36" style="fill:none;stroke:#1c1c1b;stroke-linecap:round;stroke-linejoin:round;stroke-width:2px"/><path d="M318.31,156.89l2.37-16.21s7.25.52,6.35,8.53C326,158.12,318.31,156.89,318.31,156.89Z" transform="translate(0 -31.81)" style="fill:#1c1c1b"/><path d="M483.64,113.86a14.83,14.83,0,1,1-5.13-20.33A14.84,14.84,0,0,1,483.64,113.86Z" transform="translate(0 -31.81)" style="fill:#f9da23"/><polyline points="466.32 64.59 468.22 70.67 462.86 70.38" style="fill:none;stroke:#1c1c1b;stroke-linecap:round;stroke-linejoin:round;stroke-width:2px"/><polyline points="481.99 73.94 475.74 75.15 478.53 79.73" style="fill:none;stroke:#1c1c1b;stroke-linecap:round;stroke-linejoin:round;stroke-width:2px"/><path d="M461.76,106.48l13.09,7.81s-3,6.06-9.59,2.43C458,112.68,461.76,106.48,461.76,106.48Z" transform="translate(0 -31.81)" style="fill:#1c1c1b"/><polygon points="262.96 154.76 230.36 160.05 241.13 168.21 221.06 181.67 257.91 171.51 247.13 163.36 262.96 154.76" style="fill:#f9da23"/><polygon points="251.32 139.59 236.84 154.26 252.38 143.24 251.32 139.59" style="fill:#f9da23"/><polygon points="229.34 145.18 214.58 163.88 231.01 149.24 229.34 145.18" style="fill:#f9da23"/><polygon points="239.42 184.67 224.22 184.99 235 189.19 239.42 184.67" style="fill:#f9da23"/><polygon points="222.11 202.14 216.5 194.3 218.16 201.45 222.11 202.14" style="fill:#f9da23"/><polygon points="219.91 272.75 252.52 278.05 241.74 286.2 261.82 299.67 224.97 289.51 235.75 281.36 219.91 272.75" style="fill:#f9da23"/><polygon points="231.55 257.59 246.04 272.26 230.5 261.24 231.55 257.59" style="fill:#f9da23"/><polygon points="253.54 263.18 268.3 281.88 251.87 267.24 253.54 263.18" style="fill:#f9da23"/><polygon points="243.45 302.67 258.66 302.99 247.88 307.19 243.45 302.67" style="fill:#f9da23"/><polygon points="260.77 320.14 266.38 312.3 264.72 319.45 260.77 320.14" style="fill:#f9da23"/><path d="M383.12,138c-9.75,0-17.65,6.27-17.65,14a12.07,12.07,0,0,0,3.35,8.2,40.22,40.22,0,0,1-6.09,3.77s6,1,10-.64A20.78,20.78,0,0,0,383.12,166c9.75,0,17.65-6.27,17.65-14S392.87,138,383.12,138Z" transform="translate(0 -31.81)" style="fill:red"/><path d="M376,152a1.83,1.83,0,1,1-1.83-1.83A1.83,1.83,0,0,1,376,152Z" transform="translate(0 -31.81)" style="fill:#fff"/><path d="M384.64,152a1.83,1.83,0,1,1-1.82-1.83A1.83,1.83,0,0,1,384.64,152Z" transform="translate(0 -31.81)" style="fill:#fff"/><path d="M393.47,152a1.83,1.83,0,1,1-1.83-1.83A1.83,1.83,0,0,1,393.47,152Z" transform="translate(0 -31.81)" style="fill:#fff"/><path d="M433.49,230.53c-6.15,2.63-9.44,8.71-7.36,13.59a8.3,8.3,0,0,0,4.33,4.26,28,28,0,0,1-2.83,4s4.07-1,6.14-3.11a14.24,14.24,0,0,0,7.26-1.1c6.15-2.63,9.44-8.71,7.36-13.58S439.64,227.91,433.49,230.53Z" transform="translate(0 -31.81)" style="fill:red"/><path d="M432.75,241.29a1.25,1.25,0,1,1-1.64-.66A1.24,1.24,0,0,1,432.75,241.29Z" transform="translate(0 -31.81)" style="fill:#fff"/><path d="M438.22,239a1.25,1.25,0,1,1-1.64-.66A1.24,1.24,0,0,1,438.22,239Z" transform="translate(0 -31.81)" style="fill:#fff"/><path d="M443.79,236.57a1.26,1.26,0,1,1-1.65-.66A1.27,1.27,0,0,1,443.79,236.57Z" transform="translate(0 -31.81)" style="fill:#fff"/><path d="M451.45,332c-8.77-4.25-18.62-2.06-22,4.89a12.12,12.12,0,0,0-.57,8.85,40.49,40.49,0,0,1-7.12.73s5,3.53,9.3,3.79a20.72,20.72,0,0,0,8.16,6.93c8.77,4.26,18.62,2.07,22-4.89S460.22,336.26,451.45,332Z" transform="translate(0 -31.81)" style="fill:red"/><path d="M438.91,341.48a1.83,1.83,0,1,1-.85-2.44A1.83,1.83,0,0,1,438.91,341.48Z" transform="translate(0 -31.81)" style="fill:#fff"/><path d="M446.71,345.26a1.83,1.83,0,1,1-.85-2.44A1.82,1.82,0,0,1,446.71,345.26Z" transform="translate(0 -31.81)" style="fill:#fff"/><path d="M454.65,349.11a1.82,1.82,0,1,1-.85-2.44A1.82,1.82,0,0,1,454.65,349.11Z" transform="translate(0 -31.81)" style="fill:#fff"/><path d="M413.88,407.85c-8.33,3.29-12.95,11.32-10.33,17.92a11.09,11.09,0,0,0,5.63,5.87,37.37,37.37,0,0,1-3.92,5.28s5.48-1.18,8.33-3.94a19.11,19.11,0,0,0,9.76-1.23c8.33-3.3,12.95-11.33,10.34-17.93S422.2,404.55,413.88,407.85Z" transform="translate(0 -31.81)" style="fill:red"/><path d="M412.51,422.22a1.68,1.68,0,1,1-2.18-.94A1.67,1.67,0,0,1,412.51,422.22Z" transform="translate(0 -31.81)" style="fill:#fff"/><path d="M419.92,419.28a1.68,1.68,0,1,1-2.18-.94A1.69,1.69,0,0,1,419.92,419.28Z" transform="translate(0 -31.81)" style="fill:#fff"/><path d="M427.45,416.29a1.68,1.68,0,1,1-2.18-.93A1.68,1.68,0,0,1,427.45,416.29Z" transform="translate(0 -31.81)" style="fill:#fff"/><circle cx="289" cy="342.19" r="20" style="fill:red"/><polygon points="299.72 341.79 291 346.82 282.28 351.86 282.28 341.79 282.28 331.71 291 336.75 299.72 341.79" style="fill:#fff"/><circle cx="375" cy="159.19" r="12.5" style="fill:red"/><polygon points="381.7 158.94 376.25 162.09 370.8 165.23 370.8 158.94 370.8 152.65 376.25 155.79 381.7 158.94" style="fill:#fff"/><path d="M492.16,398.84a16,16,0,1,1-22.38-3.32A16,16,0,0,1,492.16,398.84Z" transform="translate(0 -31.81)" style="fill:red"/><polygon points="486 371.19 482.79 378.59 479.58 385.98 474.79 379.5 469.99 373.03 477.99 372.11 486 371.19" style="fill:#fff"/><path d="M384.7,93.56A16,16,0,1,1,391.5,72,16,16,0,0,1,384.7,93.56Z" transform="translate(0 -31.81)" style="fill:#ff1d25"/><polygon points="381.56 55.02 374.77 50.69 367.97 46.37 375.12 42.64 382.26 38.92 381.91 46.97 381.56 55.02" style="fill:#fff"/><rect x="271.16" y="170.39" width="25.43" height="20.96" rx="2" ry="2" transform="translate(-28.24 23.04) rotate(-10.52)" style="fill:red"/><path d="M280.7,189.74c-1.09.17-1.36.95-.6,1.75l4.88,5.12a1.24,1.24,0,0,0,2.19-.38l2.72-6.17c.44-1-.09-1.7-1.17-1.53Z" transform="translate(0 -31.81)" style="fill:red"/><path d="M287.91,173.18c-3-1.14-4.38,4.34-4.71,5.23-.64-.7-4.2-5.23-6.57-3a4.82,4.82,0,0,0-.95,5.84c.86,1.87,5.94,6.73,9.48,6.07s5.72-6.93,5.81-9A4.81,4.81,0,0,0,287.91,173.18Z" transform="translate(0 -31.81)" style="fill:#fff"/><rect x="415.01" y="107.24" width="20.96" height="25.43" rx="2" ry="2" transform="translate(267.41 501) rotate(-84.79)" style="fill:red"/><path d="M420,127.63c-1.09-.13-1.56.55-1,1.52l3.31,6.26a1.24,1.24,0,0,0,2.21.22l4.29-5.2c.7-.85.38-1.65-.71-1.79Z" transform="translate(0 -31.81)" style="fill:red"/><path d="M431.46,113.65c-2.6-1.92-5.39,3-5.95,3.76-.43-.85-2.62-6.18-5.5-4.71a4.81,4.81,0,0,0-2.49,5.36c.31,2,3.88,8.09,7.47,8.42s7.39-5.13,8.05-7.13A4.82,4.82,0,0,0,431.46,113.65Z" transform="translate(0 -31.81)" style="fill:#fff"/><path d="M486.63,209.38a2,2,0,0,1-.24,2.82L470,226a2,2,0,0,1-2.82-.24l-10.95-13a2,2,0,0,1,.24-2.82l16.36-13.83a2,2,0,0,1,2.82.23Z" transform="translate(0 -31.81)" style="fill:red"/><path d="M473.08,220.39c-.86.69-.7,1.5.35,1.82l6.78,2a1.25,1.25,0,0,0,1.71-1.42l-.7-6.7c-.11-1.1-.91-1.44-1.77-.75Z" transform="translate(0 -31.81)" style="fill:red"/><path d="M471.14,202.44c-3.19.5-1.65,5.94-1.5,6.87-.9-.29-6.24-2.46-7.21.62a4.82,4.82,0,0,0,2.07,5.54c1.67,1.2,8.49,2.91,11.24.58s1.53-8.86.57-10.74A4.8,4.8,0,0,0,471.14,202.44Z" transform="translate(0 -31.81)" style="fill:#fff"/><circle cx="348.58" cy="289.48" r="7.67" transform="translate(-104.26 242.25) rotate(-37.76)" style="fill:#5ebc13"/><path d="M351.14,290.44l-.64.68a1.18,1.18,0,0,0-.24.42,10.07,10.07,0,0,1-2-1.6,9.47,9.47,0,0,1-1.54-2,.93.93,0,0,0,.38-.25l.69-.65-2-2-.64.68a1.2,1.2,0,0,0-.22,1.21h0a8.41,8.41,0,0,0,2.25,4,9.78,9.78,0,0,0,4,2.29,1.47,1.47,0,0,0,.28.08l.13,0v0a1.07,1.07,0,0,0,.83-.3l.7-.66Z" transform="translate(0 -31.81)" style="fill:#fff"/><circle cx="460.61" cy="428.23" r="15.33" style="fill:#5ebc13"/><path d="M465.72,462l-1.28,1.36a2.06,2.06,0,0,0-.48.85,20.27,20.27,0,0,1-4-3.21,18.94,18.94,0,0,1-3.08-3.92,2.06,2.06,0,0,0,.77-.49l1.38-1.31-4-4s-1,1-1.28,1.36a2.37,2.37,0,0,0-.44,2.42h0a16.64,16.64,0,0,0,4.49,8,19.47,19.47,0,0,0,8,4.58,2.36,2.36,0,0,0,.56.16l.26.07,0,0a2.14,2.14,0,0,0,1.67-.61l1.39-1.32Z" transform="translate(0 -31.81)" style="fill:#fff"/><path d="M488.69,324a12.33,12.33,0,1,1-16.78-4.76A12.33,12.33,0,0,1,488.69,324Z" transform="translate(0 -31.81)" style="fill:#5ebc13"/><path d="M482.26,329.34s-.27,1.09-.37,1.46a1.76,1.76,0,0,0,0,.79,17,17,0,0,1-4.09-.69,15.22,15.22,0,0,1-3.7-1.54,1.64,1.64,0,0,0,.35-.65l.46-1.46L470.57,326l-.37,1.45a1.91,1.91,0,0,0,.64,1.87h0a13.42,13.42,0,0,0,6.3,3.88,15.74,15.74,0,0,0,7.44.08,1.65,1.65,0,0,0,.45-.11l.21-.05,0,0a1.68,1.68,0,0,0,.93-1.08s.46-1.47.46-1.47Z" transform="translate(0 -31.81)" style="fill:#fff"/><path d="M342.23,196.37a12.33,12.33,0,1,1-16.78-4.77A12.34,12.34,0,0,1,342.23,196.37Z" transform="translate(0 -31.81)" style="fill:#5ebc13"/><path d="M335.8,201.71s-.28,1.09-.37,1.46a1.76,1.76,0,0,0,0,.79,16.46,16.46,0,0,1-4.09-.69,15,15,0,0,1-3.7-1.54,1.6,1.6,0,0,0,.35-.64s.46-1.47.46-1.47l-4.34-1.23s-.28,1.09-.37,1.46a1.9,1.9,0,0,0,.64,1.86h0a13.31,13.31,0,0,0,6.3,3.89,15.58,15.58,0,0,0,7.44.07,1.64,1.64,0,0,0,.45-.1l.21-.06,0,0a1.68,1.68,0,0,0,.93-1.08s.46-1.47.46-1.47Z" transform="translate(0 -31.81)" style="fill:#fff"/><path d="M485.22,42.09a11.33,11.33,0,1,1-15.22-5A11.34,11.34,0,0,1,485.22,42.09Z" transform="translate(0 -31.81)" style="fill:#7ac943"/><path d="M479.11,46.75l-.4,1.32a1.51,1.51,0,0,0,0,.73A15.82,15.82,0,0,1,475,48a14.3,14.3,0,0,1-3.34-1.56,1.56,1.56,0,0,0,.35-.58s.48-1.33.48-1.33l-3.94-1.3-.39,1.32a1.73,1.73,0,0,0,.52,1.74h0a12.32,12.32,0,0,0,5.64,3.82,14.6,14.6,0,0,0,6.82.36,2.61,2.61,0,0,0,.42-.08l.2,0,0,0a1.53,1.53,0,0,0,.89-.95l.48-1.33Z" transform="translate(0 -31.81)" style="fill:#fff"/><path d="M356.21,114.35a7.33,7.33,0,1,1-9.85-3.26A7.34,7.34,0,0,1,356.21,114.35Z" transform="translate(0 -31.81)" style="fill:#5ebc13"/><path d="M352.26,117.36s-.2.64-.26.86a.93.93,0,0,0,0,.47,10.32,10.32,0,0,1-2.42-.51,9.21,9.21,0,0,1-2.16-1,1,1,0,0,0,.23-.38s.31-.86.31-.86l-2.55-.84s-.19.64-.25.86a1.12,1.12,0,0,0,.33,1.12h0a8,8,0,0,0,3.64,2.47,9.35,9.35,0,0,0,4.42.23.76.76,0,0,0,.27,0l.13,0,0,0a1,1,0,0,0,.58-.62s.31-.86.31-.86Z" transform="translate(0 -31.81)" style="fill:#fff"/></g></svg>