<svg xmlns="http://www.w3.org/2000/svg" xmlns:xlink="http://www.w3.org/1999/xlink" viewBox="0 0 443 350"><defs><radialGradient id="Áåçûìÿííûé_ãðàäèåíò_3" cx="-80.17" cy="-1946.86" r="532.65" gradientTransform="translate(115.92 1774.91) scale(0.74 1)" gradientUnits="userSpaceOnUse"><stop offset="0" stop-color="#b5b5b5"/><stop offset="0.31" stop-color="#2b2b2b"/><stop offset="1" stop-color="#8a8a8a"/></radialGradient><linearGradient id="Áåçûìÿííûé_ãðàäèåíò_18" x1="1236.24" y1="390.58" x2="1244.14" y2="390.58" gradientTransform="matrix(0, -1, -1, 0.58, 705.96, 1171.58)" gradientUnits="userSpaceOnUse"><stop offset="0" stop-color="#5761d7"/><stop offset="0.16" stop-color="#5e67da"/><stop offset="0.41" stop-color="#727ae2"/><stop offset="0.69" stop-color="#9297ee"/><stop offset="1" stop-color="#bcbeff"/></linearGradient><linearGradient id="Áåçûìÿííûé_ãðàäèåíò_18-2" x1="1245.63" y1="398.71" x2="1253.53" y2="398.71" xlink:href="#Áåçûìÿííûé_ãðàäèåíò_18"/><linearGradient id="Áåçûìÿííûé_ãðàäèåíò_18-3" x1="1255.19" y1="406.99" x2="1263.08" y2="406.99" xlink:href="#Áåçûìÿííûé_ãðàäèåíò_18"/><linearGradient id="Áåçûìÿííûé_ãðàäèåíò_15" x1="1649.46" y1="-43.3" x2="1659.13" y2="-43.3" gradientTransform="matrix(0.5, -0.87, -0.87, -0.5, -547.69, 1570.83)" gradientUnits="userSpaceOnUse"><stop offset="0" stop-color="#42e8e0"/><stop offset="0.15" stop-color="#43e3e0"/><stop offset="0.33" stop-color="#45d5df"/><stop offset="0.52" stop-color="#49bddd"/><stop offset="0.72" stop-color="#4e9cdb"/><stop offset="0.93" stop-color="#5472d8"/><stop offset="1" stop-color="#5761d7"/></linearGradient><linearGradient id="Áåçûìÿííûé_ãðàäèåíò_15-2" x1="1649.46" y1="-33.91" x2="1659.13" y2="-33.91" xlink:href="#Áåçûìÿííûé_ãðàäèåíò_15"/><linearGradient id="Áåçûìÿííûé_ãðàäèåíò_15-3" x1="1649.46" y1="-24.36" x2="1659.13" y2="-24.36" xlink:href="#Áåçûìÿííûé_ãðàäèåíò_15"/><linearGradient id="Áåçûìÿííûé_ãðàäèåíò_66" x1="1619.59" y1="-84.62" x2="1682.06" y2="-120.84" gradientTransform="matrix(0.5, -0.87, -0.87, -0.5, -547.69, 1570.83)" gradientUnits="userSpaceOnUse"><stop offset="0" stop-color="#bcbeff"/><stop offset="0.31" stop-color="#9297ee"/><stop offset="0.59" stop-color="#727ae2"/><stop offset="0.84" stop-color="#5e67da"/><stop offset="1" stop-color="#5761d7"/></linearGradient><linearGradient id="Áåçûìÿííûé_ãðàäèåíò_18-4" x1="1688.09" y1="-116.74" x2="1631.84" y2="-75.55" gradientTransform="matrix(0.5, -0.87, -0.87, -0.5, -547.69, 1570.83)" xlink:href="#Áåçûìÿííûé_ãðàäèåíò_18"/><linearGradient id="Áåçûìÿííûé_ãðàäèåíò_15-4" x1="1634.12" y1="-99.48" x2="1678.32" y2="-99.48" gradientTransform="matrix(0.5, -0.87, -0.87, -0.5, -550.3, 1569.11)" xlink:href="#Áåçûìÿííûé_ãðàäèåíò_15"/><linearGradient id="Áåçûìÿííûé_ãðàäèåíò_15-5" x1="1632.2" y1="-100.52" x2="1676.39" y2="-100.52" gradientTransform="matrix(0.5, -0.87, -0.87, -0.5, -550.3, 1569.11)" xlink:href="#Áåçûìÿííûé_ãðàäèåíò_15"/><linearGradient id="Áåçûìÿííûé_ãðàäèåíò_24" x1="335.28" y1="240.7" x2="131.72" y2="240.7" gradientUnits="userSpaceOnUse"><stop offset="0" stop-color="#5761d7"/><stop offset="0.18" stop-color="#5c66d9"/><stop offset="0.39" stop-color="#6a73df"/><stop offset="0.61" stop-color="#8289e8"/><stop offset="0.85" stop-color="#a3a7f5"/><stop offset="1" stop-color="#bcbeff"/></linearGradient><linearGradient id="Áåçûìÿííûé_ãðàäèåíò_2" x1="124.44" y1="235.96" x2="328" y2="235.96" gradientTransform="matrix(-1, 0, 0, 1, 395.14, 0)" gradientUnits="userSpaceOnUse"><stop offset="0" stop-color="#c0bff6"/><stop offset="0.29" stop-color="#c5c4f7"/><stop offset="0.64" stop-color="#d3d2f9"/><stop offset="1" stop-color="#e9e9fd"/></linearGradient><linearGradient id="Áåçûìÿííûé_ãðàäèåíò_2-2" x1="36.78" y1="146.67" x2="180.84" y2="146.67" xlink:href="#Áåçûìÿííûé_ãðàäèåíò_2"/><linearGradient id="Áåçûìÿííûé_ãðàäèåíò_24-2" x1="36.78" y1="183.61" x2="61.52" y2="183.61" gradientTransform="matrix(-1, 0, 0, 1, 395.14, 0)" xlink:href="#Áåçûìÿííûé_ãðàäèåíò_24"/><linearGradient id="Áåçûìÿííûé_ãðàäèåíò_24-3" x1="56.08" y1="223.92" x2="259.53" y2="223.92" gradientTransform="matrix(-1, 0, 0, 1, 395.14, 0)" xlink:href="#Áåçûìÿííûé_ãðàäèåíò_24"/><linearGradient id="Áåçûìÿííûé_ãðàäèåíò_2-3" x1="124.44" y1="218.36" x2="328" y2="218.36" xlink:href="#Áåçûìÿííûé_ãðàäèåíò_2"/><clipPath id="clip-path" transform="translate(0 0)"><polygon points="354.92 136.72 229.63 64.42 213.89 158.01 339.1 230.26 354.92 136.72" style="fill:none"/></clipPath><linearGradient id="Áåçûìÿííûé_ãðàäèåíò_24-4" x1="-22.15" y1="179.14" x2="181.3" y2="179.14" gradientTransform="matrix(-1, 0, 0, 1, 395.14, 0)" xlink:href="#Áåçûìÿííûé_ãðàäèåíò_24"/><linearGradient id="Áåçûìÿííûé_ãðàäèåíò_2-4" x1="46.21" y1="173.58" x2="249.77" y2="173.58" xlink:href="#Áåçûìÿííûé_ãðàäèåíò_2"/><linearGradient id="Áåçûìÿííûé_ãðàäèåíò_54" x1="-101.88" y1="770.5" x2="-84.47" y2="770.5" gradientTransform="matrix(1, 0.03, -0.03, 1, 277.31, -634.59)" gradientUnits="userSpaceOnUse"><stop offset="0" stop-color="#bcbeff"/><stop offset="0.23" stop-color="#aaadf8"/><stop offset="0.68" stop-color="#7c83e5"/><stop offset="1" stop-color="#5761d7"/></linearGradient><linearGradient id="Áåçûìÿííûé_ãðàäèåíò_54-2" x1="-132.83" y1="772.46" x2="-77.55" y2="772.46" xlink:href="#Áåçûìÿííûé_ãðàäèåíò_54"/><linearGradient id="Áåçûìÿííûé_ãðàäèåíò_54-3" x1="155.67" y1="139.19" x2="159.58" y2="139.19" gradientTransform="matrix(1, 0, 0, 1, 0, 0)" xlink:href="#Áåçûìÿííûé_ãðàäèåíò_54"/><radialGradient id="Áåçûìÿííûé_ãðàäèåíò_42" cx="-115.82" cy="703.46" r="60.85" gradientTransform="matrix(1, 0.03, -0.03, 1, 277.31, -634.59)" gradientUnits="userSpaceOnUse"><stop offset="0" stop-color="#e9e9fd"/><stop offset="0.36" stop-color="#d3d2f9"/><stop offset="0.71" stop-color="#c5c4f7"/><stop offset="1" stop-color="#c0bff6"/></radialGradient><radialGradient id="Áåçûìÿííûé_ãðàäèåíò_67" cx="-261.27" cy="1314.88" r="17.43" gradientTransform="matrix(0.5, 0.87, -0.5, 0.87, 938.3, -812.12)" gradientUnits="userSpaceOnUse"><stop offset="0" stop-color="#f9636b"/><stop offset="1" stop-color="#b6246e"/></radialGradient><linearGradient id="Áåçûìÿííûé_ãðàäèåíò_65" x1="-140.89" y1="715.66" x2="-111.03" y2="775.42" gradientTransform="matrix(1, 0.03, -0.03, 1, 277.31, -634.59)" gradientUnits="userSpaceOnUse"><stop offset="0" stop-color="#bcbeff"/><stop offset="0.12" stop-color="#b4b6fc"/><stop offset="0.32" stop-color="#9ca1f2"/><stop offset="0.57" stop-color="#777ee4"/><stop offset="0.74" stop-color="#5761d7"/></linearGradient><linearGradient id="Áåçûìÿííûé_ãðàäèåíò_43" x1="80.01" y1="96.66" x2="124.5" y2="157.8" gradientTransform="matrix(1, 0, 0, 1, 0, 0)" xlink:href="#Áåçûìÿííûé_ãðàäèåíò_54"/><linearGradient id="Áåçûìÿííûé_ãðàäèåíò_55" x1="-190.31" y1="766.84" x2="-130.15" y2="766.84" gradientTransform="translate(618.23 -456.43) rotate(30)" xlink:href="#Áåçûìÿííûé_ãðàäèåíò_42"/><radialGradient id="Áåçûìÿííûé_ãðàäèåíò_6" cx="-145.41" cy="788.37" r="68.7" gradientTransform="translate(618.23 -456.43) rotate(30)" xlink:href="#Áåçûìÿííûé_ãðàäèåíò_54"/><clipPath id="clip-path-2" transform="translate(0 0)"><ellipse cx="96.06" cy="127.54" rx="21.55" ry="37.32" transform="translate(-49.13 61.1) rotate(-28.42)" style="fill:none"/></clipPath><linearGradient id="Áåçûìÿííûé_ãðàäèåíò_55-2" x1="92.28" y1="113.43" x2="141.29" y2="113.43" gradientTransform="matrix(1, 0, 0, 1, 0, 0)" xlink:href="#Áåçûìÿííûé_ãðàäèåíò_42"/><radialGradient id="Áåçûìÿííûé_ãðàäèåíò_6-2" cx="81.99" cy="117.41" r="39.2" gradientTransform="matrix(1, 0, 0, 1, 0, 0)" xlink:href="#Áåçûìÿííûé_ãðàäèåíò_54"/><linearGradient id="Áåçûìÿííûé_ãðàäèåíò_56" x1="245.36" y1="120.77" x2="373.52" y2="197.21" gradientUnits="userSpaceOnUse"><stop offset="0" stop-color="#42e8e0"/><stop offset="0.11" stop-color="#37b6bf"/><stop offset="0.22" stop-color="#2c87a1"/><stop offset="0.34" stop-color="#235f87"/><stop offset="0.46" stop-color="#1c3f72"/><stop offset="0.58" stop-color="#162561"/><stop offset="0.71" stop-color="#121355"/><stop offset="0.85" stop-color="#10084e"/><stop offset="1" stop-color="#0f054c"/></linearGradient><linearGradient id="Áåçûìÿííûé_ãðàäèåíò_56-2" x1="238.39" y1="124.68" x2="328.97" y2="178.74" xlink:href="#Áåçûìÿííûé_ãðàäèåíò_56"/><linearGradient id="Áåçûìÿííûé_ãðàäèåíò_18-5" x1="1345.11" y1="390.37" x2="1353.01" y2="390.37" xlink:href="#Áåçûìÿííûé_ãðàäèåíò_18"/><linearGradient id="Áåçûìÿííûé_ãðàäèåíò_18-6" x1="1354.51" y1="398.51" x2="1362.4" y2="398.51" xlink:href="#Áåçûìÿííûé_ãðàäèåíò_18"/><linearGradient id="Áåçûìÿííûé_ãðàäèåíò_18-7" x1="1364.06" y1="406.78" x2="1371.96" y2="406.78" xlink:href="#Áåçûìÿííûé_ãðàäèåíò_18"/><linearGradient id="Áåçûìÿííûé_ãðàäèåíò_15-6" x1="1743.95" y1="11.02" x2="1753.62" y2="11.02" xlink:href="#Áåçûìÿííûé_ãðàäèåíò_15"/><linearGradient id="Áåçûìÿííûé_ãðàäèåíò_15-7" x1="1743.95" y1="20.41" x2="1753.62" y2="20.41" xlink:href="#Áåçûìÿííûé_ãðàäèåíò_15"/><linearGradient id="Áåçûìÿííûé_ãðàäèåíò_15-8" x1="1743.95" y1="29.96" x2="1753.62" y2="29.96" xlink:href="#Áåçûìÿííûé_ãðàäèåíò_15"/><linearGradient id="Áåçûìÿííûé_ãðàäèåíò_66-2" x1="1714.08" y1="-30.3" x2="1776.55" y2="-66.52" xlink:href="#Áåçûìÿííûé_ãðàäèåíò_66"/><linearGradient id="Áåçûìÿííûé_ãðàäèåíò_18-8" x1="1782.58" y1="-62.42" x2="1726.33" y2="-21.24" gradientTransform="matrix(0.5, -0.87, -0.87, -0.5, -547.69, 1570.83)" xlink:href="#Áåçûìÿííûé_ãðàäèåíò_18"/><linearGradient id="Áåçûìÿííûé_ãðàäèåíò_15-9" x1="1728.61" y1="-45.16" x2="1772.81" y2="-45.16" gradientTransform="matrix(0.5, -0.87, -0.87, -0.5, -550.51, 1569.1)" xlink:href="#Áåçûìÿííûé_ãðàäèåíò_15"/><linearGradient id="Áåçûìÿííûé_ãðàäèåíò_15-10" x1="1726.68" y1="-46.21" x2="1770.88" y2="-46.21" gradientTransform="matrix(0.5, -0.87, -0.87, -0.5, -550.5, 1569.11)" xlink:href="#Áåçûìÿííûé_ãðàäèåíò_15"/></defs><title>855 [Converted]</title><g style="isolation:isolate"><g id="Ñëîé_1" data-name="Ñëîé 1"><rect width="443" height="350" style="fill:url(#Áåçûìÿííûé_ãðàäèåíò_3)"/><g style="opacity:0.30000000000000004"><path d="M313.44,153.67c1.89-1.1,3.42-.22,3.43,2a7.57,7.57,0,0,1-3.41,5.92c-1.89,1.1-3.42.22-3.43-2A7.59,7.59,0,0,1,313.44,153.67Z" transform="translate(0 0)" style="fill:url(#Áåçûìÿííûé_ãðàäèåíò_18)"/><path d="M313.65,153.79a7.54,7.54,0,0,0-3.41,5.92,2.48,2.48,0,0,0,.91,2.15A2.35,2.35,0,0,1,310,159.6a7.59,7.59,0,0,1,3.41-5.93,2.34,2.34,0,0,1,2.52-.18A2.47,2.47,0,0,0,313.65,153.79Z" transform="translate(0 0)" style="fill:#fff"/><path d="M305.3,149c1.89-1.1,3.42-.22,3.42,2a7.55,7.55,0,0,1-3.4,5.93c-1.89,1.1-3.42.22-3.43-2A7.54,7.54,0,0,1,305.3,149Z" transform="translate(0 0)" style="fill:url(#Áåçûìÿííûé_ãðàäèåíò_18-2)"/><path d="M297,144.22c1.88-1.09,3.42-.21,3.42,2a7.56,7.56,0,0,1-3.41,5.93c-1.89,1.09-3.42.21-3.42-2A7.55,7.55,0,0,1,297,144.22Z" transform="translate(0 0)" style="fill:url(#Áåçûìÿííûé_ãðàäèåíò_18-3)"/><path d="M311,161.81l4.24,2.43a2.39,2.39,0,0,1-1-2.21,7.57,7.57,0,0,1,3.41-5.93,2.44,2.44,0,0,1,2.36-.27L338,166.13l-4.82,8.38-52.78-30.34a4.83,4.83,0,1,1,4.82-8.38L299.49,144a2.35,2.35,0,0,0-2.47.2,7.55,7.55,0,0,0-3.41,5.93,2.4,2.4,0,0,0,1,2.21h0l4.24,2.44a2.42,2.42,0,0,1-1-2.21,7.59,7.59,0,0,1,3.41-5.93,2.44,2.44,0,0,1,2.36-.27l4.16,2.39a2.35,2.35,0,0,0-2.47.21,7.54,7.54,0,0,0-3.41,5.93,2.4,2.4,0,0,0,1,2.2h0l4.23,2.43a2.39,2.39,0,0,1-1-2.21,7.55,7.55,0,0,1,3.41-5.93,2.44,2.44,0,0,1,2.36-.27l4,2.31a2.35,2.35,0,0,0-2.47.21A7.59,7.59,0,0,0,310,159.6a2.4,2.4,0,0,0,1,2.2Z" transform="translate(0 0)" style="fill:#bcbeff"/><path d="M305.51,149.1A7.55,7.55,0,0,0,302.1,155a2.48,2.48,0,0,0,.91,2.15,2.33,2.33,0,0,1-1.12-2.26A7.54,7.54,0,0,1,305.3,149a2.34,2.34,0,0,1,2.52-.18A2.49,2.49,0,0,0,305.51,149.1Z" transform="translate(0 0)" style="fill:#fff"/><path d="M297.22,144.34a7.57,7.57,0,0,0-3.41,5.93,2.48,2.48,0,0,0,.91,2.15,2.34,2.34,0,0,1-1.11-2.27,7.55,7.55,0,0,1,3.41-5.93,2.32,2.32,0,0,1,2.51-.17A2.44,2.44,0,0,0,297.22,144.34Z" transform="translate(0 0)" style="fill:#fff"/><path d="M317.68,156.1a7.56,7.56,0,0,0-3.41,5.93,2.4,2.4,0,0,0,1,2.21L311,161.81h0a2.39,2.39,0,0,1-1-2.21,7.53,7.53,0,0,1,3.4-5.92,2.37,2.37,0,0,1,2.48-.21l4.12,2.37A2.44,2.44,0,0,0,317.68,156.1Z" transform="translate(0 0)" style="opacity:0.48;fill:url(#Áåçûìÿííûé_ãðàäèåíò_15)"/><path d="M309.54,151.42a7.56,7.56,0,0,0-3.41,5.93,2.42,2.42,0,0,0,1,2.21l-4.23-2.43h0a2.43,2.43,0,0,1-1-2.21A7.6,7.6,0,0,1,305.3,149a2.37,2.37,0,0,1,2.47-.2l4.13,2.37A2.44,2.44,0,0,0,309.54,151.42Z" transform="translate(0 0)" style="opacity:0.48;fill:url(#Áåçûìÿííûé_ãðàäèåíò_15-2)"/><path d="M301.25,146.66a7.59,7.59,0,0,0-3.41,5.93,2.42,2.42,0,0,0,1,2.21l-4.24-2.44h0a2.4,2.4,0,0,1-1-2.21,7.55,7.55,0,0,1,3.41-5.93,2.37,2.37,0,0,1,2.47-.21l4.12,2.37A2.45,2.45,0,0,0,301.25,146.66Z" transform="translate(0 0)" style="opacity:0.48;fill:url(#Áåçûìÿííûé_ãðàäèåíò_15-3)"/><path d="M333.36,189.22a6.45,6.45,0,0,0,0,.76l10.42,8.72L360.68,205l11.89-2.66,11.37-3.25,11.59-8.92.3-.24a10.31,10.31,0,0,0-.11-2.15l6.15-8.15a18.65,18.65,0,0,1,2.26,3.64l1.35-1.08v7.49h0c-.16,5.91-4.13,11.79-11.93,16.32-16,9.25-41.85,9.3-57.84.11-7.93-4.56-11.93-10.54-12-16.54h0v-.25l0-7.4,1.45,1.22a19.44,19.44,0,0,1,1.22-2.16C328.23,184.08,330,187.9,333.36,189.22Z" transform="translate(0 0)" style="fill:url(#Áåçûìÿííûé_ãðàäèåíò_66)"/><path d="M392.83,172.24l.66.36a28.31,28.31,0,0,1,8.38,7l-6.15,8.15c-.6-4.09-3.61-8.09-9.05-11.21-12.21-7-32-7-44.2.08-6,3.49-9,8-9.11,12.59-3.32-1.32-5.13-5.14-7-8.25a24.84,24.84,0,0,1,6.27-6.33l-1.4.29s9.61-8.35,10-8.43,19.6-5.18,19.6-5.18l21.66,1.91Z" transform="translate(0 0)" style="fill:url(#Áåçûìÿííûé_ãðàäèåíò_18-4)"/><ellipse cx="364.02" cy="184.47" rx="31.25" ry="18.04" transform="translate(-0.35 0.69) rotate(-0.11)" style="opacity:0.5;fill:url(#Áåçûìÿííûé_ãðàäèåíò_15-4)"/><ellipse cx="363.97" cy="186.66" rx="31.25" ry="18.04" transform="translate(-0.35 0.69) rotate(-0.11)" style="opacity:0.48;fill:url(#Áåçûìÿííûé_ãðàäèåíò_15-5)"/><path d="M393.48,165.26c-16-9.19-41.89-9.15-57.84.11s-15.93,24.2.06,33.39,41.88,9.14,57.84-.11S409.46,174.45,393.48,165.26Zm-6.82,4c12.22,7,12.24,18.45,0,25.52s-32,7.1-44.2.08-12.24-18.45-.05-25.52S374.45,162.18,386.66,169.21Z" transform="translate(0 0)" style="fill:#bcbeff"/><path d="M393.48,165.26c-16-9.19-41.89-9.15-57.84.11s-15.93,24.2.06,33.39,41.88,9.14,57.84-.11S409.46,174.45,393.48,165.26Zm-6.82,4c12.22,7,12.24,18.45,0,25.52s-32,7.1-44.2.08-12.24-18.45-.05-25.52S374.45,162.18,386.66,169.21Z" transform="translate(0 0)" style="fill:#bcbeff"/><path d="M335.49,198.13c16,9.19,41.88,9.14,57.84-.11,9.82-5.69,13.57-13.54,11.29-20.88,2.7,7.51-1,15.65-11.08,21.51-16,9.25-41.85,9.3-57.84.11-6.15-3.54-9.93-7.92-11.35-12.51C325.92,190.61,329.62,194.76,335.49,198.13Z" transform="translate(0 0)" style="fill:#fff"/><path d="M342.25,168.66c12.2-7.07,32-7.1,44.2-.08,4.74,2.72,7.63,6.1,8.7,9.64-1.21-3.31-4-6.45-8.49-9-12.21-7-32-7-44.2.08-7.46,4.33-10.34,10.3-8.65,15.88C331.7,179.41,334.51,173.16,342.25,168.66Z" transform="translate(0 0)" style="fill:#fff"/></g><path d="M262.67,307.24a5.45,5.45,0,0,1-2.69-.67L136.55,235.31a2.08,2.08,0,0,1-1.22-1.67,1.57,1.57,0,0,1,.89-1.33l73.66-42.52a5.27,5.27,0,0,1,4.77.19l123.43,71.26a2.09,2.09,0,0,1,1.23,1.67,1.58,1.58,0,0,1-.9,1.33l-73.65,42.52A4.19,4.19,0,0,1,262.67,307.24ZM136.76,235l123.43,71.26a4.85,4.85,0,0,0,4.36.19l73.65-42.53a1.16,1.16,0,0,0,.69-1,1.69,1.69,0,0,0-1-1.31L214.44,190.34a4.83,4.83,0,0,0-4.35-.19l-73.66,42.52a1.17,1.17,0,0,0-.68,1,1.7,1.7,0,0,0,1,1.31Z" transform="translate(0 0)" style="fill:#42e8e0"/><path d="M339.1,250.59l-6.8-1-117.75-68a5.07,5.07,0,0,0-4.57-.19l-70.13,40.49-4.31-.62V227h0a1.86,1.86,0,0,0,1.11,1.47l123.43,71.27a5,5,0,0,0,4.56.18l73.66-42.52a1.32,1.32,0,0,0,.77-1.17h0Z" transform="translate(0 0)" style="fill:url(#Áåçûìÿííûé_ãðàäèåíò_24)"/><path d="M136.66,222.82l123.43,71.26a5,5,0,0,0,4.56.19l73.66-42.53c1.17-.67,1-1.85-.33-2.63L214.55,177.85a5.07,5.07,0,0,0-4.57-.19l-73.65,42.52C135.16,220.86,135.3,222,136.66,222.82Z" transform="translate(0 0)" style="fill:url(#Áåçûìÿííûé_ãðàäèåíò_2)"/><path d="M147.34,224.21l110.33,63.7a4.54,4.54,0,0,0,4.08.17l65.83-38c1.05-.61.92-1.66-.29-2.36L217,184a4.51,4.51,0,0,0-4.08-.17l-65.84,38C146,222.46,146.14,223.52,147.34,224.21Z" transform="translate(0 0)" style="fill:#24126a;opacity:0.30000000000000004"/><path d="M338.31,251.12l-73.66,42.53a5,5,0,0,1-4.56-.19L136.66,222.2A2.09,2.09,0,0,1,135.6,221c-.19.6.17,1.28,1.06,1.8l123.43,71.26a5,5,0,0,0,4.56.19l73.66-42.53a1.26,1.26,0,0,0,.73-1.45A1.5,1.5,0,0,1,338.31,251.12Z" transform="translate(0 0)" style="fill:#fff"/><path d="M219.32,161.38,195.88,148a8.54,8.54,0,0,1-4.29-7.4V101.83H192v38.76a8.11,8.11,0,0,0,4.08,7L219.53,161Z" transform="translate(0 0)" style="fill:#42e8e0"/><path d="M214.33,155.63l15.6-92.57-1.25-.53,1.88-1.08h0a1.36,1.36,0,0,1,1.45.1l124.7,72a3.52,3.52,0,0,1,1.62,3.16L342.6,230a1.15,1.15,0,0,1-.66.95h0l-1.85,1.07-.31-1.73.1,0L216,158.8A3.52,3.52,0,0,1,214.33,155.63Z" transform="translate(0 0)" style="fill:url(#Áåçûìÿííûé_ãðàäèåíò_2-2)"/><path d="M356,136.09l2.05-.91a2.81,2.81,0,0,1,.27,1.54L342.6,230a1.15,1.15,0,0,1-.66.95h0l-1.85,1.07-.31-1.73.1,0-6.27-3.62Z" transform="translate(0 0)" style="fill:url(#Áåçûìÿííûé_ãðàäèåíò_24-2)"/><path d="M214,159.92l124.7,72c1,.56,1.79.24,2-.76l15.72-93.3a3.5,3.5,0,0,0-1.62-3.17l-124.7-72c-1-.55-1.78-.23-2,.76l-15.73,93.31A3.53,3.53,0,0,0,214,159.92Z" transform="translate(0 0)" style="fill:#24126a"/><g style="opacity:0.51"><polygon points="229.63 64.42 354.92 136.72 339.1 230.26 213.89 158.01 229.63 64.42" style="fill:#453c9e"/></g><path d="M135.6,204.09l6.81,3.56,68.24-39.4a4.94,4.94,0,0,1,4.45.18l117.69,67.95c1.13-.63,6.26-3.1,6.26-3.1l-2.49,4.05h0a1.51,1.51,0,0,1-.69.77L264,279.59a5,5,0,0,1-4.46-.18L139.1,209.87a2.12,2.12,0,0,1-1-1.07h0Z" transform="translate(0 0)" style="fill:url(#Áåçûìÿííûé_ãðàäèåíò_24-3)"/><path d="M136.66,205.21l123.43,71.26a5,5,0,0,0,4.56.19l73.66-42.52c1.17-.68,1-1.86-.33-2.64L214.55,160.24a5.07,5.07,0,0,0-4.57-.19l-73.65,42.53C135.16,203.25,135.3,204.43,136.66,205.21Z" transform="translate(0 0)" style="fill:url(#Áåçûìÿííûé_ãðàäèåíò_2-3)"/><path d="M136.66,204.66l123.43,71.26a5,5,0,0,0,4.56.19l73.66-42.52a1.49,1.49,0,0,0,.74-.87,1.26,1.26,0,0,1-.74,1.42l-73.66,42.52a5,5,0,0,1-4.56-.19L136.66,205.21c-.88-.5-1.24-1.18-1.07-1.77A2,2,0,0,0,136.66,204.66Z" transform="translate(0 0)" style="fill:#fff"/><g style="opacity:0.15"><g style="clip-path:url(#clip-path)"><path d="M213.84,159.32l6.8,3.55,68.24-39.4a4.94,4.94,0,0,1,4.45.19l117.7,68c1.12-.63,6.26-3.1,6.26-3.1l-2.49,4.05h0a1.5,1.5,0,0,1-.7.77l-71.87,41.5a5,5,0,0,1-4.45-.19L217.33,165.1a2.18,2.18,0,0,1-1-1.08h0Z" transform="translate(0 0)" style="fill:url(#Áåçûìÿííûé_ãðàäèåíò_24-4)"/><path d="M214.89,160.44,338.32,231.7a5.1,5.1,0,0,0,4.57.19l73.65-42.53c1.17-.67,1-1.85-.33-2.63L292.78,115.46a5.08,5.08,0,0,0-4.56-.19L214.56,157.8C213.39,158.48,213.54,159.66,214.89,160.44Z" transform="translate(0 0)" style="fill:url(#Áåçûìÿííûé_ãðàäèåíò_2-4)"/><path d="M416.21,186.73,292.78,115.46a5.41,5.41,0,0,0-3-.62,5.27,5.27,0,0,1,2.14.62L415.3,186.73c1.36.78,1.5,2,.33,2.63L342,231.89a3.75,3.75,0,0,1-1.52.43,4.41,4.41,0,0,0,2.43-.43l73.65-42.53C417.71,188.69,417.56,187.51,416.21,186.73Z" transform="translate(0 0)" style="fill:#fff"/><g style="opacity:0.5"><path d="M279.54,148.17l-4-2.29a1.34,1.34,0,0,0-1.2,0l-4.4,2.57c-.35.2-.37.51-.05.69l3.95,2.29a1.33,1.33,0,0,0,1.21,0l4.39-2.56C279.84,148.66,279.86,148.35,279.54,148.17Z" transform="translate(0 0)" style="fill:#24126a"/><path d="M285.65,151.7l-3.95-2.29a1.34,1.34,0,0,0-1.2,0L276.1,152c-.35.21-.37.52-.05.7L280,155a1.36,1.36,0,0,0,1.21,0l4.39-2.57C286,152.19,286,151.88,285.65,151.7Z" transform="translate(0 0)" style="fill:#24126a"/><path d="M291.76,155.22l-3.95-2.28a1.34,1.34,0,0,0-1.2,0l-4.4,2.57c-.35.2-.37.52,0,.7l3.95,2.28a1.33,1.33,0,0,0,1.21,0l4.39-2.57C292.06,155.72,292.08,155.41,291.76,155.22Z" transform="translate(0 0)" style="fill:#24126a"/><path d="M287.11,159.92l-4-2.29a1.34,1.34,0,0,0-1.2,0l-3.69,2.15c-.34.21-.37.52-.05.7l4,2.29a1.34,1.34,0,0,0,1.2,0l3.69-2.15C287.41,160.41,287.43,160.1,287.11,159.92Z" transform="translate(0 0)" style="fill:#24126a"/><path d="M293.22,163.45l-4-2.29a1.31,1.31,0,0,0-1.2,0l-3.69,2.15c-.34.2-.37.52-.05.7l4,2.28a1.31,1.31,0,0,0,1.2,0l3.69-2.16C293.52,163.94,293.54,163.63,293.22,163.45Z" transform="translate(0 0)" style="fill:#24126a"/><path d="M299.33,167l-4-2.28a1.34,1.34,0,0,0-1.2,0l-3.69,2.16c-.34.2-.37.51-.05.7l4,2.28a1.34,1.34,0,0,0,1.2,0l3.69-2.16C299.63,167.47,299.65,167.16,299.33,167Z" transform="translate(0 0)" style="fill:#24126a"/><path d="M305.44,170.5l-4-2.28a1.31,1.31,0,0,0-1.2,0l-3.69,2.16c-.34.2-.37.51,0,.69l4,2.29a1.34,1.34,0,0,0,1.2,0l3.69-2.16C305.74,171,305.76,170.68,305.44,170.5Z" transform="translate(0 0)" style="fill:#24126a"/><path d="M311.55,174l-4-2.29a1.34,1.34,0,0,0-1.2,0l-3.69,2.15c-.34.21-.36.52-.05.7l4,2.29a1.34,1.34,0,0,0,1.2,0l3.69-2.15C311.85,174.52,311.87,174.21,311.55,174Z" transform="translate(0 0)" style="fill:#24126a"/><path d="M317.66,177.56l-4-2.29a1.31,1.31,0,0,0-1.2,0l-3.69,2.15c-.34.2-.36.52-.05.7l4,2.28a1.31,1.31,0,0,0,1.2,0l3.69-2.16C318,178.05,318,177.74,317.66,177.56Z" transform="translate(0 0)" style="fill:#24126a"/><path d="M323.77,181.08l-3.95-2.28a1.36,1.36,0,0,0-1.21,0L314.92,181c-.34.2-.36.51-.05.7l4,2.28a1.31,1.31,0,0,0,1.2,0l3.69-2.16C324.07,181.58,324.09,181.27,323.77,181.08Z" transform="translate(0 0)" style="fill:#24126a"/><path d="M329.88,184.61l-3.95-2.28a1.33,1.33,0,0,0-1.21,0L321,184.52c-.34.2-.36.51,0,.7l4,2.28a1.34,1.34,0,0,0,1.2,0l3.69-2.16C330.18,185.11,330.2,184.8,329.88,184.61Z" transform="translate(0 0)" style="fill:#24126a"/><path d="M336,188.14,332,185.86a1.33,1.33,0,0,0-1.21,0l-3.69,2.16c-.34.2-.36.51-.05.69l4,2.29a1.31,1.31,0,0,0,1.2,0l3.69-2.15C336.29,188.64,336.31,188.32,336,188.14Z" transform="translate(0 0)" style="fill:#24126a"/><path d="M342.1,191.67l-4-2.29a1.33,1.33,0,0,0-1.21,0l-3.69,2.15c-.34.2-.36.52-.05.7l4,2.28a1.31,1.31,0,0,0,1.2,0l3.69-2.16C342.4,192.16,342.42,191.85,342.1,191.67Z" transform="translate(0 0)" style="fill:#24126a"/><path d="M284.57,165l-4-2.28a1.34,1.34,0,0,0-1.2,0l-3.69,2.16c-.35.2-.37.51-.05.7l3.95,2.28a1.34,1.34,0,0,0,1.2,0l3.7-2.16C284.86,165.45,284.88,165.14,284.57,165Z" transform="translate(0 0)" style="fill:#24126a"/><path d="M278.36,161.37l-3.95-2.28a1.34,1.34,0,0,0-1.2,0l-3.69,2.16c-.35.2-.37.51,0,.7l3.95,2.28a1.34,1.34,0,0,0,1.2,0l3.69-2.16C278.66,161.87,278.68,161.56,278.36,161.37Z" transform="translate(0 0)" style="fill:#24126a"/><path d="M272.15,157.79l-8.52-4.92a1.31,1.31,0,0,0-1.2,0l-3.69,2.16c-.35.2-.37.51-.05.7l8.52,4.91a1.31,1.31,0,0,0,1.2,0l3.69-2.15C272.45,158.28,272.47,158,272.15,157.79Z" transform="translate(0 0)" style="fill:#24126a"/><path d="M265,160.13l-6.92-4a1.34,1.34,0,0,0-1.2,0l-3.69,2.16c-.35.2-.37.51,0,.7l6.91,4a1.36,1.36,0,0,0,1.21,0l3.69-2.16C265.24,160.63,265.26,160.32,265,160.13Z" transform="translate(0 0)" style="fill:#24126a"/><path d="M290.68,168.48l-4-2.28a1.31,1.31,0,0,0-1.2,0l-3.69,2.16c-.35.2-.37.51-.05.69l4,2.29a1.34,1.34,0,0,0,1.2,0l3.7-2.16C291,169,291,168.67,290.68,168.48Z" transform="translate(0 0)" style="fill:#24126a"/><path d="M296.79,172l-4-2.28a1.31,1.31,0,0,0-1.2,0l-3.69,2.16c-.35.2-.37.51-.05.69l3.95,2.29a1.31,1.31,0,0,0,1.2,0l3.7-2.15C297.08,172.51,297.1,172.19,296.79,172Z" transform="translate(0 0)" style="fill:#24126a"/><path d="M302.9,175.54l-4-2.29a1.31,1.31,0,0,0-1.2,0l-3.69,2.15c-.35.2-.37.52-.05.7l3.95,2.28a1.31,1.31,0,0,0,1.2,0l3.7-2.16C303.19,176,303.21,175.72,302.9,175.54Z" transform="translate(0 0)" style="fill:#24126a"/><path d="M309,179.06l-4-2.28a1.34,1.34,0,0,0-1.2,0L300.16,179c-.35.2-.37.51-.05.7l3.95,2.28a1.31,1.31,0,0,0,1.2,0l3.7-2.16C309.3,179.56,309.32,179.25,309,179.06Z" transform="translate(0 0)" style="fill:#24126a"/><path d="M315.12,182.59l-4-2.28a1.31,1.31,0,0,0-1.2,0l-3.69,2.16c-.35.2-.37.51,0,.7l3.95,2.28a1.34,1.34,0,0,0,1.2,0l3.7-2.16C315.41,183.09,315.43,182.78,315.12,182.59Z" transform="translate(0 0)" style="fill:#24126a"/><path d="M321.23,186.12l-4-2.28a1.31,1.31,0,0,0-1.2,0L312.38,186c-.35.2-.37.51-.05.69l3.95,2.29a1.31,1.31,0,0,0,1.2,0l3.7-2.15C321.52,186.62,321.54,186.3,321.23,186.12Z" transform="translate(0 0)" style="fill:#24126a"/><path d="M327.34,189.65l-4-2.29a1.31,1.31,0,0,0-1.2,0l-3.69,2.15c-.35.21-.37.52-.05.7l3.95,2.29a1.34,1.34,0,0,0,1.2,0l3.7-2.15C327.63,190.14,327.65,189.83,327.34,189.65Z" transform="translate(0 0)" style="fill:#24126a"/><path d="M333.45,193.18l-4-2.29a1.34,1.34,0,0,0-1.2,0l-3.69,2.16c-.35.2-.37.52-.05.7l3.95,2.28a1.31,1.31,0,0,0,1.2,0l3.7-2.16C333.74,193.67,333.76,193.36,333.45,193.18Z" transform="translate(0 0)" style="fill:#24126a"/><path d="M339.56,196.7l-4-2.28a1.34,1.34,0,0,0-1.2,0l-3.69,2.16c-.35.2-.37.51,0,.7l3.95,2.28a1.34,1.34,0,0,0,1.2,0l3.7-2.16C339.85,197.2,339.87,196.89,339.56,196.7Z" transform="translate(0 0)" style="fill:#24126a"/><path d="M350.42,203l-8.63-5a1.34,1.34,0,0,0-1.2,0l-3.7,2.16c-.34.2-.36.51-.05.7l8.64,5a1.31,1.31,0,0,0,1.2,0l3.69-2.16C350.71,203.47,350.74,203.16,350.42,203Z" transform="translate(0 0)" style="fill:#24126a"/><path d="M339.22,209.52l-7.29-4.21a1.34,1.34,0,0,0-1.2,0L327,207.5c-.35.2-.37.52-.05.7l7.29,4.21a1.34,1.34,0,0,0,1.2,0l3.69-2.15C339.51,210,339.54,209.7,339.22,209.52Z" transform="translate(0 0)" style="fill:#24126a"/><path d="M289.83,174.5l-4-2.29a1.31,1.31,0,0,0-1.2,0L281,174.4c-.35.2-.37.52-.05.7l4,2.28a1.31,1.31,0,0,0,1.2,0l3.69-2.16C290.12,175,290.15,174.68,289.83,174.5Z" transform="translate(0 0)" style="fill:#24126a"/><path d="M283.57,170.88l-4-2.28a1.31,1.31,0,0,0-1.2,0l-3.69,2.16c-.35.2-.37.51-.05.7l3.95,2.28a1.34,1.34,0,0,0,1.2,0l3.7-2.16C283.86,171.38,283.88,171.07,283.57,170.88Z" transform="translate(0 0)" style="fill:#24126a"/><path d="M277.3,167.27,273.35,165a1.31,1.31,0,0,0-1.2,0l-3.69,2.15c-.35.2-.37.52-.06.7l4,2.28a1.31,1.31,0,0,0,1.2,0l3.69-2.16C277.6,167.76,277.62,167.45,277.3,167.27Z" transform="translate(0 0)" style="fill:#24126a"/><path d="M271,163.65l-4-2.28a1.31,1.31,0,0,0-1.2,0l-3.69,2.16c-.34.2-.36.51-.05.69l4,2.29a1.34,1.34,0,0,0,1.2,0l3.69-2.16C271.34,164.15,271.36,163.83,271,163.65Z" transform="translate(0 0)" style="fill:#24126a"/><path d="M295.94,178l-4-2.29a1.34,1.34,0,0,0-1.2,0l-3.69,2.16c-.35.2-.37.51,0,.7l4,2.28a1.31,1.31,0,0,0,1.2,0l3.69-2.16C296.23,178.52,296.26,178.21,295.94,178Z" transform="translate(0 0)" style="fill:#24126a"/><path d="M302.05,181.55l-4-2.28a1.34,1.34,0,0,0-1.2,0l-3.69,2.16c-.35.2-.37.51-.05.7l4,2.28a1.34,1.34,0,0,0,1.2,0l3.69-2.16C302.34,182.05,302.37,181.74,302.05,181.55Z" transform="translate(0 0)" style="fill:#24126a"/><path d="M308.16,185.08l-4-2.28a1.31,1.31,0,0,0-1.2,0L299.31,185c-.35.2-.37.51-.05.69l4,2.29a1.31,1.31,0,0,0,1.2,0l3.69-2.15C308.45,185.58,308.48,185.26,308.16,185.08Z" transform="translate(0 0)" style="fill:#24126a"/><path d="M314.27,188.61l-4-2.29a1.34,1.34,0,0,0-1.2,0l-3.69,2.15c-.35.21-.37.52-.05.7l4,2.29a1.34,1.34,0,0,0,1.2,0l3.69-2.15C314.56,189.1,314.59,188.79,314.27,188.61Z" transform="translate(0 0)" style="fill:#24126a"/><path d="M320.38,192.14l-4-2.29a1.34,1.34,0,0,0-1.2,0L311.53,192c-.35.2-.37.52,0,.7l4,2.28a1.31,1.31,0,0,0,1.2,0l3.69-2.16C320.67,192.63,320.7,192.32,320.38,192.14Z" transform="translate(0 0)" style="fill:#24126a"/><path d="M326.49,195.66l-4-2.28a1.34,1.34,0,0,0-1.2,0l-3.69,2.16c-.35.2-.37.51-.05.7l4,2.28a1.34,1.34,0,0,0,1.2,0l3.69-2.16C326.78,196.16,326.81,195.85,326.49,195.66Z" transform="translate(0 0)" style="fill:#24126a"/><path d="M332.6,199.19l-4-2.28a1.31,1.31,0,0,0-1.2,0l-3.69,2.16c-.35.2-.37.51-.05.69l4,2.29a1.34,1.34,0,0,0,1.2,0l3.69-2.16C332.89,199.69,332.92,199.37,332.6,199.19Z" transform="translate(0 0)" style="fill:#24126a"/><path d="M338.71,202.72l-4-2.29a1.34,1.34,0,0,0-1.2,0l-3.69,2.15c-.35.21-.37.52-.05.7l4,2.29a1.34,1.34,0,0,0,1.2,0l3.69-2.15C339,203.21,339,202.9,338.71,202.72Z" transform="translate(0 0)" style="fill:#24126a"/><path d="M344.82,206.25l-4-2.29a1.31,1.31,0,0,0-1.2,0L336,206.15c-.35.2-.37.52-.05.7l4,2.28a1.31,1.31,0,0,0,1.2,0l3.69-2.16C345.11,206.74,345.14,206.43,344.82,206.25Z" transform="translate(0 0)" style="fill:#24126a"/><path d="M275.06,172.48l-3.95-2.29a1.36,1.36,0,0,0-1.21,0l-3.69,2.15c-.34.21-.36.52,0,.7l4,2.29a1.34,1.34,0,0,0,1.2,0l3.69-2.15C275.36,173,275.38,172.66,275.06,172.48Z" transform="translate(0 0)" style="fill:#24126a"/><path d="M269,169l-4-2.29a1.31,1.31,0,0,0-1.2,0l-3.7,2.15c-.34.21-.36.52-.05.7l4,2.29a1.34,1.34,0,0,0,1.2,0l3.69-2.15C269.28,169.46,269.3,169.15,269,169Z" transform="translate(0 0)" style="fill:#24126a"/><path d="M262.9,165.46,259,163.17a1.31,1.31,0,0,0-1.2,0l-3.7,2.15c-.34.21-.36.52-.05.7l4,2.29a1.34,1.34,0,0,0,1.2,0l3.69-2.15C263.2,166,263.22,165.64,262.9,165.46Z" transform="translate(0 0)" style="fill:#24126a"/><path d="M256.82,162l-3.95-2.29a1.31,1.31,0,0,0-1.2,0l-3.7,2.15c-.34.2-.36.52-.05.7l4,2.28a1.31,1.31,0,0,0,1.2,0l3.69-2.15C257.12,162.44,257.14,162.13,256.82,162Z" transform="translate(0 0)" style="fill:#24126a"/><path d="M250.94,165.39l-4-2.29a1.31,1.31,0,0,0-1.2,0l-1.22.71c-.35.2-.37.51-.05.7l4,2.28a1.34,1.34,0,0,0,1.2,0l1.22-.72C251.23,165.88,251.25,165.57,250.94,165.39Z" transform="translate(0 0)" style="fill:#24126a"/><path d="M258.87,170l-4-2.29a1.31,1.31,0,0,0-1.2,0l-1.22.71c-.34.2-.36.51-.05.7l4,2.28a1.34,1.34,0,0,0,1.2,0l1.22-.72C259.17,170.46,259.19,170.15,258.87,170Z" transform="translate(0 0)" style="fill:#24126a"/><path d="M264.92,173.46,261,171.18a1.34,1.34,0,0,0-1.2,0l-1.22.71c-.35.21-.37.52-.05.7l3.95,2.29a1.31,1.31,0,0,0,1.2,0l1.22-.71C265.22,174,265.24,173.65,264.92,173.46Z" transform="translate(0 0)" style="fill:#24126a"/><path d="M271,177l-4-2.29a1.34,1.34,0,0,0-1.2,0l-1.22.71c-.34.2-.37.51-.05.7l4,2.28a1.31,1.31,0,0,0,1.2,0l1.22-.71C271.27,177.45,271.3,177.14,271,177Z" transform="translate(0 0)" style="fill:#24126a"/><path d="M277,180.45l-3.95-2.28a1.34,1.34,0,0,0-1.2,0l-1.22.72c-.35.2-.37.51-.05.69l3.95,2.29a1.31,1.31,0,0,0,1.2,0l1.22-.71C277.33,181,277.35,180.64,277,180.45Z" transform="translate(0 0)" style="fill:#24126a"/><path d="M310.83,200l-3.95-2.29a1.34,1.34,0,0,0-1.2,0l-1.22.71c-.35.2-.37.51,0,.7l3.95,2.28a1.31,1.31,0,0,0,1.2,0l1.22-.71C311.13,200.46,311.15,200.15,310.83,200Z" transform="translate(0 0)" style="fill:#24126a"/><path d="M316.89,203.46l-4-2.28a1.34,1.34,0,0,0-1.2,0l-1.22.72c-.34.2-.37.51-.05.69l4,2.29a1.31,1.31,0,0,0,1.2,0l1.22-.71C317.18,204,317.21,203.65,316.89,203.46Z" transform="translate(0 0)" style="fill:#24126a"/><path d="M322.94,207,319,204.68a1.31,1.31,0,0,0-1.2,0l-1.22.71c-.35.2-.37.52-.05.7l4,2.28a1.31,1.31,0,0,0,1.2,0l1.22-.71C323.24,207.46,323.26,207.14,322.94,207Z" transform="translate(0 0)" style="fill:#24126a"/><path d="M329,210.46l-4-2.29a1.34,1.34,0,0,0-1.2,0l-1.22.72c-.35.2-.37.51-.05.69l4,2.29a1.34,1.34,0,0,0,1.2,0l1.22-.72C329.29,211,329.31,210.64,329,210.46Z" transform="translate(0 0)" style="fill:#24126a"/><path d="M281.17,176l-3.95-2.29a1.34,1.34,0,0,0-1.2,0l-3.7,2.16c-.34.2-.36.52-.05.7l4,2.28a1.31,1.31,0,0,0,1.2,0l3.69-2.16C281.47,176.5,281.49,176.19,281.17,176Z" transform="translate(0 0)" style="fill:#24126a"/><path d="M287.28,179.53l-3.95-2.28a1.34,1.34,0,0,0-1.2,0l-3.7,2.16c-.34.2-.36.51-.05.7l4,2.28a1.34,1.34,0,0,0,1.2,0l3.69-2.16C287.58,180,287.6,179.72,287.28,179.53Z" transform="translate(0 0)" style="fill:#24126a"/><path d="M293.39,183.06l-3.95-2.28a1.31,1.31,0,0,0-1.2,0l-3.7,2.16c-.34.2-.36.51-.05.69l4,2.29a1.31,1.31,0,0,0,1.2,0l3.69-2.15C293.69,183.56,293.71,183.24,293.39,183.06Z" transform="translate(0 0)" style="fill:#24126a"/><path d="M299.5,186.59l-3.95-2.29a1.34,1.34,0,0,0-1.2,0l-3.7,2.15c-.34.21-.36.52,0,.7l4,2.29a1.34,1.34,0,0,0,1.2,0l3.69-2.15C299.8,187.08,299.82,186.77,299.5,186.59Z" transform="translate(0 0)" style="fill:#24126a"/><path d="M305.61,190.12l-3.95-2.29a1.31,1.31,0,0,0-1.2,0l-3.7,2.15c-.34.2-.36.52-.05.7l4,2.28a1.31,1.31,0,0,0,1.2,0l3.69-2.16C305.91,190.61,305.93,190.3,305.61,190.12Z" transform="translate(0 0)" style="fill:#24126a"/><path d="M311.72,193.64l-4-2.28a1.34,1.34,0,0,0-1.2,0l-3.7,2.16c-.34.2-.36.51-.05.7l4,2.28a1.34,1.34,0,0,0,1.2,0l3.69-2.16C312,194.14,312,193.83,311.72,193.64Z" transform="translate(0 0)" style="fill:#24126a"/><path d="M317.83,197.17l-3.95-2.28a1.31,1.31,0,0,0-1.2,0l-3.7,2.16c-.34.2-.36.51-.05.69l4,2.29a1.34,1.34,0,0,0,1.2,0l3.69-2.16C318.13,197.67,318.15,197.35,317.83,197.17Z" transform="translate(0 0)" style="fill:#24126a"/><path d="M323.94,200.7,320,198.41a1.34,1.34,0,0,0-1.2,0l-3.7,2.15c-.34.21-.36.52,0,.7l4,2.29a1.31,1.31,0,0,0,1.2,0l3.69-2.15C324.24,201.19,324.26,200.88,323.94,200.7Z" transform="translate(0 0)" style="fill:#24126a"/><path d="M330.05,204.23l-3.95-2.29a1.31,1.31,0,0,0-1.2,0l-3.7,2.15c-.34.2-.36.52-.05.7l4,2.28a1.31,1.31,0,0,0,1.2,0l3.69-2.16C330.35,204.72,330.37,204.41,330.05,204.23Z" transform="translate(0 0)" style="fill:#24126a"/><path d="M280.88,156.32l-11.65-6.72a1.31,1.31,0,0,0-1.2,0l-3.69,2.16c-.35.2-.37.51,0,.69l11.65,6.73a1.34,1.34,0,0,0,1.2,0l3.69-2.16C281.18,156.82,281.2,156.51,280.88,156.32Z" transform="translate(0 0)" style="fill:#24126a"/><path d="M356,199.66l-11.65-6.73a1.34,1.34,0,0,0-1.2,0l-3.7,2.15c-.34.21-.36.52,0,.7L351,202.55a1.34,1.34,0,0,0,1.2,0l3.69-2.16C356.24,200.16,356.27,199.85,356,199.66Z" transform="translate(0 0)" style="fill:#24126a"/><path d="M344.62,185.74l-4-2.29a1.34,1.34,0,0,0-1.2,0l-4.4,2.57c-.34.2-.37.51-.05.69l4,2.29a1.31,1.31,0,0,0,1.2,0l4.4-2.56C344.91,186.23,344.93,185.92,344.62,185.74Z" transform="translate(0 0)" style="fill:#24126a"/><path d="M300.24,160.12l-6.32-3.65a1.31,1.31,0,0,0-1.2,0l-4.4,2.57c-.35.2-.37.51-.05.7l6.33,3.65a1.34,1.34,0,0,0,1.2,0l4.39-2.57C300.54,160.62,300.56,160.3,300.24,160.12Z" transform="translate(0 0)" style="fill:#24126a"/><path d="M338.73,182.34l-6.33-3.65a1.31,1.31,0,0,0-1.2,0l-4.4,2.57c-.34.2-.36.51-.05.7l6.33,3.65a1.34,1.34,0,0,0,1.2,0l4.4-2.57C339,182.83,339.05,182.52,338.73,182.34Z" transform="translate(0 0)" style="fill:#24126a"/><path d="M309.06,165.21l-6.33-3.65a1.31,1.31,0,0,0-1.2,0l-4.4,2.57c-.34.2-.36.51-.05.7l6.33,3.65a1.34,1.34,0,0,0,1.2,0l4.4-2.57C309.35,165.71,309.38,165.39,309.06,165.21Z" transform="translate(0 0)" style="fill:#24126a"/><path d="M297.13,164.88l27.51,15.88a1.31,1.31,0,0,0,1.2,0l4.48-2.62c.32-.19.31-.5,0-.7l-27.52-15.88Z" transform="translate(0 0)" style="fill:#24126a"/><path d="M355.87,195.52l4.41,2.54a1.06,1.06,0,0,0,1,0l1.8-1.05c.28-.16.3-.42,0-.57l-4.41-2.54a1.09,1.09,0,0,0-1,0l-1.8,1.05C355.63,195.11,355.61,195.37,355.87,195.52Z" transform="translate(0 0)" style="fill:#24126a"/><path d="M349.71,192l4.41,2.54a1.09,1.09,0,0,0,1,0l1.8-1.06c.28-.16.3-.42,0-.57l-4.41-2.54a1.06,1.06,0,0,0-1,0l-1.8,1C349.47,191.55,349.45,191.81,349.71,192Z" transform="translate(0 0)" style="fill:#24126a"/><path d="M343.6,188.43,348,191a1.09,1.09,0,0,0,1,0l1.8-1c.28-.17.3-.42,0-.57l-4.41-2.55a1.06,1.06,0,0,0-1,0l-1.8,1.05C343.36,188,343.34,188.28,343.6,188.43Z" transform="translate(0 0)" style="fill:#24126a"/><path d="M346.53,193.81l4.41,2.55a1.06,1.06,0,0,0,1,0l1.8-1.05c.28-.16.3-.42,0-.57l-4.4-2.55a1.11,1.11,0,0,0-1,0l-1.8,1.05C346.29,193.41,346.27,193.66,346.53,193.81Z" transform="translate(0 0)" style="fill:#24126a"/></g></g></g><g style="opacity:0.8"><path d="M193.43,197.32l-3.92-2.26c-.31-.18-.27-.5.09-.71l4.63-2.67a1.35,1.35,0,0,1,1.22-.05l3.92,2.26c.32.18.28.5-.09.71l-4.62,2.67A1.37,1.37,0,0,1,193.43,197.32Z" transform="translate(0 0)" style="fill:#24126a"/><path d="M199.48,200.81l-3.91-2.26c-.32-.18-.28-.5.08-.71l4.63-2.67a1.37,1.37,0,0,1,1.23,0l3.91,2.26c.32.19.28.5-.08.71l-4.63,2.67A1.37,1.37,0,0,1,199.48,200.81Z" transform="translate(0 0)" style="fill:#24126a"/><path d="M205.53,204.31,201.62,202c-.32-.18-.28-.49.08-.7l4.63-2.67a1.38,1.38,0,0,1,1.23-.06l3.92,2.27c.31.18.27.5-.09.71l-4.63,2.67A1.37,1.37,0,0,1,205.53,204.31Z" transform="translate(0 0)" style="fill:#24126a"/><path d="M213.9,201.42,210,199.16c-.32-.18-.28-.5.08-.71l3.89-2.24a1.35,1.35,0,0,1,1.22-.05l3.92,2.26c.32.18.28.5-.09.71l-3.88,2.24A1.37,1.37,0,0,1,213.9,201.42Z" transform="translate(0 0)" style="fill:#24126a"/><path d="M220,204.92,216,202.65c-.32-.18-.28-.5.08-.71L220,199.7a1.35,1.35,0,0,1,1.22,0l3.92,2.26c.32.19.28.5-.08.71l-3.89,2.24A1.36,1.36,0,0,1,220,204.92Z" transform="translate(0 0)" style="fill:#24126a"/><path d="M226,208.41l-3.92-2.26c-.32-.18-.28-.5.09-.71l3.88-2.24a1.34,1.34,0,0,1,1.23,0l3.91,2.26c.32.18.28.5-.08.71l-3.89,2.24A1.35,1.35,0,0,1,226,208.41Z" transform="translate(0 0)" style="fill:#24126a"/><path d="M232.06,211.9l-3.92-2.26c-.32-.18-.28-.5.09-.71l3.88-2.24a1.37,1.37,0,0,1,1.23-.05l3.92,2.26c.31.18.27.5-.09.71l-3.89,2.24A1.35,1.35,0,0,1,232.06,211.9Z" transform="translate(0 0)" style="fill:#24126a"/><path d="M238.11,215.4l-3.92-2.27c-.31-.18-.27-.49.09-.7l3.88-2.25a1.37,1.37,0,0,1,1.23-.05l3.92,2.27c.31.18.27.49-.09.7l-3.88,2.25A1.37,1.37,0,0,1,238.11,215.4Z" transform="translate(0 0)" style="fill:#24126a"/><path d="M244.16,218.89l-3.92-2.26c-.31-.18-.27-.5.09-.71l3.88-2.24a1.37,1.37,0,0,1,1.23-.05l3.92,2.26c.31.18.27.5-.09.71l-3.88,2.24A1.37,1.37,0,0,1,244.16,218.89Z" transform="translate(0 0)" style="fill:#24126a"/><path d="M250.21,222.38l-3.92-2.26c-.31-.18-.27-.5.09-.71l3.88-2.24a1.37,1.37,0,0,1,1.23,0l3.92,2.26c.31.18.27.5-.09.71l-3.88,2.24A1.34,1.34,0,0,1,250.21,222.38Z" transform="translate(0 0)" style="fill:#24126a"/><path d="M256.26,225.88l-3.92-2.26c-.31-.19-.27-.5.09-.71l3.88-2.25a1.41,1.41,0,0,1,1.23,0l3.92,2.27c.31.18.28.5-.09.7l-3.88,2.25A1.37,1.37,0,0,1,256.26,225.88Z" transform="translate(0 0)" style="fill:#24126a"/><path d="M262.31,229.37l-3.91-2.26c-.32-.18-.28-.5.08-.71l3.89-2.24a1.35,1.35,0,0,1,1.22,0l3.92,2.26c.32.18.28.5-.09.71l-3.88,2.24A1.37,1.37,0,0,1,262.31,229.37Z" transform="translate(0 0)" style="fill:#24126a"/><path d="M268.36,232.86l-3.91-2.26c-.32-.18-.28-.5.08-.71l3.89-2.24a1.35,1.35,0,0,1,1.22-.05l3.92,2.26c.32.19.28.5-.09.71l-3.88,2.24A1.34,1.34,0,0,1,268.36,232.86Z" transform="translate(0 0)" style="fill:#24126a"/><path d="M222.82,199.77l-3.92-2.26c-.31-.19-.27-.5.09-.71l3.88-2.24a1.38,1.38,0,0,1,1.23-.06l3.92,2.27c.31.18.27.5-.09.71l-3.88,2.24A1.37,1.37,0,0,1,222.82,199.77Z" transform="translate(0 0)" style="fill:#24126a"/><path d="M216.68,196.22,212.76,194c-.31-.18-.28-.5.09-.71l3.88-2.24a1.37,1.37,0,0,1,1.23,0l3.92,2.26c.31.18.27.5-.09.71l-3.88,2.24A1.37,1.37,0,0,1,216.68,196.22Z" transform="translate(0 0)" style="fill:#24126a"/><path d="M210.53,192.67l-8.44-4.87c-.32-.18-.28-.5.09-.71l3.88-2.24a1.37,1.37,0,0,1,1.23,0l8.44,4.87c.31.18.27.5-.09.71l-3.89,2.24A1.35,1.35,0,0,1,210.53,192.67Z" transform="translate(0 0)" style="fill:#24126a"/><path d="M214.83,188.35,208,184.4c-.32-.18-.28-.5.09-.71l3.88-2.24a1.34,1.34,0,0,1,1.23,0l6.84,3.95c.32.18.28.5-.08.71l-3.89,2.24A1.35,1.35,0,0,1,214.83,188.35Z" transform="translate(0 0)" style="fill:#24126a"/><path d="M228.87,203.26,225,201c-.31-.18-.27-.5.09-.71l3.88-2.24a1.37,1.37,0,0,1,1.23-.05l3.92,2.26c.31.18.27.5-.09.71l-3.88,2.24A1.37,1.37,0,0,1,228.87,203.26Z" transform="translate(0 0)" style="fill:#24126a"/><path d="M234.92,206.76,231,204.49c-.31-.18-.27-.5.09-.71l3.88-2.24a1.37,1.37,0,0,1,1.23,0l3.92,2.26c.32.19.28.5-.09.71l-3.88,2.24A1.38,1.38,0,0,1,234.92,206.76Z" transform="translate(0 0)" style="fill:#24126a"/><path d="M241,210.25,237.06,208c-.32-.19-.28-.5.08-.71L241,205a1.32,1.32,0,0,1,1.22,0l3.92,2.26c.32.18.28.5-.09.71l-3.88,2.24A1.37,1.37,0,0,1,241,210.25Z" transform="translate(0 0)" style="fill:#24126a"/><path d="M247,213.74l-3.91-2.26c-.32-.18-.28-.5.08-.71l3.89-2.24a1.35,1.35,0,0,1,1.22-.05l3.92,2.26c.32.18.28.5-.09.71l-3.88,2.24A1.37,1.37,0,0,1,247,213.74Z" transform="translate(0 0)" style="fill:#24126a"/><path d="M253.08,217.24,249.16,215c-.32-.18-.28-.5.09-.7l3.88-2.25a1.37,1.37,0,0,1,1.23-.05l3.91,2.26c.32.19.28.5-.08.71l-3.89,2.25A1.38,1.38,0,0,1,253.08,217.24Z" transform="translate(0 0)" style="fill:#24126a"/><path d="M259.13,220.73l-3.92-2.26c-.32-.18-.28-.5.09-.71l3.88-2.24a1.34,1.34,0,0,1,1.23-.05l3.92,2.26c.31.18.27.5-.09.71l-3.89,2.24A1.35,1.35,0,0,1,259.13,220.73Z" transform="translate(0 0)" style="fill:#24126a"/><path d="M265.18,224.22,261.26,222c-.31-.18-.28-.5.09-.71l3.88-2.24a1.37,1.37,0,0,1,1.23,0l3.92,2.26c.31.18.27.5-.09.71l-3.88,2.24A1.37,1.37,0,0,1,265.18,224.22Z" transform="translate(0 0)" style="fill:#24126a"/><path d="M271.23,227.72l-3.92-2.27c-.31-.18-.27-.49.09-.7l3.88-2.25a1.37,1.37,0,0,1,1.23-.05l3.92,2.27c.31.18.27.49-.09.7l-3.88,2.25A1.37,1.37,0,0,1,271.23,227.72Z" transform="translate(0 0)" style="fill:#24126a"/><path d="M277.28,231.21,273.36,229c-.31-.18-.27-.5.09-.71l3.88-2.24a1.37,1.37,0,0,1,1.23-.05l3.92,2.26c.31.18.27.5-.09.71l-3.88,2.24A1.37,1.37,0,0,1,277.28,231.21Z" transform="translate(0 0)" style="fill:#24126a"/><path d="M288,237.42l-8.55-4.93c-.32-.19-.28-.5.09-.71l3.88-2.24a1.38,1.38,0,0,1,1.23-.06l8.55,4.94c.31.18.27.5-.09.71l-3.88,2.24A1.37,1.37,0,0,1,288,237.42Z" transform="translate(0 0)" style="fill:#24126a"/><path d="M299.82,230.62l-7.22-4.17c-.31-.18-.27-.5.09-.71l3.88-2.24a1.37,1.37,0,0,1,1.23-.05l7.22,4.17c.31.18.27.5-.09.71l-3.88,2.24A1.37,1.37,0,0,1,299.82,230.62Z" transform="translate(0 0)" style="fill:#24126a"/><path d="M239.47,202.58l-3.92-2.26c-.31-.19-.28-.5.09-.71l3.88-2.24a1.38,1.38,0,0,1,1.23-.06l3.92,2.27c.31.18.27.5-.09.71l-3.88,2.24A1.37,1.37,0,0,1,239.47,202.58Z" transform="translate(0 0)" style="fill:#24126a"/><path d="M233.27,199l-3.92-2.26c-.32-.19-.28-.5.09-.71l3.88-2.25a1.41,1.41,0,0,1,1.23-.05l3.91,2.27c.32.18.28.5-.08.7L234.49,199A1.35,1.35,0,0,1,233.27,199Z" transform="translate(0 0)" style="fill:#24126a"/><path d="M227.06,195.42l-3.91-2.27c-.32-.18-.28-.49.08-.7l3.89-2.25a1.35,1.35,0,0,1,1.22,0l3.92,2.27c.32.18.28.49-.09.7l-3.88,2.25A1.37,1.37,0,0,1,227.06,195.42Z" transform="translate(0 0)" style="fill:#24126a"/><path d="M220.86,191.84l-3.92-2.27c-.31-.18-.27-.5.09-.7l3.89-2.25a1.35,1.35,0,0,1,1.22-.05l3.92,2.27c.32.18.28.49-.09.7l-3.88,2.25A1.37,1.37,0,0,1,220.86,191.84Z" transform="translate(0 0)" style="fill:#24126a"/><path d="M245.52,206.07l-3.92-2.26c-.31-.18-.27-.5.09-.71l3.88-2.24a1.37,1.37,0,0,1,1.23-.05l3.92,2.26c.31.18.27.5-.09.71L246.75,206A1.37,1.37,0,0,1,245.52,206.07Z" transform="translate(0 0)" style="fill:#24126a"/><path d="M251.57,209.57l-3.92-2.27c-.31-.18-.27-.5.09-.71l3.88-2.24a1.37,1.37,0,0,1,1.23,0l3.92,2.26c.31.19.27.5-.09.71l-3.88,2.24A1.38,1.38,0,0,1,251.57,209.57Z" transform="translate(0 0)" style="fill:#24126a"/><path d="M257.62,213.06l-3.92-2.26c-.31-.19-.27-.5.09-.71l3.88-2.24a1.34,1.34,0,0,1,1.23,0l3.92,2.26c.31.18.27.5-.09.71L258.85,213A1.37,1.37,0,0,1,257.62,213.06Z" transform="translate(0 0)" style="fill:#24126a"/><path d="M263.67,216.55l-3.92-2.26c-.31-.18-.27-.5.09-.71l3.89-2.24a1.35,1.35,0,0,1,1.22-.05l3.92,2.26c.32.18.28.5-.09.71l-3.88,2.24A1.37,1.37,0,0,1,263.67,216.55Z" transform="translate(0 0)" style="fill:#24126a"/><path d="M269.72,220.05l-3.91-2.27c-.32-.18-.28-.5.08-.7l3.89-2.25a1.35,1.35,0,0,1,1.22-.05l3.92,2.27c.32.18.28.49-.09.7L271,220A1.41,1.41,0,0,1,269.72,220.05Z" transform="translate(0 0)" style="fill:#24126a"/><path d="M275.78,223.54l-3.92-2.26c-.32-.18-.28-.5.08-.71l3.89-2.24a1.32,1.32,0,0,1,1.22-.05l3.92,2.26c.32.18.28.5-.08.71L277,223.49A1.35,1.35,0,0,1,275.78,223.54Z" transform="translate(0 0)" style="fill:#24126a"/><path d="M281.83,227l-3.92-2.26c-.32-.18-.28-.5.09-.71l3.88-2.24a1.37,1.37,0,0,1,1.23,0L287,224c.32.18.28.5-.08.71L283.05,227A1.32,1.32,0,0,1,281.83,227Z" transform="translate(0 0)" style="fill:#24126a"/><path d="M287.88,230.53,284,228.26c-.32-.18-.28-.49.09-.7l3.88-2.25a1.37,1.37,0,0,1,1.23-.05l3.92,2.27c.31.18.27.49-.09.7l-3.88,2.25A1.37,1.37,0,0,1,287.88,230.53Z" transform="translate(0 0)" style="fill:#24126a"/><path d="M293.93,234,290,231.76c-.31-.18-.27-.5.09-.71l3.88-2.24a1.37,1.37,0,0,1,1.23-.05l3.92,2.26c.31.18.27.5-.09.71L295.16,234A1.37,1.37,0,0,1,293.93,234Z" transform="translate(0 0)" style="fill:#24126a"/><path d="M236.28,193.94l-3.92-2.27c-.31-.18-.27-.49.09-.7l3.88-2.25a1.37,1.37,0,0,1,1.23-.05l3.92,2.27c.31.18.28.49-.09.7l-3.88,2.25A1.37,1.37,0,0,1,236.28,193.94Z" transform="translate(0 0)" style="fill:#24126a"/><path d="M230.26,190.46l-3.92-2.26c-.31-.18-.27-.5.09-.71l3.88-2.24a1.37,1.37,0,0,1,1.23-.05l3.92,2.26c.31.18.27.5-.09.71l-3.88,2.24A1.37,1.37,0,0,1,230.26,190.46Z" transform="translate(0 0)" style="fill:#24126a"/><path d="M224.24,187l-3.92-2.26c-.31-.18-.27-.5.09-.71l3.88-2.24a1.37,1.37,0,0,1,1.23-.05l3.92,2.26c.31.18.27.5-.09.71l-3.88,2.24A1.34,1.34,0,0,1,224.24,187Z" transform="translate(0 0)" style="fill:#24126a"/><path d="M218.22,183.51l-3.92-2.26c-.31-.19-.28-.5.09-.71l3.88-2.24a1.38,1.38,0,0,1,1.23-.06l3.92,2.27c.31.18.27.5-.09.71l-3.88,2.24A1.37,1.37,0,0,1,218.22,183.51Z" transform="translate(0 0)" style="fill:#24126a"/><path d="M224.41,179.93l-3.92-2.26c-.31-.18-.27-.5.09-.71l1.28-.74a1.37,1.37,0,0,1,1.23-.05l3.92,2.26c.31.18.27.5-.09.71l-1.28.74A1.37,1.37,0,0,1,224.41,179.93Z" transform="translate(0 0)" style="fill:#24126a"/><path d="M232.27,184.47l-3.92-2.26c-.32-.18-.28-.5.09-.71l1.28-.74a1.37,1.37,0,0,1,1.23,0l3.92,2.26c.31.18.27.5-.09.71l-1.28.74A1.37,1.37,0,0,1,232.27,184.47Z" transform="translate(0 0)" style="fill:#24126a"/><path d="M238.26,187.93l-3.91-2.26c-.32-.18-.28-.5.08-.71l1.29-.74a1.35,1.35,0,0,1,1.22-.05l3.92,2.26c.32.18.28.5-.09.71l-1.28.74A1.37,1.37,0,0,1,238.26,187.93Z" transform="translate(0 0)" style="fill:#24126a"/><path d="M244.26,191.39l-3.92-2.26c-.31-.18-.27-.5.09-.71l1.28-.74a1.37,1.37,0,0,1,1.23-.05l3.92,2.26c.31.18.27.5-.09.71l-1.28.74A1.37,1.37,0,0,1,244.26,191.39Z" transform="translate(0 0)" style="fill:#24126a"/><path d="M250.26,194.85l-3.92-2.26c-.32-.18-.28-.5.09-.71l1.28-.74a1.37,1.37,0,0,1,1.23,0l3.91,2.26c.32.19.28.5-.08.71l-1.29.74A1.32,1.32,0,0,1,250.26,194.85Z" transform="translate(0 0)" style="fill:#24126a"/><path d="M283.73,214.18l-3.92-2.26c-.31-.18-.27-.5.09-.71l1.28-.74a1.37,1.37,0,0,1,1.23-.05l3.92,2.26c.31.18.27.5-.09.71l-1.28.74A1.37,1.37,0,0,1,283.73,214.18Z" transform="translate(0 0)" style="fill:#24126a"/><path d="M289.73,217.64l-3.92-2.26c-.32-.18-.28-.5.09-.71l1.28-.74a1.37,1.37,0,0,1,1.23-.05l3.92,2.26c.31.18.27.5-.09.71l-1.29.74A1.32,1.32,0,0,1,289.73,217.64Z" transform="translate(0 0)" style="fill:#24126a"/><path d="M295.72,221.11l-3.92-2.27c-.31-.18-.27-.5.09-.71l1.29-.74a1.35,1.35,0,0,1,1.22,0l3.92,2.26c.32.19.28.5-.09.71l-1.28.74A1.38,1.38,0,0,1,295.72,221.11Z" transform="translate(0 0)" style="fill:#24126a"/><path d="M301.72,224.57l-3.92-2.27c-.31-.18-.28-.49.09-.7l1.28-.75a1.41,1.41,0,0,1,1.23,0l3.92,2.27c.31.18.27.5-.09.71l-1.28.74A1.37,1.37,0,0,1,301.72,224.57Z" transform="translate(0 0)" style="fill:#24126a"/><path d="M242.33,197.43l-3.92-2.26c-.31-.18-.27-.5.09-.71l3.89-2.24a1.35,1.35,0,0,1,1.22-.05l3.92,2.26c.32.18.28.5-.09.71l-3.88,2.24A1.37,1.37,0,0,1,242.33,197.43Z" transform="translate(0 0)" style="fill:#24126a"/><path d="M248.38,200.92l-3.91-2.26c-.32-.18-.28-.5.08-.71l3.89-2.24a1.35,1.35,0,0,1,1.22-.05l3.92,2.26c.32.18.28.5-.09.71l-3.88,2.24A1.34,1.34,0,0,1,248.38,200.92Z" transform="translate(0 0)" style="fill:#24126a"/><path d="M254.44,204.42l-3.92-2.26c-.32-.19-.28-.5.09-.71l3.88-2.25a1.41,1.41,0,0,1,1.23,0l3.91,2.27c.32.18.28.5-.08.71l-3.89,2.24A1.35,1.35,0,0,1,254.44,204.42Z" transform="translate(0 0)" style="fill:#24126a"/><path d="M260.49,207.91l-3.92-2.26c-.32-.18-.28-.5.09-.71l3.88-2.24a1.37,1.37,0,0,1,1.23,0l3.91,2.26c.32.18.28.5-.08.71l-3.89,2.24A1.35,1.35,0,0,1,260.49,207.91Z" transform="translate(0 0)" style="fill:#24126a"/><path d="M266.54,211.4l-3.92-2.26c-.32-.18-.28-.5.09-.71l3.88-2.24a1.37,1.37,0,0,1,1.23-.05l3.92,2.26c.31.19.27.5-.09.71l-3.88,2.24A1.34,1.34,0,0,1,266.54,211.4Z" transform="translate(0 0)" style="fill:#24126a"/><path d="M272.59,214.9l-3.92-2.26c-.31-.19-.27-.5.09-.71l3.88-2.24a1.34,1.34,0,0,1,1.23-.05l3.92,2.26c.31.18.27.5-.09.71l-3.88,2.24A1.37,1.37,0,0,1,272.59,214.9Z" transform="translate(0 0)" style="fill:#24126a"/><path d="M278.64,218.39l-3.92-2.26c-.31-.18-.27-.5.09-.71l3.88-2.24a1.37,1.37,0,0,1,1.23-.05l3.92,2.26c.31.18.27.5-.09.71l-3.88,2.24A1.37,1.37,0,0,1,278.64,218.39Z" transform="translate(0 0)" style="fill:#24126a"/><path d="M284.69,221.89l-3.92-2.27c-.31-.18-.27-.5.09-.71l3.88-2.24a1.37,1.37,0,0,1,1.23,0l3.92,2.26c.31.19.27.5-.09.71l-3.88,2.24A1.38,1.38,0,0,1,284.69,221.89Z" transform="translate(0 0)" style="fill:#24126a"/><path d="M290.74,225.38l-3.92-2.26c-.31-.18-.27-.5.09-.71l3.88-2.24a1.34,1.34,0,0,1,1.23,0l3.92,2.26c.32.18.28.5-.09.71L292,225.33A1.37,1.37,0,0,1,290.74,225.38Z" transform="translate(0 0)" style="fill:#24126a"/><path d="M207.74,197.86,196.2,191.2c-.32-.18-.28-.5.09-.71l3.88-2.24a1.37,1.37,0,0,1,1.23-.05l11.54,6.66c.31.18.27.5-.09.71L209,197.81A1.35,1.35,0,0,1,207.74,197.86Z" transform="translate(0 0)" style="fill:#24126a"/><path d="M282.08,240.78l-11.54-6.66c-.32-.18-.28-.5.09-.71l3.88-2.24a1.37,1.37,0,0,1,1.23,0l11.54,6.66c.31.18.27.5-.09.71l-3.88,2.24A1.37,1.37,0,0,1,282.08,240.78Z" transform="translate(0 0)" style="fill:#24126a"/><path d="M257.88,234.53,254,232.27c-.31-.19-.28-.5.09-.71l4.62-2.67a1.34,1.34,0,0,1,1.23,0l3.92,2.26c.31.18.27.5-.09.71l-4.62,2.67A1.37,1.37,0,0,1,257.88,234.53Z" transform="translate(0 0)" style="fill:#24126a"/><path d="M213.93,209.16l-6.26-3.62c-.32-.18-.28-.5.09-.71l4.62-2.67a1.37,1.37,0,0,1,1.23,0l6.26,3.62c.32.18.28.5-.08.71l-4.63,2.67A1.37,1.37,0,0,1,213.93,209.16Z" transform="translate(0 0)" style="fill:#24126a"/><path d="M252.05,231.16l-6.27-3.62c-.31-.18-.27-.5.09-.71l4.62-2.67a1.37,1.37,0,0,1,1.23,0l6.27,3.62c.31.18.27.5-.09.71l-4.62,2.67A1.37,1.37,0,0,1,252.05,231.16Z" transform="translate(0 0)" style="fill:#24126a"/><path d="M222.66,214.2l-6.26-3.62c-.32-.18-.28-.5.09-.71l4.62-2.67a1.37,1.37,0,0,1,1.23,0l6.27,3.62c.31.18.27.5-.09.71l-4.63,2.67A1.37,1.37,0,0,1,222.66,214.2Z" transform="translate(0 0)" style="fill:#24126a"/><path d="M222.38,207.17l27.25,15.73a.38.38,0,0,1,0,.71l-4.72,2.72a1.32,1.32,0,0,1-1.22,0L216.44,210.6Z" transform="translate(0 0)" style="fill:#24126a"/><path d="M274.79,240.86l4.36,2.52c.26.15.23.41-.07.58l-1.89,1.09a1.1,1.1,0,0,1-1,0l-4.36-2.52c-.26-.15-.23-.41.07-.58l1.89-1.1A1.13,1.13,0,0,1,274.79,240.86Z" transform="translate(0 0)" style="fill:#24126a"/><path d="M268.69,237.34l4.36,2.52c.26.15.23.41-.07.58l-1.89,1.09a1.13,1.13,0,0,1-1,0l-4.36-2.52c-.26-.14-.23-.4.07-.58l1.89-1.09A1.13,1.13,0,0,1,268.69,237.34Z" transform="translate(0 0)" style="fill:#24126a"/><path d="M262.64,233.85l4.36,2.52c.26.14.23.4-.07.58L265,238a1.13,1.13,0,0,1-1,0l-4.36-2.52c-.26-.15-.23-.41.07-.58l1.89-1.09A1.13,1.13,0,0,1,262.64,233.85Z" transform="translate(0 0)" style="fill:#24126a"/><path d="M272,235.41l4.37,2.52c.25.15.22.41-.08.58l-1.89,1.09a1.13,1.13,0,0,1-1,0l-4.36-2.52c-.26-.14-.23-.4.07-.58l1.89-1.09A1.13,1.13,0,0,1,272,235.41Z" transform="translate(0 0)" style="fill:#24126a"/></g><path d="M333.76,141.26a1.88,1.88,0,0,1-.91-.26,2.69,2.69,0,0,1-1.28-2.7,1.37,1.37,0,0,1,.77-1,1.62,1.62,0,0,1,1.45.16,2.66,2.66,0,0,1,1.28,2.7h0a1.35,1.35,0,0,1-.77,1A1.37,1.37,0,0,1,333.76,141.26Zm-.88-3.63a.91.91,0,0,0-.37.08.94.94,0,0,0-.53.68,2.22,2.22,0,0,0,1.08,2.24,1.23,1.23,0,0,0,1.08.14,1,1,0,0,0,.52-.69,2.23,2.23,0,0,0-1.08-2.24A1.38,1.38,0,0,0,332.88,137.63Z" transform="translate(0 0)" style="fill:#42e8e0"/><path d="M338.75,144.14a1.88,1.88,0,0,1-.91-.26,2.69,2.69,0,0,1-1.28-2.7,1.37,1.37,0,0,1,.77-1,1.62,1.62,0,0,1,1.45.16,2.66,2.66,0,0,1,1.28,2.7h0a1.35,1.35,0,0,1-.77,1A1.24,1.24,0,0,1,338.75,144.14Zm-.88-3.62a.9.9,0,0,0-.37.07.94.94,0,0,0-.53.68,2.24,2.24,0,0,0,1.08,2.25,1.23,1.23,0,0,0,1.07.13.93.93,0,0,0,.53-.69,2.23,2.23,0,0,0-1.08-2.24A1.5,1.5,0,0,0,337.87,140.52Z" transform="translate(0 0)" style="fill:#42e8e0"/><path d="M344.84,145.89a1.19,1.19,0,0,1-1.9.69,2.42,2.42,0,0,1-1.18-2.47,1.19,1.19,0,0,1,1.9-.69A2.42,2.42,0,0,1,344.84,145.89Z" transform="translate(0 0)" style="fill:#42e8e0"/><polygon points="249.18 90.84 246.51 89.3 246.72 88.06 249.38 89.6 249.18 90.84" style="fill:#42e8e0"/><polygon points="253.06 93.08 250.39 91.54 250.59 90.3 253.26 91.84 253.06 93.08" style="fill:#42e8e0"/><polygon points="245.34 88.62 239.49 85.24 239.69 84.01 245.55 87.39 245.34 88.62" style="fill:#42e8e0"/><ellipse cx="197.11" cy="74.72" rx="14.04" ry="24.32" transform="translate(-10.95 108.57) rotate(-30)" style="fill:#42e8e0;opacity:0.4"/><path d="M204.79,97.14A15.85,15.85,0,0,1,197,94.76c-9.54-5.51-17.3-19-17.3-30,0-5.38,1.83-9.4,5.14-11.32s7.71-1.48,12.37,1.21c9.54,5.51,17.3,19,17.3,30,0,5.38-1.83,9.4-5.14,11.32A9.13,9.13,0,0,1,204.79,97.14ZM189.43,52.72a8.66,8.66,0,0,0-4.38,1.13c-3.18,1.83-4.93,5.72-4.93,10.95,0,10.88,7.67,24.16,17.09,29.6,4.53,2.61,8.77,3,11.95,1.2s4.93-5.72,4.93-10.95c0-10.88-7.67-24.16-17.09-29.6A15.51,15.51,0,0,0,189.43,52.72Z" transform="translate(0 0)" style="fill:#42e8e0"/><path d="M195.2,102.54a15.85,15.85,0,0,1-7.79-2.38c-9.54-5.51-17.3-19-17.3-30,0-5.39,1.83-9.4,5.14-11.32s7.71-1.48,12.37,1.21c9.54,5.5,17.3,19,17.3,30,0,5.38-1.82,9.4-5.14,11.31A9,9,0,0,1,195.2,102.54ZM179.84,58.12a8.66,8.66,0,0,0-4.38,1.13c-3.18,1.83-4.93,5.72-4.93,11,0,10.88,7.67,24.16,17.09,29.6,4.53,2.61,8.77,3,11.95,1.2s4.93-5.72,4.93-11c0-10.88-7.67-24.16-17.09-29.6A15.38,15.38,0,0,0,179.84,58.12Z" transform="translate(0 0)" style="fill:#42e8e0"/><path d="M166.46,144.94v-5l5.87-29.73-5.83-3.59-11.67,6.45,0,38.31c0,2.58,1,4.32,2.45,4.89h0l5.2,3.26.65-2.47.88-4.5A14.28,14.28,0,0,0,166.46,144.94Z" transform="translate(0 0)" style="fill:url(#Áåçûìÿííûé_ãðàäèåíò_54)"/><path d="M166.45,159.42h0c-3.22,1.78-5.83-.2-5.83-4.44l0-38.3,11.67-6.46,0,38.31C172.28,152.76,169.67,157.63,166.45,159.42Z" transform="translate(0 0)" style="fill:url(#Áåçûìÿííûé_ãðàäèåíò_54-2)"/><path d="M158.15,133.35l-.2-.11a.89.89,0,0,0-.95-.05h0l-1.33.77.9.17v.16l0,7.39a3.32,3.32,0,0,0,1.38,2.63l-.27,1,1.33-.78h0a1.17,1.17,0,0,0,.54-1.15l0-7.39A3.33,3.33,0,0,0,158.15,133.35Z" transform="translate(0 0)" style="fill:url(#Áåçûìÿííûé_ãðàäèåíò_54-3)"/><path d="M158.15,133.35l-.2-.11a.89.89,0,0,0-.95-.05h0l-1.33.77.9.17v.16l0,7.39a3.32,3.32,0,0,0,1.38,2.63l-.27,1,1.33-.78h0a1.17,1.17,0,0,0,.54-1.15l0-7.39A3.33,3.33,0,0,0,158.15,133.35Z" transform="translate(0 0)" style="fill:#0f054c;opacity:0.30000000000000004"/><path d="M156.8,145.25l-.21-.12a3.29,3.29,0,0,1-1.39-2.64l0-7.39c0-1,.61-1.49,1.38-1l.2.12a3.33,3.33,0,0,1,1.4,2.64l0,7.38C158.18,145.21,157.56,145.68,156.8,145.25Z" transform="translate(0 0)" style="fill:#fff"/><path d="M166.45,159.42h0c3.22-1.79,5.83-6.66,5.84-10.89l0-32v-4.42l-5.57,1.23-5.41,3-1.15-1.41-5,1.86-.45,10.13v.24a6.33,6.33,0,0,0,5.3,6.18l.59.09,0,21.6C160.62,159.22,163.23,161.2,166.45,159.42Z" transform="translate(0 0)" style="fill:#0f054c;opacity:0.30000000000000004"/><path d="M192.75,94.45c.26-9.62-6.17-21.51-14.37-26.55-4.38-2.69-8.37-2.88-11.19-1h0L140.28,81.45l19.95,37.73,27.67-15,.32-.17.12-.07h0C191,102.36,192.62,99.1,192.75,94.45Z" transform="translate(0 0)" style="fill:url(#Áåçûìÿííûé_ãðàäèåíò_42)"/><path d="M192.75,94.45c.15-5.7-2-12.2-5.57-17.6-4,2.25-12.07,6.82-27.34,15.49-3.83,2.17-7.43,4.07-10.77,5.72l11.16,21.12,27.67-15,.32-.17.12-.07h0C191,102.36,192.62,99.1,192.75,94.45Z" transform="translate(0 0)" style="fill:#0f054c;opacity:0.30000000000000004"/><ellipse cx="150.24" cy="100.32" rx="12.32" ry="21.35" transform="translate(-29.64 83.61) rotate(-28.42)" style="fill:url(#Áåçûìÿííûé_ãðàäèåíò_67)"/><path d="M165.34,110c.27-10-6.41-22.35-14.93-27.58-3.87-2.38-7.45-2.88-10.24-1.78h0l-.06,0-.07,0-.36.17c-16.59,7.59-31.49,6.81-49.7,5.59l-5.15-.34,40.06,73.21,2.4-4.34c8.74-15.82,17.93-25.1,33.1-34.92C163.32,118.56,165.2,115.08,165.34,110Z" transform="translate(0 0)" style="fill:url(#Áåçûìÿííûé_ãðàäèåíò_65)"/><path d="M127.29,155c8.74-15.82,17.93-25.1,33.1-34.92,2.93-1.54,4.81-5,5-10.06.16-5.74-2-12.24-5.43-17.74l-.07,0c-25.11,14.25-40.19,16.57-40.19,16.57l-7,22.2,2.13,9.83,10.08,18.42Z" transform="translate(0 0)" style="fill:#0f054c;opacity:0.30000000000000004"/><path d="M130.24,143.21C130.77,124,118,100.35,101.6,90.3c-8.15-5-15.63-5.68-21.16-2.71h0l0,0-5,2.75,1.73-.31c-3.61,3.56-5.83,9.26-6,16.77C70.53,126,83.35,149.7,99.69,159.75c6.42,3.94,12.42,5.19,17.38,4.1l-.82,1.13,4.62-2.53.07,0,.17-.09h0C126.51,159.28,130,152.68,130.24,143.21Z" transform="translate(0 0)" style="fill:url(#Áåçûìÿííûé_ãðàäèåíò_43)"/><path d="M126.66,145.17C127.19,126,114.37,102.31,98,92.26c-8-4.94-15.44-5.66-20.94-2.83l-.76.42c-.27.16-.52.32-.78.5l1.54-.28c-3.61,3.56-5.83,9.26-6,16.77C70.53,126,83.35,149.7,99.69,159.75c6.42,3.94,12.42,5.19,17.38,4.1l-.74,1C122.42,162.17,126.38,155.32,126.66,145.17Z" transform="translate(0 0)" style="fill:#fff"/><ellipse cx="96.06" cy="127.54" rx="24.56" ry="42.54" transform="translate(-49.13 61.1) rotate(-28.42)" style="fill:url(#Áåçûìÿííûé_ãðàäèåíò_55)"/><ellipse cx="96.06" cy="127.54" rx="21.55" ry="37.32" transform="translate(-49.13 61.1) rotate(-28.42)" style="fill:url(#Áåçûìÿííûé_ãðàäèåíò_6)"/><path d="M99.8,155.82a41.37,41.37,0,0,1-6.22-4.73,10.2,10.2,0,0,1-.68-14.37,112.6,112.6,0,0,1,22.55-18.59c-4.56-8.75-11.14-16.5-18.55-21-6.32-3.89-12.18-4.8-16.81-3.16h0l-.52.2-.09,0-.46.21-.09,0-.49.24,0,0c-.36.19-.71.4-1,.62l0,0-.45.32-.08.06-.39.3-.09.08-.39.33-.07.06c-.3.27-.59.56-.88.87l0,0-.37.42-.09.11-.3.37a1.13,1.13,0,0,1-.1.13l-.28.39-.09.12-.33.5,0,0c-.12.19-.23.38-.34.57a.25.25,0,0,0,0,.07c-.1.16-.19.33-.28.5l-.08.16c-.08.14-.15.29-.22.43l-.09.19-.2.44c0,.06,0,.12-.08.19l-.21.51a.61.61,0,0,0,0,.12c-.09.22-.17.45-.25.67l0,.09c-.06.2-.13.39-.19.59l-.06.21c0,.16-.1.32-.14.49a1.82,1.82,0,0,0-.07.25l-.12.48a2.27,2.27,0,0,0-.06.25c0,.18-.08.36-.12.54s0,.14,0,.21c0,.25-.09.5-.14.76,0,0,0,.06,0,.09,0,.23-.08.46-.11.69a2,2,0,0,1,0,.26l-.06.55c0,.1,0,.2,0,.3s0,.35-.05.53,0,.21,0,.31,0,.38,0,.58,0,.18,0,.27c0,.28,0,.57,0,.86,0,.48,0,1,0,1.44,0,.17,0,.34,0,.51l0,1,0,.5c0,.37,0,.75.09,1.13,0,.11,0,.23,0,.35,0,.47.1.94.16,1.41,0,.2,0,.39.08.58s.08.59.13.89l.12.68c0,.27.09.53.15.8s.09.47.13.71.17.75.25,1.13.17.69.26,1c0,.19.09.38.14.57l.26.92c0,.16.09.32.14.48.33,1.14.7,2.28,1.11,3.41l.06.17c.13.36.27.73.41,1.09a2.33,2.33,0,0,0,.11.28c4.39,11.24,12.28,21.75,21.43,27.37,8,4.91,15.25,5.07,20.19,1.34C111,160.44,105.59,159.38,99.8,155.82Z" transform="translate(0 0)" style="fill:#0f054c;opacity:0.30000000000000004"/><g style="clip-path:url(#clip-path-2)"><polygon points="92.28 121.12 131.38 92.58 141.29 121.21 99.18 134.28 92.28 121.12" style="fill:url(#Áåçûìÿííûé_ãðàäèåíò_55-2)"/><path d="M101.24,130.73c-.09,3.36-2.49,4.65-5.35,2.89a11.67,11.67,0,0,1-5-9.27c.1-3.36,2.49-4.65,5.36-2.89A11.63,11.63,0,0,1,101.24,130.73Z" transform="translate(0 0)" style="fill:url(#Áåçûìÿííûé_ãðàäèåíò_6-2)"/><g style="opacity:0.30000000000000004"><path d="M105,115a15.23,15.23,0,0,1,6.56,12.11,5.66,5.66,0,0,1-1.26,3.71l31.84-9.08L131.91,92.14,102,114A6.19,6.19,0,0,1,105,115Z" transform="translate(0 0)" style="fill:#0f054c"/></g></g><path d="M333.58,197.94l-9.2-5.15a10.31,10.31,0,0,1-4.49-6.31l-8-32.9c-.94-3.9-4.08-6.71-6.31-6.8h-.11a2.25,2.25,0,0,0-2.21,1.77l-2.4,7.37a2.55,2.55,0,0,1-1.5,1.71,3.54,3.54,0,0,1-3-.48l-1.66-1a10.43,10.43,0,0,1-4.35-6c-1.05-3.77-4-6.3-6.08-6.48H284a2.19,2.19,0,0,0-2.07,1.38l-2.63,5.57a2.43,2.43,0,0,1-1.47,1.35,3.69,3.69,0,0,1-2.89-.53l-1.9-1.09a10.33,10.33,0,0,1-4.46-6.42l-8-35.54c-.87-3.91-4-6.8-6.27-6.95a2.22,2.22,0,0,0-2.35,1.65l-12.92,35.31a2.53,2.53,0,0,1-1.5,1.59,3.6,3.6,0,0,1-3-.49l-6.54-3.77.09-.14,6.53,3.77a3.45,3.45,0,0,0,2.85.48,2.34,2.34,0,0,0,1.39-1.5l12.92-35.31a2.41,2.41,0,0,1,2.33-1.76h.19c2.32.15,5.53,3.09,6.42,7.07l8,35.54a10.26,10.26,0,0,0,4.39,6.31l1.9,1.1a3.47,3.47,0,0,0,2.75.51,2.27,2.27,0,0,0,1.37-1.25l2.64-5.58a2.39,2.39,0,0,1,2.47-1.47c2.17.19,5.16,2.77,6.23,6.61a10.23,10.23,0,0,0,4.27,5.86l1.66,1a3.42,3.42,0,0,0,2.89.47,2.45,2.45,0,0,0,1.4-1.61l2.39-7.37a2.42,2.42,0,0,1,2.49-1.88c2.33.09,5.49,2.89,6.46,6.92l8,32.9a10.24,10.24,0,0,0,4.42,6.21l9.2,5.14Z" transform="translate(0 0)" style="fill:#42e8e0"/><path d="M326.6,202l-9.19-5.15a10.29,10.29,0,0,1-4.5-6.31l-8-32.9c-.95-3.9-4.09-6.71-6.32-6.8a2.24,2.24,0,0,0-2.32,1.77l-2.4,7.38a2.56,2.56,0,0,1-1.49,1.7,3.56,3.56,0,0,1-3-.48l-1.66-1a10.42,10.42,0,0,1-4.34-6c-1.06-3.77-4-6.3-6.09-6.48a2.17,2.17,0,0,0-2.31,1.37l-2.64,5.58a2.45,2.45,0,0,1-1.47,1.34,3.66,3.66,0,0,1-2.88-.53l-1.9-1.09a10.35,10.35,0,0,1-4.47-6.42l-7.95-35.54c-.88-3.91-4-6.8-6.27-7a2.23,2.23,0,0,0-2.36,1.65l-12.92,35.31a2.54,2.54,0,0,1-1.49,1.59,3.61,3.61,0,0,1-3-.49l-6.53-3.77.08-.14,6.53,3.77a3.45,3.45,0,0,0,2.85.48,2.34,2.34,0,0,0,1.39-1.5l12.93-35.31a2.39,2.39,0,0,1,2.52-1.75c2.32.15,5.52,3.09,6.42,7.07l8,35.54a10.34,10.34,0,0,0,4.39,6.31l1.9,1.1a3.47,3.47,0,0,0,2.75.51,2.29,2.29,0,0,0,1.38-1.25l2.63-5.58a2.38,2.38,0,0,1,2.48-1.47c2.16.19,5.15,2.77,6.22,6.61a10.25,10.25,0,0,0,4.28,5.86l1.66,1a3.4,3.4,0,0,0,2.88.47,2.43,2.43,0,0,0,1.4-1.61l2.4-7.37a2.42,2.42,0,0,1,2.36-1.89h.12c2.33.09,5.49,2.89,6.46,6.92l8,32.9a10.13,10.13,0,0,0,4.42,6.21l9.19,5.14Z" transform="translate(0 0)" style="fill:#42e8e0"/><rect x="245.5" y="103.51" width="8.11" height="0.42" transform="translate(-18.52 137.97) rotate(-29.85)" style="fill:#42e8e0"/><rect x="275.17" y="145.82" width="8.21" height="0.42" transform="translate(-35.62 158.75) rotate(-29.92)" style="fill:#42e8e0"/><rect x="296.6" y="148.79" width="8.55" height="0.42" transform="translate(-34.25 169.48) rotate(-29.84)" style="fill:#42e8e0"/><path d="M333.52,198.05l-9.2-5.15a10.48,10.48,0,0,1-4.56-6.39l-8-32.9c-.93-3.84-4-6.62-6.2-6.7a2.1,2.1,0,0,0-2.19,1.68L301,156a2.68,2.68,0,0,1-1.57,1.79,3.67,3.67,0,0,1-3.13-.49l-1.66-1a10.34,10.34,0,0,1-4.41-6c-1-3.73-3.91-6.22-6-6.39a2.07,2.07,0,0,0-2.19,1.29l-2.63,5.58a2.55,2.55,0,0,1-1.55,1.41,3.79,3.79,0,0,1-3-.54l-1.9-1.09a10.49,10.49,0,0,1-4.53-6.51l-8-35.53c-.87-3.86-3.94-6.71-6.15-6.85a2.11,2.11,0,0,0-2.23,1.56l-12.92,35.31a2.67,2.67,0,0,1-1.57,1.67,3.73,3.73,0,0,1-3.09-.5L228,135.91l.21-.36,6.53,3.77a3.32,3.32,0,0,0,2.74.47,2.23,2.23,0,0,0,1.32-1.42l12.92-35.31a2.52,2.52,0,0,1,2.65-1.84c2.42.16,5.62,3.08,6.54,7.18l7.95,35.53a10.19,10.19,0,0,0,4.33,6.23l1.9,1.1a3.4,3.4,0,0,0,2.65.5,2.19,2.19,0,0,0,1.3-1.19L281.7,145a2.5,2.5,0,0,1,2.61-1.53c2.2.18,5.25,2.8,6.33,6.7a10.13,10.13,0,0,0,4.22,5.78l1.66,1a3.3,3.3,0,0,0,2.77.46,2.28,2.28,0,0,0,1.32-1.53l2.4-7.37a2.54,2.54,0,0,1,2.61-2c2.38.09,5.6,2.93,6.59,7l8,32.9a10.13,10.13,0,0,0,4.36,6.12l9.19,5.15Z" transform="translate(0 0)" style="fill:#42e8e0"/><path d="M326.54,202.06l-9.2-5.15a10.52,10.52,0,0,1-4.56-6.39l-8-32.9c-.93-3.84-4-6.62-6.19-6.7a2.12,2.12,0,0,0-2.2,1.68L294,160a2.7,2.7,0,0,1-1.58,1.79,3.67,3.67,0,0,1-3.13-.49l-1.66-1a10.45,10.45,0,0,1-4.41-6c-1-3.73-3.9-6.22-6-6.4a2.1,2.1,0,0,0-2.19,1.3l-2.63,5.58a2.55,2.55,0,0,1-1.55,1.41,3.8,3.8,0,0,1-3-.54l-1.9-1.09a10.48,10.48,0,0,1-4.52-6.51l-8-35.53c-.86-3.86-3.93-6.71-6.15-6.85a2.11,2.11,0,0,0-2.23,1.56l-12.92,35.31a2.67,2.67,0,0,1-1.57,1.67,3.73,3.73,0,0,1-3.09-.5l-6.54-3.77.21-.36,6.54,3.77a3.35,3.35,0,0,0,2.74.47,2.24,2.24,0,0,0,1.31-1.42l12.93-35.31a2.52,2.52,0,0,1,2.65-1.84c2.41.16,5.61,3.08,6.53,7.17l8,35.54a10.14,10.14,0,0,0,4.32,6.23l1.9,1.1a3.41,3.41,0,0,0,2.65.5,2.14,2.14,0,0,0,1.3-1.19l2.63-5.58a2.51,2.51,0,0,1,2.61-1.53c2.2.18,5.25,2.8,6.34,6.7a10.11,10.11,0,0,0,4.21,5.78l1.66,1a3.31,3.31,0,0,0,2.77.46,2.32,2.32,0,0,0,1.33-1.53l2.4-7.37a2.52,2.52,0,0,1,2.48-2h.12c2.38.09,5.6,2.93,6.59,7l8,32.9a10.13,10.13,0,0,0,4.36,6.12l9.19,5.15Z" transform="translate(0 0)" style="fill:#42e8e0"/><path d="M228.14,135.73l6.53,3.77c2,1.13,3.71.71,4.36-1.06L252,103.13c1.48-4,7.51-.39,8.78,5.31l8,35.54a10.34,10.34,0,0,0,4.42,6.37l1.9,1.09c1.85,1.07,3.52.76,4.25-.78l2.63-5.58c1.63-3.46,7.07-.19,8.55,5.13h0a10.3,10.3,0,0,0,4.31,5.91l1.66,1c2,1.16,3.8.69,4.4-1.18l2.4-7.37c1.36-4.16,7.4-.7,8.79,5l8,32.9a10.34,10.34,0,0,0,4.46,6.26l9.2,5.14Z" transform="translate(0 0)" style="opacity:0.5;mix-blend-mode:lighten;fill:url(#Áåçûìÿííûé_ãðàäèåíò_56)"/><path d="M221.16,139.64l6.53,3.77c2,1.13,3.71.71,4.36-1.06L245,107c1.48-4,7.51-.39,8.79,5.31l7.95,35.54a10.32,10.32,0,0,0,4.43,6.36l1.9,1.1c1.84,1.07,3.51.76,4.24-.78l2.63-5.58c1.63-3.46,7.07-.2,8.56,5.13h0a10.22,10.22,0,0,0,4.31,5.91l1.66,1c2,1.16,3.79.68,4.4-1.18l2.39-7.37c1.36-4.17,7.41-.7,8.79,5l8,32.9a10.29,10.29,0,0,0,4.46,6.26l9.19,5.14Z" transform="translate(0 0)" style="opacity:0.5;mix-blend-mode:lighten;fill:url(#Áåçûìÿííûé_ãðàäèåíò_56-2)"/><ellipse cx="96.06" cy="127.54" rx="21.62" ry="37.45" transform="translate(-49.13 61.1) rotate(-28.42)" style="fill:#42e8e0;opacity:0.4"/><path d="M364.5,115.56c-10.47,0-20.93-2.29-28.91-6.87-7.8-4.49-12.1-10.47-12.11-16.86s4.27-12.38,12-16.9c16-9.27,42-9.32,58.05-.11h0c7.8,4.49,12.1,10.47,12.11,16.86s-4.26,12.39-12.05,16.9C385.62,113.23,375.05,115.56,364.5,115.56Zm.18-47.2c-10.48,0-21,2.31-28.94,6.94-7.65,4.43-11.85,10.3-11.84,16.53s4.24,12.09,11.9,16.49c15.91,9.15,41.76,9.1,57.63-.1,7.65-4.44,11.86-10.31,11.84-16.54S401,79.59,393.37,75.19h0C385.45,70.64,375.07,68.36,364.68,68.36Z" transform="translate(0 0)" style="fill:#42e8e0"/><path d="M313.44,44.67c1.89-1.09,3.42-.21,3.43,2a7.59,7.59,0,0,1-3.41,5.93c-1.89,1.09-3.42.21-3.43-2A7.6,7.6,0,0,1,313.44,44.67Z" transform="translate(0 0)" style="fill:url(#Áåçûìÿííûé_ãðàäèåíò_18-5)"/><path d="M313.65,44.79a7.56,7.56,0,0,0-3.41,5.93,2.44,2.44,0,0,0,.91,2.14A2.34,2.34,0,0,1,310,50.6a7.6,7.6,0,0,1,3.41-5.93A2.34,2.34,0,0,1,316,44.5,2.44,2.44,0,0,0,313.65,44.79Z" transform="translate(0 0)" style="fill:#fff"/><path d="M305.3,40c1.89-1.09,3.42-.21,3.42,2a7.55,7.55,0,0,1-3.4,5.93c-1.89,1.09-3.42.21-3.43-2A7.57,7.57,0,0,1,305.3,40Z" transform="translate(0 0)" style="fill:url(#Áåçûìÿííûé_ãðàäèåíò_18-6)"/><path d="M297,35.23c1.88-1.09,3.42-.21,3.42,2A7.57,7.57,0,0,1,297,43.13c-1.89,1.09-3.42.21-3.42-2A7.53,7.53,0,0,1,297,35.23Z" transform="translate(0 0)" style="fill:url(#Áåçûìÿííûé_ãðàäèåíò_18-7)"/><path d="M311,52.81l4.24,2.44a2.4,2.4,0,0,1-1-2.21,7.56,7.56,0,0,1,3.41-5.93,2.41,2.41,0,0,1,2.36-.27L338,57.14l-4.82,8.38L280.36,35.18a4.83,4.83,0,1,1,4.82-8.38L299.49,35a2.37,2.37,0,0,0-2.47.21,7.53,7.53,0,0,0-3.41,5.93,2.4,2.4,0,0,0,1,2.21h0l4.24,2.43a2.41,2.41,0,0,1-1-2.21,7.6,7.6,0,0,1,3.41-5.93,2.44,2.44,0,0,1,2.36-.27l4.16,2.39a2.37,2.37,0,0,0-2.47.21,7.57,7.57,0,0,0-3.41,5.93,2.42,2.42,0,0,0,1,2.21h0l4.23,2.44a2.4,2.4,0,0,1-1-2.21,7.53,7.53,0,0,1,3.41-5.93,2.41,2.41,0,0,1,2.36-.27l4,2.31a2.35,2.35,0,0,0-2.47.2A7.6,7.6,0,0,0,310,50.6a2.42,2.42,0,0,0,1,2.21Z" transform="translate(0 0)" style="fill:#bcbeff"/><path d="M305.51,40.11A7.53,7.53,0,0,0,302.1,46a2.46,2.46,0,0,0,.91,2.14,2.32,2.32,0,0,1-1.12-2.26A7.57,7.57,0,0,1,305.3,40a2.32,2.32,0,0,1,2.52-.17A2.44,2.44,0,0,0,305.51,40.11Z" transform="translate(0 0)" style="fill:#fff"/><path d="M297.22,35.35a7.56,7.56,0,0,0-3.41,5.93,2.46,2.46,0,0,0,.91,2.14,2.33,2.33,0,0,1-1.11-2.26A7.53,7.53,0,0,1,297,35.23a2.32,2.32,0,0,1,2.51-.18A2.47,2.47,0,0,0,297.22,35.35Z" transform="translate(0 0)" style="fill:#fff"/><path d="M317.68,47.11A7.54,7.54,0,0,0,314.27,53a2.42,2.42,0,0,0,1,2.22L311,52.81h0a2.4,2.4,0,0,1-1-2.21,7.55,7.55,0,0,1,3.4-5.93,2.39,2.39,0,0,1,2.48-.21L320,46.83A2.45,2.45,0,0,0,317.68,47.11Z" transform="translate(0 0)" style="opacity:0.48;fill:url(#Áåçûìÿííûé_ãðàäèåíò_15-6)"/><path d="M309.54,42.43a7.54,7.54,0,0,0-3.41,5.92,2.44,2.44,0,0,0,1,2.22l-4.23-2.44h0a2.44,2.44,0,0,1-1-2.21A7.59,7.59,0,0,1,305.3,40a2.37,2.37,0,0,1,2.47-.21l4.13,2.37A2.42,2.42,0,0,0,309.54,42.43Z" transform="translate(0 0)" style="opacity:0.48;fill:url(#Áåçûìÿííûé_ãðàäèåíò_15-7)"/><path d="M301.25,37.66a7.6,7.6,0,0,0-3.41,5.93,2.41,2.41,0,0,0,1,2.21l-4.24-2.43h0a2.41,2.41,0,0,1-1-2.21A7.53,7.53,0,0,1,297,35.23a2.35,2.35,0,0,1,2.47-.21l4.12,2.37A2.44,2.44,0,0,0,301.25,37.66Z" transform="translate(0 0)" style="opacity:0.48;fill:url(#Áåçûìÿííûé_ãðàäèåíò_15-8)"/><path d="M333.36,80.22a6.4,6.4,0,0,0,0,.76l10.42,8.73L360.68,96l11.89-2.67,11.37-3.25,11.59-8.92.3-.24a10.25,10.25,0,0,0-.11-2.14l6.15-8.16a19,19,0,0,1,2.26,3.65l1.35-1.09v7.49h0c-.16,5.91-4.13,11.8-11.93,16.32-16,9.25-41.85,9.3-57.84.11-7.93-4.56-11.93-10.54-12-16.53h0v-.25l0-7.4,1.45,1.21A19.32,19.32,0,0,1,326.39,72C328.23,75.09,330,78.91,333.36,80.22Z" transform="translate(0 0)" style="fill:url(#Áåçûìÿííûé_ãðàäèåíò_66-2)"/><path d="M392.83,63.24l.66.36a28.61,28.61,0,0,1,8.38,7l-6.15,8.16c-.6-4.1-3.61-8.09-9.05-11.22-12.21-7-32-7-44.2.08-6,3.49-9,8-9.11,12.59-3.32-1.31-5.13-5.13-7-8.24a24.71,24.71,0,0,1,6.27-6.34l-1.4.29s9.61-8.34,10-8.42l19.6-5.18,21.66,1.9Z" transform="translate(0 0)" style="fill:url(#Áåçûìÿííûé_ãðàäèåíò_18-8)"/><ellipse cx="364.02" cy="75.48" rx="31.25" ry="18.04" transform="translate(-0.14 0.69) rotate(-0.11)" style="opacity:0.5;fill:url(#Áåçûìÿííûé_ãðàäèåíò_15-9)"/><ellipse cx="363.97" cy="77.66" rx="31.25" ry="18.04" transform="translate(-0.15 0.69) rotate(-0.11)" style="opacity:0.48;fill:url(#Áåçûìÿííûé_ãðàäèåíò_15-10)"/><path d="M393.48,56.26c-16-9.19-41.89-9.14-57.84.11s-15.93,24.2.06,33.39,41.88,9.15,57.84-.1S409.46,65.45,393.48,56.26Zm-6.82,4c12.22,7,12.24,18.45,0,25.52s-32,7.11-44.2.08-12.24-18.44-.05-25.51S374.45,53.19,386.66,60.21Z" transform="translate(0 0)" style="fill:#bcbeff"/><path d="M393.48,56.26c-16-9.19-41.89-9.14-57.84.11s-15.93,24.2.06,33.39,41.88,9.15,57.84-.1S409.46,65.45,393.48,56.26Zm-6.82,4c12.22,7,12.24,18.45,0,25.52s-32,7.11-44.2.08-12.24-18.44-.05-25.51S374.45,53.19,386.66,60.21Z" transform="translate(0 0)" style="fill:#bcbeff"/><path d="M335.49,89.14c16,9.19,41.88,9.14,57.84-.11,9.82-5.7,13.57-13.55,11.29-20.89,2.7,7.52-1,15.66-11.08,21.52-16,9.25-41.85,9.29-57.84.1-6.15-3.53-9.93-7.92-11.35-12.5C325.92,81.62,329.62,85.76,335.49,89.14Z" transform="translate(0 0)" style="fill:#fff"/><path d="M342.25,59.67c12.2-7.07,32-7.11,44.2-.08,4.74,2.72,7.63,6.1,8.7,9.63-1.21-3.3-4-6.45-8.49-9-12.21-7-32-7-44.2.09-7.46,4.33-10.34,10.29-8.65,15.88C331.7,70.41,334.51,64.16,342.25,59.67Z" transform="translate(0 0)" style="fill:#fff"/><rect x="314.39" y="277.66" width="0.42" height="25.23" transform="translate(-92.67 422.05) rotate(-60.63)" style="fill:#42e8e0"/><path d="M339.11,334.41a5.94,5.94,0,0,1-3-.8l-35-20.21a1.75,1.75,0,0,1,0-3l51.78-29.9a6,6,0,0,1,6,0l35,20.21a1.76,1.76,0,0,1,0,3.05L342.1,333.61A5.93,5.93,0,0,1,339.11,334.41Zm16.77-54.33a5.62,5.62,0,0,0-2.78.74l-51.78,29.9a1.34,1.34,0,0,0,0,2.32l35,20.21a5.59,5.59,0,0,0,5.57,0l51.78-29.9a1.32,1.32,0,0,0,.67-1.16,1.34,1.34,0,0,0-.67-1.16l-35-20.21A5.66,5.66,0,0,0,355.88,280.08Z" transform="translate(0 0)" style="fill:#42e8e0"/><polygon points="347.5 300.41 342.01 297.24 343.38 296.45 348.87 299.62 347.5 300.41" style="fill:#42e8e0"/><polygon points="352.19 303.12 349.45 301.53 350.81 300.74 353.56 302.33 352.19 303.12" style="fill:#42e8e0;opacity:0.5"/><polygon points="344.31 302.26 338.81 299.09 340.18 298.3 345.67 301.47 344.31 302.26" style="fill:#42e8e0;opacity:0.5"/><polygon points="348.99 304.96 346.25 303.38 347.61 302.59 350.36 304.18 348.99 304.96" style="fill:#42e8e0;opacity:0.5"/><polygon points="341.1 304.11 335.61 300.93 336.98 300.15 342.47 303.32 341.1 304.11" style="fill:#42e8e0"/><polygon points="345.79 306.81 343.05 305.23 344.41 304.44 347.16 306.02 345.79 306.81" style="fill:#42e8e0"/><polygon points="337.9 305.95 332.41 302.78 333.78 301.99 339.27 305.17 337.9 305.95" style="fill:#42e8e0"/><polygon points="342.59 308.66 339.85 307.07 341.21 306.29 343.96 307.87 342.59 308.66" style="fill:#42e8e0"/><polygon points="334.7 307.8 329.21 304.63 330.57 303.84 336.07 307.01 334.7 307.8" style="fill:#42e8e0"/><polygon points="339.39 310.51 336.64 308.92 338.01 308.13 340.76 309.72 339.39 310.51" style="fill:#42e8e0"/><polygon points="331.5 309.65 326.01 306.48 327.38 305.69 332.87 308.86 331.5 309.65" style="fill:#42e8e0"/><polygon points="336.19 312.36 333.44 310.77 334.81 309.98 337.56 311.57 336.19 312.36" style="fill:#42e8e0"/><polygon points="328.3 311.5 322.81 308.32 324.17 307.54 329.67 310.71 328.3 311.5" style="fill:#42e8e0"/><polygon points="332.99 314.2 330.24 312.62 331.61 311.83 334.36 313.42 332.99 314.2" style="fill:#42e8e0;opacity:0.5"/><polygon points="325.1 313.34 319.61 310.17 320.97 309.38 326.47 312.56 325.1 313.34" style="fill:#42e8e0"/><polygon points="329.79 316.05 327.04 314.46 328.41 313.68 331.15 315.26 329.79 316.05" style="fill:#42e8e0;opacity:0.5"/><polygon points="359.71 307.52 354.21 304.35 355.58 303.56 361.07 306.73 359.71 307.52" style="fill:#42e8e0"/><polygon points="364.39 310.23 361.65 308.64 363.01 307.86 365.76 309.44 364.39 310.23" style="fill:#42e8e0"/><polygon points="356.5 309.37 351.01 306.2 352.38 305.41 357.87 308.58 356.5 309.37" style="fill:#42e8e0"/><polygon points="361.19 312.08 358.45 310.49 359.81 309.7 362.56 311.29 361.19 312.08" style="fill:#42e8e0"/><polygon points="353.31 311.22 347.81 308.05 349.18 307.26 354.67 310.43 353.31 311.22" style="fill:#42e8e0"/><polygon points="357.99 313.92 355.25 312.34 356.61 311.55 359.36 313.14 357.99 313.92" style="fill:#42e8e0"/><polygon points="357.05 294.9 351.56 291.73 352.93 290.94 358.42 294.11 357.05 294.9" style="fill:#42e8e0"/><polygon points="361.74 297.6 359 296.02 360.36 295.23 363.11 296.81 361.74 297.6" style="fill:#42e8e0"/><polygon points="353.85 296.75 348.36 293.57 349.73 292.79 355.22 295.96 353.85 296.75" style="fill:#42e8e0"/><polygon points="358.54 299.45 355.79 297.87 357.16 297.08 359.91 298.66 358.54 299.45" style="fill:#42e8e0"/><polygon points="350.65 298.59 345.16 295.42 346.52 294.63 352.02 297.81 350.65 298.59" style="fill:#42e8e0"/><polygon points="355.34 301.3 352.59 299.71 353.96 298.93 356.7 300.51 355.34 301.3" style="fill:#42e8e0"/><polygon points="369.25 302.01 363.76 298.84 365.13 298.05 370.62 301.22 369.25 302.01" style="fill:#42e8e0"/><polygon points="373.94 304.72 371.19 303.13 372.56 302.34 375.31 303.93 373.94 304.72" style="fill:#42e8e0"/><polygon points="366.05 303.86 360.56 300.69 361.93 299.9 367.42 303.07 366.05 303.86" style="fill:#42e8e0;opacity:0.5"/><polygon points="370.74 306.56 368 304.98 369.36 304.19 372.11 305.78 370.74 306.56" style="fill:#42e8e0"/><polygon points="362.85 305.7 357.36 302.53 358.73 301.75 364.22 304.92 362.85 305.7" style="fill:#42e8e0"/><polygon points="367.54 308.41 364.79 306.83 366.16 306.04 368.91 307.62 367.54 308.41" style="fill:#42e8e0"/><polygon points="350.1 313.07 344.61 309.89 345.98 309.11 351.47 312.28 350.1 313.07" style="fill:#42e8e0"/><polygon points="354.79 315.77 352.05 314.19 353.41 313.4 356.16 314.98 354.79 315.77" style="fill:#42e8e0"/><polygon points="346.9 314.91 341.41 311.74 342.78 310.95 348.27 314.13 346.9 314.91" style="fill:#42e8e0;opacity:0.5"/><polygon points="351.59 317.62 348.85 316.03 350.21 315.25 352.96 316.83 351.59 317.62" style="fill:#42e8e0"/><polygon points="343.7 316.76 338.21 313.59 339.57 312.8 345.07 315.97 343.7 316.76" style="fill:#42e8e0"/><polygon points="348.39 319.47 345.64 317.88 347.01 317.09 349.76 318.68 348.39 319.47" style="fill:#42e8e0"/><polygon points="340.5 318.61 335.01 315.44 336.38 314.65 341.87 317.82 340.5 318.61" style="fill:#42e8e0"/><polygon points="345.19 321.32 342.44 319.73 343.81 318.94 346.56 320.53 345.19 321.32" style="fill:#42e8e0"/><polygon points="337.36 320.42 331.87 317.25 333.23 316.46 338.73 319.63 337.36 320.42" style="fill:#42e8e0"/><polygon points="342.05 323.13 339.3 321.54 340.67 320.75 343.41 322.34 342.05 323.13" style="fill:#42e8e0"/><path d="M374.46,289.8l-.18-.3,18.87-11.25a2.38,2.38,0,0,0,0-4.11l-23.78-13.58a2.72,2.72,0,0,1,0-4.73l57.35-33a2.14,2.14,0,0,0,1.09-1.87,2.12,2.12,0,0,0-1.07-1.88l-9.83-5.78a10,10,0,0,1-4.94-8.63V119.91a9.69,9.69,0,0,0-4.79-8.34l-9.73-5.68.17-.3,9.73,5.68a10,10,0,0,1,5,8.64v84.72A9.7,9.7,0,0,0,417,213l9.84,5.78a2.52,2.52,0,0,1,0,4.35l-57.36,33a2.38,2.38,0,0,0,0,4.13l23.78,13.58a2.73,2.73,0,0,1,.05,4.71Z" transform="translate(0 0)" style="fill:#42e8e0"/></g></g></svg>