<svg xmlns="http://www.w3.org/2000/svg" xmlns:xlink="http://www.w3.org/1999/xlink" viewBox="0 0 419.41 365.6"><defs><linearGradient id="linear-gradient" x1="415.33" y1="-56.36" x2="152.04" y2="258.13" gradientUnits="userSpaceOnUse"><stop offset="0" stop-color="#808285"/><stop offset="0.81" stop-color="#717171"/></linearGradient><linearGradient id="linear-gradient-2" x1="409.29" y1="-43.8" x2="145.21" y2="271.64" gradientUnits="userSpaceOnUse"><stop offset="0" stop-color="#58595b"/><stop offset="0.76" stop-color="#231f20"/></linearGradient><linearGradient id="linear-gradient-3" x1="388.14" y1="76.61" x2="234.89" y2="259.68" gradientUnits="userSpaceOnUse"><stop offset="0" stop-color="#fff"/><stop offset="0.1" stop-color="#ececec"/><stop offset="0.76" stop-color="#717171"/></linearGradient><clipPath id="clip-path"><path d="M179.78,145.74a5.75,5.75,0,0,1-11.5,0Z" style="fill:none"/></clipPath><clipPath id="clip-path-2"><path d="M394.55,253.92a7.53,7.53,0,0,1-15.05,0Z" style="fill:none"/></clipPath><clipPath id="clip-path-3"><path d="M323.2,68.77a6.92,6.92,0,0,1-13.84,0Z" style="fill:none"/></clipPath></defs><title>Asset 1</title><g style="isolation:isolate"><g id="Layer_2" data-name="Layer 2"><g id="OBJECTS"><path d="M419.41,0V342.86c-52.79,22.78-119.54,12.89-162.08-25.32-13.18-11.86-24.45-26.24-40.3-34.49-34.75-18.11-84-3-112.36-29.58-24.48-23-18-63.51-36.25-91.4C60.5,150,49.83,139.56,38.18,130.71-4.29,98.44-8.59,25.39,33.91,0Z" style="fill:url(#linear-gradient)"/><path d="M409.62,9.59l9.79,343c-52.67,23-129.08,15.66-171.53-22.86-13.16-12-24.4-26.46-40.22-34.78C173,276.7,123.81,292,95.53,265.13,71.09,242,77.6,201.1,59.35,173c-7.91-12.2-18.56-22.69-30.18-31.61C-13.21,108.84-7.72,25.6,34.69,0Z" style="opacity:0.12461399999999999;fill:url(#linear-gradient-2)"/><path d="M419.41,102.79V316a56.43,56.43,0,0,1-19.75,5.77,98.78,98.78,0,0,1-63.58-14.2c-27-17.12-42.13-46-65-67.73a149.57,149.57,0,0,0-63.62-35.44c-15.68-4.25-32.19-6.09-47.18-12.11-21.32-8.57-38.9-26.71-41.75-48.05s11.7-44.6,34.27-49.75c19-4.33,38.68,3.86,58.23,3.24,16.6-.53,31.89-7.35,45.63-15.47C269,75,277.13,66.45,293.19,66.82c11.91.28,23.41,5,32.68,11.88,11.36,8.48,20.23,20.57,34,25,18.76,6.07,36.48-6.68,54.67-2.6A24.77,24.77,0,0,1,419.41,102.79Z" style="opacity:0.081649;fill:url(#linear-gradient-3)"/><ellipse cx="229.59" cy="340.68" rx="28.6" ry="3.65" style="fill:#d1d3d4;opacity:0.63"/><path d="M281.42,58.67a11.61,11.61,0,1,1-11.61-11.61A11.61,11.61,0,0,1,281.42,58.67Z" style="fill:#ff6066"/><path d="M277.15,57.12c0,4.53-7.34,8.2-7.34,8.2s-7.32-3.67-7.35-8.2c0-5.79,7.55-4.28,7.62-1.68C270,52.84,277.16,51.7,277.15,57.12Z" style="fill:#fff"/><circle cx="344.8" cy="346.64" r="10.64" style="fill:#ff6066"/><path d="M351.53,345.21c0,4.16-6.73,7.52-6.73,7.52s-6.7-3.36-6.72-7.52c0-5.29,6.91-3.91,7-1.53C345,341.3,351.54,340.25,351.53,345.21Z" style="fill:#fff"/><circle cx="398.14" cy="194.22" r="7.08" style="fill:#ff6066"/><path d="M402.62,193.27c0,2.76-4.48,5-4.48,5s-4.46-2.24-4.47-5c0-3.53,4.59-2.61,4.63-1C398.26,190.66,402.62,190,402.62,193.27Z" style="fill:#fff"/><circle cx="174.03" cy="145.74" r="7.72" transform="translate(-42.39 77.27) rotate(-22.39)" style="fill:#ffe340"/><path d="M179.78,145.74a5.75,5.75,0,0,1-11.5,0Z" style="fill:#2d2d2c"/><g style="clip-path:url(#clip-path)"><ellipse cx="174.03" cy="151.54" rx="3.88" ry="2.69" style="fill:#ff6066"/></g><path d="M169.3,144.4a.27.27,0,0,1-.26-.2.26.26,0,0,1,.2-.32l1.71-.43-1.6-1a.26.26,0,1,1,.27-.45l2.15,1.32a.26.26,0,0,1,.12.27.24.24,0,0,1-.19.21l-2.33.58Z" style="fill:#2d2d2c"/><path d="M178.76,144.4h-.07l-2.33-.58a.27.27,0,0,1-.2-.21.28.28,0,0,1,.13-.27l2.14-1.32a.26.26,0,0,1,.37.09.26.26,0,0,1-.09.36l-1.61,1,1.72.43a.26.26,0,0,1,.19.32A.26.26,0,0,1,178.76,144.4Z" style="fill:#2d2d2c"/><path d="M397.13,253.92a10.1,10.1,0,1,1-10.1-10.1A10.1,10.1,0,0,1,397.13,253.92Z" style="fill:#ffe340"/><path d="M394.55,253.92a7.53,7.53,0,0,1-15.05,0Z" style="fill:#2d2d2c"/><g style="clip-path:url(#clip-path-2)"><path d="M392.11,261.51c0,1.95-2.28,3.53-5.08,3.53s-5.08-1.58-5.08-3.53S384.22,258,387,258,392.11,259.57,392.11,261.51Z" style="fill:#ff6066"/></g><path d="M380.84,252.17a.34.34,0,0,1-.33-.26.33.33,0,0,1,.25-.42l2.25-.56-2.11-1.3a.34.34,0,0,1-.11-.47.34.34,0,0,1,.48-.12l2.8,1.73a.35.35,0,0,1,.17.35.37.37,0,0,1-.26.28l-3.05.76Z" style="fill:#2d2d2c"/><path d="M393.21,252.17h-.08l-3.05-.76a.36.36,0,0,1-.26-.28.34.34,0,0,1,.16-.35l2.81-1.73a.35.35,0,0,1,.48.12.34.34,0,0,1-.11.47l-2.11,1.3,2.25.56a.35.35,0,0,1-.09.68Z" style="fill:#2d2d2c"/><circle cx="316.28" cy="68.77" r="9.29" transform="translate(176.96 360.92) rotate(-76.77)" style="fill:#ffe340"/><path d="M323.2,68.77a6.92,6.92,0,0,1-13.84,0Z" style="fill:#2d2d2c"/><g style="clip-path:url(#clip-path-3)"><path d="M321,75.75c0,1.79-2.09,3.24-4.67,3.24s-4.67-1.45-4.67-3.24,2.09-3.24,4.67-3.24S321,74,321,75.75Z" style="fill:#ff6066"/></g><path d="M310.59,67.16a.33.33,0,0,1-.31-.24.32.32,0,0,1,.24-.39l2.06-.52-1.93-1.18a.33.33,0,0,1-.11-.44.31.31,0,0,1,.44-.11l2.58,1.59a.32.32,0,0,1-.09.58l-2.8.7Z" style="fill:#2d2d2c"/><path d="M322,67.16h-.08l-2.8-.7a.32.32,0,0,1-.09-.58l2.58-1.59a.32.32,0,1,1,.33.55L320,66l2.07.52a.32.32,0,0,1,.23.39A.33.33,0,0,1,322,67.16Z" style="fill:#2d2d2c"/><rect x="237.4" y="89.79" width="128.75" height="230.97" rx="19.72" ry="19.72" transform="translate(603.55 410.55) rotate(180)" style="fill:#3a4c9f"/><rect x="242.78" y="115.13" width="118" height="180.29" transform="translate(603.55 410.56) rotate(180)" style="fill:#fff"/><path d="M283.26,103.61h0a1.62,1.62,0,0,1,1.61-1.62h33.81a1.63,1.63,0,0,1,1.62,1.62h0a1.62,1.62,0,0,1-1.62,1.61H284.87A1.62,1.62,0,0,1,283.26,103.61Z" style="fill:#273b82"/><circle cx="301.78" cy="307.16" r="7.12" transform="translate(-59.17 541.97) rotate(-78.55)" style="fill:#273b82"/><rect x="242.78" y="159.13" width="118" height="126.07" style="fill:#b8d5ff"/><rect x="273.03" y="131.48" width="58.18" height="4.44" style="fill:#d1d2d4"/><rect x="273.03" y="139.47" width="33.55" height="3.22" style="fill:#d1d2d4"/><circle cx="258.2" cy="136.29" r="9.22" transform="translate(-20.74 222.49) rotate(-45)" style="fill:#d1d2d4"/><path d="M344.8,133.42a1.49,1.49,0,1,1-1.49-1.49A1.48,1.48,0,0,1,344.8,133.42Zm3.4-1.49a1.49,1.49,0,1,0,1.49,1.49A1.49,1.49,0,0,0,348.2,131.93Zm4.89,0a1.49,1.49,0,1,0,1.49,1.49A1.49,1.49,0,0,0,353.09,131.93Z" style="fill:#d1d2d4"/><rect x="258.91" y="217.66" width="8.21" height="20.61" style="fill:#ff6066"/><rect x="277.4" y="199.57" width="8.21" height="38.7" style="fill:#3a4c9f"/><rect x="295.9" y="203.57" width="8.21" height="34.7" style="fill:#ff6066"/><rect x="314.4" y="190.17" width="8.21" height="48.1" style="fill:#3a4c9f"/><g style="opacity:0.15;mix-blend-mode:multiply"><rect x="277.4" y="199.57" width="3.77" height="38.7" style="opacity:0.26"/></g><g style="opacity:0.15;mix-blend-mode:multiply"><rect x="258.91" y="217.66" width="3.77" height="20.61" style="opacity:0.26"/></g><g style="opacity:0.62;mix-blend-mode:multiply"><rect x="314.4" y="190.17" width="3.77" height="48.1" style="opacity:0.26"/></g><g style="opacity:0.15;mix-blend-mode:multiply"><rect x="295.9" y="203.57" width="3.77" height="34.7" style="opacity:0.26"/></g><rect x="333.87" y="180.09" width="8.21" height="58.18" style="fill:#ff6066"/><g style="opacity:0.15;mix-blend-mode:multiply"><rect x="333.87" y="180.09" width="3.77" height="58.18" style="opacity:0.26"/></g><polygon points="347.75 244.93 251.79 244.93 251.79 166.7 252.91 166.7 252.91 243.81 347.75 243.81 347.75 244.93" style="fill:#fff"/><polygon points="337.05 176.58 334.4 169.53 341.54 170.87 337.05 176.58" style="fill:#fff"/><rect x="251.58" y="253.92" width="6.89" height="6.89" style="fill:#3a4c9f"/><rect x="251.58" y="265.99" width="6.89" height="6.89" style="fill:#ff6066"/><rect x="260.37" y="268.96" width="35.72" height="3.91" style="fill:#9cc9ff"/><rect x="260.37" y="256.89" width="35.72" height="3.91" style="fill:#9cc9ff"/><rect x="303" y="253.92" width="6.89" height="6.89" style="fill:#3a4c9f"/><rect x="303" y="265.99" width="6.89" height="6.89" style="fill:#ff6066"/><rect x="311.79" y="268.96" width="35.72" height="3.91" style="fill:#9cc9ff"/><rect x="311.79" y="256.89" width="35.72" height="3.91" style="fill:#9cc9ff"/><polyline points="262.67 201.81 281.51 188.1 299.67 196.41 318.16 180.09 337.33 172.17" style="fill:none;stroke:#fff;stroke-linecap:round;stroke-linejoin:round;stroke-width:1.0545300000000002px"/><circle cx="389.82" cy="122" r="8.1" transform="translate(40.22 333.25) rotate(-48.52)" style="fill:#568bff"/><path d="M391.41,117.3c1,.24.2,2.46-.48,2.83h2.29a.89.89,0,0,1,.86,1.07l-.57,2.68a1.89,1.89,0,0,1-1.86,1.5l-3.23,0,0-5.06C390.16,119.89,390.46,117.07,391.41,117.3Zm-3.7,7.42V121a.67.67,0,0,0-.67-.66h-.84a.66.66,0,0,0-.66.66v3.74a.65.65,0,0,0,.66.66H387A.66.66,0,0,0,387.71,124.72Z" style="fill:#fff"/><circle cx="393.56" cy="311.84" r="15.5" style="fill:#568bff"/><path d="M398.12,305.05a4.56,4.56,0,1,1-4.56-4.57A4.56,4.56,0,0,1,398.12,305.05Z" style="fill:#fff"/><path d="M396.78,323.2h-6.44a2.33,2.33,0,0,1-2.33-2.33v-5a5.54,5.54,0,0,1,5.55-5.55h0a5.54,5.54,0,0,1,5.55,5.55v5A2.33,2.33,0,0,1,396.78,323.2Z" style="fill:#fff"/><circle cx="213.55" cy="75.69" r="7.92" transform="translate(9.03 173.17) rotate(-45)" style="fill:#568bff"/><path d="M215.87,72.22a2.33,2.33,0,1,1-2.32-2.33A2.32,2.32,0,0,1,215.87,72.22Z" style="fill:#fff"/><path d="M215.19,81.49H211.9a1.19,1.19,0,0,1-1.19-1.2V77.74a2.84,2.84,0,0,1,2.84-2.84h0a2.84,2.84,0,0,1,2.83,2.84v2.55A1.19,1.19,0,0,1,215.19,81.49Z" style="fill:#fff"/><circle cx="358.25" cy="60.28" r="13.43" style="fill:#568bff"/><path d="M362.21,54.39a4,4,0,1,1-4-4A4,4,0,0,1,362.21,54.39Z" style="fill:#fff"/><path d="M361,70.12h-5.58a2,2,0,0,1-2-2V63.76A4.82,4.82,0,0,1,358.25,59h0a4.81,4.81,0,0,1,4.81,4.81V68.1A2,2,0,0,1,361,70.12Z" style="fill:#fff"/><circle cx="275.43" cy="347.15" r="7.92" transform="translate(-125.56 535.77) rotate(-76.76)" style="fill:#568bff"/><path d="M277.76,343.68a2.33,2.33,0,1,1-2.33-2.33A2.33,2.33,0,0,1,277.76,343.68Z" style="fill:#fff"/><path d="M277.08,353h-3.29a1.19,1.19,0,0,1-1.19-1.19V349.2a2.83,2.83,0,0,1,2.83-2.83h0a2.84,2.84,0,0,1,2.84,2.83v2.56A1.2,1.2,0,0,1,277.08,353Z" style="fill:#fff"/><path d="M123.78,337.58s.26,10.9,5.78,10.9,15.7-6.59,17.24-6,14.54,7.41,15.94,7.17,1.07-2.18,2.71-2.42,20,10.15,23.69,2c2.21-4.94-8.24-6.75-8.24-6.75s12.09-13.64,15.22-24.3S123.78,337.58,123.78,337.58Z" style="fill:#d1d3d4;opacity:0.63"/><path d="M162.08,341.43s13,.56,22.75-8.21c7.83-7,13.62-18.73,15.27-23.86s2.37-15.37-.11-17.08-47.29,40.94-47.29,40.94Z" style="fill:#171587"/><path d="M104.11,313.71s5.4-6.11,20-6.09c11.35,0,48.59,10.21,48.59,10.21l-16.2,17.32Z" style="fill:#171587"/><polygon points="171.86 338.39 164.3 335.15 161.72 340.01 165.14 342.85 170.92 342.85 171.86 338.39" style="fill:#ffe1bd"/><path d="M166,343.22a5.32,5.32,0,0,0,4.43-1.94c1.89-2.25.81-3.19,2-3.33s6.48,2.3,11.75,1.76,6.88-1.35,7.15.61-.42,9.21-6.77,8.94S166,343.22,166,343.22Z" style="fill:#08085e"/><path d="M165.14,342.85a5.32,5.32,0,0,0,4.43-1.94c1.89-2.25.81-3.19,2-3.33s6.48,2.3,11.75,1.76,6.88-1.35,7.15.61-.42,9.21-6.77,8.94S165.14,342.85,165.14,342.85Z" style="fill:#492107"/><path d="M124.09,316.21c8.25,5,42.31,16.46,42.31,16.46s1.27,8.77-6.09,11.38c0,0-41.08-11.59-50.8-16.05s-6.75-12.25-5.4-14.29S113.83,310,124.09,316.21Z" style="fill:#201d93"/><path d="M155.12,255.68a4.05,4.05,0,0,1,1.79,1.85,4.63,4.63,0,0,1,.43,2.85c-.45,2.57-1,6.59-1.64,10.82-1,6.8-2.13,14.19-3.15,17.15-.22.67,2.85,4.19,1.52,5.84,0,.05-.4,13.75-.44,13.8l-1.4,1.33c-.52.34-2.48,1.14-3.49.7s-26.16,7.67-26,7.43c10.52-12.08,19.29-18.87,19.95-20,1.29-2.3.43-25.79,1-30.48a18.46,18.46,0,0,1,2.29-7.06,17.28,17.28,0,0,1,4.15-4.06C152,254.27,153,254.56,155.12,255.68Z" style="fill:#c46600"/><path d="M181.23,292.31a18.83,18.83,0,0,0-.84,10.86c1.6,7.2-.22,7.68-.22,7.68s-8.66,6-17.11,6.91c-7.57.8-13.95,1.29-13.81-5.13l2.43,1.94c0-.4,0-.77,0-1.13.28-14.43-2.73-15.16-3.47-31.31-.77-16.58-4.8-18.77-1.17-23.48,5.37-6.95,19.61-10.5,30.9-7.83,8.47,2,11.26,4.25,11.19,10.52a49.17,49.17,0,0,1-.91,7.72C186.84,277,183.5,286.42,181.23,292.31Z" style="fill:#db7700"/><path d="M172.51,241.37c-3.22,2.15-5.29,3.89-9.45,3.89-1.57,0-1-.63-2.43-1,.73.38-.73,1-.17,1.16a2.45,2.45,0,0,1,1.95,2.26l.26,4.77,1.86,3.89,3.24-2.1,4.73-3.06-.47-7.4A1.93,1.93,0,0,1,172.51,241.37Z" style="fill:#ffe1bd"/><path d="M164.82,249.48l.32,4.43-.61,2.46-1.86-3.89-.26-4.77a2.45,2.45,0,0,0-1.95-2.26c-1.21-.26-.63-1.15-2.35-3a3.51,3.51,0,0,1-.29-.36c.21.12.49,1.79,4.35,2.22C165,244.66,164.61,246.62,164.82,249.48Z" style="fill:#e8c5a0"/><path d="M172.44,247.76a7.67,7.67,0,0,1,2.28,2.34,30.3,30.3,0,0,0-2.92,1.53c-1.24.76-7.21,5-7.21,5l-1.75-3.6S169.07,248.7,172.44,247.76Z" style="fill:#fff"/><path d="M162.84,253a5,5,0,0,0-2.73,2.27s-1.07-2,.3-5.68a9.15,9.15,0,0,1,2-1.47Z" style="fill:#fff"/><polygon points="171.86 312.19 131.54 311.84 155.55 320.8 171.86 312.19" style="fill:#b3c5ce"/><polygon points="155.46 321.75 172.74 320.13 172.87 318.71 155.3 320.36 155.46 321.75" style="fill:#e8f1f8"/><path d="M158.75,308.88l-3.28,1.8a5.66,5.66,0,0,0-6.45.2c-3.22,2.43.66,9.3,3,8.62s9.34-5.84,9.34-5.84Z" style="fill:#ffe1bd"/><polygon points="113.67 321.32 109.65 322.52 153.71 322.93 173.03 317.65 132 318.08 113.67 321.32" style="fill:#474747;opacity:0.24"/><path d="M174.54,307C168.4,308.91,162,318.67,162,318.67l-.56-.9s-3.17-1.43-4-4.35a25.27,25.27,0,0,1-.3-4.54s15.34-7.67,20.05-12.86c2.29-2.52,2.5-4.63,4.68-5.69-.07-.16-.13-.33-.19-.5-2.39-6.82-2.28-16.59-3.27-21.54a15.73,15.73,0,0,1,.19-7.1,13.66,13.66,0,0,1,2-4.32c1.48-2.08,3.5-3.68,6.11-3.07a4.87,4.87,0,0,1,2.48,1.44,5.14,5.14,0,0,1,1.37,2.83c1,7.17,4.06,26.81,3.92,31.21a8.17,8.17,0,0,1-.35,2.12,5.58,5.58,0,0,1-.19.69C191.68,298.33,180.68,305.05,174.54,307Z" style="fill:#c46600"/><path d="M155.46,321.75l-41.85-3.83a3,3,0,0,1-2.67-2.62l-3.31-29.15a2.48,2.48,0,0,1,2.7-2.75L149.52,287a2.5,2.5,0,0,1,2.25,2.2Z" style="fill:#d4dedf"/><path d="M153.13,229.23a5.46,5.46,0,0,1-1,1.73,5.94,5.94,0,0,0-1,3.18c0-.07-1.8-5-1.27-6.27s1.59-1.53,1.87-1.13S153.13,229.23,153.13,229.23Z" style="fill:#632f00"/><path d="M174.09,237.52a19,19,0,0,1,.08,3.55,1.8,1.8,0,0,1-.07.38,2.7,2.7,0,0,1-.08.39c-1,4-6.1,9.69-9.68,10.15a10.67,10.67,0,0,1-1.38,0c-5-.23-7.88-4.31-9.57-8.65l-.17-.45a40.17,40.17,0,0,1-2.09-9.63c0-.34,0-.54,0-.54a7.6,7.6,0,0,1,.11-3.33,1.61,1.61,0,0,1,.09-.26l.17,0c1.38-.43,10.76-3.3,11-3.32s9.65.66,9.65.66A102.52,102.52,0,0,1,174.09,237.52Z" style="fill:#ffe1bd"/><path d="M175.42,237.3a19,19,0,0,1,.08,3.55,2.71,2.71,0,0,1-.06.38c-.65,4-5.57,10.27-11.1,10.76a10.79,10.79,0,0,1-1.23.11c-6,.24-8.06-4.27-9.72-8.73l-.17-.45s2.08,3.32,3.12,3.42-.25-1.2,2.57-2.3a14,14,0,0,1,5.78-.48c1.17.16,3.28.76,4,.87a.91.91,0,0,0,.43,0c1-.51,3-3.87,3.35-6C172.63,237.54,174.64,237.16,175.42,237.3Z" style="fill:#8c4200"/><path d="M147.06,224.27s.31,7.21,12.15,4.33,10.94,8.89,10.94,8.89,1.65-4,2.14-2.43,0,5.44,0,5.44,3.25.35,3.35-1.25c.06-1,.16-14.61-2.18-17.85s-5.15-3.09-5.15-3.09-3-2.5-10-.45-10.66-.54-10.65-.34A14,14,0,0,0,147.06,224.27Z" style="fill:#8c4200"/><path d="M170,234.94c-.12-.49-2.27-.4-3.8-.21s-5.59.71-6.45,1.21-.82.84-1.27.89-.45-.28-1.4-.55a17.47,17.47,0,0,0-4.83.21c-1.53.19-3,.49-3,1s.24,1.38.54,1.51.3.11,1.4,2.07c.62,1.09,1.61,1.7,3.59,1.32,2.52-.49,2.78-2.57,3-3.44s.41-1,.8-1.06.63,0,1.08.82.7,2.63,3.26,2.65c3.35,0,4.84-.87,5.38-2.45.73-2.14.59-2.15.85-2.35s.85-.35.88-.63A3.11,3.11,0,0,0,170,234.94Zm-13,4.84a2.66,2.66,0,0,1-2.57,2.31c-1.55.19-2.23-.38-3-1.78-.66-1.23-.65-2.22-.37-2.57s1.1-.37,3-.53,2.55-.2,2.83.4A5.53,5.53,0,0,1,157,239.78Zm11-1.55c-.39,1.55-1.2,2.31-3.31,2.57-3,.36-3.54-.47-3.93-1.49a5.41,5.41,0,0,1-.45-2.12c.12-.66.75-.76,2.64-1.09s4.42-.73,4.78-.46S168.31,236.88,168,238.23Z" style="fill:#282c3b"/><polygon points="142.35 333.52 150.01 330.52 152.43 335.46 148.92 338.19 143.15 338 142.35 333.52" style="fill:#ffe1bd"/><path d="M148.1,338.53a5.32,5.32,0,0,1-4.36-2.07c-1.82-2.31-.71-3.22-1.92-3.4s-6.54,2.09-11.79,1.38-6.84-1.56-7.17.39.13,9.22,6.48,9.15S148.1,338.53,148.1,338.53Z" style="fill:#08085e"/><path d="M148.92,338.19a5.31,5.31,0,0,1-4.36-2.08c-1.81-2.31-.71-3.22-1.92-3.39s-6.54,2.09-11.79,1.38-6.84-1.56-7.17.38.13,9.22,6.48,9.16S148.92,338.19,148.92,338.19Z" style="fill:#492107"/><path d="M147.38,328s19.36-15.75,27.46-24.11,13.23-16.55,22.68-13.27-2.43,20.85-11.07,27.72-30,22-30,22S145,336.26,147.38,328Z" style="fill:#2d24a3"/><circle cx="129.6" cy="302.57" r="3.41" style="fill:#b4bcc5"/><rect x="87.1" y="175.97" width="88.41" height="26.71" rx="5.51" ry="5.51" style="fill:#2672e7"/><circle cx="100.09" cy="189.33" r="7.63" transform="translate(-104.56 126.23) rotate(-45)" style="fill:#fff"/><path d="M101.59,184.9c.9.22.19,2.31-.45,2.66h2.16a.83.83,0,0,1,.8,1l-.53,2.52a1.77,1.77,0,0,1-1.75,1.41l-3,0,0-4.77C100.42,187.33,100.69,184.68,101.59,184.9Zm-3.49,6.95V188.4a.66.66,0,0,0-.66-.66h-.72a.66.66,0,0,0-.66.66v3.45a.66.66,0,0,0,.66.66h.72A.66.66,0,0,0,98.1,191.85Z" style="fill:#3a4c9f"/><text transform="translate(109.31 193.05)" style="font-size:9.1983003616333px;fill:#fff;font-family:OpenSans-Bold, Open Sans;font-weight:700">1000</text><circle cx="143.53" cy="189.33" r="7.63" transform="translate(-66.3 300.76) rotate(-80.8)" style="fill:#fff"/><path d="M148.14,188c0,2.84-4.61,5.15-4.61,5.15s-4.59-2.31-4.61-5.15c0-3.63,4.74-2.68,4.78-1.05C143.66,185.32,148.14,184.6,148.14,188Z" style="fill:#ff6066"/><text transform="translate(152.75 193.05)" style="font-size:9.1983003616333px;fill:#fff;font-family:OpenSans-Bold, Open Sans;font-weight:700">980</text><polygon points="149.71 199.28 154.91 210.28 159.8 199.98 149.71 199.28" style="fill:#2672e7"/><rect x="131.38" y="95.29" width="88.41" height="26.71" rx="5.51" ry="5.51" style="fill:#2672e7"/><circle cx="144.37" cy="108.65" r="7.63" style="fill:#fff"/><path d="M145.87,104.22c.91.22.19,2.31-.45,2.66h2.16a.84.84,0,0,1,.81,1l-.54,2.52a1.76,1.76,0,0,1-1.75,1.41l-3,0,0-4.77C144.7,106.65,145,104,145.87,104.22Zm-3.48,7v-3.45a.67.67,0,0,0-.67-.66H141a.67.67,0,0,0-.66.66v3.45a.67.67,0,0,0,.66.66h.72A.67.67,0,0,0,142.39,111.17Z" style="fill:#3a4c9f"/><text transform="translate(153.6 112.37)" style="font-size:9.1983003616333px;fill:#fff;font-family:OpenSans-Bold, Open Sans;font-weight:700">1000</text><circle cx="187.81" cy="108.65" r="7.63" style="fill:#fff"/><path d="M192.42,107.32c0,2.85-4.61,5.15-4.61,5.15s-4.59-2.3-4.61-5.15c0-3.63,4.74-2.68,4.78-1C187.94,104.64,192.43,103.92,192.42,107.32Z" style="fill:#ff6066"/><text transform="translate(197.04 112.37)" style="font-size:9.1983003616333px;fill:#fff;font-family:OpenSans-Bold, Open Sans;font-weight:700">980</text><polygon points="199.59 119.55 208.14 128.21 208.14 117.21 199.59 119.55" style="fill:#2672e7"/><path d="M231.62,327.56a34.75,34.75,0,0,1,.77,6.77c-.38,2.09,0,2.7,0,2.7l7.9-.68s-3.49-1.71-3.25-9.86S231.62,327.56,231.62,327.56Z" style="fill:#fc9"/><path d="M232.29,335a12.3,12.3,0,0,0,6.82.32,32.4,32.4,0,0,0,10.43,3c3.63.45,3,3.44-3.21,3a76.23,76.23,0,0,0-11.91,0c-1.38.13-3.58.32-3.67-.65S231.17,334.64,232.29,335Z" style="fill:#201d93"/><path d="M207.38,327.56a35.12,35.12,0,0,1,.76,6.77c-.38,2.09,0,2.7,0,2.7l7.89-.68s-3.49-1.71-3.24-9.86S207.38,327.56,207.38,327.56Z" style="fill:#fc9"/><path d="M208,335a12.34,12.34,0,0,0,6.83.32,32.25,32.25,0,0,0,10.43,3c3.63.45,3,3.44-3.21,3a76.2,76.2,0,0,0-11.91,0c-1.38.13-3.58.32-3.68-.65S206.92,334.64,208,335Z" style="fill:#2d24a3"/><path d="M234.68,213.94s5.09,53.25,5.39,60.18a100,100,0,0,1,0,13.56c-.3,4.22,2.3,39.77,2.3,39.77s-11.83,3.09-14.85.35c0,0,.49-38.77-1-45.4s-7.4-40.23-7.4-40.23l6.79-34.35Z" style="fill:#201d93"/><path d="M207.22,139.85s.49-9.26,4.31-11.75,14-3.39,17.18.9,6.5,22.95-8.84,25.35L211.93,191s-20.69-2.12-22.27-13.19,7.84-16.23,7.84-16.23-4.52-9.31.22-15.87S207.22,139.85,207.22,139.85Z" style="fill:#3838d6"/><path d="M237.07,171.74s18.7,2.68,23.75,2.44c4,.24,9.68-23.31,10.25-24.75,3.16-2.15,4.41-3.82,4.36-5.44s-4.08-3-4.47-2.18c.67-2.16.82-2.83,1-3.57.37-1.53-.7-2.69-2.25,3.08s-1.38,4.76-1.75,6.76c-2.49,5.2-8.93,17.33-9.37,19.16-8.34-.21-22.49-3.74-22.49-3.74Z" style="fill:#fc9"/><path d="M209,278c1.21-10-1-50.26-.91-58.8s24.12-4.19,24.12-4.19-7.53,50-8.44,57.26-2.11,9.35-2.56,16.28-3.77,39.48-3.77,39.48-13.22,2.22-14.22-.28C201.15,315,209,278,209,278Z" style="fill:#2d24a3"/><path d="M227.41,158.69l10.85,2.92s-1.21,9.13,0,11.85h-7.54s-1.3,3.92-2,5.72,5.63,32.21,6.54,37.93c0,0-16-3-28.64,2.76,0,0,1.21-12.05,5.43-20.49s-12.69-28.11-12.69-28.11,5.16-15.82,14.2-16.8C220.76,153.69,220.72,156.89,227.41,158.69Z" style="fill:#fff"/><path d="M226.81,132.23s3.31,9,1.2,13.2-7.23,3.62-7.23,3.62v9.64a2.37,2.37,0,0,1-1.43.55c-1.58.09-5.8-2.66-5.8-2.66v-22.3Z" style="fill:#fc9"/><path d="M196.36,170.69s-16,18.21-15.14,20.47,18.76,12.21,20.35,13.57,6.44,6.78,6.61,6.06,3.11-2.45,3.33-4.26a4.7,4.7,0,0,0-1.36-3.39l-6.78-.9s-12.2-10.17-12.65-11.53,13.79-15.37,13.79-15.37Z" style="fill:#fc9"/><path d="M194.88,169.84s9.3-13.12,15.07-12.66,5.42,8.89,0,14.77-7.24,8.14-7.24,8.14S196.08,176.77,194.88,169.84Z" style="fill:#fff"/><path d="M227.23,130.91s-2.16,10.3-7.13,13-1.22,9.38-6,14.36c-2.53,2.67-7.35-.3-7.35-.3l4.74-25.75Z" style="fill:#3838d6"/><g style="opacity:0.38"><circle cx="405.22" cy="155.59" r="3.59" style="fill:none;stroke:#fff;stroke-miterlimit:10;stroke-width:0.905648px"/><path d="M358.64,148.8a3.59,3.59,0,1,1-3.58-3.59A3.58,3.58,0,0,1,358.64,148.8Z" style="fill:none;stroke:#fff;stroke-miterlimit:10;stroke-width:0.905648px"/><circle cx="110.88" cy="142.69" r="3.59" style="fill:none;stroke:#fff;stroke-miterlimit:10;stroke-width:0.905648px"/><circle cx="63.37" cy="107.06" r="3.59" style="fill:none;stroke:#fff;stroke-miterlimit:10;stroke-width:0.905648px"/><circle cx="371.69" cy="334.16" r="3.59" style="fill:none;stroke:#fff;stroke-miterlimit:10;stroke-width:0.905648px"/><path d="M19.69,327.93a3.59,3.59,0,1,1-3.59-3.59A3.59,3.59,0,0,1,19.69,327.93Z" style="fill:none;stroke:#fff;stroke-miterlimit:10;stroke-width:0.905648px"/><path d="M191.86,225.79a3.59,3.59,0,1,1-3.59-3.59A3.59,3.59,0,0,1,191.86,225.79Z" style="fill:none;stroke:#fff;stroke-miterlimit:10;stroke-width:0.905648px"/><path d="M27.76,183.66a3.59,3.59,0,1,1-3.58-3.59A3.58,3.58,0,0,1,27.76,183.66Z" style="fill:none;stroke:#fff;stroke-miterlimit:10;stroke-width:0.905648px"/><circle cx="152.69" cy="67.71" r="3.59" style="fill:none;stroke:#fff;stroke-miterlimit:10;stroke-width:0.905648px"/><path d="M406.21,67.16a3.59,3.59,0,1,1-3.59-3.59A3.59,3.59,0,0,1,406.21,67.16Z" style="fill:none;stroke:#fff;stroke-miterlimit:10;stroke-width:0.905648px"/><path d="M293.23,76.52h-2.65V73.87a.76.76,0,0,0-.77-.77.77.77,0,0,0-.78.77v2.65h-2.64a.77.77,0,1,0,0,1.54H289v2.65a.78.78,0,0,0,.78.78.77.77,0,0,0,.77-.78V78.06h2.65a.77.77,0,1,0,0-1.54Z" style="fill:#fff"/><path d="M198.86,54.68h-2.65V52a.77.77,0,1,0-1.54,0v2.65H192a.78.78,0,1,0,0,1.55h2.65v2.64a.77.77,0,1,0,1.54,0V56.23h2.65a.78.78,0,0,0,0-1.55Z" style="fill:#fff"/><path d="M103.51,80.71h-2.65V78.06a.77.77,0,1,0-1.54,0v2.65H96.67a.78.78,0,0,0,0,1.55h2.65v2.65a.77.77,0,1,0,1.54,0V82.26h2.65a.78.78,0,1,0,0-1.55Z" style="fill:#fff"/><path d="M151.33,156.4h-2.64v-2.65a.77.77,0,0,0-.78-.77.76.76,0,0,0-.77.77v2.65h-2.65a.77.77,0,1,0,0,1.54h2.65v2.65a.77.77,0,0,0,.77.78.78.78,0,0,0,.78-.78v-2.65h2.64a.77.77,0,1,0,0-1.54Z" style="fill:#fff"/><path d="M106.19,279.8h-2.65v-2.65a.78.78,0,1,0-1.55,0v2.65H99.34a.77.77,0,1,0,0,1.54H102V284a.78.78,0,0,0,1.55,0v-2.65h2.65a.77.77,0,1,0,0-1.54Z" style="fill:#fff"/><path d="M406,279.8h-2.65v-2.65a.77.77,0,0,0-.77-.78.78.78,0,0,0-.78.78v2.65H399.2a.77.77,0,1,0,0,1.54h2.64V284a.77.77,0,0,0,.78.77.76.76,0,0,0,.77-.77v-2.65H406a.77.77,0,0,0,0-1.54Z" style="fill:#fff"/><path d="M124.7,236.34h-2.64v-2.65a.78.78,0,0,0-.78-.77.77.77,0,0,0-.77.77v2.65h-2.65a.78.78,0,0,0,0,1.55h2.65v2.64a.77.77,0,0,0,.77.78.78.78,0,0,0,.78-.78v-2.64h2.64a.78.78,0,1,0,0-1.55Z" style="fill:#fff"/><path d="M323.72,329.31h-2.65v-2.65a.78.78,0,1,0-1.55,0v2.65h-2.64a.77.77,0,1,0,0,1.54h2.64v2.65a.78.78,0,0,0,1.55,0v-2.65h2.65a.77.77,0,0,0,0-1.54Z" style="fill:#fff"/><path d="M386.76,213.17h-2.64v-2.65a.78.78,0,0,0-.78-.77.77.77,0,0,0-.77.77v2.65h-2.65a.78.78,0,0,0,0,1.55h2.65v2.65a.77.77,0,0,0,.77.77.78.78,0,0,0,.78-.77v-2.65h2.64a.78.78,0,1,0,0-1.55Z" style="fill:#fff"/></g></g></g></g></svg>