<svg xmlns="http://www.w3.org/2000/svg" xmlns:xlink="http://www.w3.org/1999/xlink" viewBox="0 0 554.88 414.5"><defs><linearGradient id="Fading_Sky" x1="465.57" y1="380.41" x2="432.91" y2="348.08" gradientUnits="userSpaceOnUse"><stop offset="0" stop-color="#2484c6"/><stop offset="1" stop-color="#2484c6" stop-opacity="0"/></linearGradient><linearGradient id="Fading_Sky-2" x1="507.39" y1="381.7" x2="545.72" y2="345.37" xlink:href="#Fading_Sky"/><linearGradient id="linear-gradient" x1="351.35" y1="264.98" x2="622.83" y2="264.98" xlink:href="#Fading_Sky"/><linearGradient id="linear-gradient-2" x1="490.8" y1="179.77" x2="492.66" y2="179.77" gradientUnits="userSpaceOnUse"><stop offset="0" stop-color="#f7941e"/><stop offset="1" stop-color="#f7941e" stop-opacity="0"/></linearGradient></defs><title>last</title><g style="isolation:isolate"><g id="OBJECTS"><path d="M747,112.16S664.16,38,577.93,120C482.29,211,534.8,371.66,454.64,376.2s-108.67-17.14-160,14.9c-59.54,37.2-46.52,104.81-46.52,104.81H747Z" transform="translate(-192.12 -81.41)" style="fill:#9e9e9e"/><path d="M747,343.7s-35.09-39.72-88.78-26C577.47,338.29,599.44,407,539.89,421.06s-229.5-15.71-287.28,0-60.49,74.85-60.49,74.85H747Z" transform="translate(-192.12 -81.41)" style="fill:#6d6d6d"/><path d="M471.81,381l-4.16-14.12s6.33-26.85-7-28.06c-12.67-1.15-9.27,23-8.88,25.63-.43-2.71-5-29.55-16-25.47-12.33,4.58,7.47,29.46,7.47,29.46-4.44-5.75-15.89-14.26-19.92-5.26-1.76,3.93,2,7.58,6.82,10.45-3.08-.72-6.24-1.07-7.26.17-2.84,3.48,3,7.52,14.14,7.74,4,.08,6.09-.75,7.07-1.85l.22.07Z" transform="translate(-192.12 -81.41)" style="fill:#78e2ff"/><path d="M471.81,381l-4.16-14.12s6.33-26.85-7-28.06c-12.67-1.15-9.27,23-8.88,25.63-.43-2.71-5-29.55-16-25.47-12.33,4.58,7.47,29.46,7.47,29.46-4.44-5.75-15.89-14.26-19.92-5.26-1.76,3.93,2,7.58,6.82,10.45-3.08-.72-6.24-1.07-7.26.17-2.84,3.48,3,7.52,14.14,7.74,4,.08,6.09-.75,7.07-1.85l.22.07Z" transform="translate(-192.12 -81.41)" style="fill:url(#Fading_Sky)"/><path d="M451.31,381.75s-13.87-5.36-10.52-10c2.11-2.92,6.18,2,6.18,2s-5.36-7-.72-9.15c4.81-2.22,7.4,5.87,7.4,5.87s-1.8-7.09,1.87-8.09,4,7.09,4,7.09,4.73-6.38,7.55-1.3c2.56,4.62-5.21,13.81-5.21,13.81" transform="translate(-192.12 -81.41)" style="fill:#00a4d6;opacity:0.2;mix-blend-mode:multiply"/><path d="M553.65,375.77c.23-2.55-5.49-2.55-9.89-2.09,5.84-3.31,10.94-7.61,9-11.91-4-9-17.14.92-21.59,6.67,0,0,19.81-24.88,7.48-29.46-11-4.08-15.61,22.76-16,25.47.4-2.59,3.8-26.78-8.87-25.63C500.41,340,502.57,381,502.57,381S552.81,384.68,553.65,375.77Z" transform="translate(-192.12 -81.41)" style="fill:#78e2ff"/><path d="M553.65,375.77c.23-2.55-5.49-2.55-9.89-2.09,5.84-3.31,10.94-7.61,9-11.91-4-9-17.14.92-21.59,6.67,0,0,19.81-24.88,7.48-29.46-11-4.08-15.61,22.76-16,25.47.4-2.59,3.8-26.78-8.87-25.63C500.41,340,502.57,381,502.57,381S552.81,384.68,553.65,375.77Z" transform="translate(-192.12 -81.41)" style="fill:url(#Fading_Sky-2)"/><path d="M522.87,382.69s13.87-5.36,10.52-10c-2.11-2.91-6.18,2-6.18,2s5.36-7,.72-9.15c-4.81-2.22-7.4,5.86-7.4,5.86s1.79-7.08-1.87-8.08-3.95,7.08-3.95,7.08-4.73-6.37-7.55-1.29c-2.56,4.61,5.21,13.81,5.21,13.81" transform="translate(-192.12 -81.41)" style="fill:#00a4d6;opacity:0.2;mix-blend-mode:multiply"/><g style="opacity:0.2"><path d="M362.24,270.64a16.16,16.16,0,1,0,3.64,14,16.35,16.35,0,0,0,.35-3.38A16.06,16.06,0,0,0,362.24,270.64Zm.95,13.44a13.47,13.47,0,0,1-7.15,9.21,13.25,13.25,0,0,1-6,1.42,13.44,13.44,0,1,1,13.43-13.44A13.74,13.74,0,0,1,363.19,284.08Z" transform="translate(-192.12 -81.41)" style="fill:#18bdf7"/></g><path d="M365.88,284.65a16.23,16.23,0,0,1-8.61,11.1L356,293.29a13.47,13.47,0,0,0,7.15-9.21Z" transform="translate(-192.12 -81.41)" style="fill:#18bdf7;opacity:0.2"/><path d="M362.24,270.64l-2.07,1.8a13.43,13.43,0,0,0-19.7-.58l-2-1.93a16.17,16.17,0,0,1,23.73.71Z" transform="translate(-192.12 -81.41)" style="fill:#4a63fe;opacity:0.26"/><g style="opacity:0.8"><g style="opacity:0.2"><path d="M457,133.37a10.75,10.75,0,1,0,2.42,9.32,11.08,11.08,0,0,0,.23-2.25A10.71,10.71,0,0,0,457,133.37Zm.63,8.94a9,9,0,0,1-4.76,6.13,8.87,8.87,0,1,1,4.76-6.13Z" transform="translate(-192.12 -81.41)" style="fill:#18bdf7"/></g><path d="M459.43,142.69a10.77,10.77,0,0,1-5.73,7.38l-.82-1.63a9,9,0,0,0,4.76-6.13Z" transform="translate(-192.12 -81.41)" style="fill:#18bdf7;opacity:0.2"/><path d="M457,133.37l-1.38,1.2a8.92,8.92,0,0,0-13.11-.39l-1.3-1.28a10.74,10.74,0,0,1,15.79.47Z" transform="translate(-192.12 -81.41)" style="fill:#4a63fe;opacity:0.26"/></g><path d="M337,323.29l1.64-1.22a10.16,10.16,0,0,0-3.13-3.13l-1.22,1.64a7.92,7.92,0,0,0-2.28-.95l.3-2a10.21,10.21,0,0,0-2.22-.25,10,10,0,0,0-2.21.25l.3,2a8,8,0,0,0-2.29.95l-1.22-1.64a10.16,10.16,0,0,0-3.13,3.13l1.64,1.22a8,8,0,0,0-.94,2.28l-2-.29a9.89,9.89,0,0,0,0,4.42l2-.29a8,8,0,0,0,.94,2.28l-1.64,1.22a10.16,10.16,0,0,0,3.13,3.13l1.22-1.64a8,8,0,0,0,2.29,1l-.3,2a10,10,0,0,0,2.21.25,10.21,10.21,0,0,0,2.22-.25l-.3-2a7.92,7.92,0,0,0,2.28-1l1.22,1.64a10.16,10.16,0,0,0,3.13-3.13L337,331.69a8,8,0,0,0,.95-2.28l2,.29a9.89,9.89,0,0,0,0-4.42l-2,.29A8,8,0,0,0,337,323.29ZM330,332.87a5.38,5.38,0,1,1,5.38-5.38A5.38,5.38,0,0,1,330,332.87Z" transform="translate(-192.12 -81.41)" style="fill:#00a4d6;opacity:0.2"/><path d="M651.14,169.4l2.46-1.83a15.21,15.21,0,0,0-4.69-4.69l-1.83,2.46a12.07,12.07,0,0,0-3.43-1.42l.45-3a15.08,15.08,0,0,0-6.64,0l.44,3a12.12,12.12,0,0,0-3.42,1.42l-1.83-2.46a15.21,15.21,0,0,0-4.69,4.69l2.46,1.83a12.12,12.12,0,0,0-1.42,3.42l-3-.44a15.08,15.08,0,0,0,0,6.64l3-.45a12.07,12.07,0,0,0,1.42,3.43L628,183.83a15.21,15.21,0,0,0,4.69,4.69l1.83-2.46a12.12,12.12,0,0,0,3.42,1.42l-.44,3a15.08,15.08,0,0,0,6.64,0l-.45-3a12.07,12.07,0,0,0,3.43-1.42l1.83,2.46a15.21,15.21,0,0,0,4.69-4.69L651.14,182a12.07,12.07,0,0,0,1.42-3.43l3,.45a15.08,15.08,0,0,0,0-6.64l-3,.44A12.12,12.12,0,0,0,651.14,169.4Zm-10.36,14.36a8.06,8.06,0,1,1,8.06-8.06A8.06,8.06,0,0,1,640.78,183.76Z" transform="translate(-192.12 -81.41)" style="fill:#00a4d6;opacity:0.15"/><path d="M419.43,121.17a4.17,4.17,0,1,1-4.16-4.17A4.16,4.16,0,0,1,419.43,121.17Z" transform="translate(-192.12 -81.41)" style="fill:none;stroke:#00a4d6;stroke-miterlimit:10;stroke-width:2px;opacity:0.1"/><path d="M580.77,136.29a4.17,4.17,0,1,1-4.17-4.17A4.16,4.16,0,0,1,580.77,136.29Z" transform="translate(-192.12 -81.41)" style="fill:none;stroke:#00a4d6;stroke-miterlimit:10;stroke-width:0.5px;opacity:0.5"/><circle cx="278.09" cy="85.61" r="6.52" style="fill:none;stroke:#00a4d6;stroke-miterlimit:10;stroke-width:3.1273700000000004px;opacity:0.1"/><path d="M662.49,264.26a6.52,6.52,0,1,1-6.52-6.51A6.52,6.52,0,0,1,662.49,264.26Z" transform="translate(-192.12 -81.41)" style="fill:none;stroke:#00a4d6;stroke-miterlimit:10;stroke-width:3.1273700000000004px;opacity:0.1"/><path d="M622.83,186.78V343.17a6.74,6.74,0,0,1-6.74,6.74h-258a6.74,6.74,0,0,1-6.74-6.74V186.78a6.74,6.74,0,0,1,6.74-6.74h258A6.74,6.74,0,0,1,622.83,186.78Z" transform="translate(-192.12 -81.41)" style="fill:#4a63fe"/><polygon points="322.58 297.31 267.35 297.31 273.35 273.72 274.7 268.37 277.35 258.01 312.58 258.01 315.23 268.37 316.58 273.72 322.58 297.31" style="fill:#4a63fe"/><polygon points="316.58 273.72 273.35 273.72 274.7 268.37 315.23 268.37 316.58 273.72" style="fill:#425de2"/><path d="M535.9,385.24H438.26A4.24,4.24,0,0,1,434,381h0a4.24,4.24,0,0,1,4.24-4.24H535.9a4.24,4.24,0,0,1,4.25,4.24h0A4.24,4.24,0,0,1,535.9,385.24Z" transform="translate(-192.12 -81.41)" style="fill:#425de2"/><rect x="158.72" y="122.77" width="271.99" height="118.67" style="fill:#60f4df;opacity:0.2"/><path d="M487.07,342.2h0a6.28,6.28,0,0,1-6.26-6.26h0a6.28,6.28,0,0,1,6.26-6.26h0a6.28,6.28,0,0,1,6.26,6.26h0A6.28,6.28,0,0,1,487.07,342.2Z" transform="translate(-192.12 -81.41)" style="fill:#3b5bd1"/><rect x="252.8" y="125.94" width="171.84" height="73.38" rx="3.28" ry="3.28" style="fill:#fff;opacity:0.2"/><path d="M612.15,246.64v27.89a2.26,2.26,0,0,1-2.26,2.25H451.16a2.26,2.26,0,0,1-2.26-2.25V213.27c14.66,0,22,5.48,26.24,12.68q.42.69.78,1.41c7.24,13.7,5.06,32.48,21,32.48a6.55,6.55,0,0,0,1.68-.21,4.68,4.68,0,0,0,1-.32c10.71-4.51,9-36.52,28.09-36.29a12.85,12.85,0,0,1,9.51,4.1c.23.25.46.5.68.77,8.53,10,8.65,32.32,21.75,36.37,4.72,1.46,8.89-.52,13-3.79.26-.21.53-.42.79-.65,8.71-7.23,17.37-19.59,30.81-16.56l1.18.3A28.1,28.1,0,0,1,612.15,246.64Z" transform="translate(-192.12 -81.41)" style="fill:#fff;opacity:0.39"/><path d="M612.16,241a10,10,0,0,0-6.78,2.55c-3.24,2.87-5,7.77-6.68,12.56-2.55,7.17-5.18,14.57-12.87,14.57-.41,0-.84,0-1.28-.06-5-.49-8.7-4.57-11.95-10.16-2-3.46-3.87-7.51-5.75-11.66-5.32-11.67-10.83-23.74-21-24h-.34a11.07,11.07,0,0,0-7.7,3.11c-4.29,3.91-7,11-9.69,17.86-3.95,10.21-8,20.77-17.24,21-6.62.14-9.63-2.36-12.33-7.1-1-1.84-2-4-3.18-6.51a120.18,120.18,0,0,0-9-16.83,23.47,23.47,0,0,0-10.5-8.93c-10.62-4.63-23.12-1.24-27,0v-1c4.18-1.32,15.86-4.31,26.24-.39a24.51,24.51,0,0,1,12.11,9.8,120.18,120.18,0,0,1,9.06,16.95c1.18,2.58,2.19,4.79,3.25,6.61,2.54,4.39,5.33,6.56,11.33,6.42,8.54-.2,12.32-10,16.33-20.34,2.72-7,5.49-14.21,9.94-18.27a12,12,0,0,1,8.74-3.33c10.78.29,16.41,12.65,21.86,24.61,1.86,4.06,3.66,8,5.63,11.42,3.12,5.42,6.62,9.35,11.26,9.81,7.92.78,10.44-6.32,13.11-13.85,1.66-4.69,3.36-9.47,6.44-12.52a10.93,10.93,0,0,1,7.94-3.25Z" transform="translate(-192.12 -81.41)" style="fill:#fff;opacity:0.8"/><rect x="333.78" y="202.42" width="90.86" height="16.08" rx="2.79" ry="2.79" style="fill:#9cd7ff;opacity:0.5"/><rect x="333.78" y="221.85" width="90.86" height="16.08" rx="2.79" ry="2.79" style="fill:#fff;opacity:0.2"/><rect x="165.69" y="125.94" width="84.33" height="35.51" rx="3.28" ry="3.28" style="fill:#9cd7ff;opacity:0.2"/><g style="opacity:0.30000000000000004"><rect x="233.14" y="134.85" width="5.83" height="23.58" rx="0.83" ry="0.83" style="fill:#fff"/><rect x="241.15" y="129.33" width="5.83" height="29.1" rx="0.92" ry="0.92" style="fill:#fff"/><rect x="169.03" y="129.33" width="5.83" height="29.1" rx="0.92" ry="0.92" style="fill:#fff"/><rect x="177.04" y="136.23" width="5.83" height="22.21" rx="0.8" ry="0.8" style="fill:#fff"/><rect x="185.05" y="129.33" width="5.83" height="29.1" rx="0.92" ry="0.92" style="fill:#fff"/><rect x="193.07" y="142.37" width="5.83" height="16.07" rx="0.68" ry="0.68" style="fill:#fff"/><rect x="201.08" y="129.33" width="5.83" height="29.1" rx="0.92" ry="0.92" style="fill:#fff"/><rect x="209.09" y="134.85" width="5.83" height="23.58" rx="0.83" ry="0.83" style="fill:#fff"/><rect x="217.11" y="129.33" width="5.83" height="29.1" rx="0.92" ry="0.92" style="fill:#fff"/><rect x="225.12" y="136.23" width="5.83" height="22.21" rx="0.8" ry="0.8" style="fill:#fff"/></g><rect x="165.69" y="164.18" width="84.33" height="35.51" rx="3.28" ry="3.28" style="fill:#fff;opacity:0.2"/><rect x="165.69" y="202.42" width="84.33" height="35.51" rx="3.28" ry="3.28" style="fill:#fff;opacity:0.2"/><path d="M437.9,250.2a1.59,1.59,0,0,0-1.59,1.58,1.61,1.61,0,0,0,.22.79l-12.89,14.56a1.55,1.55,0,0,0-1.24,0l-13.88-13.64a1.52,1.52,0,0,0,.15-.65,1.59,1.59,0,0,0-3.17,0,1.64,1.64,0,0,0,.15.67l-17.84,19.26a1.59,1.59,0,0,0-.91-.29,1.52,1.52,0,0,0-.76.21L376.38,260a1.63,1.63,0,0,0,.3-.92,1.59,1.59,0,1,0-3.17,0,1.56,1.56,0,0,0,.21.77L362.78,274a1.46,1.46,0,0,0-.55-.11,1.59,1.59,0,1,0,1.58,1.59,1.52,1.52,0,0,0-.25-.85l10.9-14.13a1.65,1.65,0,0,0,.63.13,1.45,1.45,0,0,0,.47-.08l9.89,12.88a1.61,1.61,0,0,0-.13.63,1.59,1.59,0,0,0,3.17,0,1.45,1.45,0,0,0-.08-.47l17.94-19.36a1.65,1.65,0,0,0,.73.19,1.62,1.62,0,0,0,.76-.2l13.82,13.58a1.59,1.59,0,1,0,2.74-.05l12.87-14.54a1.61,1.61,0,0,0,.63.12,1.58,1.58,0,1,0,0-3.16Z" transform="translate(-192.12 -81.41)" style="fill:#fff;opacity:0.5"/><rect x="168.78" y="205.1" width="71.33" height="3" rx="1.43" ry="1.43" style="fill:#fff;opacity:0.30000000000000004"/><rect x="168.78" y="210.46" width="64.17" height="3" rx="1.36" ry="1.36" style="fill:#fff;opacity:0.30000000000000004"/><path d="M438,300.23H362.4a1.5,1.5,0,0,1-1.5-1.5h0a1.5,1.5,0,0,1,1.5-1.5H438a1.5,1.5,0,0,1,1.5,1.5h0A1.5,1.5,0,0,1,438,300.23Z" transform="translate(-192.12 -81.41)" style="fill:#fff;opacity:0.30000000000000004"/><rect x="168.78" y="221.17" width="57.08" height="3" rx="1.28" ry="1.28" style="fill:#fff;opacity:0.30000000000000004"/><rect x="168.78" y="226.53" width="72.08" height="3" rx="1.44" ry="1.44" style="fill:#fff;opacity:0.30000000000000004"/><path d="M438,316.29H362.4a1.5,1.5,0,0,1-1.5-1.5h0a1.5,1.5,0,0,1,1.5-1.5H438a1.5,1.5,0,0,1,1.5,1.5h0A1.5,1.5,0,0,1,438,316.29Z" transform="translate(-192.12 -81.41)" style="fill:#fff;opacity:0.30000000000000004"/><path d="M480.64,301.59a17.76,17.76,0,1,1-17.75-17.75,17.36,17.36,0,0,1,4.1.48,17.75,17.75,0,0,1,13.59,15.86Q480.64,300.89,480.64,301.59Z" transform="translate(-192.12 -81.41)" style="fill:#9cd7ff;opacity:0.5"/><path d="M480.58,300.18l-17.69,1.41,4.1-17.27A17.75,17.75,0,0,1,480.58,300.18Z" transform="translate(-192.12 -81.41)" style="fill:#9cd7ff"/><path d="M520.16,286.66H486a1.18,1.18,0,0,1-1.17-1.17h0a1.17,1.17,0,0,1,1.17-1.17h34.16a1.17,1.17,0,0,1,1.17,1.17h0A1.17,1.17,0,0,1,520.16,286.66Z" transform="translate(-192.12 -81.41)" style="fill:#9cd7ff;opacity:0.5"/><rect x="292.71" y="207.56" width="31.37" height="2.34" rx="1.08" ry="1.08" style="fill:#9cd7ff;opacity:0.5"/><rect x="292.71" y="212.21" width="24.25" height="2.34" rx="0.95" ry="0.95" style="fill:#9cd7ff;opacity:0.5"/><path d="M520.16,300.61H486a1.17,1.17,0,0,1-1.17-1.17h0a1.17,1.17,0,0,1,1.17-1.17h34.16a1.17,1.17,0,0,1,1.17,1.17h0A1.17,1.17,0,0,1,520.16,300.61Z" transform="translate(-192.12 -81.41)" style="fill:#9cd7ff;opacity:0.5"/><rect x="292.71" y="221.51" width="32.5" height="2.34" rx="1.1" ry="1.1" style="fill:#9cd7ff;opacity:0.5"/><path d="M520.16,309.91H486a1.17,1.17,0,0,1-1.17-1.17h0a1.18,1.18,0,0,1,1.17-1.17h34.16a1.17,1.17,0,0,1,1.17,1.17h0A1.17,1.17,0,0,1,520.16,309.91Z" transform="translate(-192.12 -81.41)" style="fill:#9cd7ff;opacity:0.5"/><rect x="292.71" y="230.81" width="29.5" height="2.34" rx="1.05" ry="1.05" style="fill:#9cd7ff;opacity:0.5"/><path d="M520.16,319.22H486a1.18,1.18,0,0,1-1.17-1.17h0a1.17,1.17,0,0,1,1.17-1.17h34.16a1.17,1.17,0,0,1,1.17,1.17h0A1.17,1.17,0,0,1,520.16,319.22Z" transform="translate(-192.12 -81.41)" style="fill:#9cd7ff;opacity:0.5"/><path d="M622.83,186.78V343.17a6.74,6.74,0,0,1-6.74,6.74h-258a6.74,6.74,0,0,1-6.74-6.74V186.78a6.74,6.74,0,0,1,6.74-6.74h258A6.74,6.74,0,0,1,622.83,186.78Z" transform="translate(-192.12 -81.41)" style="mix-blend-mode:overlay;fill:url(#linear-gradient)"/><g style="opacity:0.30000000000000004;mix-blend-mode:multiply"><path d="M440.58,262.33c.09-.38-.35-.49-.81.26a4.26,4.26,0,0,1-2.88,1.92c-.08-.2.2-.27.4-.71s.08-.83-.13-.91-.54.5-.67.6L435,264.73a3.16,3.16,0,0,0-1.06,1.44s0,.18-.07.36c-3.25,2.48-14,5.58-15.44,6.46a25.31,25.31,0,0,1-5.35.24c0-.34,0-.55,0-.55s-4.44-.74-6.56-2a4.8,4.8,0,0,0-3-.6,4.13,4.13,0,0,0-.32-.49l-.06-.08c-.54-.63-1.34-1-1.83-1.62a8.49,8.49,0,0,1,.34-3.42,14.51,14.51,0,0,1,2.94-2.83,3,3,0,0,0,.74-3.16,23.71,23.71,0,0,0-1.1-4.2c-.25-.51-.69-.86-.92-1.31a1.83,1.83,0,0,1-.13-.24c.63-.71-1.21-5.87-6.88-5.73a9.77,9.77,0,0,0-4.19.78c-1.27.64-2.69,1.79-2.6,2.93-2,.39-2.29,2.43-2.45,3.2a10.21,10.21,0,0,0-.12,3.31c.21,1.63.82,3.19,1.14,4.8a7,7,0,0,1-.18,4c-.5,1.2-1.69,1.85-2.3,3a5.32,5.32,0,0,0,.07,4.82c.36.67.74,1.24,1,1.82a58.93,58.93,0,0,0-1.65,6.07L370.2,284.3a.81.81,0,0,0-.66.93l3.69,21.7a.8.8,0,0,0,.93.65l12.56-2.13a20.58,20.58,0,0,0,0,5.14c.2,1.47,1.68,5.51,1.91,7,.52,3.35,1.59,8.26,1.53,12.07a8.36,8.36,0,0,0,1,.66,87.84,87.84,0,0,1,1.38,9.41c-.2,1.43-1.78,5.45-2.32,9.66,0,.17,0,.35-.06.55h8.24c.57-3,1-5.68,1.33-7.71h0c.07-.51.13-1,.18-1.38,0,0,0-.09,0-.12,0-.23,0-.44.06-.64,0-.35.05-.72.08-1.1,0-.11,0-.23,0-.34,0-.31,0-.63,0-1,0-.09,0-.18,0-.28,0-.41,0-.83,0-1.28,0-.13,0-.27,0-.4,0-.34,0-.68,0-1,0-.16,0-.32,0-.48v-.4l2.45,7.09a45.1,45.1,0,0,0-1.46,9.05h7.89c.25-4.56.46-8.35.53-10.16a78.91,78.91,0,0,0-.25-9.52h0a84,84,0,0,0,.05-14.65,53.28,53.28,0,0,0-2.79-13.52l7.75-1.32a.79.79,0,0,0,.65-.92l-3.42-20.17a10.67,10.67,0,0,1,1.2.06,6.5,6.5,0,0,0,.17-.93c2.8-.24,5.13-.49,5.71-.6,4.54-.89,15.83-8.53,16.82-9.21a4.49,4.49,0,0,0,3.32-1.43,1.48,1.48,0,0,0,.25-.95c.32-.38.88-1.72-.09-1.44A4.11,4.11,0,0,0,440.58,262.33Z" transform="translate(-192.12 -81.41)" style="fill:#5fb0e7"/></g><path d="M421.28,386.26c0,1.37-9.94,2.48-22.21,2.48s-22.2-1.11-22.2-2.48,9.94-2.49,22.2-2.49S421.28,384.89,421.28,386.26Z" transform="translate(-192.12 -81.41)" style="fill:#bfbfbf;opacity:0.5;mix-blend-mode:multiply"/><path d="M396.79,307l-10.57-8.49a19.78,19.78,0,0,0-.51,12.24c1,3.08-.06,5.27.46,6.73s4.07,20.76,3.87,22.19-1.77,5.45-2.31,9.66c-.65,5.05-.13,21.46-.62,25.83s3.54,5,3.73,3.53c1.59-12.63,6.11-32.36,6.65-38.67S397.48,322.23,396.79,307Z" transform="translate(-192.12 -81.41)" style="fill:#ffe1bd"/><path d="M397.12,319.43l-4.26,10.45a23.12,23.12,0,0,1,3.4,10.76c.13,2,0,4,.1,6a2.14,2.14,0,0,0,.07.43c.53-3,.93-5.42,1.06-7,.39-4.45.23-11.52-.15-20.64Z" transform="translate(-192.12 -81.41)" style="fill:#fccb95"/><path d="M391.44,374.66s-.86,4.59-.58,5.16a7.94,7.94,0,0,0,2.21,2.84c1,.61,3.26,1.32,3.45,1.6a.69.69,0,0,1-.11.93,4.61,4.61,0,0,1-3.15.88c-3-.42-3.36-1.75-5.12-1.92-.31,0-.86.43-1.71,0a2,2,0,0,1-1.22-1.9,8.74,8.74,0,0,1,1.26-3.26c.48-.94.73-5.21.73-5.21" transform="translate(-192.12 -81.41)" style="fill:#ffe1bd"/><path d="M396.65,385.41c.21-.38.25-1,.05-1.09a18,18,0,0,0-1.9-1.08c-.6-.26-1.53-.47-1.2-.3s-.25.84-.8.82c-1.89-.07-3.31-1.29-4.39-1.54a3.66,3.66,0,0,1-2.33-2.46,7.2,7.2,0,0,0-1.07,2.15,3.79,3.79,0,0,0-.19,1.63,3.71,3.71,0,0,1,.21,1.54,2.93,2.93,0,0,0,1.12.38,4.66,4.66,0,0,0,1.21,0l.11-1a4.2,4.2,0,0,1,1,.07,5.21,5.21,0,0,1,1.48.65c.22.25.41.72.7.86a6,6,0,0,0,2.49.55C395.12,386.67,396.29,386.06,396.65,385.41Z" transform="translate(-192.12 -81.41)" style="fill:#594a5f"/><path d="M412,384.43c-.23-.24-2.63-.61-3.76-1.06a6.52,6.52,0,0,1-2.66-2.48,27.83,27.83,0,0,1-.21-5c.14-9,1.57-30.88,1.76-36.13.32-9.12-1-18.52-4.61-33.11l-13.16-9.9s-3.59,6.84-2.3,13.33c.75,3.76,3.88,4.31,4.42,5.77s8.69,25,8.69,25a44.32,44.32,0,0,0-1.52,10.72c0,4.78,2.29,19.18,2.74,24.67.06,1.07.27,3.64,0,4.46-.37,1-1.35,2.19-1.29,3.45a2,2,0,0,0,1.5,1.71c.93.27,1.44-.27,1.76-.28,1.84-.1,2.36,1.16,5.54,1.13a5.09,5.09,0,0,0,3.15-1.34A.69.69,0,0,0,412,384.43Z" transform="translate(-192.12 -81.41)" style="fill:#ffe1bd"/><path d="M412.28,385.55c.17-.41.14-1-.09-1.08a19.64,19.64,0,0,0-2.1-.79c-.65-.16-1.64-.23-1.27-.12s-.16.88-.73.94c-2,.21-3.59-.78-4.73-.86a3,3,0,0,1-2.4-2.1,7.51,7.51,0,0,0-1.15,2.3,3.49,3.49,0,0,0,0,1.64,3.62,3.62,0,0,1,.41,1.5,3.07,3.07,0,0,0,1.21.2,4.67,4.67,0,0,0,1.24-.19v-1a5,5,0,0,1,1-.08,3.36,3.36,0,0,1,1.63.56c.27.2.56.54.88.62a6.53,6.53,0,0,0,2.58.16C410.86,387,412,386.25,412.28,385.55Z" transform="translate(-192.12 -81.41)" style="fill:#594a5f"/><path d="M433,269a4.47,4.47,0,0,0,3.34-1.43,1.55,1.55,0,0,0,.25-.95c.32-.38.87-1.72-.09-1.44a4.1,4.1,0,0,0,1.51-2.81c.09-.38-.34-.49-.8.26a4.26,4.26,0,0,1-2.88,1.92c-.08-.2.19-.27.4-.71s.08-.83-.14-.91-.54.5-.67.6l-1.45,1.24a3,3,0,0,0-1.06,1.44c0,.11-.3,1.23.18,1.07" transform="translate(-192.12 -81.41)" style="fill:#ffe1bd"/><path d="M401.31,279.3c4.91-.06,13.69-.89,14.89-1.13,4.76-.93,16.91-9.26,16.91-9.26a2.31,2.31,0,0,0-1.62-2.48c-3.08,2.5-14.12,5.66-15.59,6.56-.95.58-16.37-.06-16.37-.06" transform="translate(-192.12 -81.41)" style="fill:#ffe1bd"/><path d="M385,273.28a62.56,62.56,0,0,0-2.76,10.05l5,.8V277" transform="translate(-192.12 -81.41)" style="fill:#f9b253"/><rect x="368.53" y="280.71" width="42.47" height="23.61" rx="0.8" ry="0.8" transform="translate(-235.61 -11.99) rotate(-9.64)" style="fill:#2c1e56"/><path d="M410.52,299.35l-38,6.63a.71.71,0,0,1-.81-.57l-3.21-18.92a.71.71,0,0,1,.57-.81l38.05-6.62a.71.71,0,0,1,.81.57l3.21,18.92A.69.69,0,0,1,410.52,299.35Z" transform="translate(-192.12 -81.41)" style="fill:#39297f"/><path d="M374.46,304.21l-.63.11a.61.61,0,0,1-.7-.49l-2.77-16.3a.61.61,0,0,1,.5-.69l.63-.11a.62.62,0,0,1,.7.5L375,303.52A.6.6,0,0,1,374.46,304.21Z" transform="translate(-192.12 -81.41)" style="fill:#4c4199"/><path d="M377.88,303.56l-.64.11a.61.61,0,0,1-.69-.5l-2.77-16.29a.6.6,0,0,1,.49-.69l.64-.11a.59.59,0,0,1,.69.49l2.77,16.29A.6.6,0,0,1,377.88,303.56Z" transform="translate(-192.12 -81.41)" style="fill:#4c4199"/><path d="M381.3,302.9l-.64.11a.59.59,0,0,1-.69-.49l-2.77-16.29a.6.6,0,0,1,.49-.7l.64-.11a.61.61,0,0,1,.69.5l2.77,16.29A.6.6,0,0,1,381.3,302.9Z" transform="translate(-192.12 -81.41)" style="fill:#4c4199"/><path d="M384.71,302.25l-.63.11a.62.62,0,0,1-.7-.5l-2.77-16.29a.6.6,0,0,1,.5-.69l.63-.11a.6.6,0,0,1,.7.49l2.77,16.3A.61.61,0,0,1,384.71,302.25Z" transform="translate(-192.12 -81.41)" style="fill:#4c4199"/><path d="M388.13,301.6l-.64.1a.6.6,0,0,1-.69-.49L384,284.92a.62.62,0,0,1,.49-.7l.64-.1a.59.59,0,0,1,.69.49l2.77,16.29A.6.6,0,0,1,388.13,301.6Z" transform="translate(-192.12 -81.41)" style="fill:#4c4199"/><path d="M391.55,300.94l-.64.11a.6.6,0,0,1-.69-.5l-2.77-16.29a.59.59,0,0,1,.49-.69l.64-.11a.61.61,0,0,1,.69.49l2.77,16.3A.61.61,0,0,1,391.55,300.94Z" transform="translate(-192.12 -81.41)" style="fill:#4c4199"/><path d="M395,300.29l-.63.1a.6.6,0,0,1-.7-.49l-2.77-16.29a.62.62,0,0,1,.5-.7l.63-.1a.6.6,0,0,1,.7.49l2.77,16.29A.62.62,0,0,1,395,300.29Z" transform="translate(-192.12 -81.41)" style="fill:#4c4199"/><path d="M398.38,299.63l-.64.11a.61.61,0,0,1-.69-.49L394.28,283a.61.61,0,0,1,.49-.69l.64-.11a.6.6,0,0,1,.69.49l2.77,16.3A.59.59,0,0,1,398.38,299.63Z" transform="translate(-192.12 -81.41)" style="fill:#4c4199"/><path d="M401.8,299l-.64.1a.59.59,0,0,1-.69-.49L397.7,282.3a.6.6,0,0,1,.49-.7l.64-.1a.6.6,0,0,1,.69.49l2.77,16.29A.62.62,0,0,1,401.8,299Z" transform="translate(-192.12 -81.41)" style="fill:#4c4199"/><path d="M405.21,298.32l-.63.11a.61.61,0,0,1-.7-.49l-2.77-16.3a.61.61,0,0,1,.5-.69l.63-.11a.62.62,0,0,1,.7.5l2.77,16.29A.6.6,0,0,1,405.21,298.32Z" transform="translate(-192.12 -81.41)" style="fill:#4c4199"/><path d="M408.63,297.67l-.64.11a.61.61,0,0,1-.69-.5L404.53,281a.6.6,0,0,1,.49-.69l.64-.11a.59.59,0,0,1,.69.49L409.12,297A.6.6,0,0,1,408.63,297.67Z" transform="translate(-192.12 -81.41)" style="fill:#4c4199"/><path d="M388.49,296.7c-3.64,3.14-5,8.34-4.3,13.89.19,1.47,1.68,5.51,1.91,7,.52,3.35,1.59,8.26,1.52,12.07,4.88,3.54,14.78,3.23,19.26.59a82.09,82.09,0,0,0,.05-14.65c-.53-9.63-4.82-18.61-4.91-19.41" transform="translate(-192.12 -81.41)" style="fill:#594a5f"/><path d="M401.89,287.51a45,45,0,0,0,.24,7.3,15.74,15.74,0,0,1,.24,1.92,1.11,1.11,0,0,1-.39.75,5.25,5.25,0,0,1-2.64,1c-3.61.65-9.32.21-10.93.53s-3.07-.21-3.07-1.13c0-.64.59-1,.64-2.26a74.87,74.87,0,0,0-.48-11.86,46.89,46.89,0,0,1-.62-16l11-3.14c.85.15.48,2.74,1.33,2.88.62.09,4.11,3.41,5.1,7.33a15.41,15.41,0,0,1,1.28,2.54,4.54,4.54,0,0,1,0,3.49A24.41,24.41,0,0,0,401.89,287.51Z" transform="translate(-192.12 -81.41)" style="fill:#f9b253"/><path d="M401.89,287.51a45,45,0,0,0,.24,7.3,15.74,15.74,0,0,1,.24,1.92,1.11,1.11,0,0,1-.39.75h0c.33-.73-.45-4.35-.79-6.38a23,23,0,0,1,.48-8.48c.72-2.49,1-3.67,1-3.67s.57-.85,1-1.5a4.54,4.54,0,0,1,0,3.49A24.41,24.41,0,0,0,401.89,287.51Z" transform="translate(-192.12 -81.41)" style="fill:#f29127"/><path d="M400.71,270.13a4.84,4.84,0,0,1,3.25.56c2.13,1.25,6.57,2,6.57,2s.34,5.07-.21,7a26.92,26.92,0,0,0-5.84.24c-4.53.49-10.56,3.49-10.56,3.49" transform="translate(-192.12 -81.41)" style="fill:#f9b253"/><path d="M400.74,253c-1.08-2.07-2.79-5-6.89-4.59s-7.61,3-7.56,6.06,2.13,6.77,2.93,8.9a14,14,0,0,1,.46,5.28l9.09-.33s-.24-2.77.32-3.82a14.38,14.38,0,0,1,2.93-2.83,3,3,0,0,0,.75-3.16,23.71,23.71,0,0,0-1.1-4.2C401.41,253.78,401,253.43,400.74,253Z" transform="translate(-192.12 -81.41)" style="fill:#ffe1bd"/><path d="M400.58,269.52c-.55-.65-1.4-1-1.89-1.68a3.83,3.83,0,0,1-.65-2.46,4.75,4.75,0,0,1,.55-1.39c1-2,1.05-3.28-.36-4.89a5.76,5.76,0,0,1-1.16-1.74c-.21-.6-.37-1.25.2-1.61a.78.78,0,0,1,1.05,0c.23.2.87,2.1,1,.8s.58-1.57-.51-3.81c-.13-.27-.74-1.31-.65-1.55a3.06,3.06,0,0,1,2.47,1.54c.63-.71-1.21-5.87-6.88-5.73a9.77,9.77,0,0,0-4.19.78c-1.27.64-2.69,1.79-2.61,2.93-2,.39-2.29,2.43-2.44,3.2a9.73,9.73,0,0,0-.12,3.32c.21,1.62.82,3.18,1.14,4.79a7.05,7.05,0,0,1-.19,4c-.49,1.2-1.68,1.85-2.29,3a5.26,5.26,0,0,0,.07,4.82c.78,1.48,1.76,2.46,1.5,4.28a5.84,5.84,0,0,0,1.92,5.56,6,6,0,0,0,4.34,1.17,10.09,10.09,0,0,0,3.55-1.12c2.11-1.15,4-1.89,5.37-4.95.78-1.73-.36-2,.33-3.74.39-1,1.22-1.82,1.32-2.92a3.68,3.68,0,0,0-.8-2.57Z" transform="translate(-192.12 -81.41)" style="fill:#00215b"/><path d="M596.63,349.51c-.3-.45-.63-.86-1-1.27h0l0-.05c-.19-.23-.39-.46-.59-.68-3.59-4.33-3.81-8-3.81-8.1-.06-4.91-.12-11.74-.18-16.56,0-1.35,0-2.55,0-3.5,0-.4,0-.75,0-1.06,0,0,.06-.39.15-.9s.19-1.15.29-1.66.21-1.15.31-1.83h0a18.37,18.37,0,0,0,0-5.34,5.93,5.93,0,0,1,1.8.39s-.73-2.58-1.49-5.66c-.28-1.09-.55-2.24-.81-3.36a43.93,43.93,0,0,1-1-5.52c-.17-2.57.57-6.35,1.07-10.56.12-1,.22-2.05.29-3.1s.12-2,.12-3c0-.31,0-.62,0-.92a19,19,0,0,0-1.63-7c-.14-.31-.28-.61-.44-.9a28.86,28.86,0,0,0-3.33-5.05,3.07,3.07,0,0,0-1-1.51,9.3,9.3,0,0,1-.26-3.08c1.54-.64,3.12-6.67,2.41-11q-.06-.39-.15-.75c-.89-3.8-3.34-5.29-5.14-5-3.9-4.76-9.8.45-11.16,1.1a16.38,16.38,0,0,1-4.79,1.52,7,7,0,0,1-1.07.06,2.17,2.17,0,0,1-.68-.1c.31,4,1.8,5.92,3.66,6.62a5.05,5.05,0,0,0,1.26.31,7,7,0,0,0,1,0,2.89,2.89,0,0,0,.59,2.19c.09.14.46.34.5.51a4.86,4.86,0,0,1,0,1.66.66.66,0,0,0,0,.14c-.09.42-.19,1-.26,1.53,0,.31-.06.62-.06.87a1.61,1.61,0,0,0,.06.5c.12.32.54.4,1,.39l.48,0,.2.42a12.23,12.23,0,0,0,2,3,2.77,2.77,0,0,0,.74.19,9.58,9.58,0,0,0,4.25-.86,9,9,0,0,1,.33,1.21l-.65.22a17.64,17.64,0,0,0,0,2.24,7.38,7.38,0,0,0-.74.74,4.61,4.61,0,0,0-.4.5,3.45,3.45,0,0,0-.2.32,37.32,37.32,0,0,0-4.08,9c-.42,1.29-.79,2.61-1.12,4,0,0,0,0,0,.06l-.63.1c-2.79.5-7.71,1.5-12.89,2.94l-1.47.42,0,.24c-.8,0-2.06-.11-2.8,0-.48,0-1.48,1-2.42,1.73-.76.87-1.45,1.65-1.24,1.78l.12,0a1.44,1.44,0,0,0,.71-.4.63.63,0,0,0,.41,0c.37-.11.93-.8,1.2-1,.12-.09.42-.28.7-.46a1.87,1.87,0,0,1,.91,0,.44.44,0,0,1-.23.53c-.25.16-.84.23-.89.4s0,.48.85.32a4.54,4.54,0,0,0,1.76-.72,2.08,2.08,0,0,1,1.2-.38l0,.33s6.42.06,12.46-.08l1,0q-.14.71-.24,1.41a2.33,2.33,0,0,1-.37,0l-2.19.06a.47.47,0,0,0-.17,0h-20.3l-1.5-4.17-1.12-3.1-1.43-4L542,269.62a.64.64,0,0,0-.8-.38l-.26.1a.63.63,0,0,0-.38.81l2.39,6.63,1.43,4,1.11,3.1L547,288c-.48-.4-.75-.45-.68,0a4.43,4.43,0,0,0,2.34,2.69,13.68,13.68,0,0,0,2.63.74,2.43,2.43,0,0,0,1,0,10.19,10.19,0,0,1,1.88-.25l0,.66s6.63.71,11.22,1.37c1.89.27,3.75.43,5.47.51-.05.48-.11,1-.16,1.45-.17,1.66-.3,3.27-.4,4.77-.09,1.19-.16,2.31-.22,3.36-.23,4.41-.27,7.45-.45,7.83,0,0,.57.58,2.56.7q0,.6.09,1.23h0c-.07.62-.24,3.11-.47,6.31-.07,1.1-.16,2.28-.24,3.5-.35,5-.75,10.75-1,13.88a3.89,3.89,0,0,0-.23,1.54c0,.35,0,3.87,0,4.29.07,1.62.21,4.21.38,7.35H579c0-.3-.11-.6-.17-.89l-.06-.32c0-.18,0-.4-.07-.69-.46-3.87-.47-2.75.59-7.64l1.92-4.89c1.14,4,2.09,7.5,2.49,9.54a.43.43,0,0,0,0,.05l.06.31a2.53,2.53,0,0,0,.16.5c0,.05.05.11.07.17a5.3,5.3,0,0,0,.48.95s0,0,0,.05c.47.75,1.1,1.72,1.84,2.86h10.55Z" transform="translate(-192.12 -81.41)" style="fill:#5fb0e7;opacity:0.30000000000000004;mix-blend-mode:multiply"/><g style="opacity:0.5"><path d="M551.41,384.68c0,.94,14.26,1.71,31.85,1.71s31.85-.77,31.85-1.71S600.85,383,583.26,383,551.41,383.74,551.41,384.68Z" transform="translate(-192.12 -81.41)" style="fill:#a5a5a5"/></g><path d="M569.44,375.77a43.88,43.88,0,0,0,.06,5.54c.18.81,2.71.89,3,.46s.7-5.66.7-5.66" transform="translate(-192.12 -81.41)" style="fill:#ffe1bd"/><path d="M573.21,382.51a18,18,0,0,1-.24,2.28h-3.05l-.15-.51a4.79,4.79,0,0,1-1.76.51h-2.58c-1.89,0-3-.24-3-.58-.2-1.38,2.05-1.32,2.64-1.32,1.68,0,3.5-.79,3.9-1.64.29-.62.16-.78.51-.66a.84.84,0,0,1,.52.45,1.55,1.55,0,0,0,1.59.87,1.89,1.89,0,0,0,1-.5A1.11,1.11,0,0,1,573.21,382.51Z" transform="translate(-192.12 -81.41)" style="fill:#3a3a3a"/><path d="M601.16,376.33s.84,2.24,1.2,3,2.85-.17,3-.68-1.89-4.38-1.89-4.38" transform="translate(-192.12 -81.41)" style="fill:#ffe1bd"/><path d="M606.26,379.06c.32.8.79,2.36.79,2.36l-2.31,1.38-.45-.34a4.45,4.45,0,0,1-1.22,1.27,9.8,9.8,0,0,1-2.29.95c-2.11.48-3.74.25-3.91,0-.7-1.22,2.1-1.88,2.65-2.1a3.77,3.77,0,0,0,2.33-3.08c0-.68-.14-.78.23-.8,0,0,.71-.12,1.13.94,0,0,1.67-.3,2.09-1.35A1.12,1.12,0,0,1,606.26,379.06Z" transform="translate(-192.12 -81.41)" style="fill:#3a3a3a"/><path d="M588.26,318.29s.24-1.55.44-2.56c.62-3.2,1.59-9.62-3.64-14.68,0,0-6.18,2.76-11.12,3.1-3.89.26-4.78,0-4.78,0s-.25,5.26,1.32,18.42Z" transform="translate(-192.12 -81.41)" style="fill:#594a5f"/><path d="M604.81,375.32a20.9,20.9,0,0,1-4,1.93l-.37-.64c-.25-.48-.52-1-.8-1.45h0a.27.27,0,0,0,0-.08c-.88-1.54-1.85-3.17-2.87-4.85h0l0,0c-5.49-9-12.49-19.13-15-23.12,0,0,0,0,0-.05a5.3,5.3,0,0,1-.48-.95c0-.06,0-.12-.07-.17a2.53,2.53,0,0,1-.16-.5l-.06-.31a.43.43,0,0,1,0-.05,2.09,2.09,0,0,1,.5-1.78,1.78,1.78,0,0,1,.32-.29c1.34-1,4-.75,6.26.82l.35.26.17.12a21.57,21.57,0,0,1,5.34,5.36C599,357.17,602,368.76,604.81,375.32Z" transform="translate(-192.12 -81.41)" style="fill:#594a5f"/><path d="M588.56,344.93c.09,4.22-1.46,5.19-3.17,4.76a4.28,4.28,0,0,1-.88-.32,7.68,7.68,0,0,1-2.87-2.56s0,0,0-.05a4.27,4.27,0,0,1-.38-.71c0-.06,0-.12-.07-.17a2.53,2.53,0,0,1-.16-.5l-.06-.31a.43.43,0,0,1,0-.05c-.42-2.1-1.4-5.71-2.6-9.91l-2.16-7.54c-2.25-7.77-4.38-15.4-4.32-17.63.22-8,9.53-1.64,14,1.5,1.87,1.34,2.36,3.63,2.39,5.74s.21,21.53.29,27c0,.14,0,.27,0,.39S588.56,344.82,588.56,344.93Z" transform="translate(-192.12 -81.41)" style="fill:#594a5f"/><path d="M588.49,339.4s.19,4.16,4.44,8.84c0,0-6.14-1.86-6.48-2.21a22.14,22.14,0,0,1-1.86-4.73C584.65,340.86,588.49,339.4,588.49,339.4Z" transform="translate(-192.12 -81.41)" style="fill:#594a5f"/><path d="M599.63,375.07c-.88-1.54-1.85-3.17-2.87-4.85h0l0,0c-5.49-9-12.49-19.13-15-23.12,0,0,0,0,0-.05a5.3,5.3,0,0,1-.48-.95c0-.06,0-.12-.07-.17a2.53,2.53,0,0,1-.16-.5l-.06-.31a.43.43,0,0,1,0-.05c-.42-2.1-1.4-5.71-2.6-9.91l7-18.84h2.56s-2.88,8.7-4.06,12.62-1.5,10-1.6,12.29c-.23,4.92,5.82,13.28,7.55,16.32C591.67,360.78,599,373.82,599.63,375.07Z" transform="translate(-192.12 -81.41)" style="fill:#4c4051"/><path d="M573.27,379.41h-.37a21.23,21.23,0,0,1-4-.3v-.74c.21-11.37-1.06-29.95-1.3-35.82,0-.42,0-3.94,0-4.29-.11-5,5-.55,6.8,3.41a16.07,16.07,0,0,1,1,3.05c.32,1.32.33,2.79.66,4.29C578,357.88,574.07,372.09,573.27,379.41Z" transform="translate(-192.12 -81.41)" style="fill:#594a5f"/><path d="M585.31,318.25c0,.12-8.37,20.84-10,25.34h0a2.69,2.69,0,0,1-2,1.38c-2.25.56-5.56-.36-5.73-4.82a10,10,0,0,1,.06-1.61c.38-3.61,1.67-23.58,1.88-25.51s.62-4.73,1.64-5.06C576.29,306.35,586.82,311.05,585.31,318.25Z" transform="translate(-192.12 -81.41)" style="fill:#594a5f"/><path d="M576.6,340c-1.13,5.3-1.13,4-.66,8s-1.24-3.37-1.24-3.37l1.07-2.7Z" transform="translate(-192.12 -81.41)" style="fill:#594a5f"/><path d="M553.36,285.38a5.49,5.49,0,0,0-1.26-.09,5.16,5.16,0,0,1-.44.28v.22h-.08l-.92.59c-.08.07-1,1.16-1,1.16a.57.57,0,0,0,.52,0c.37-.11.93-.8,1.2-1,.12-.09.42-.28.7-.46a1.4,1.4,0,0,1,1.21.2C553.69,286.81,553.36,285.38,553.36,285.38Z" transform="translate(-192.12 -81.41)" style="fill:#f4d4b3"/><path d="M558.56,283.68s-2,.66-2.68.78-2.39-.1-3.33,0c-.48,0-1.48,1-2.42,1.73-.76.87-1.45,1.65-1.24,1.78.42.26,1.5-1.09,2.38-1.72.67-.48,1.23-.46,1.53-.25s.17.52-.09.69-.84.23-.89.4,0,.48.85.32a4.54,4.54,0,0,0,1.76-.72,2.16,2.16,0,0,1,1.2-.38c.63-.07,3.75-.62,3.75-.62" transform="translate(-192.12 -81.41)" style="fill:#ffe1bd"/><path d="M571.86,280.53l-.64,5.39-.07.55h-.52l-2.49.08c-6,.14-12.46.08-12.46.08l-.36-2.39a145.93,145.93,0,0,1,14.36-3.36Z" transform="translate(-192.12 -81.41)" style="fill:#f9b253"/><rect x="541.04" y="268.67" width="1.54" height="20.83" rx="0.63" ry="0.63" transform="translate(-254.6 118.39) rotate(-19.78)" style="fill:#1c44b5"/><rect x="352.38" y="206.59" width="22.38" height="1.59" rx="0.73" ry="0.73" style="fill:#1c44b5"/><path d="M571.86,280.53l-.64,5.39c-.18.17-.37.37-.59.56l-2.49.08a47,47,0,0,1,1.54-5.67Z" transform="translate(-192.12 -81.41)" style="fill:#f29127"/><path d="M590.79,308.93c-2.74-1.11-6.84.12-14.55,2s-9.37.16-9.37.16c.28-.59.21-7.46,1.07-16,.18-1.83.42-3.74.69-5.67,1.16-7.87,3.23-16.24,7.1-22,1.92-2.85,7.36-4.24,7.36-4.24,3,3.63,5.91,8,5.9,14.48s-1.73,12.92-1.48,16.69S590.79,308.93,590.79,308.93Z" transform="translate(-192.12 -81.41)" style="fill:#f9b253"/><path d="M574.57,295.06a40.76,40.76,0,0,1-6.63.08c.18-1.83.42-3.74.69-5.67h.26a3.21,3.21,0,0,0,3-2.4c.52-1.94,1.38-5,2.69-9.08,2.32-7.25,4.74-7.53,4.74-7.53s3.54-1.82,3.69,2S579.1,294.5,574.57,295.06Z" transform="translate(-192.12 -81.41)" style="fill:#f29127"/><path d="M584.88,319.35s2.63-1,4.13-5.46L587.38,311l-3.45,1.61a25.7,25.7,0,0,0-.47,3.27C583.59,316.05,584.88,319.35,584.88,319.35Z" transform="translate(-192.12 -81.41)" style="fill:#594a5f"/><path d="M552.81,290.71l-.24-1.93a15.59,15.59,0,0,1-2.55.13c-.82-.1-1.8-.54-3-.76s-1.46.25-1.27.54,1.57.5,1.57.5.19.17-.54.17H546a3.18,3.18,0,0,1-.89-.4l-.42-.43c-.78-.83-1.28-1.09-1.19-.53a4.43,4.43,0,0,0,2.34,2.69,13.68,13.68,0,0,0,2.63.74,2.43,2.43,0,0,0,1,0,10.71,10.71,0,0,1,2.24-.27c.66,0,1.07,0,1.07,0C554.33,291.28,553.56,291,552.81,290.71Z" transform="translate(-192.12 -81.41)" style="fill:#ffe1bd"/><path d="M579,269s-2.42.28-4.75,7.53c-1.29,4.06-2.16,7.14-2.68,9.08a3.21,3.21,0,0,1-3,2.4l-17,.45-.11,3.38s6.63.71,11.22,1.37a49.85,49.85,0,0,0,11.54.39c4.54-.55,9-20.47,8.77-22.5C582.6,267.89,579,269,579,269Z" transform="translate(-192.12 -81.41)" style="fill:#f9b253"/><path d="M567.76,251.87s-.44.86.53,2.36c.09.14.46.34.5.51a5.69,5.69,0,0,1,0,1.8,16.22,16.22,0,0,0,3.42,6.68c1.64.72,4.85-.42,7.56-1.85.58-.05,3.78-1.62,3.31-6.17a17,17,0,0,0-4.25-8.81c-.25-.1-7.27,1.19-7.55,1.25S567.76,251.87,567.76,251.87Z" transform="translate(-192.12 -81.41)" style="fill:#ffd1ab"/><path d="M577.86,253.6a2.75,2.75,0,0,1-1.93-2.83c-.08-2.42-.39-2.5-1.87-1.15s-11.46,6.62-12.31-4.55c1.1.36,3.91-.21,6.54-1.48,1.36-.65,7.26-5.86,11.16-1.1,1.92-.34,4.57,1.37,5.29,5.72s-.87,10.37-2.41,11c-1,.42-1.47-.59-1.84-2.65-.15-1.07,2.64-3.15-.3-5.84A1.89,1.89,0,0,0,577.86,253.6Z" transform="translate(-192.12 -81.41)" style="fill:#2c1e56"/><path d="M582.33,259.22s-.28,3.13.88,4.11c-1.78,2.16-5.79,2.48-5.79,2.48s.91-1.47-1.14-5.28S582.33,259.22,582.33,259.22Z" transform="translate(-192.12 -81.41)" style="fill:#ffd1ab"/><path d="M576.87,266.22a17.64,17.64,0,0,1,0-2.24,59.41,59.41,0,0,1,5.72-1.68,3.08,3.08,0,0,1,1,1.51A29.89,29.89,0,0,1,576.87,266.22Z" transform="translate(-192.12 -81.41)" style="fill:#f9b253"/><path d="M568.91,255.87s-.65,2.88-.39,3.57,2,.25,2,.25Z" transform="translate(-192.12 -81.41)" style="fill:#ffd1ab"/><rect x="351.69" y="112.1" width="90.84" height="43.5" rx="2.79" ry="2.79" style="fill:#5fb0e7;mix-blend-mode:multiply"/><path d="M632.65,194.31v37.92a2.79,2.79,0,0,1-2.79,2.79H544.61a2.79,2.79,0,0,1-2.8-2.79V194.31a2.79,2.79,0,0,1,2.8-2.79h85.25A2.79,2.79,0,0,1,632.65,194.31Z" transform="translate(-192.12 -81.41)" style="fill:#fff"/><path d="M632.65,194.31v5.46H541.81v-5.46a2.79,2.79,0,0,1,2.8-2.79h85.25A2.79,2.79,0,0,1,632.65,194.31Z" transform="translate(-192.12 -81.41)" style="fill:#aec1ff"/><path d="M629.07,204.35v26.17H545.23v-8.36c3.38-4.64,8-7.73,18.58-1.48,10.17,6,10.14-13.33,21.75-12.33s14.71,18.34,23.71,5.09S629.07,204.35,629.07,204.35Z" transform="translate(-192.12 -81.41)" style="fill:#aec1ff;opacity:0.5"/><rect x="353.11" y="122.77" width="16.52" height="1.13" style="fill:#aec1ff;opacity:0.5"/><rect x="353.11" y="124.77" width="27.92" height="1.13" style="fill:#aec1ff;opacity:0.5"/><rect x="353.11" y="126.77" width="20.96" height="1.13" style="fill:#aec1ff;opacity:0.5"/><rect x="353.11" y="128.77" width="25.29" height="1.13" style="fill:#aec1ff;opacity:0.5"/><rect x="353.11" y="130.77" width="16.52" height="1.13" style="fill:#aec1ff;opacity:0.5"/><path d="M422.25,180a27,27,0,0,1-50.65,0Z" transform="translate(-192.12 -81.41)" style="fill:#5fb0e7;mix-blend-mode:multiply"/><path d="M372,153.21a27,27,0,0,0-3.38,24.19l25.56-8.77Z" transform="translate(-192.12 -81.41)" style="fill:#18bdf7"/><path d="M398.05,139.11v27l19.87,18.3a27,27,0,0,0-19.87-45.32Z" transform="translate(-192.12 -81.41)" style="fill:#18bdf7"/><path d="M394.18,141.61A27,27,0,0,0,372,153.21l22.18,15.42Z" transform="translate(-192.12 -81.41)" style="fill:#f9b253"/><path d="M389.16,195.17a27,27,0,0,0,24.89-8.24l-19.87-18.3Z" transform="translate(-192.12 -81.41)" style="fill:#b8ecff"/><path d="M368.62,177.4a27,27,0,0,0,20.54,17.77l5-26.54Z" transform="translate(-192.12 -81.41)" style="fill:#15a7ce"/><path d="M381,239h-36a1.79,1.79,0,0,0-1.79,1.79v11.37a1.79,1.79,0,0,0,1.79,1.79h29.85c.15,1.2,1,3.57,5.34,3.57,0,0-1.79-.32-2.16-3.57h3a1.79,1.79,0,0,0,1.79-1.79V240.75A1.79,1.79,0,0,0,381,239Z" transform="translate(-192.12 -81.41)" style="fill:#5fb0e7;mix-blend-mode:multiply"/><path d="M380.28,238.06h-36a1.79,1.79,0,0,0-1.79,1.79v11.37a1.79,1.79,0,0,0,1.79,1.79h29.86c.15,1.2,1,3.57,5.33,3.57,0,0-1.79-.32-2.16-3.57h3a1.79,1.79,0,0,0,1.79-1.79V239.85A1.79,1.79,0,0,0,380.28,238.06Z" transform="translate(-192.12 -81.41)" style="fill:#ebfaff"/><rect x="151.55" y="158.04" width="36.94" height="1.54" rx="0.55" ry="0.55" style="fill:#b2ebf9"/><rect x="151.55" y="160.64" width="36.94" height="1.54" rx="0.55" ry="0.55" style="fill:#b2ebf9"/><rect x="151.55" y="163.24" width="36.94" height="1.54" rx="0.55" ry="0.55" style="fill:#b2ebf9"/><rect x="151.55" y="165.84" width="36.94" height="1.54" rx="0.55" ry="0.55" style="fill:#b2ebf9"/><rect x="151.55" y="168.43" width="36.94" height="1.54" rx="0.55" ry="0.55" style="fill:#b2ebf9"/><path d="M590.36,244.6h36a1.8,1.8,0,0,1,1.79,1.8v11.37a1.79,1.79,0,0,1-1.79,1.79H596.51c-.15,1.2-1,3.57-5.33,3.57,0,0,1.78-.32,2.16-3.57h-3a1.79,1.79,0,0,1-1.79-1.79V246.4A1.8,1.8,0,0,1,590.36,244.6Z" transform="translate(-192.12 -81.41)" style="fill:#5fb0e7;mix-blend-mode:multiply"/><path d="M591,243.7h36a1.81,1.81,0,0,1,1.8,1.8v11.37a1.8,1.8,0,0,1-1.8,1.79H597.18c-.15,1.2-1,3.57-5.33,3.57,0,0,1.78-.33,2.15-3.57h-3a1.8,1.8,0,0,1-1.8-1.79V245.5A1.81,1.81,0,0,1,591,243.7Z" transform="translate(-192.12 -81.41)" style="fill:#ebfaff"/><rect x="616.26" y="245.29" width="11.37" height="11.75" rx="0.84" ry="0.84" transform="translate(1051.78 420.91) rotate(180)" style="fill:#80d4dd"/><rect x="590.79" y="245.29" width="23.93" height="1.48" rx="0.43" ry="0.43" transform="translate(1013.38 410.64) rotate(180)" style="fill:#80d4dd"/><rect x="596.02" y="247.86" width="18.7" height="1.48" rx="0.38" ry="0.38" transform="translate(1018.62 415.78) rotate(180)" style="fill:#80d4dd"/><rect x="590.79" y="250.42" width="23.93" height="1.48" rx="0.43" ry="0.43" transform="translate(1013.38 420.91) rotate(180)" style="fill:#80d4dd"/><rect x="592.73" y="252.99" width="21.99" height="1.48" rx="0.42" ry="0.42" transform="translate(1015.33 426.05) rotate(180)" style="fill:#80d4dd"/><rect x="605.56" y="255.56" width="9.16" height="1.48" rx="0.27" ry="0.27" transform="translate(1028.16 431.18) rotate(180)" style="fill:#80d4dd"/><path d="M523.36,180H487a4,4,0,0,1,.35-1.27c.93-2.18,4.29-6.59,16.43-8.56l6-1.23S523.66,169,523.36,180Z" transform="translate(-192.12 -81.41)" style="fill:#f9b253"/><path d="M511.31,180H487a4,4,0,0,1,.35-1.27,5.52,5.52,0,0,1,2.88,0l1.49.39h15.8C510.62,179.14,511.31,180,511.31,180Z" transform="translate(-192.12 -81.41)" style="fill:#f29127"/><path d="M502.39,169.51a5.89,5.89,0,0,1,.84,2.06,2,2,0,0,0,2.07,1.55c5.31-.3,5-3.61,5-3.61-1.09-1.68-1.76-6.64-1.76-6.64" transform="translate(-192.12 -81.41)" style="fill:#ffe1bd"/><path d="M490,154.24s-.22,6.67,2.76,6.57,0-7.35,0-7.35Z" transform="translate(-192.12 -81.41)" style="fill:#2c1e56"/><path d="M507.78,161.6a13.71,13.71,0,0,1,.05,2.52,2.51,2.51,0,0,1,0,.27c0,.09,0,.18-.06.28-.72,2.85-4.34,6.88-6.88,7.21a6.43,6.43,0,0,1-1,0c-3.53-.16-5.6-3-6.79-6.14l-.12-.32a28,28,0,0,1-1.49-6.83c0-.25-.19-2.87.33-3.65s7.55-1.67,7.69-1.68,6.86.47,6.86.47A72.34,72.34,0,0,1,507.78,161.6Z" transform="translate(-192.12 -81.41)" style="fill:#ffe1bd"/><path d="M508.86,161.49a11.14,11.14,0,0,1-.08,2.47c0,.09,0,.18,0,.28-.46,2.85-4,7.28-7.88,7.64-.3,0-.6.06-.87.07-4.25.18-5.73-3-6.9-6.2l-.12-.32s1.47,2.36,2.21,2.43S495,167,497,166.23a9.88,9.88,0,0,1,4.11-.34c.83.11,2.33.54,2.86.61a.68.68,0,0,0,.3,0,9.67,9.67,0,0,0,2.67-4.58C507,161.3,508.31,161.39,508.86,161.49Z" transform="translate(-192.12 -81.41)" style="fill:#2c1e56"/><path d="M488.58,152.19s.22,5.12,8.63,3.07c2.31-.56,4.35-1.09,5.49-.47,1.72,5.41,1.78,8,2.39,7.8.76-.27-1.3-4.77,1.33-4.28,2,.37-.09,5.33-.09,5.33s2.45.32,2.52-.81c0-.68.12-10.38-1.55-12.68a4.6,4.6,0,0,0-3.66-2.19s-2.1-1.78-7.06-.33-7.58-.38-7.56-.23A9.83,9.83,0,0,0,488.58,152.19Z" transform="translate(-192.12 -81.41)" style="fill:#2c1e56"/><path d="M523.36,180s-.43,8.75-4,14.33h0l-.1.14a.6.6,0,0,0-.09.13c-1.08,1.63-7.07,10.5-10.94,14-4.24,3.89-9.13,8.29-9.13,8.29l-.18-.15a12.21,12.21,0,0,0-1.4,1.5c-.33.6-.66,2.79-1.29,3a3.53,3.53,0,0,0-1.21.47,5.78,5.78,0,0,1-2-.2,4,4,0,0,1-.9.7,20,20,0,0,1-2.37,1.26c-.7.22-.82,0-.67-.44s1.49-1.19,2-1.57a7.26,7.26,0,0,0,1.59-2.09c.3-.66.3-1,0-1s-1.21.55-1.91.7-1,0-.7-.44a5.47,5.47,0,0,1,2.46-1.9,4.94,4.94,0,0,0,2.3-.92,7.41,7.41,0,0,0,1.29-1.57l-.28-.25s7.63-10.65,13.35-18.88l.38-.51A30.67,30.67,0,0,0,513.07,181a2,2,0,0,0-1-.94Z" transform="translate(-192.12 -81.41)" style="fill:#5fb0e7;mix-blend-mode:multiply"/><path d="M496.05,213.16a13.59,13.59,0,0,1-2,2.75,4.74,4.74,0,0,1-2.3.92,5.54,5.54,0,0,0-2.46,1.89c-.34.41,0,.6.7.45s1.61-.71,1.91-.71.3.36,0,1a7.45,7.45,0,0,1-1.59,2.1c-.49.37-1.82,1.11-2,1.55s0,.67.67.45a19.33,19.33,0,0,0,2.37-1.26,4.2,4.2,0,0,0,.9-.7,5.74,5.74,0,0,0,2,.2,2.13,2.13,0,0,0,.93-.4,1.37,1.37,0,0,0,.29-.07c.63-.25,1-2.44,1.29-3a28.26,28.26,0,0,1,2.77-2.8Z" transform="translate(-192.12 -81.41)" style="fill:#ffe1bd"/><path d="M518.54,194.37h0c3.6-5.58,4.82-14.33,4.82-14.33l-4.59-3.13L516.42,178c-1.48-.64-4-1.59-4-1.59l-1.11,3.6a2,2,0,0,1,1,.93,31.08,31.08,0,0,1-3.54,13.73l-.38.51c-5.71,8.23-13.35,18.88-13.35,18.88l3.26,2.87s4.9-4.4,9.15-8.29c3.85-3.52,9.84-12.4,10.92-14l.1-.13Z" transform="translate(-192.12 -81.41)" style="fill:#f9b253"/><path d="M493.1,182.21l-.13,0a2.78,2.78,0,0,1,.27.32c.13.14.05.23.05.23-.18.19-.33.17-.56.16a1,1,0,0,1-.41-.2.6.6,0,0,1-.52.11c-.22,0-.48-.23-.82-.58a.17.17,0,0,1,0,.17.61.61,0,0,1-.57.15,1.86,1.86,0,0,1-.88-.64c-.12-.12-.28-.32-.46-.53l-.45-.31a1.24,1.24,0,0,0-.69-.22h0v0c-1.72,0-2.5-.78-4.61-.78h9.57l-.05,0a4.6,4.6,0,0,1-.59.1l0,0c.13.14.25.29.36.42.38.46.89,1.06,1,1.16s.05.25.05.25A.61.61,0,0,1,493.1,182.21Z" transform="translate(-192.12 -81.41)" style="fill:#5fb0e7;mix-blend-mode:multiply"/><path d="M492.7,182.21l-.13,0a2.78,2.78,0,0,1,.27.32c.13.14.05.23.05.23-.18.19-.33.17-.56.16a.91.91,0,0,1-.41-.2.62.62,0,0,1-.53.11c-.21,0-.47-.23-.81-.58a.2.2,0,0,1,0,.17.61.61,0,0,1-.57.15c-.22,0-.51-.25-.88-.64-.12-.12-.29-.32-.46-.53l-.45-.31a1.26,1.26,0,0,0-.69-.22h0v0c-1.72,0-2.49-.78-4.6-.78,0,0,4.93-2.37,7.91-.69a9.57,9.57,0,0,0,1.26.13c.86,0,.61.45.34.6a4.08,4.08,0,0,1-.58.1l.05,0c.13.14.25.29.35.42.38.46.89,1.06,1,1.16s.05.25.05.25A.62.62,0,0,1,492.7,182.21Z" transform="translate(-192.12 -81.41)" style="fill:#ffe1bd"/><path d="M492.4,180.08a4.08,4.08,0,0,1-.58.1,8.53,8.53,0,0,0-1-.83,9.57,9.57,0,0,0,1.26.13C492.92,179.5,492.67,179.93,492.4,180.08Z" transform="translate(-192.12 -81.41)" style="opacity:0.47000000000000003;mix-blend-mode:multiply;fill:url(#linear-gradient-2)"/></g></g></svg>