<svg id="OBJECTS" xmlns="http://www.w3.org/2000/svg" xmlns:xlink="http://www.w3.org/1999/xlink" viewBox="0 0 464.04 378.95"><defs><clipPath id="clip-path" transform="translate(-20.99 -68.53)"><ellipse cx="214.74" cy="125.54" rx="9.85" ry="17.07" transform="translate(-34 124.99) rotate(-30.18)" style="fill:none"/></clipPath><clipPath id="clip-path-2" transform="translate(-20.99 -68.53)"><ellipse cx="329.69" cy="191.93" rx="9.85" ry="17.07" transform="translate(-51.8 191.79) rotate(-30.19)" style="fill:none"/></clipPath><clipPath id="clip-path-3" transform="translate(-20.99 -68.53)"><ellipse cx="232.32" cy="151.63" rx="9.85" ry="17.07" transform="translate(-44.74 137.37) rotate(-30.18)" style="fill:none"/></clipPath><clipPath id="clip-path-4" transform="translate(-20.99 -68.53)"><ellipse cx="287.74" cy="183.65" rx="9.85" ry="17.07" transform="translate(-53.32 169.57) rotate(-30.18)" style="fill:none"/></clipPath><clipPath id="clip-path-5" transform="translate(-20.99 -68.53)"><ellipse cx="246.1" cy="175.66" rx="9.85" ry="17.07" transform="translate(-54.95 147.56) rotate(-30.19)" style="fill:none"/></clipPath><clipPath id="clip-path-6" transform="translate(-20.99 -68.53)"><polygon points="256.8 376.11 240.82 366.88 256.8 357.66 272.77 366.88 256.8 376.11" style="fill:none"/></clipPath><clipPath id="clip-path-7" transform="translate(-20.99 -68.53)"><polygon points="256.8 365.29 240.82 356.07 256.8 346.84 272.77 356.07 256.8 365.29" style="fill:none"/></clipPath><clipPath id="clip-path-8" transform="translate(-20.99 -68.53)"><polygon points="256.8 354.47 240.82 345.25 256.8 336.02 272.77 345.25 256.8 354.47" style="fill:none"/></clipPath></defs><title>step2</title><polygon points="255.16 378.95 464.04 258.18 208.88 110.55 0 231.32 255.16 378.95" style="fill:#e6faff"/><polygon points="255.16 357.12 464.04 236.35 208.88 88.72 0 209.49 255.16 357.12" style="fill:#d1e6ed"/><polygon points="255.16 357.12 255.16 361.27 464.04 240.49 464.04 236.35 255.16 357.12" style="fill:#7ca9bf"/><polygon points="255.16 361.27 0 213.64 0 209.49 255.16 357.12 255.16 361.27" style="fill:#95c5d1"/><polygon points="101 176.1 244.12 258.73 339.53 203.65 196.41 121.01 101 176.1" style="fill:#a6c6dd"/><polygon points="101 159.62 244.12 242.25 339.53 187.17 196.41 104.54 101 159.62" style="fill:#7da3db"/><polygon points="244.12 243.81 244.12 242.25 339.53 187.17 339.53 188.72 244.12 243.81" style="fill:#6a8fba"/><path d="M353.35,141.72l-125.3-72.2a7.32,7.32,0,0,0-11,6.35v97.49l140.82,81.15.85,2.25,1.58-.85V153.79A13.94,13.94,0,0,0,353.35,141.72Z" transform="translate(-20.99 -68.53)" style="fill:#9ccaef"/><polygon points="244.12 243.81 101 161.18 101 159.62 244.12 242.25 244.12 243.81" style="fill:#6a8fba"/><path d="M358.74,256.76,215.48,174.21V76.72a7.33,7.33,0,0,1,11-6.35l125.29,72.2a13.92,13.92,0,0,1,7,12.07Z" transform="translate(-20.99 -68.53)" style="fill:#6691c4"/><polygon points="332.49 181.37 199.74 104.86 199.74 5.4 332.49 81.9 332.49 181.37" style="fill:#f6fbff"/><path d="M223.5,192.86l-9.05-5.23c-.4-.23-.3-.67.23-1l3.93-2.27a1.91,1.91,0,0,1,1.68-.13l9.05,5.23c.4.24.3.67-.23,1l-3.93,2.27A1.88,1.88,0,0,1,223.5,192.86Z" transform="translate(-20.99 -68.53)" style="fill:#507ca0"/><path d="M234.86,199.43l-9.05-5.23c-.4-.23-.3-.67.22-1L230,191a1.88,1.88,0,0,1,1.68-.13l9,5.23c.4.24.3.67-.23,1l-3.93,2.27A1.88,1.88,0,0,1,234.86,199.43Z" transform="translate(-20.99 -68.53)" style="fill:#507ca0"/><path d="M246.21,206l-9.05-5.23c-.4-.24-.3-.67.23-1l3.93-2.27a1.88,1.88,0,0,1,1.68-.13l9.05,5.23c.4.23.3.67-.23,1l-3.93,2.27A1.91,1.91,0,0,1,246.21,206Z" transform="translate(-20.99 -68.53)" style="fill:#507ca0"/><path d="M257.56,212.57l-9-5.24c-.4-.23-.3-.66.22-1l3.94-2.26a1.85,1.85,0,0,1,1.68-.13l9,5.23c.41.23.3.67-.22,1l-3.94,2.27A1.91,1.91,0,0,1,257.56,212.57Z" transform="translate(-20.99 -68.53)" style="fill:#507ca0"/><path d="M268.92,219.14l-9.05-5.24c-.4-.23-.3-.66.23-1l3.93-2.27a1.91,1.91,0,0,1,1.68-.13l9.05,5.24c.4.23.3.67-.23,1L270.6,219A1.91,1.91,0,0,1,268.92,219.14Z" transform="translate(-20.99 -68.53)" style="fill:#507ca0"/><path d="M280.27,225.71l-9-5.24c-.41-.23-.3-.67.22-1l3.94-2.27a1.91,1.91,0,0,1,1.68-.13l9,5.24c.4.23.3.66-.22,1L282,225.58A1.91,1.91,0,0,1,280.27,225.71Z" transform="translate(-20.99 -68.53)" style="fill:#507ca0"/><path d="M291.63,232.27,282.58,227c-.4-.23-.3-.67.23-1l3.93-2.27a1.91,1.91,0,0,1,1.68-.13l9.05,5.24c.4.23.3.66-.23,1l-3.93,2.26A1.85,1.85,0,0,1,291.63,232.27Z" transform="translate(-20.99 -68.53)" style="fill:#507ca0"/><path d="M303,238.84l-9-5.23c-.41-.23-.3-.67.22-1l3.93-2.27a1.93,1.93,0,0,1,1.69-.13l9,5.23c.4.24.3.67-.22,1l-3.94,2.27A1.85,1.85,0,0,1,303,238.84Z" transform="translate(-20.99 -68.53)" style="fill:#507ca0"/><path d="M314.34,245.41l-9-5.23c-.4-.23-.3-.67.23-1l3.93-2.27a1.88,1.88,0,0,1,1.68-.13l9.05,5.23c.4.23.3.67-.23,1L316,245.28A1.88,1.88,0,0,1,314.34,245.41Z" transform="translate(-20.99 -68.53)" style="fill:#507ca0"/><path d="M325.69,252l-9.05-5.23c-.4-.24-.3-.67.23-1l3.93-2.27a1.88,1.88,0,0,1,1.68-.13l9,5.23c.4.23.3.67-.23,1l-3.93,2.27A1.91,1.91,0,0,1,325.69,252Z" transform="translate(-20.99 -68.53)" style="fill:#507ca0"/><path d="M337.05,258.55,328,253.31c-.4-.23-.3-.66.23-1l3.93-2.26a1.85,1.85,0,0,1,1.68-.13l9.05,5.23c.4.23.3.67-.23,1l-3.93,2.27A1.91,1.91,0,0,1,337.05,258.55Z" transform="translate(-20.99 -68.53)" style="fill:#507ca0"/><path d="M213.28,198.55l-8.69-5c-.5-.29-.37-.83.28-1.2l6.63-3.83a2.34,2.34,0,0,1,2.09-.16l8.69,5c.5.29.38.83-.28,1.21l-6.63,3.82A2.34,2.34,0,0,1,213.28,198.55Z" transform="translate(-20.99 -68.53)" style="fill:#507ca0"/><path d="M224.64,205.12l-8.7-5c-.49-.29-.37-.83.28-1.2l6.64-3.83a2.32,2.32,0,0,1,2.08-.16l8.7,5c.5.29.37.83-.28,1.2L226.73,205A2.34,2.34,0,0,1,224.64,205.12Z" transform="translate(-20.99 -68.53)" style="fill:#507ca0"/><path d="M236,211.69l-8.69-5c-.5-.29-.37-.83.28-1.21l6.63-3.82a2.34,2.34,0,0,1,2.09-.16l8.69,5c.5.29.38.83-.28,1.2l-6.63,3.83A2.34,2.34,0,0,1,236,211.69Z" transform="translate(-20.99 -68.53)" style="fill:#507ca0"/><path d="M247.35,218.26l-8.7-5c-.5-.29-.37-.83.28-1.21l6.64-3.82a2.32,2.32,0,0,1,2.08-.16l8.7,5c.5.29.37.83-.28,1.2l-6.64,3.83A2.35,2.35,0,0,1,247.35,218.26Z" transform="translate(-20.99 -68.53)" style="fill:#507ca0"/><path d="M258.7,224.83l-8.69-5c-.5-.29-.38-.83.28-1.21l6.63-3.82a2.34,2.34,0,0,1,2.09-.16l8.69,5c.5.28.37.82-.28,1.2l-6.63,3.83A2.41,2.41,0,0,1,258.7,224.83Z" transform="translate(-20.99 -68.53)" style="fill:#507ca0"/><path d="M270.06,231.39l-8.7-5c-.5-.28-.37-.82.28-1.2l6.63-3.83a2.41,2.41,0,0,1,2.09-.16l8.7,5c.5.29.37.83-.28,1.21l-6.64,3.82A2.32,2.32,0,0,1,270.06,231.39Z" transform="translate(-20.99 -68.53)" style="fill:#507ca0"/><path d="M281.41,238l-8.69-5c-.5-.29-.38-.82.28-1.2l6.63-3.83a2.38,2.38,0,0,1,2.09-.16l8.69,5c.5.29.37.83-.28,1.21l-6.63,3.82A2.34,2.34,0,0,1,281.41,238Z" transform="translate(-20.99 -68.53)" style="fill:#507ca0"/><path d="M292.77,244.53l-8.7-5c-.5-.29-.37-.83.28-1.2l6.63-3.83a2.34,2.34,0,0,1,2.09-.16l8.7,5c.49.29.37.83-.29,1.21l-6.63,3.82A2.32,2.32,0,0,1,292.77,244.53Z" transform="translate(-20.99 -68.53)" style="fill:#507ca0"/><path d="M304.12,251.1l-8.7-5c-.49-.29-.37-.83.29-1.2l6.63-3.83a2.32,2.32,0,0,1,2.08-.16l8.7,5c.5.29.37.83-.28,1.21l-6.63,3.82A2.34,2.34,0,0,1,304.12,251.1Z" transform="translate(-20.99 -68.53)" style="fill:#507ca0"/><path d="M315.48,257.67l-8.7-5c-.5-.29-.37-.83.28-1.21l6.63-3.82a2.34,2.34,0,0,1,2.09-.16l8.69,5c.5.29.38.83-.28,1.2l-6.63,3.83A2.32,2.32,0,0,1,315.48,257.67Z" transform="translate(-20.99 -68.53)" style="fill:#507ca0"/><path d="M326.83,264.24l-8.7-5c-.49-.29-.37-.83.28-1.21l6.64-3.82a2.32,2.32,0,0,1,2.08-.16l8.7,5c.5.29.37.83-.28,1.2l-6.63,3.83A2.38,2.38,0,0,1,326.83,264.24Z" transform="translate(-20.99 -68.53)" style="fill:#507ca0"/><path d="M203.24,204.34l-8.69-5c-.5-.29-.37-.83.28-1.2l6.63-3.83a2.38,2.38,0,0,1,2.09-.16l8.69,5c.5.29.38.83-.28,1.21l-6.63,3.82A2.34,2.34,0,0,1,203.24,204.34Z" transform="translate(-20.99 -68.53)" style="fill:#507ca0"/><path d="M214.6,210.91l-8.7-5c-.5-.29-.37-.83.28-1.2l6.64-3.83a2.32,2.32,0,0,1,2.08-.16l8.7,5c.5.29.37.83-.28,1.21l-6.63,3.82A2.34,2.34,0,0,1,214.6,210.91Z" transform="translate(-20.99 -68.53)" style="fill:#507ca0"/><path d="M226,217.48l-8.69-5c-.5-.29-.38-.83.28-1.21l6.63-3.82a2.34,2.34,0,0,1,2.09-.16l8.69,5c.5.29.38.83-.28,1.2L228,217.32A2.34,2.34,0,0,1,226,217.48Z" transform="translate(-20.99 -68.53)" style="fill:#507ca0"/><path d="M237.31,224.05l-8.7-5c-.5-.29-.37-.83.28-1.21l6.64-3.82a2.32,2.32,0,0,1,2.08-.16l8.7,5c.5.29.37.83-.28,1.2l-6.64,3.83A2.32,2.32,0,0,1,237.31,224.05Z" transform="translate(-20.99 -68.53)" style="fill:#507ca0"/><path d="M248.66,230.62l-8.69-5c-.5-.29-.38-.83.28-1.21l6.63-3.82a2.34,2.34,0,0,1,2.09-.16l8.69,5c.5.29.37.82-.28,1.2l-6.63,3.83A2.38,2.38,0,0,1,248.66,230.62Z" transform="translate(-20.99 -68.53)" style="fill:#507ca0"/><path d="M260,237.19l-8.7-5c-.5-.29-.37-.83.28-1.21l6.63-3.82a2.34,2.34,0,0,1,2.09-.16l8.7,5c.49.28.37.82-.28,1.2L262.1,237A2.39,2.39,0,0,1,260,237.19Z" transform="translate(-20.99 -68.53)" style="fill:#507ca0"/><path d="M271.37,243.75l-8.69-5c-.5-.28-.38-.82.28-1.2l6.63-3.83a2.41,2.41,0,0,1,2.09-.16l8.69,5c.5.29.37.83-.28,1.21l-6.63,3.82A2.34,2.34,0,0,1,271.37,243.75Z" transform="translate(-20.99 -68.53)" style="fill:#507ca0"/><path d="M282.73,250.32l-8.7-5c-.5-.29-.37-.83.28-1.2l6.63-3.83a2.38,2.38,0,0,1,2.09-.16l8.69,5c.5.29.38.83-.28,1.21l-6.63,3.82A2.32,2.32,0,0,1,282.73,250.32Z" transform="translate(-20.99 -68.53)" style="fill:#507ca0"/><path d="M294.08,256.89l-8.7-5c-.49-.29-.37-.83.29-1.2l6.63-3.83a2.32,2.32,0,0,1,2.08-.16l8.7,5c.5.29.37.83-.28,1.21l-6.63,3.82A2.34,2.34,0,0,1,294.08,256.89Z" transform="translate(-20.99 -68.53)" style="fill:#507ca0"/><path d="M305.43,263.46l-8.69-5c-.5-.29-.37-.83.28-1.21l6.63-3.82a2.34,2.34,0,0,1,2.09-.16l8.69,5c.5.29.38.83-.28,1.2l-6.63,3.83A2.34,2.34,0,0,1,305.43,263.46Z" transform="translate(-20.99 -68.53)" style="fill:#507ca0"/><path d="M316.79,270l-8.7-5c-.5-.29-.37-.83.28-1.21L315,260a2.32,2.32,0,0,1,2.08-.16l8.7,5c.5.29.37.83-.28,1.2l-6.63,3.83A2.34,2.34,0,0,1,316.79,270Z" transform="translate(-20.99 -68.53)" style="fill:#507ca0"/><path d="M193.2,210.13l-8.69-5c-.5-.28-.37-.82.28-1.2l6.63-3.83a2.38,2.38,0,0,1,2.09-.16l8.69,5c.5.29.38.83-.28,1.21L195.29,210A2.34,2.34,0,0,1,193.2,210.13Z" transform="translate(-20.99 -68.53)" style="fill:#507ca0"/><path d="M204.56,216.7l-8.7-5c-.5-.29-.37-.83.28-1.2l6.64-3.83a2.35,2.35,0,0,1,2.08-.16l8.7,5c.5.29.37.83-.28,1.21l-6.64,3.82A2.32,2.32,0,0,1,204.56,216.7Z" transform="translate(-20.99 -68.53)" style="fill:#507ca0"/><path d="M215.91,223.27l-8.69-5c-.5-.29-.38-.83.28-1.2l6.63-3.83a2.34,2.34,0,0,1,2.09-.16l8.69,5c.5.29.37.83-.28,1.21L218,223.11A2.34,2.34,0,0,1,215.91,223.27Z" transform="translate(-20.99 -68.53)" style="fill:#507ca0"/><path d="M227.27,229.84l-8.7-5c-.5-.29-.37-.83.28-1.21l6.63-3.82a2.34,2.34,0,0,1,2.09-.16l8.7,5c.5.29.37.83-.28,1.2l-6.64,3.83A2.32,2.32,0,0,1,227.27,229.84Z" transform="translate(-20.99 -68.53)" style="fill:#507ca0"/><path d="M238.62,236.41l-8.69-5c-.5-.29-.38-.83.28-1.21l6.63-3.82a2.34,2.34,0,0,1,2.09-.16l8.69,5c.5.29.37.83-.28,1.2l-6.63,3.83A2.34,2.34,0,0,1,238.62,236.41Z" transform="translate(-20.99 -68.53)" style="fill:#507ca0"/><path d="M250,243l-8.7-5c-.5-.29-.37-.83.28-1.21l6.63-3.82a2.34,2.34,0,0,1,2.09-.16l8.7,5c.49.28.37.82-.29,1.2l-6.63,3.83A2.36,2.36,0,0,1,250,243Z" transform="translate(-20.99 -68.53)" style="fill:#507ca0"/><path d="M261.33,249.55l-8.69-5c-.5-.29-.38-.83.28-1.21l6.63-3.82a2.36,2.36,0,0,1,2.08-.17l8.7,5c.5.28.37.82-.28,1.2l-6.63,3.83A2.41,2.41,0,0,1,261.33,249.55Z" transform="translate(-20.99 -68.53)" style="fill:#507ca0"/><path d="M272.69,256.11l-8.7-5c-.5-.28-.37-.82.28-1.2l6.63-3.83a2.41,2.41,0,0,1,2.09-.16l8.69,5c.5.29.38.83-.28,1.21L274.77,256A2.32,2.32,0,0,1,272.69,256.11Z" transform="translate(-20.99 -68.53)" style="fill:#507ca0"/><path d="M284,262.68l-8.7-5c-.49-.29-.37-.83.28-1.2l6.64-3.83a2.35,2.35,0,0,1,2.08-.16l8.7,5c.5.29.37.83-.28,1.21l-6.63,3.82A2.34,2.34,0,0,1,284,262.68Z" transform="translate(-20.99 -68.53)" style="fill:#507ca0"/><path d="M295.39,269.25l-8.69-5c-.5-.29-.37-.83.28-1.2l6.63-3.83a2.34,2.34,0,0,1,2.09-.16l8.69,5c.5.29.38.83-.28,1.21l-6.63,3.82A2.34,2.34,0,0,1,295.39,269.25Z" transform="translate(-20.99 -68.53)" style="fill:#507ca0"/><path d="M306.75,275.82l-8.7-5c-.5-.29-.37-.83.28-1.21l6.64-3.82a2.32,2.32,0,0,1,2.08-.16l8.7,5c.5.29.37.83-.28,1.2l-6.64,3.83A2.32,2.32,0,0,1,306.75,275.82Z" transform="translate(-20.99 -68.53)" style="fill:#507ca0"/><path d="M183.16,215.93l-8.69-5c-.5-.28-.37-.82.28-1.2l6.63-3.83a2.41,2.41,0,0,1,2.09-.16l8.69,5c.5.29.38.83-.28,1.21l-6.63,3.82A2.38,2.38,0,0,1,183.16,215.93Z" transform="translate(-20.99 -68.53)" style="fill:#507ca0"/><path d="M194.52,222.49l-8.7-5c-.5-.28-.37-.82.28-1.2l6.64-3.83a2.35,2.35,0,0,1,2.08-.16l8.7,5c.5.29.37.83-.28,1.21l-6.64,3.82A2.32,2.32,0,0,1,194.52,222.49Z" transform="translate(-20.99 -68.53)" style="fill:#507ca0"/><path d="M205.87,229.06l-8.69-5c-.5-.29-.38-.83.28-1.2l6.63-3.83a2.38,2.38,0,0,1,2.09-.16l8.69,5c.5.29.37.83-.28,1.21L208,228.9A2.34,2.34,0,0,1,205.87,229.06Z" transform="translate(-20.99 -68.53)" style="fill:#507ca0"/><path d="M217.23,235.63l-8.7-5c-.5-.29-.37-.83.28-1.2l6.63-3.83a2.34,2.34,0,0,1,2.09-.16l8.7,5c.5.29.37.83-.28,1.21l-6.64,3.82A2.32,2.32,0,0,1,217.23,235.63Z" transform="translate(-20.99 -68.53)" style="fill:#507ca0"/><path d="M228.58,242.2l-8.69-5c-.5-.29-.38-.83.28-1.21l6.63-3.82a2.34,2.34,0,0,1,2.09-.16l8.69,5c.5.29.37.83-.28,1.2L230.67,242A2.34,2.34,0,0,1,228.58,242.2Z" transform="translate(-20.99 -68.53)" style="fill:#507ca0"/><path d="M239.94,248.77l-8.7-5c-.5-.29-.37-.83.28-1.21l6.63-3.82a2.34,2.34,0,0,1,2.09-.16l8.7,5c.49.29.37.83-.29,1.2L242,248.61A2.32,2.32,0,0,1,239.94,248.77Z" transform="translate(-20.99 -68.53)" style="fill:#507ca0"/><path d="M251.29,255.34l-8.7-5c-.49-.29-.37-.83.29-1.21l6.63-3.82a2.32,2.32,0,0,1,2.08-.16l8.7,5c.5.28.37.82-.28,1.2l-6.63,3.83A2.38,2.38,0,0,1,251.29,255.34Z" transform="translate(-20.99 -68.53)" style="fill:#507ca0"/><path d="M262.64,261.91l-8.69-5c-.5-.29-.37-.83.28-1.21l6.63-3.83a2.41,2.41,0,0,1,2.09-.16l8.69,5c.5.29.38.83-.28,1.21l-6.63,3.83A2.41,2.41,0,0,1,262.64,261.91Z" transform="translate(-20.99 -68.53)" style="fill:#507ca0"/><path d="M274,268.47l-8.7-5c-.5-.28-.37-.82.28-1.2l6.64-3.83a2.35,2.35,0,0,1,2.08-.16l8.7,5c.5.29.37.83-.28,1.21l-6.63,3.82A2.34,2.34,0,0,1,274,268.47Z" transform="translate(-20.99 -68.53)" style="fill:#507ca0"/><path d="M285.35,275l-8.69-5c-.5-.29-.37-.83.28-1.2l6.63-3.83a2.38,2.38,0,0,1,2.09-.16l8.69,5c.5.29.38.83-.28,1.21l-6.63,3.82A2.34,2.34,0,0,1,285.35,275Z" transform="translate(-20.99 -68.53)" style="fill:#507ca0"/><path d="M296.71,281.61l-8.7-5c-.5-.29-.37-.83.28-1.2l6.64-3.83a2.32,2.32,0,0,1,2.08-.16l8.7,5c.5.29.37.83-.28,1.21l-6.64,3.82A2.32,2.32,0,0,1,296.71,281.61Z" transform="translate(-20.99 -68.53)" style="fill:#507ca0"/><path d="M173.12,221.72l-8.69-5c-.5-.29-.37-.83.28-1.21l6.63-3.82a2.34,2.34,0,0,1,2.09-.16l8.69,5c.5.28.38.82-.28,1.2l-6.63,3.83A2.38,2.38,0,0,1,173.12,221.72Z" transform="translate(-20.99 -68.53)" style="fill:#507ca0"/><path d="M184.48,228.29l-8.7-5c-.5-.28-.37-.82.28-1.2l6.64-3.83a2.39,2.39,0,0,1,2.08-.16l8.7,5c.5.29.37.83-.28,1.21l-6.64,3.82A2.36,2.36,0,0,1,184.48,228.29Z" transform="translate(-20.99 -68.53)" style="fill:#507ca0"/><path d="M195.83,234.85l-8.69-5c-.5-.29-.38-.82.28-1.2l6.63-3.83a2.38,2.38,0,0,1,2.09-.16l8.69,5c.5.29.37.83-.28,1.21l-6.63,3.82A2.34,2.34,0,0,1,195.83,234.85Z" transform="translate(-20.99 -68.53)" style="fill:#507ca0"/><path d="M263.81,274.18l-65.17-37.7c-.58-.34-.43-1,.33-1.41l6.24-3.6a2.75,2.75,0,0,1,2.43-.18L272.81,269c.58.33.43,1-.33,1.4l-6.24,3.6A2.72,2.72,0,0,1,263.81,274.18Z" transform="translate(-20.99 -68.53)" style="fill:#507ca0"/><path d="M275.31,280.83l-8.69-5c-.5-.28-.37-.82.28-1.2l6.63-3.83a2.38,2.38,0,0,1,2.09-.16l8.69,5c.5.29.38.83-.28,1.21l-6.63,3.82A2.34,2.34,0,0,1,275.31,280.83Z" transform="translate(-20.99 -68.53)" style="fill:#507ca0"/><path d="M286.67,287.4l-8.7-5c-.5-.29-.37-.83.28-1.2l6.64-3.83a2.32,2.32,0,0,1,2.08-.16l8.7,5c.5.29.37.83-.28,1.21l-6.64,3.82A2.32,2.32,0,0,1,286.67,287.4Z" transform="translate(-20.99 -68.53)" style="fill:#507ca0"/><path d="M223.5,192.57l-9.05-5.23c-.4-.23-.3-.67.23-1l3.93-2.27a1.91,1.91,0,0,1,1.68-.13l9.05,5.23c.4.24.3.67-.23,1l-3.93,2.27A1.88,1.88,0,0,1,223.5,192.57Z" transform="translate(-20.99 -68.53)" style="fill:#5e8ab5"/><path d="M234.86,199.14l-9.05-5.23c-.4-.24-.3-.67.22-1l3.94-2.27a1.88,1.88,0,0,1,1.68-.13l9,5.23c.4.23.3.67-.23,1L236.54,199A1.88,1.88,0,0,1,234.86,199.14Z" transform="translate(-20.99 -68.53)" style="fill:#5e8ab5"/><path d="M246.21,205.71l-9.05-5.23c-.4-.24-.3-.67.23-1l3.93-2.27a1.85,1.85,0,0,1,1.68-.13l9.05,5.23c.4.23.3.67-.23,1l-3.93,2.27A1.91,1.91,0,0,1,246.21,205.71Z" transform="translate(-20.99 -68.53)" style="fill:#5e8ab5"/><path d="M257.56,212.28l-9-5.24c-.4-.23-.3-.66.22-1l3.94-2.26a1.85,1.85,0,0,1,1.68-.13l9,5.23c.41.23.3.67-.22,1l-3.94,2.27A1.91,1.91,0,0,1,257.56,212.28Z" transform="translate(-20.99 -68.53)" style="fill:#5e8ab5"/><path d="M268.92,218.85l-9.05-5.24c-.4-.23-.3-.66.23-1l3.93-2.27a1.91,1.91,0,0,1,1.68-.13l9.05,5.24c.4.23.3.67-.23,1l-3.93,2.27A1.91,1.91,0,0,1,268.92,218.85Z" transform="translate(-20.99 -68.53)" style="fill:#5e8ab5"/><path d="M280.27,225.42l-9-5.24c-.41-.23-.3-.67.22-1l3.94-2.27a1.91,1.91,0,0,1,1.68-.13l9,5.24c.4.23.3.66-.22,1L282,225.29A1.91,1.91,0,0,1,280.27,225.42Z" transform="translate(-20.99 -68.53)" style="fill:#5e8ab5"/><path d="M291.63,232l-9.05-5.23c-.4-.23-.3-.67.23-1l3.93-2.27a1.91,1.91,0,0,1,1.68-.13l9.05,5.24c.4.23.3.66-.23,1l-3.93,2.26A1.85,1.85,0,0,1,291.63,232Z" transform="translate(-20.99 -68.53)" style="fill:#5e8ab5"/><path d="M303,238.55l-9-5.23c-.41-.23-.3-.67.22-1l3.93-2.27a1.93,1.93,0,0,1,1.69-.13l9,5.23c.4.24.3.67-.22,1l-3.94,2.27A1.88,1.88,0,0,1,303,238.55Z" transform="translate(-20.99 -68.53)" style="fill:#5e8ab5"/><path d="M314.34,245.12l-9-5.23c-.4-.24-.3-.67.23-1l3.93-2.27a1.88,1.88,0,0,1,1.68-.13l9.05,5.23c.4.23.3.67-.23,1L316,245A1.88,1.88,0,0,1,314.34,245.12Z" transform="translate(-20.99 -68.53)" style="fill:#5e8ab5"/><path d="M325.69,251.69l-9.05-5.23c-.4-.24-.3-.67.23-1l3.93-2.27a1.88,1.88,0,0,1,1.68-.13l9,5.23c.4.23.3.67-.23,1l-3.93,2.27A1.91,1.91,0,0,1,325.69,251.69Z" transform="translate(-20.99 -68.53)" style="fill:#5e8ab5"/><path d="M337.05,258.26,328,253c-.4-.23-.3-.66.23-1l3.93-2.26a1.85,1.85,0,0,1,1.68-.13l9.05,5.23c.4.23.3.67-.23,1l-3.93,2.27A1.91,1.91,0,0,1,337.05,258.26Z" transform="translate(-20.99 -68.53)" style="fill:#5e8ab5"/><path d="M213.28,198.26l-8.69-5c-.5-.29-.37-.83.28-1.2l6.63-3.83a2.34,2.34,0,0,1,2.09-.16l8.69,5c.5.29.38.83-.28,1.21l-6.63,3.82A2.34,2.34,0,0,1,213.28,198.26Z" transform="translate(-20.99 -68.53)" style="fill:#5e8ab5"/><path d="M224.64,204.83l-8.7-5c-.49-.29-.37-.83.28-1.2l6.64-3.83a2.32,2.32,0,0,1,2.08-.16l8.7,5c.5.29.37.83-.28,1.2l-6.63,3.83A2.34,2.34,0,0,1,224.64,204.83Z" transform="translate(-20.99 -68.53)" style="fill:#5e8ab5"/><path d="M236,211.4l-8.69-5c-.5-.29-.37-.83.28-1.21l6.63-3.82a2.34,2.34,0,0,1,2.09-.16l8.69,5c.5.29.38.83-.28,1.2l-6.63,3.83A2.34,2.34,0,0,1,236,211.4Z" transform="translate(-20.99 -68.53)" style="fill:#5e8ab5"/><path d="M247.35,218l-8.7-5c-.5-.29-.37-.83.28-1.21l6.64-3.82a2.32,2.32,0,0,1,2.08-.16l8.7,5c.5.29.37.83-.28,1.2l-6.64,3.83A2.35,2.35,0,0,1,247.35,218Z" transform="translate(-20.99 -68.53)" style="fill:#5e8ab5"/><path d="M258.7,224.54l-8.69-5c-.5-.29-.38-.83.28-1.21l6.63-3.82a2.34,2.34,0,0,1,2.09-.16l8.69,5c.5.28.37.82-.28,1.2l-6.63,3.83A2.41,2.41,0,0,1,258.7,224.54Z" transform="translate(-20.99 -68.53)" style="fill:#5e8ab5"/><path d="M270.06,231.1l-8.7-5c-.5-.28-.37-.82.28-1.2l6.63-3.83a2.41,2.41,0,0,1,2.09-.16l8.7,5c.5.29.37.83-.28,1.21l-6.64,3.82A2.32,2.32,0,0,1,270.06,231.1Z" transform="translate(-20.99 -68.53)" style="fill:#5e8ab5"/><path d="M281.41,237.67l-8.69-5c-.5-.29-.38-.82.28-1.2l6.63-3.83a2.38,2.38,0,0,1,2.09-.16l8.69,5c.5.29.37.83-.28,1.21l-6.63,3.82A2.34,2.34,0,0,1,281.41,237.67Z" transform="translate(-20.99 -68.53)" style="fill:#5e8ab5"/><path d="M292.77,244.24l-8.7-5c-.5-.29-.37-.83.28-1.2l6.63-3.83a2.34,2.34,0,0,1,2.09-.16l8.7,5c.49.29.37.83-.29,1.21l-6.63,3.82A2.32,2.32,0,0,1,292.77,244.24Z" transform="translate(-20.99 -68.53)" style="fill:#5e8ab5"/><path d="M304.12,250.81l-8.7-5c-.49-.29-.37-.83.29-1.2l6.63-3.83a2.32,2.32,0,0,1,2.08-.16l8.7,5c.5.29.37.83-.28,1.21l-6.63,3.82A2.34,2.34,0,0,1,304.12,250.81Z" transform="translate(-20.99 -68.53)" style="fill:#5e8ab5"/><path d="M315.48,257.38l-8.7-5c-.5-.29-.37-.83.28-1.21l6.63-3.82a2.34,2.34,0,0,1,2.09-.16l8.69,5c.5.29.38.83-.28,1.2l-6.63,3.83A2.32,2.32,0,0,1,315.48,257.38Z" transform="translate(-20.99 -68.53)" style="fill:#5e8ab5"/><path d="M326.83,264l-8.7-5c-.49-.29-.37-.83.28-1.21l6.64-3.82a2.32,2.32,0,0,1,2.08-.16l8.7,5c.5.29.37.83-.28,1.2l-6.63,3.83A2.38,2.38,0,0,1,326.83,264Z" transform="translate(-20.99 -68.53)" style="fill:#5e8ab5"/><path d="M203.24,204.05l-8.69-5c-.5-.29-.37-.83.28-1.2l6.63-3.83a2.38,2.38,0,0,1,2.09-.16l8.69,5c.5.29.38.83-.28,1.21l-6.63,3.82A2.34,2.34,0,0,1,203.24,204.05Z" transform="translate(-20.99 -68.53)" style="fill:#5e8ab5"/><path d="M214.6,210.62l-8.7-5c-.5-.29-.37-.83.28-1.2l6.64-3.83a2.32,2.32,0,0,1,2.08-.16l8.7,5c.5.29.37.83-.28,1.21l-6.63,3.82A2.34,2.34,0,0,1,214.6,210.62Z" transform="translate(-20.99 -68.53)" style="fill:#5e8ab5"/><path d="M226,217.19l-8.69-5c-.5-.29-.38-.83.28-1.21l6.63-3.82a2.34,2.34,0,0,1,2.09-.16l8.69,5c.5.29.38.83-.28,1.2L228,217A2.34,2.34,0,0,1,226,217.19Z" transform="translate(-20.99 -68.53)" style="fill:#5e8ab5"/><path d="M237.31,223.76l-8.7-5c-.5-.29-.37-.83.28-1.21l6.64-3.82a2.32,2.32,0,0,1,2.08-.16l8.7,5c.5.29.37.83-.28,1.2l-6.64,3.83A2.32,2.32,0,0,1,237.31,223.76Z" transform="translate(-20.99 -68.53)" style="fill:#5e8ab5"/><path d="M248.66,230.33l-8.69-5c-.5-.29-.38-.83.28-1.21l6.63-3.82a2.34,2.34,0,0,1,2.09-.16l8.69,5c.5.29.37.82-.28,1.2l-6.63,3.83A2.38,2.38,0,0,1,248.66,230.33Z" transform="translate(-20.99 -68.53)" style="fill:#5e8ab5"/><path d="M260,236.9l-8.7-5c-.5-.29-.37-.83.28-1.21l6.63-3.82a2.38,2.38,0,0,1,2.09-.17l8.7,5c.49.28.37.82-.28,1.2l-6.64,3.83A2.39,2.39,0,0,1,260,236.9Z" transform="translate(-20.99 -68.53)" style="fill:#5e8ab5"/><path d="M271.37,243.46l-8.69-5c-.5-.28-.38-.82.28-1.2l6.63-3.83a2.41,2.41,0,0,1,2.09-.16l8.69,5c.5.29.37.83-.28,1.21l-6.63,3.82A2.34,2.34,0,0,1,271.37,243.46Z" transform="translate(-20.99 -68.53)" style="fill:#5e8ab5"/><path d="M282.73,250l-8.7-5c-.5-.29-.37-.83.28-1.2l6.63-3.83a2.38,2.38,0,0,1,2.09-.16l8.69,5c.5.29.38.83-.28,1.21l-6.63,3.82A2.32,2.32,0,0,1,282.73,250Z" transform="translate(-20.99 -68.53)" style="fill:#5e8ab5"/><path d="M294.08,256.6l-8.7-5c-.49-.29-.37-.83.29-1.2l6.63-3.83a2.32,2.32,0,0,1,2.08-.16l8.7,5c.5.29.37.83-.28,1.21l-6.63,3.82A2.34,2.34,0,0,1,294.08,256.6Z" transform="translate(-20.99 -68.53)" style="fill:#5e8ab5"/><path d="M305.43,263.17l-8.69-5c-.5-.29-.37-.83.28-1.21l6.63-3.82a2.34,2.34,0,0,1,2.09-.16l8.69,5c.5.29.38.83-.28,1.2L307.52,263A2.34,2.34,0,0,1,305.43,263.17Z" transform="translate(-20.99 -68.53)" style="fill:#5e8ab5"/><path d="M316.79,269.74l-8.7-5c-.5-.29-.37-.83.28-1.21l6.64-3.82a2.32,2.32,0,0,1,2.08-.16l8.7,5c.5.29.37.83-.28,1.2l-6.63,3.83A2.34,2.34,0,0,1,316.79,269.74Z" transform="translate(-20.99 -68.53)" style="fill:#5e8ab5"/><path d="M193.2,209.84l-8.69-5c-.5-.28-.37-.82.28-1.2l6.63-3.83a2.38,2.38,0,0,1,2.09-.16l8.69,5c.5.29.38.83-.28,1.21l-6.63,3.82A2.34,2.34,0,0,1,193.2,209.84Z" transform="translate(-20.99 -68.53)" style="fill:#5e8ab5"/><path d="M204.56,216.41l-8.7-5c-.5-.29-.37-.83.28-1.2l6.64-3.83a2.35,2.35,0,0,1,2.08-.16l8.7,5c.5.29.37.83-.28,1.21l-6.64,3.82A2.32,2.32,0,0,1,204.56,216.41Z" transform="translate(-20.99 -68.53)" style="fill:#5e8ab5"/><path d="M215.91,223l-8.69-5c-.5-.29-.38-.83.28-1.2l6.63-3.83a2.34,2.34,0,0,1,2.09-.16l8.69,5c.5.29.37.83-.28,1.21L218,222.82A2.34,2.34,0,0,1,215.91,223Z" transform="translate(-20.99 -68.53)" style="fill:#5e8ab5"/><path d="M227.27,229.55l-8.7-5c-.5-.29-.37-.83.28-1.21l6.63-3.82a2.34,2.34,0,0,1,2.09-.16l8.7,5c.5.29.37.83-.28,1.2l-6.64,3.83A2.32,2.32,0,0,1,227.27,229.55Z" transform="translate(-20.99 -68.53)" style="fill:#5e8ab5"/><path d="M238.62,236.12l-8.69-5c-.5-.29-.38-.83.28-1.21l6.63-3.82a2.34,2.34,0,0,1,2.09-.16l8.69,5c.5.29.37.83-.28,1.2L240.71,236A2.34,2.34,0,0,1,238.62,236.12Z" transform="translate(-20.99 -68.53)" style="fill:#5e8ab5"/><path d="M250,242.69l-8.7-5c-.5-.29-.37-.83.28-1.21l6.63-3.82a2.34,2.34,0,0,1,2.09-.16l8.7,5c.49.28.37.82-.29,1.2l-6.63,3.83A2.36,2.36,0,0,1,250,242.69Z" transform="translate(-20.99 -68.53)" style="fill:#5e8ab5"/><path d="M261.33,249.26l-8.69-5c-.5-.29-.38-.83.28-1.21l6.63-3.82a2.36,2.36,0,0,1,2.08-.17l8.7,5c.5.28.37.82-.28,1.2l-6.63,3.83A2.41,2.41,0,0,1,261.33,249.26Z" transform="translate(-20.99 -68.53)" style="fill:#5e8ab5"/><path d="M272.69,255.82l-8.7-5c-.5-.28-.37-.82.28-1.2l6.63-3.83a2.38,2.38,0,0,1,2.09-.16l8.69,5c.5.29.38.83-.28,1.21l-6.63,3.82A2.32,2.32,0,0,1,272.69,255.82Z" transform="translate(-20.99 -68.53)" style="fill:#5e8ab5"/><path d="M284,262.39l-8.7-5c-.49-.29-.37-.83.28-1.2l6.64-3.83a2.35,2.35,0,0,1,2.08-.16l8.7,5c.5.29.37.83-.28,1.21l-6.63,3.82A2.34,2.34,0,0,1,284,262.39Z" transform="translate(-20.99 -68.53)" style="fill:#5e8ab5"/><path d="M295.39,269l-8.69-5c-.5-.29-.37-.83.28-1.2l6.63-3.83a2.34,2.34,0,0,1,2.09-.16l8.69,5c.5.29.38.83-.28,1.21l-6.63,3.82A2.34,2.34,0,0,1,295.39,269Z" transform="translate(-20.99 -68.53)" style="fill:#5e8ab5"/><path d="M306.75,275.53l-8.7-5c-.5-.29-.37-.83.28-1.21l6.64-3.82a2.32,2.32,0,0,1,2.08-.16l8.7,5c.5.29.37.83-.28,1.2l-6.64,3.83A2.32,2.32,0,0,1,306.75,275.53Z" transform="translate(-20.99 -68.53)" style="fill:#5e8ab5"/><path d="M183.16,215.64l-8.69-5c-.5-.28-.37-.82.28-1.2l6.63-3.83a2.41,2.41,0,0,1,2.09-.16l8.69,5c.5.29.38.83-.28,1.21l-6.63,3.82A2.38,2.38,0,0,1,183.16,215.64Z" transform="translate(-20.99 -68.53)" style="fill:#5e8ab5"/><path d="M194.52,222.2l-8.7-5c-.5-.29-.37-.82.28-1.2l6.64-3.83a2.35,2.35,0,0,1,2.08-.16l8.7,5c.5.29.37.83-.28,1.21L196.6,222A2.32,2.32,0,0,1,194.52,222.2Z" transform="translate(-20.99 -68.53)" style="fill:#5e8ab5"/><path d="M205.87,228.77l-8.69-5c-.5-.29-.38-.83.28-1.2l6.63-3.83a2.34,2.34,0,0,1,2.09-.16l8.69,5c.5.29.37.83-.28,1.21L208,228.61A2.34,2.34,0,0,1,205.87,228.77Z" transform="translate(-20.99 -68.53)" style="fill:#5e8ab5"/><path d="M217.23,235.34l-8.7-5c-.5-.29-.37-.83.28-1.2l6.63-3.83a2.34,2.34,0,0,1,2.09-.16l8.7,5c.5.29.37.83-.28,1.21l-6.64,3.82A2.32,2.32,0,0,1,217.23,235.34Z" transform="translate(-20.99 -68.53)" style="fill:#5e8ab5"/><path d="M228.58,241.91l-8.69-5c-.5-.29-.38-.83.28-1.21l6.63-3.82a2.34,2.34,0,0,1,2.09-.16l8.69,5c.5.29.37.83-.28,1.2l-6.63,3.83A2.34,2.34,0,0,1,228.58,241.91Z" transform="translate(-20.99 -68.53)" style="fill:#5e8ab5"/><path d="M239.94,248.48l-8.7-5c-.5-.29-.37-.83.28-1.21l6.63-3.82a2.34,2.34,0,0,1,2.09-.16l8.7,5c.49.29.37.83-.29,1.2L242,248.32A2.32,2.32,0,0,1,239.94,248.48Z" transform="translate(-20.99 -68.53)" style="fill:#5e8ab5"/><path d="M251.29,255.05l-8.7-5c-.49-.29-.37-.83.29-1.21l6.63-3.82a2.32,2.32,0,0,1,2.08-.16l8.7,5c.5.28.37.82-.28,1.2l-6.63,3.83A2.38,2.38,0,0,1,251.29,255.05Z" transform="translate(-20.99 -68.53)" style="fill:#5e8ab5"/><path d="M262.64,261.62l-8.69-5c-.5-.29-.37-.83.28-1.21l6.63-3.83a2.41,2.41,0,0,1,2.09-.16l8.69,5c.5.29.38.83-.28,1.21l-6.63,3.83A2.41,2.41,0,0,1,262.64,261.62Z" transform="translate(-20.99 -68.53)" style="fill:#5e8ab5"/><path d="M274,268.18l-8.7-5c-.5-.28-.37-.82.28-1.2l6.64-3.83a2.35,2.35,0,0,1,2.08-.16l8.7,5c.5.29.37.83-.28,1.21L276.09,268A2.34,2.34,0,0,1,274,268.18Z" transform="translate(-20.99 -68.53)" style="fill:#5e8ab5"/><path d="M285.35,274.75l-8.69-5c-.5-.29-.37-.83.28-1.2l6.63-3.83a2.34,2.34,0,0,1,2.09-.16l8.69,5c.5.29.38.83-.28,1.21l-6.63,3.82A2.34,2.34,0,0,1,285.35,274.75Z" transform="translate(-20.99 -68.53)" style="fill:#5e8ab5"/><path d="M296.71,281.32l-8.7-5c-.5-.29-.37-.83.28-1.2l6.64-3.83a2.32,2.32,0,0,1,2.08-.16l8.7,5c.5.29.37.83-.28,1.21l-6.64,3.82A2.32,2.32,0,0,1,296.71,281.32Z" transform="translate(-20.99 -68.53)" style="fill:#5e8ab5"/><path d="M173.12,221.43l-8.69-5c-.5-.29-.37-.83.28-1.21l6.63-3.82a2.34,2.34,0,0,1,2.09-.16l8.69,5c.5.28.38.82-.28,1.2l-6.63,3.83A2.38,2.38,0,0,1,173.12,221.43Z" transform="translate(-20.99 -68.53)" style="fill:#5e8ab5"/><path d="M184.48,228l-8.7-5c-.5-.28-.37-.82.28-1.2l6.64-3.83a2.39,2.39,0,0,1,2.08-.16l8.7,5c.5.29.37.83-.28,1.21l-6.64,3.82A2.36,2.36,0,0,1,184.48,228Z" transform="translate(-20.99 -68.53)" style="fill:#5e8ab5"/><path d="M195.83,234.56l-8.69-5c-.5-.29-.38-.82.28-1.2l6.63-3.83a2.38,2.38,0,0,1,2.09-.16l8.69,5c.5.29.37.83-.28,1.21l-6.63,3.82A2.34,2.34,0,0,1,195.83,234.56Z" transform="translate(-20.99 -68.53)" style="fill:#5e8ab5"/><path d="M263.81,273.89l-65.17-37.7c-.58-.34-.43-1,.33-1.41l6.24-3.6a2.75,2.75,0,0,1,2.43-.18l65.17,37.7c.58.33.43,1-.33,1.4l-6.24,3.6A2.72,2.72,0,0,1,263.81,273.89Z" transform="translate(-20.99 -68.53)" style="fill:#5e8ab5"/><path d="M275.31,280.54l-8.69-5c-.5-.28-.37-.82.28-1.2l6.63-3.83a2.38,2.38,0,0,1,2.09-.16l8.69,5c.5.29.38.83-.28,1.21l-6.63,3.82A2.34,2.34,0,0,1,275.31,280.54Z" transform="translate(-20.99 -68.53)" style="fill:#5e8ab5"/><path d="M286.67,287.11l-8.7-5c-.5-.29-.37-.83.28-1.2l6.64-3.83a2.32,2.32,0,0,1,2.08-.16l8.7,5c.5.29.37.83-.28,1.21L288.75,287A2.32,2.32,0,0,1,286.67,287.11Z" transform="translate(-20.99 -68.53)" style="fill:#5e8ab5"/><ellipse cx="127.77" cy="255.25" rx="29.66" ry="17.13" style="fill:#a6c6dd"/><path d="M141,326.88s-1.44,4.83,2.31,5.87,4.39-1.06,5.73-1.75,9.69-5,11.26-7-3.18-5-10.5-.32Z" transform="translate(-20.99 -68.53)" style="fill:#294154"/><path d="M125.81,318.32s-1.78,4.43,1.67,5.73,4.71-2.21,5.74-2.87a46.07,46.07,0,0,0,6.76-5c1.65-1.72-.82-5.5-8.14-1.73Z" transform="translate(-20.99 -68.53)" style="fill:#294154"/><path d="M129.08,247.83s-1,30.19-.72,36c-3,7.08-3.36,28.33-2.55,35.1,0,1.07,8.18,1.25,8.18-2.54s3.28-24.57,4.17-27.55S142,276,142,276V247.83l-9.63-1.43Z" transform="translate(-20.99 -68.53)" style="fill:#395877"/><path d="M163.54,236s-5.91,2.57-10.3-3.86S157,226.8,157,226.8l5.63,3.33Z" transform="translate(-20.99 -68.53)" style="fill:#35526d"/><path d="M140.54,326.38c.09,1.23,9.69,2.9,9.69-1.44s.48-24,1.77-32.21,4.71-22.65,3.46-32.18-1.44-13.28-1.64-15.66h-14.1s1.56,40.71,1.56,44.46S140.08,320,140.54,326.38Z" transform="translate(-20.99 -68.53)" style="fill:#44668e"/><path d="M141.62,199.19a8.73,8.73,0,0,0-8.11-1.21c-4.1,1.4-7.12,6.16-7.12,13.88s4.18,10.12,4.18,21.5-4.12,14.15-3.46,22.71,26.16,12,29.69,7.22c2.67-4.48-2.84-24.69-2.09-30.9s4-20,2.49-23.77C156.17,206,148.11,200.38,141.62,199.19Z" transform="translate(-20.99 -68.53)" style="fill:#44668e"/><path d="M156.35,229.33c3.27,6.75,5.89,7.08,7.19,6.64,2-.66,2.86-3.14,1.67-8.49s-5.12-22-10.79-19.75C148.58,210.1,153.09,222.59,156.35,229.33Z" transform="translate(-20.99 -68.53)" style="fill:#3b5a7a"/><path d="M139.77,194.35v5c0,1.59,4.47,3.59,8.38,1.78V196.9s4.42.63,5.39,0,1.83-14.52-.82-16.14c-4.33-3.35-15.16-1.93-15.16,4.78C137.56,187.66,139.77,190.26,139.77,194.35Z" transform="translate(-20.99 -68.53)" style="fill:#de976d"/><path d="M136.81,185.42c1.29,1.5,9,.08,11.91-1.61s9.15-6.54,6.5-11.31-3.92.44-8.28,1.4S130.34,177.89,136.81,185.42Z" transform="translate(-20.99 -68.53)" style="fill:#624638"/><path d="M135.67,183.81C135,187,138.51,195.7,140,195.7c3.13,0,5.88-5,8.38-5.89s4.77-6.32,2.67-7.55S135.67,183.81,135.67,183.81Z" transform="translate(-20.99 -68.53)" style="fill:#624638"/><path d="M150.1,202.73c.13.75-3.64,4.14-9.7,1.45s-2.59-4.63-2.59-4.63l4.91,2.62,3.47.12Z" transform="translate(-20.99 -68.53)" style="fill:#3b5a7a"/><path d="M139.77,198.75s1.37,3.47,8.38,1.79a3.06,3.06,0,0,1,1.95,2.19c-1.81,2.47-11.41,1.58-12.54-2.87A2.53,2.53,0,0,1,139.77,198.75Z" transform="translate(-20.99 -68.53)" style="fill:#bfd8ef"/><path d="M149.19,191.18c-.77-.47-2.23-2.56-.76-3.32a1.69,1.69,0,0,1,2.16,1.23" transform="translate(-20.99 -68.53)" style="fill:#de976d"/><polygon points="214.99 116 214.99 44.69 173.36 20.65 173.36 91.97 214.99 116" style="fill:#8fcdef"/><polygon points="214.99 116 215.99 115.42 215.99 44.11 214.99 44.69 214.99 116" style="fill:#71b5d3"/><polygon points="215.99 44.11 174.36 20.07 173.36 20.65 214.99 44.69 215.99 44.11" style="fill:#c2ecff"/><polygon points="175.2 89.65 212.28 111.06 212.28 46.81 175.2 25.39 175.2 89.65" style="fill:#f8ffff"/><ellipse cx="214.74" cy="125.54" rx="9.85" ry="17.07" transform="translate(-55 56.46) rotate(-30.18)" style="fill:#f3f3f3"/><g style="clip-path:url(#clip-path)"><path d="M207.7,135.79l14.07,8.13v-4.34a7.57,7.57,0,0,0-3.43-5.93l-7.21-4.16c-1.9-1.1-3.43-.22-3.43,2Z" transform="translate(-20.99 -68.53)" style="fill:#ac6f8e"/><path d="M214.74,134.62h0c1.37.8,2.48.16,2.48-1.42v-2.87l-5-2.87v2.86A5.46,5.46,0,0,0,214.74,134.62Z" transform="translate(-20.99 -68.53)" style="fill:#f0cad4"/><path d="M214.76,114.61c1.17.68,5.92,4.12,5.92,12.13V135a13.68,13.68,0,0,0-6.19-5.05" transform="translate(-20.99 -68.53)" style="fill:#b9a197"/><path d="M214.76,114.61c-1.18-.68-5.92-2.72-5.92,5.29v8.28s1.95-1,6.19,2.1" transform="translate(-20.99 -68.53)" style="fill:#b9a197"/><path d="M212.3,129.46l1.12,1.4a3.4,3.4,0,0,0,2.63,1.51l1.12-.09c1.69-.15,2.72-1.62,2.72-3.86V124a11.41,11.41,0,0,0-5.15-8.92h0c-2.85-1.64-5.16-.32-5.16,3v4.45A11.81,11.81,0,0,0,212.3,129.46Z" transform="translate(-20.99 -68.53)" style="fill:#f0cad4"/><path d="M219.89,128.88h0c.44.25.79.05.79-.45v-2.07a1.71,1.71,0,0,0-.79-1.35h0c-.43-.25-.78-.05-.78.45v2.07A1.74,1.74,0,0,0,219.89,128.88Z" transform="translate(-20.99 -68.53)" style="fill:#f0cad4"/><path d="M209.58,122.92h0c.43.25.78,0,.78-.45V120.4a1.74,1.74,0,0,0-.78-1.35h0c-.44-.25-.79,0-.79.45v2.07A1.71,1.71,0,0,0,209.58,122.92Z" transform="translate(-20.99 -68.53)" style="fill:#f0cad4"/><path d="M211.16,116.52a24.67,24.67,0,0,0,9,10.79V124.1c0-1.12-.81-6.46-5.21-9s-5.77-.16-5.52,4.78C209.41,119.88,211.11,119.93,211.16,116.52Z" transform="translate(-20.99 -68.53)" style="fill:#b9a197"/></g><polygon points="178.96 78.66 208.52 95.73 208.52 93.9 178.96 76.84 178.96 78.66" style="fill:#c4c4c4"/><polygon points="185.94 69.91 201.55 78.92 201.55 77.79 185.94 68.78 185.94 69.91" style="fill:#c4c4c4"/><polygon points="178.96 81.37 208.52 98.43 208.52 96.61 178.96 79.54 178.96 81.37" style="fill:#c4c4c4"/><polygon points="178.96 84.08 208.52 101.14 208.52 99.32 178.96 82.25 178.96 84.08" style="fill:#c4c4c4"/><polygon points="178.96 86.78 208.52 103.85 208.52 102.02 178.96 84.96 178.96 86.78" style="fill:#c4c4c4"/><polygon points="178.96 89.49 208.52 106.55 208.52 104.73 178.96 87.66 178.96 89.49" style="fill:#c4c4c4"/><path d="M221.46,152.52a3.46,3.46,0,0,0,1.56,2.7c.86.49,1.56.09,1.56-.9a3.43,3.43,0,0,0-1.56-2.69C222.16,151.13,221.46,151.53,221.46,152.52Z" transform="translate(-20.99 -68.53)" style="fill:#e695ae"/><path d="M215.94,149.33a3.46,3.46,0,0,0,1.56,2.7c.86.49,1.56.09,1.56-.9a3.43,3.43,0,0,0-1.56-2.69C216.64,147.94,215.94,148.34,215.94,149.33Z" transform="translate(-20.99 -68.53)" style="fill:#98c0ef"/><path d="M210.41,146.14a3.46,3.46,0,0,0,1.56,2.7c.86.49,1.56.09,1.56-.9a3.43,3.43,0,0,0-1.56-2.69C211.11,144.75,210.41,145.15,210.41,146.14Z" transform="translate(-20.99 -68.53)" style="fill:#eaad59"/><path d="M204.89,143a3.46,3.46,0,0,0,1.56,2.7c.86.49,1.56.09,1.56-.9a3.43,3.43,0,0,0-1.56-2.69C205.59,141.56,204.89,142,204.89,143Z" transform="translate(-20.99 -68.53)" style="fill:#b687f2"/><polygon points="329.94 182.39 329.94 111.07 288.31 87.04 288.31 158.36 329.94 182.39" style="fill:#8fcdef"/><polygon points="329.94 182.39 330.94 181.81 330.94 110.5 329.94 111.07 329.94 182.39" style="fill:#71b5d3"/><polygon points="330.94 110.5 289.31 86.46 288.31 87.04 329.94 111.07 330.94 110.5" style="fill:#c2ecff"/><polygon points="290.15 156.04 327.23 177.45 327.23 113.19 290.15 91.78 290.15 156.04" style="fill:#f8ffff"/><ellipse cx="329.69" cy="191.93" rx="9.85" ry="17.07" transform="translate(-72.79 123.26) rotate(-30.19)" style="fill:#f3f3f3"/><g style="clip-path:url(#clip-path-2)"><path d="M322.65,202.18l14.08,8.12V206a7.56,7.56,0,0,0-3.44-5.93l-7.21-4.16c-1.9-1.1-3.43-.22-3.43,2Z" transform="translate(-20.99 -68.53)" style="fill:#ac6f8e"/><path d="M329.69,201h0c1.37.8,2.48.16,2.48-1.42v-2.87l-5-2.87v2.86A5.47,5.47,0,0,0,329.69,201Z" transform="translate(-20.99 -68.53)" style="fill:#f0cad4"/><path d="M329.71,181c1.18.68,5.92,4.12,5.92,12.13v8.28a13.68,13.68,0,0,0-6.19-5" transform="translate(-20.99 -68.53)" style="fill:#b9a197"/><path d="M329.71,181c-1.17-.68-5.92-2.72-5.92,5.29v8.28s1.95-1,6.19,2.1" transform="translate(-20.99 -68.53)" style="fill:#b9a197"/><path d="M327.25,195.85l1.12,1.4a3.41,3.41,0,0,0,2.63,1.51l1.12-.09c1.69-.15,2.72-1.62,2.72-3.86v-4.44a11.39,11.39,0,0,0-5.15-8.92h0c-2.85-1.64-5.16-.32-5.16,3v4.45A11.81,11.81,0,0,0,327.25,195.85Z" transform="translate(-20.99 -68.53)" style="fill:#f0cad4"/><path d="M334.84,195.27h0c.44.25.79,0,.79-.45v-2.07a1.71,1.71,0,0,0-.79-1.35h0c-.43-.26-.78-.05-.78.44v2.08A1.74,1.74,0,0,0,334.84,195.27Z" transform="translate(-20.99 -68.53)" style="fill:#f0cad4"/><path d="M324.53,189.31h0c.43.25.78.05.78-.45v-2.07a1.72,1.72,0,0,0-.78-1.35h0c-.44-.25-.79-.05-.79.45V188A1.71,1.71,0,0,0,324.53,189.31Z" transform="translate(-20.99 -68.53)" style="fill:#f0cad4"/><path d="M326.11,182.91a24.67,24.67,0,0,0,9,10.79v-3.21c0-1.12-.81-6.46-5.21-9s-5.77-.15-5.52,4.79C324.36,186.27,326.06,186.32,326.11,182.91Z" transform="translate(-20.99 -68.53)" style="fill:#b9a197"/></g><polygon points="293.91 145.05 323.47 162.12 323.47 160.29 293.91 143.23 293.91 145.05" style="fill:#c4c4c4"/><polygon points="300.89 136.3 316.5 145.31 316.5 144.18 300.89 135.17 300.89 136.3" style="fill:#c4c4c4"/><polygon points="293.91 147.76 323.47 164.82 323.47 163 293.91 145.93 293.91 147.76" style="fill:#c4c4c4"/><polygon points="293.91 150.46 323.47 167.53 323.47 165.71 293.91 148.64 293.91 150.46" style="fill:#c4c4c4"/><polygon points="293.91 153.17 323.47 170.24 323.47 168.41 293.91 151.35 293.91 153.17" style="fill:#c4c4c4"/><polygon points="293.91 155.88 323.47 172.94 323.47 171.12 293.91 154.05 293.91 155.88" style="fill:#c4c4c4"/><path d="M336.41,218.91a3.46,3.46,0,0,0,1.56,2.7c.87.49,1.56.09,1.56-.9A3.4,3.4,0,0,0,338,218C337.11,217.52,336.41,217.92,336.41,218.91Z" transform="translate(-20.99 -68.53)" style="fill:#e695ae"/><path d="M330.89,215.72a3.46,3.46,0,0,0,1.56,2.7c.86.49,1.56.09,1.56-.9a3.43,3.43,0,0,0-1.56-2.69C331.59,214.33,330.89,214.73,330.89,215.72Z" transform="translate(-20.99 -68.53)" style="fill:#98c0ef"/><path d="M325.36,212.53a3.46,3.46,0,0,0,1.56,2.7c.87.49,1.56.09,1.56-.9a3.4,3.4,0,0,0-1.56-2.69C326.06,211.14,325.36,211.54,325.36,212.53Z" transform="translate(-20.99 -68.53)" style="fill:#eaad59"/><path d="M319.84,209.34a3.46,3.46,0,0,0,1.56,2.7c.86.49,1.56.09,1.56-.9a3.43,3.43,0,0,0-1.56-2.69C320.54,208,319.84,208.35,319.84,209.34Z" transform="translate(-20.99 -68.53)" style="fill:#b687f2"/><polygon points="232.89 142.35 232.89 71.03 191.26 47 191.26 118.32 232.89 142.35" style="fill:#8fcdef"/><polygon points="232.89 142.35 233.89 141.77 233.89 70.46 232.89 71.03 232.89 142.35" style="fill:#71b5d3"/><polygon points="233.89 70.46 192.26 46.42 191.26 47 232.89 71.03 233.89 70.46" style="fill:#c2ecff"/><polygon points="192.78 115.74 229.87 137.15 229.87 72.89 192.78 51.48 192.78 115.74" style="fill:#f8ffff"/><ellipse cx="232.32" cy="151.63" rx="9.85" ry="17.07" transform="translate(-65.73 68.84) rotate(-30.18)" style="fill:#f3f3f3"/><g style="clip-path:url(#clip-path-3)"><path d="M225.28,161.87,239.36,170v-4.33a7.58,7.58,0,0,0-3.43-5.93l-7.22-4.16c-1.89-1.1-3.43-.22-3.43,2Z" transform="translate(-20.99 -68.53)" style="fill:#726e8b"/><path d="M232.32,160.71h0c1.38.8,2.49.16,2.49-1.42v-2.87l-5-2.87v2.86A5.5,5.5,0,0,0,232.32,160.71Z" transform="translate(-20.99 -68.53)" style="fill:#f0cad4"/><path d="M229.88,155.55,231,157a3.41,3.41,0,0,0,2.62,1.51l1.13-.1c1.68-.14,2.72-1.61,2.72-3.85v-4.45a11.39,11.39,0,0,0-5.16-8.91h0c-2.85-1.64-5.16-.32-5.16,3v4.44A11.88,11.88,0,0,0,229.88,155.55Z" transform="translate(-20.99 -68.53)" style="fill:#f0cad4"/><path d="M237.48,155h0c.43.25.78.05.78-.45v-2.07a1.74,1.74,0,0,0-.78-1.36h0c-.43-.25-.79,0-.79.45v2.07A1.75,1.75,0,0,0,237.48,155Z" transform="translate(-20.99 -68.53)" style="fill:#f0cad4"/><path d="M227.16,149h0c.43.25.79.05.79-.45v-2.07a1.73,1.73,0,0,0-.79-1.35h0c-.43-.25-.78,0-.78.45v2.07A1.72,1.72,0,0,0,227.16,149Z" transform="translate(-20.99 -68.53)" style="fill:#f0cad4"/><path d="M238,151.66s.46-3.62-.26-5a12.41,12.41,0,0,0-5.23-6c-3.93-2.27-4.78-1.17-5.59.2,0,0-.67,3,.22,4.6l.27,1.41s1.59-1.23,1.15-4.16c0,0,2.79,4.48,7.52,6a5.73,5.73,0,0,0,1.39,3.53Z" transform="translate(-20.99 -68.53)" style="fill:#8c7866"/></g><polygon points="196.55 104.75 226.1 121.81 226.1 119.99 196.55 102.92 196.55 104.75" style="fill:#c4c4c4"/><polygon points="203.52 96 219.13 105.01 219.13 103.88 203.52 94.87 203.52 96" style="fill:#c4c4c4"/><polygon points="196.55 107.46 226.1 124.52 226.1 122.7 196.55 105.63 196.55 107.46" style="fill:#c4c4c4"/><polygon points="196.55 110.16 226.1 127.23 226.1 125.4 196.55 108.34 196.55 110.16" style="fill:#c4c4c4"/><polygon points="196.55 112.87 226.1 129.94 226.1 128.11 196.55 111.05 196.55 112.87" style="fill:#c4c4c4"/><polygon points="196.55 115.58 226.1 132.64 226.1 130.82 196.55 113.75 196.55 115.58" style="fill:#c4c4c4"/><path d="M239.05,178.61a3.46,3.46,0,0,0,1.56,2.7c.86.49,1.56.09,1.56-.9a3.43,3.43,0,0,0-1.56-2.69C239.75,177.22,239.05,177.62,239.05,178.61Z" transform="translate(-20.99 -68.53)" style="fill:#e695ae"/><path d="M233.52,175.42a3.46,3.46,0,0,0,1.56,2.7c.86.49,1.56.09,1.56-.9a3.43,3.43,0,0,0-1.56-2.69C234.22,174,233.52,174.43,233.52,175.42Z" transform="translate(-20.99 -68.53)" style="fill:#98c0ef"/><path d="M228,172.23a3.46,3.46,0,0,0,1.56,2.7c.86.49,1.56.09,1.56-.9a3.43,3.43,0,0,0-1.56-2.69C228.7,170.84,228,171.24,228,172.23Z" transform="translate(-20.99 -68.53)" style="fill:#eaad59"/><path d="M222.47,169a3.43,3.43,0,0,0,1.56,2.69c.86.5,1.56.1,1.56-.89a3.46,3.46,0,0,0-1.56-2.7C223.17,167.65,222.47,168.05,222.47,169Z" transform="translate(-20.99 -68.53)" style="fill:#b687f2"/><polygon points="288.31 174.37 288.31 103.05 246.68 79.02 246.68 150.34 288.31 174.37" style="fill:#8fcdef"/><polygon points="288.31 174.37 289.31 173.79 289.31 102.47 288.31 103.05 288.31 174.37" style="fill:#71b5d3"/><polygon points="289.31 102.47 247.68 78.44 246.68 79.02 288.31 103.05 289.31 102.47" style="fill:#c2ecff"/><polygon points="248.2 147.75 285.29 169.17 285.29 104.91 248.2 83.5 248.2 147.75" style="fill:#f8ffff"/><ellipse cx="287.74" cy="183.65" rx="9.85" ry="17.07" transform="translate(-74.31 101.05) rotate(-30.18)" style="fill:#f3f3f3"/><g style="clip-path:url(#clip-path-4)"><path d="M280.7,193.89,294.78,202v-4.33a7.58,7.58,0,0,0-3.43-5.93l-7.22-4.17c-1.89-1.09-3.43-.21-3.43,2Z" transform="translate(-20.99 -68.53)" style="fill:#726e8b"/><path d="M287.74,192.73h0c1.38.79,2.49.16,2.49-1.43v-2.86l-5-2.87v2.86A5.5,5.5,0,0,0,287.74,192.73Z" transform="translate(-20.99 -68.53)" style="fill:#f0cad4"/><path d="M285.3,187.57l1.13,1.39a3.4,3.4,0,0,0,2.62,1.52l1.13-.1c1.68-.14,2.72-1.61,2.72-3.85v-4.45a11.36,11.36,0,0,0-5.16-8.91h0c-2.85-1.65-5.16-.32-5.16,3v4.45A11.88,11.88,0,0,0,285.3,187.57Z" transform="translate(-20.99 -68.53)" style="fill:#f0cad4"/><path d="M292.9,187h0c.43.25.78,0,.78-.45v-2.07a1.74,1.74,0,0,0-.78-1.36h0c-.43-.25-.79-.05-.79.45v2.07A1.75,1.75,0,0,0,292.9,187Z" transform="translate(-20.99 -68.53)" style="fill:#f0cad4"/><path d="M282.58,181h0c.43.25.79.05.79-.45v-2.07a1.77,1.77,0,0,0-.79-1.36h0c-.43-.25-.78,0-.78.45v2.08A1.74,1.74,0,0,0,282.58,181Z" transform="translate(-20.99 -68.53)" style="fill:#f0cad4"/><path d="M293.44,183.68s.46-3.63-.26-5.05a12.41,12.41,0,0,0-5.23-6c-3.93-2.27-4.78-1.17-5.59.2,0,0-.67,3,.22,4.6l.27,1.41s1.59-1.23,1.15-4.16c0,0,2.79,4.48,7.52,6a5.73,5.73,0,0,0,1.39,3.53Z" transform="translate(-20.99 -68.53)" style="fill:#8c7866"/></g><polygon points="251.97 136.77 281.52 153.83 281.52 152.01 251.97 134.94 251.97 136.77" style="fill:#c4c4c4"/><polygon points="258.94 128.01 274.55 137.03 274.55 135.9 258.94 126.88 258.94 128.01" style="fill:#c4c4c4"/><polygon points="251.97 139.47 281.52 156.54 281.52 154.72 251.97 137.65 251.97 139.47" style="fill:#c4c4c4"/><polygon points="251.97 142.18 281.52 159.25 281.52 157.42 251.97 140.36 251.97 142.18" style="fill:#c4c4c4"/><polygon points="251.97 144.89 281.52 161.95 281.52 160.13 251.97 143.06 251.97 144.89" style="fill:#c4c4c4"/><polygon points="251.97 147.59 281.52 164.66 281.52 162.84 251.97 145.77 251.97 147.59" style="fill:#c4c4c4"/><path d="M294.47,210.63a3.43,3.43,0,0,0,1.56,2.69c.86.5,1.56.1,1.56-.89a3.46,3.46,0,0,0-1.56-2.7C295.17,209.24,294.47,209.64,294.47,210.63Z" transform="translate(-20.99 -68.53)" style="fill:#e695ae"/><path d="M288.94,207.44a3.43,3.43,0,0,0,1.56,2.69c.86.5,1.56.1,1.56-.89a3.46,3.46,0,0,0-1.56-2.7C289.64,206.05,288.94,206.45,288.94,207.44Z" transform="translate(-20.99 -68.53)" style="fill:#98c0ef"/><path d="M283.42,204.25a3.43,3.43,0,0,0,1.56,2.69c.86.5,1.56.1,1.56-.89a3.46,3.46,0,0,0-1.56-2.7C284.12,202.86,283.42,203.26,283.42,204.25Z" transform="translate(-20.99 -68.53)" style="fill:#eaad59"/><path d="M277.89,201.06a3.43,3.43,0,0,0,1.56,2.69c.86.5,1.56.1,1.56-.89a3.46,3.46,0,0,0-1.56-2.7C278.59,199.67,277.89,200.07,277.89,201.06Z" transform="translate(-20.99 -68.53)" style="fill:#b687f2"/><polygon points="246.68 166.39 246.68 95.07 205.04 71.03 205.04 142.35 246.68 166.39" style="fill:#8fcdef"/><polygon points="246.68 166.39 247.67 165.81 247.67 94.49 246.68 95.07 246.68 166.39" style="fill:#71b5d3"/><polygon points="247.67 94.49 206.04 70.46 205.04 71.03 246.68 95.07 247.67 94.49" style="fill:#c2ecff"/><polygon points="206.56 139.77 243.65 161.18 243.65 96.93 206.56 75.52 206.56 139.77" style="fill:#f8ffff"/><ellipse cx="246.1" cy="175.66" rx="9.85" ry="17.07" transform="translate(-75.95 79.03) rotate(-30.19)" style="fill:#f3f3f3"/><g style="clip-path:url(#clip-path-5)"><path d="M239.06,185.91,253.14,194v-4.33a7.61,7.61,0,0,0-3.43-5.94l-7.21-4.16c-1.9-1.09-3.44-.21-3.44,2Z" transform="translate(-20.99 -68.53)" style="fill:#726e8b"/><path d="M246.1,184.75h0c1.38.79,2.49.15,2.49-1.43v-2.86l-5-2.88v2.87A5.52,5.52,0,0,0,246.1,184.75Z" transform="translate(-20.99 -68.53)" style="fill:#f0cad4"/><path d="M243.67,179.59l1.12,1.39a3.4,3.4,0,0,0,2.62,1.52l1.13-.1c1.68-.15,2.72-1.62,2.72-3.85V174.1a11.36,11.36,0,0,0-5.16-8.91h0c-2.85-1.65-5.16-.33-5.16,2.95v4.45A11.86,11.86,0,0,0,243.67,179.59Z" transform="translate(-20.99 -68.53)" style="fill:#f0cad4"/><path d="M251.26,179h0c.43.26.79.05.79-.44v-2.08a1.75,1.75,0,0,0-.79-1.35h0c-.43-.25-.78,0-.78.45v2.07A1.72,1.72,0,0,0,251.26,179Z" transform="translate(-20.99 -68.53)" style="fill:#f0cad4"/><path d="M240.94,173.05h0c.44.25.79,0,.79-.45v-2.07a1.72,1.72,0,0,0-.79-1.36h0c-.43-.25-.78,0-.78.45v2.07A1.74,1.74,0,0,0,240.94,173.05Z" transform="translate(-20.99 -68.53)" style="fill:#f0cad4"/><path d="M251.81,175.7s.45-3.63-.26-5a12.51,12.51,0,0,0-5.24-6c-3.92-2.26-4.78-1.16-5.59.2,0,0-.67,3,.22,4.61l.27,1.41s1.59-1.23,1.15-4.17c0,0,2.79,4.48,7.52,6a5.75,5.75,0,0,0,1.39,3.54Z" transform="translate(-20.99 -68.53)" style="fill:#8c7866"/></g><polygon points="210.33 128.78 239.88 145.85 239.88 144.03 210.33 126.96 210.33 128.78" style="fill:#c4c4c4"/><polygon points="217.3 120.03 232.91 129.04 232.91 127.92 217.3 118.9 217.3 120.03" style="fill:#c4c4c4"/><polygon points="210.33 131.49 239.88 148.56 239.88 146.73 210.33 129.67 210.33 131.49" style="fill:#c4c4c4"/><polygon points="210.33 134.2 239.88 151.26 239.88 149.44 210.33 132.37 210.33 134.2" style="fill:#c4c4c4"/><polygon points="210.33 136.91 239.88 153.97 239.88 152.15 210.33 135.08 210.33 136.91" style="fill:#c4c4c4"/><polygon points="210.33 139.61 239.88 156.68 239.88 154.85 210.33 137.79 210.33 139.61" style="fill:#c4c4c4"/><path d="M252.83,202.64a3.44,3.44,0,0,0,1.56,2.7c.86.5,1.56.1,1.56-.89a3.46,3.46,0,0,0-1.56-2.7C253.53,201.25,252.83,201.65,252.83,202.64Z" transform="translate(-20.99 -68.53)" style="fill:#e695ae"/><path d="M247.3,199.45a3.44,3.44,0,0,0,1.56,2.7c.87.5,1.56.1,1.56-.89a3.42,3.42,0,0,0-1.56-2.7C248,198.06,247.3,198.46,247.3,199.45Z" transform="translate(-20.99 -68.53)" style="fill:#98c0ef"/><path d="M241.78,196.26a3.44,3.44,0,0,0,1.56,2.7c.86.5,1.56.1,1.56-.89a3.44,3.44,0,0,0-1.56-2.7C242.48,194.87,241.78,195.27,241.78,196.26Z" transform="translate(-20.99 -68.53)" style="fill:#eaad59"/><path d="M236.25,193.07a3.44,3.44,0,0,0,1.56,2.7c.87.5,1.56.1,1.56-.89a3.42,3.42,0,0,0-1.56-2.7C237,191.68,236.25,192.08,236.25,193.07Z" transform="translate(-20.99 -68.53)" style="fill:#b687f2"/><path d="M244.83,190.32c-13.5-22.76-36.24-34.21-50.78-25.58L181.42,172l4.84,8.05a19,19,0,0,1,2.75-3.41c12.3-4,29.21,5.54,39.6,23.05s10.64,36.92,1.26,45.8a18.45,18.45,0,0,1-3.79.76l4.72,7.85,12.15-7C257.49,238.51,258.33,213.07,244.83,190.32Z" transform="translate(-20.99 -68.53)" style="fill:#8671c6"/><path d="M232.68,197.28c-13.5-22.76-36.24-34.21-50.78-25.58s-15.38,34.07-1.87,56.82,36.23,34.21,50.77,25.58S246.18,220,232.68,197.28Zm-2.81,48.21c-12.29,4-29.2-5.53-39.6-23.05s-10.64-36.91-1.26-45.8c12.3-4,29.21,5.54,39.6,23.05S239.25,236.61,229.87,245.49Z" transform="translate(-20.99 -68.53)" style="fill:#7163a8"/><path d="M190.27,222.44c-10.39-17.51-10.64-36.91-1.26-45.8,5.37-1.73,11.61-.9,17.8,2-7.6-3.62-15.26-4.09-21.29-.52-12.38,7.35-13.16,28.9-1.75,48.14s30.71,28.87,43.09,21.53a17.21,17.21,0,0,0,3-2.34C217.58,249.47,200.67,240,190.27,222.44Z" transform="translate(-20.99 -68.53)" style="fill:#5c5293"/><path d="M228.61,199.69c-10.39-17.51-27.3-27-39.6-23.05-9.38,8.89-9.13,28.29,1.26,45.8s27.31,27,39.6,23.05C239.25,236.61,239,217.21,228.61,199.69Z" transform="translate(-20.99 -68.53)" style="fill:#d4f2ff;opacity:0.6000000000000001"/><g style="opacity:0.8"><path d="M221,242c-10.17,0-21.71-7.84-29.2-20.46a52.54,52.54,0,0,1-3.75-7.65,2.69,2.69,0,0,1,5-1.95,46.7,46.7,0,0,0,3.35,6.86c7.51,12.65,19.77,20.06,28.51,17.23a2.68,2.68,0,1,1,1.65,5.11A17.92,17.92,0,0,1,221,242Z" transform="translate(-20.99 -68.53)" style="fill:#fff"/></g><g style="opacity:0.8"><path d="M187.71,202.58A2.68,2.68,0,0,1,185,200c-.32-7.75,1.89-14.28,6.24-18.4a2.68,2.68,0,1,1,3.69,3.9c-3.2,3-4.82,8.1-4.56,14.28a2.68,2.68,0,0,1-2.57,2.79Z" transform="translate(-20.99 -68.53)" style="fill:#fff"/></g><path d="M247.79,227.86c1.46-2.46,3.91-3.69,5.48-2.76l28,16.26-5.33,8.86L248,234C246.43,233.06,246.34,230.31,247.79,227.86Z" transform="translate(-20.99 -68.53)" style="fill:#8fcdef"/><path d="M281.39,247.46c-1.45,2.45-3.91,3.69-5.48,2.76s-1.65-3.68-.2-6.13,3.91-3.69,5.48-2.76S282.85,245,281.39,247.46Z" transform="translate(-20.99 -68.53)" style="fill:#7d7d7d"/><path d="M272.94,242.74c2.58-4.34,6.92-6.53,9.7-4.88l49.5,28.77-9.43,15.68L273.3,253.59C270.52,251.94,270.36,247.09,272.94,242.74Z" transform="translate(-20.99 -68.53)" style="fill:#8671c6"/><path d="M332.4,277.43c-2.58,4.34-6.92,6.53-9.69,4.88s-2.94-6.5-.36-10.85,6.92-6.53,9.69-4.88S335,273.08,332.4,277.43Z" transform="translate(-20.99 -68.53)" style="fill:#7d7d7d"/><path d="M330.85,276.5c-1.69,2.84-4.52,4.27-6.33,3.19s-1.92-4.24-.23-7.08,4.51-4.26,6.32-3.19S332.53,273.67,330.85,276.5Z" transform="translate(-20.99 -68.53)" style="fill:#999"/><path d="M241.44,367.58l83.65-48.29a5.39,5.39,0,0,1,5.41,0l53.85,31.09a4.27,4.27,0,0,1,0,7.41l-32.94,19a15.75,15.75,0,0,1-15.74,0h0l-45.09,26a4.32,4.32,0,0,1-4.29,0L241.44,377A5.41,5.41,0,0,1,241.44,367.58Z" transform="translate(-20.99 -68.53)" style="fill:#a6c6dd"/><path d="M241.44,360.5l83.65-48.3a5.44,5.44,0,0,1,5.41,0l53.85,31.1a4.27,4.27,0,0,1,0,7.41l-32.94,19a15.75,15.75,0,0,1-15.74,0h0l-45.09,26a4.27,4.27,0,0,1-4.29,0l-44.85-25.89A5.41,5.41,0,0,1,241.44,360.5Z" transform="translate(-20.99 -68.53)" style="fill:#cc8244"/><path d="M241.44,358.85l83.65-48.29a5.39,5.39,0,0,1,5.41,0l53.85,31.09a4.27,4.27,0,0,1,0,7.41l-32.94,19a15.75,15.75,0,0,1-15.74,0h0l-45.09,26a4.32,4.32,0,0,1-4.29,0l-44.85-25.9A5.41,5.41,0,0,1,241.44,358.85Z" transform="translate(-20.99 -68.53)" style="fill:#edb158"/><polygon points="235.8 307.58 219.82 298.36 235.8 289.13 251.78 298.36 235.8 307.58" style="fill:#fff"/><g style="clip-path:url(#clip-path-6)"><path d="M261,359.17l10,6-2.71,1.52a5.41,5.41,0,0,1-4.91-.08l-5.12-3.05c-1.35-.8-1.34-2.07,0-2.83Z" transform="translate(-20.99 -68.53)" style="fill:#726e8b"/><path d="M262.7,364h0a1.08,1.08,0,0,1,0,2l-1.79,1-3.54-2.11,1.79-1A4,4,0,0,1,262.7,364Z" transform="translate(-20.99 -68.53)" style="fill:#f0cad4"/><path d="M258.62,364.26l1.27.22a2.42,2.42,0,0,1,1.86,1.11l.33.73c.5,1.11-.05,2.27-1.45,3.05l-2.78,1.56a8.2,8.2,0,0,1-7.38-.11h0c-2-1.21-2-3.11.05-4.26L253.3,365A8.42,8.42,0,0,1,258.62,364.26Z" transform="translate(-20.99 -68.53)" style="fill:#f0cad4"/><path d="M260.91,369.21h0c.31.19.31.48,0,.65l-1.3.72a1.23,1.23,0,0,1-1.12,0h0c-.31-.19-.3-.48,0-.65l1.29-.72A1.23,1.23,0,0,1,260.91,369.21Z" transform="translate(-20.99 -68.53)" style="fill:#f0cad4"/><path d="M253.58,364.85h0c.31.18.31.47,0,.64l-1.3.73a1.26,1.26,0,0,1-1.12,0h0c-.31-.18-.31-.47,0-.65l1.29-.72A1.23,1.23,0,0,1,253.58,364.85Z" transform="translate(-20.99 -68.53)" style="fill:#f0cad4"/><path d="M259,370.71s-2.11,1.55-3.25,1.6a8.94,8.94,0,0,1-5.6-1.17c-2.78-1.66-2.4-2.57-1.82-3.56a5.9,5.9,0,0,1,2.95-1.47l1-.33a3.12,3.12,0,0,1-2.2,2.18,11.19,11.19,0,0,1,6.38,2.61,4.1,4.1,0,0,1,2.69-.37Z" transform="translate(-20.99 -68.53)" style="fill:#8c7866"/></g><path d="M241.44,349.69l83.65-48.3a5.39,5.39,0,0,1,5.41,0l53.85,31.09a4.27,4.27,0,0,1,0,7.41l-32.94,19a15.7,15.7,0,0,1-15.74,0h0l-45.09,26a4.32,4.32,0,0,1-4.29,0l-44.85-25.9A5.4,5.4,0,0,1,241.44,349.69Z" transform="translate(-20.99 -68.53)" style="fill:#cc8244"/><path d="M241.44,348l83.65-48.3a5.39,5.39,0,0,1,5.41,0l53.85,31.09a4.28,4.28,0,0,1,0,7.42l-32.94,19a15.7,15.7,0,0,1-15.74,0h0l-45.09,26a4.32,4.32,0,0,1-4.29,0l-44.85-25.9A5.4,5.4,0,0,1,241.44,348Z" transform="translate(-20.99 -68.53)" style="fill:#edb158"/><polygon points="235.8 296.76 219.82 287.54 235.8 278.31 251.78 287.54 235.8 296.76" style="fill:#fff"/><g style="clip-path:url(#clip-path-7)"><path d="M261,348.36l10,5.95-2.71,1.52a5.44,5.44,0,0,1-4.91-.07l-5.12-3.05c-1.35-.81-1.34-2.08,0-2.84Z" transform="translate(-20.99 -68.53)" style="fill:#726e8b"/><path d="M262.7,353.16h0a1.09,1.09,0,0,1,0,2.06l-1.79,1-3.54-2.11,1.79-1A4,4,0,0,1,262.7,353.16Z" transform="translate(-20.99 -68.53)" style="fill:#f0cad4"/><path d="M258.62,353.44l1.27.22a2.42,2.42,0,0,1,1.86,1.11l.33.74c.5,1.1-.05,2.26-1.45,3.05l-2.78,1.55a8.14,8.14,0,0,1-7.38-.11h0c-2-1.2-2-3.11.05-4.26l2.78-1.55A8.49,8.49,0,0,1,258.62,353.44Z" transform="translate(-20.99 -68.53)" style="fill:#f0cad4"/><path d="M260.91,358.4h0c.31.18.31.47,0,.64l-1.3.73a1.26,1.26,0,0,1-1.12,0h0c-.31-.18-.3-.47,0-.65l1.29-.72A1.2,1.2,0,0,1,260.91,358.4Z" transform="translate(-20.99 -68.53)" style="fill:#f0cad4"/><path d="M253.58,354h0a.34.34,0,0,1,0,.65l-1.3.72a1.23,1.23,0,0,1-1.12,0h0c-.31-.18-.31-.47,0-.64l1.29-.73A1.26,1.26,0,0,1,253.58,354Z" transform="translate(-20.99 -68.53)" style="fill:#f0cad4"/><path d="M259,359.89s-2.11,1.55-3.25,1.6a8.9,8.9,0,0,1-5.6-1.16c-2.78-1.66-2.4-2.58-1.82-3.56a5.89,5.89,0,0,1,2.95-1.48l1-.32a3.11,3.11,0,0,1-2.2,2.17,11.19,11.19,0,0,1,6.38,2.61,4.1,4.1,0,0,1,2.69-.37Z" transform="translate(-20.99 -68.53)" style="fill:#8c7866"/></g><path d="M241.44,338.87l83.65-48.3a5.39,5.39,0,0,1,5.41,0l53.85,31.09a4.28,4.28,0,0,1,0,7.42l-32.94,19a15.75,15.75,0,0,1-15.74,0h0l-45.09,26a4.32,4.32,0,0,1-4.29,0l-44.85-25.9A5.4,5.4,0,0,1,241.44,338.87Z" transform="translate(-20.99 -68.53)" style="fill:#cc8244"/><path d="M241.44,337.22l83.65-48.3a5.39,5.39,0,0,1,5.41,0L384.35,320a4.28,4.28,0,0,1,0,7.42l-32.94,19a15.75,15.75,0,0,1-15.74,0h0l-45.09,26a4.27,4.27,0,0,1-4.29,0l-44.85-25.9A5.4,5.4,0,0,1,241.44,337.22Z" transform="translate(-20.99 -68.53)" style="fill:#edb158"/><polygon points="235.8 285.95 219.82 276.72 235.8 267.5 251.78 276.72 235.8 285.95" style="fill:#fff"/><g style="clip-path:url(#clip-path-8)"><path d="M261,337.54l10,6L268.26,345a5.44,5.44,0,0,1-4.91-.07l-5.12-3.05c-1.35-.8-1.34-2.07,0-2.84Z" transform="translate(-20.99 -68.53)" style="fill:#726e8b"/><path d="M262.7,342.35h0a1.08,1.08,0,0,1,0,2l-1.79,1-3.54-2.11,1.79-1A3.92,3.92,0,0,1,262.7,342.35Z" transform="translate(-20.99 -68.53)" style="fill:#f0cad4"/><path d="M258.62,342.63l1.27.21a2.45,2.45,0,0,1,1.86,1.11l.33.74c.5,1.1-.05,2.27-1.45,3.05l-2.78,1.55a8.14,8.14,0,0,1-7.38-.11h0c-2-1.2-2-3.11.05-4.25l2.78-1.56A8.49,8.49,0,0,1,258.62,342.63Z" transform="translate(-20.99 -68.53)" style="fill:#f0cad4"/><path d="M260.91,347.58h0a.34.34,0,0,1,0,.65l-1.3.72a1.23,1.23,0,0,1-1.12,0h0c-.31-.18-.3-.47,0-.64l1.29-.73A1.23,1.23,0,0,1,260.91,347.58Z" transform="translate(-20.99 -68.53)" style="fill:#f0cad4"/><path d="M253.58,343.21h0a.34.34,0,0,1,0,.65l-1.3.72a1.23,1.23,0,0,1-1.12,0h0c-.31-.19-.31-.48,0-.65l1.29-.73A1.26,1.26,0,0,1,253.58,343.21Z" transform="translate(-20.99 -68.53)" style="fill:#f0cad4"/><path d="M259,349.07s-2.11,1.56-3.25,1.61a8.94,8.94,0,0,1-5.6-1.17c-2.78-1.66-2.4-2.58-1.82-3.56a5.82,5.82,0,0,1,2.95-1.47l1-.33a3.12,3.12,0,0,1-2.2,2.18,11.22,11.22,0,0,1,6.38,2.6,4.13,4.13,0,0,1,2.69-.36Z" transform="translate(-20.99 -68.53)" style="fill:#8c7866"/></g><path d="M145.41,157.6a3.86,3.86,0,0,0,3.86-3.7l.93-22.07a4.79,4.79,0,1,0-9.58,0l.93,22.07a3.86,3.86,0,0,0,3.86,3.7Z" transform="translate(-20.99 -68.53)" style="fill:#8671c6"/><path d="M149.12,163.47a3.71,3.71,0,1,1-3.71-3.71A3.71,3.71,0,0,1,149.12,163.47Z" transform="translate(-20.99 -68.53)" style="fill:#8671c6"/></svg>