<svg xmlns="http://www.w3.org/2000/svg" xmlns:xlink="http://www.w3.org/1999/xlink" viewBox="0 0 374.37 273.86"><defs><linearGradient id="linear-gradient" x1="297.42" y1="141.36" x2="351.94" y2="141.36" gradientUnits="userSpaceOnUse"><stop offset="0" stop-color="#ff9f55"/><stop offset="1" stop-color="#ffd255"/></linearGradient><linearGradient id="linear-gradient-2" x1="331.61" y1="176.59" x2="357.52" y2="176.59" xlink:href="#linear-gradient"/></defs><title>Asset 2</title><g id="Layer_2" data-name="Layer 2"><g id="Слой_1" data-name="Слой 1"><path d="M374.37,43.52V273.86H40.07c-20.29-20.3-41.38-54.81-8.49-93.93C84,117.57,146.76,166.93,183,85.29,218.8,4.73,298.26-.51,374.37,43.52Z" style="fill:#fff"/><path d="M252.09,6.32A106.38,106.38,0,0,0,211.5,30.55c-12.34,11.69-22.64,26.75-30.64,44.76-21.09,47.48-50.74,53.46-82.14,59.8-26.79,5.41-54.5,11-80.22,41.59C2.65,195.53-3,215.19,1.53,235.12c3,13.12,10.4,26.13,22,38.74H25C3.41,250.7-13.28,216.18,19.33,177.4c25.48-30.29,53-35.84,79.61-41.22,31.68-6.39,61.59-12.43,82.91-60.43,15.66-35.25,39.41-58.26,70.58-68.39,35.1-11.4,78-5.23,121.94,17.32V23.45C330.34,1,287.34-5.13,252.09,6.32Z" style="fill:#fff"/><path d="M347.44,135.47a23.52,23.52,0,0,0-2.49-6l2.54-3.82L344,122.09l-3.53-3.53-3.83,2.54a23.84,23.84,0,0,0-6-2.5l-.91-4.5h-10l-.9,4.5a23.76,23.76,0,0,0-6,2.5l-3.82-2.54-3.53,3.53-3.53,3.53,2.54,3.82a23.55,23.55,0,0,0-2.5,6l-4.5.9v10l4.5.9a23.55,23.55,0,0,0,2.5,6l-2.54,3.82,3.53,3.53,3.53,3.53,3.82-2.54a23.76,23.76,0,0,0,6,2.5l.9,4.5h10l.91-4.5a23.84,23.84,0,0,0,6-2.5l3.83,2.54,3.53-3.53,3.53-3.53L345,153.29a23.52,23.52,0,0,0,2.49-6l4.5-.9v-10Zm-22.76,23.38a17.49,17.49,0,1,1,17.49-17.49A17.49,17.49,0,0,1,324.68,158.85Z" style="fill:url(#linear-gradient)"/><path d="M355.38,173.79a11.13,11.13,0,0,0-1.18-2.87l1.2-1.81-1.67-1.68-1.68-1.68L350.23,167a11.29,11.29,0,0,0-2.86-1.19l-.43-2.14h-4.75l-.43,2.14A11.29,11.29,0,0,0,338.9,167l-1.82-1.21-1.67,1.68-1.68,1.68,1.21,1.81a10.81,10.81,0,0,0-1.19,2.87l-2.14.43V179l2.14.43a10.81,10.81,0,0,0,1.19,2.87l-1.21,1.81,1.68,1.68,1.67,1.68,1.82-1.21a11.29,11.29,0,0,0,2.86,1.19l.43,2.14h4.75l.43-2.14a11.29,11.29,0,0,0,2.86-1.19l1.82,1.21,1.68-1.68,1.67-1.68-1.2-1.81a11.13,11.13,0,0,0,1.18-2.87l2.14-.43v-4.74ZM344.57,184.9a8.31,8.31,0,1,1,8.31-8.31A8.32,8.32,0,0,1,344.57,184.9Z" style="fill:url(#linear-gradient-2)"/><path d="M284.49,48.61c-.13-27-26-48.77-57.87-48.61s-57.51,22.17-57.38,49.17a42.52,42.52,0,0,0,5.1,19.93s17.77,34.32,20.42,66.91c.08,15.24,14.7,27.53,32.67,27.44s32.48-12.52,32.4-27.76c2.33-32.63,19.76-67.11,19.76-67.11h0A42.51,42.51,0,0,0,284.49,48.61Z" style="fill:#ffca55"/><rect x="206.63" y="63.36" width="2.14" height="74.26" transform="translate(-10.98 26.89) rotate(-7.22)" style="fill:#fff"/><rect x="245.49" y="63.17" width="2.14" height="74.26" transform="translate(479.87 228.44) rotate(-173.36)" style="fill:#fff"/><polygon points="242.69 74.91 234.64 66.94 226.8 74.86 219.01 67.15 211.44 74.8 203 66.44 204.03 65.4 211.43 72.72 219 65.07 226.79 72.78 234.63 64.86 242.68 72.83 250.07 65.37 251.12 66.4 242.69 74.91" style="fill:#fff"/><path d="M245.91,180.77,209,181a7.42,7.42,0,0,1-7.45-7.38l-.07-14.52,51.72-.25.07,14.51A7.41,7.41,0,0,1,245.91,180.77Z" style="fill:#d46946"/><path d="M250.46,171.72l-46.08.23a11.13,11.13,0,0,1-11.19-11.08l-.12-24.17,68.35-.34.12,24.17A11.13,11.13,0,0,1,250.46,171.72Z" style="fill:#7784f2"/><path d="M269.36,71.78s-1-56.51-40.77-64.46c0,0,27.57-1,39.42,18.94S269.36,71.78,269.36,71.78Z" style="fill:#ffd578"/><path d="M155.26,88.1s5.35.9,4.44,9.27-5.63,7.64-5.94,7.63-4.75.1-5-10.14C148.78,94.86,148.71,87.29,155.26,88.1Z" style="fill:#eea987"/><path d="M157.61,102.71s-.21,3.47.12,4.22-4.28,3.1-7.15.39a29.55,29.55,0,0,0,.4-5.09C150.8,100.9,157.61,102.71,157.61,102.71Z" style="fill:#eea987"/><path d="M159.81,95s.6-.62.8,0-.75,3.38-.87,3.59c0,0-.11.24-.25.11A30.68,30.68,0,0,1,159.81,95Z" style="fill:#eea987"/><path d="M148.84,94.78s-.57-.65-.81,0,.63,3.45.73,3.62c0,0,.19.29.33.16A29.92,29.92,0,0,0,148.84,94.78Z" style="fill:#eea987"/><path d="M151.35,103.88a3.41,3.41,0,0,0,2.83,1.14,3.89,3.89,0,0,0,2.85-1.08,3,3,0,0,1-5.68-.06Z" style="fill:#c78d71"/><path d="M137.69,211.56a11.64,11.64,0,0,1-1.35,2.3c-.62.65-3,1.81-3,3.75s4,1.51,5.54,1.44,1.68-1.2,2.34-2.39,1.32-1,1.44-1.94a11.67,11.67,0,0,0-.5-3.11Z" style="fill:#1d2033"/><path d="M137.62,211l-.12,1a8.75,8.75,0,0,0,4.78.09l-.13-1.36Z" style="fill:#50558a"/><polygon points="236.14 215.38 235.57 215.36 238.4 144.36 189.49 144.36 186.66 215.38 186.09 215.36 188.94 143.79 238.99 143.79 236.14 215.38" style="fill:#1a598c"/><polygon points="240.72 215.38 237.89 144.36 188.97 144.36 191.8 215.36 191.24 215.38 188.39 143.79 238.43 143.79 241.28 215.36 240.72 215.38" style="fill:#1a598c"/><polygon points="191.52 192.28 241 192.28 238.16 120.99 188.68 120.99 191.52 192.28" style="fill:#bfb9b7"/><polygon points="234.46 192.28 184.98 192.28 187.82 120.99 237.3 120.99 234.46 192.28" style="fill:#f2ebe9"/><polygon points="200.84 170.8 200.3 170.61 204.99 157.45 215.16 154.76 218.81 140.32 226.66 136.86 228.42 125.63 228.98 125.72 227.18 137.26 219.3 140.74 215.63 155.23 205.43 157.93 200.84 170.8" style="fill:#3d8ed1"/><path d="M216.57,154a1.52,1.52,0,1,1-2.14-.21A1.52,1.52,0,0,1,216.57,154Z" style="fill:#f5eeec"/><path d="M216.54,156.4a1.81,1.81,0,1,1,.26-2.55A1.81,1.81,0,0,1,216.54,156.4ZM214.61,154a1.24,1.24,0,0,0-.18,1.74,1.24,1.24,0,1,0,1.92-1.57A1.23,1.23,0,0,0,214.61,154Z" style="fill:#3d8ed1"/><path d="M220.28,139.65a1.53,1.53,0,1,1-2.15-.21A1.53,1.53,0,0,1,220.28,139.65Z" style="fill:#f5eeec"/><path d="M220.24,142a1.81,1.81,0,1,1,.26-2.55A1.82,1.82,0,0,1,220.24,142Zm-1.93-2.36a1.24,1.24,0,0,0,1.57,1.92,1.24,1.24,0,1,0-1.57-1.92Z" style="fill:#3d8ed1"/><path d="M228,136.09a1.53,1.53,0,1,1-2.15-.22A1.54,1.54,0,0,1,228,136.09Z" style="fill:#f5eeec"/><path d="M206.45,156.86a1.53,1.53,0,1,1-2.15-.22A1.52,1.52,0,0,1,206.45,156.86Z" style="fill:#f5eeec"/><path d="M206.41,159.23a1.81,1.81,0,1,1,.26-2.55A1.82,1.82,0,0,1,206.41,159.23Zm-1.93-2.37a1.24,1.24,0,1,0,1.57,1.92,1.24,1.24,0,0,0-1.57-1.92Z" style="fill:#3d8ed1"/><rect x="193.94" y="136.43" width="15.28" height="3.17" rx="1.1" ry="1.1" style="fill:#ded7d5"/><path d="M195,130.89h13.09a1.09,1.09,0,0,1,1.09,1.09v1a1.09,1.09,0,0,1-1.09,1.09H195a1.1,1.1,0,0,1-1.1-1.1v-1A1.1,1.1,0,0,1,195,130.89Z" style="fill:#ded7d5"/><path d="M228,138.46a1.81,1.81,0,1,1,.26-2.55A1.81,1.81,0,0,1,228,138.46ZM226,136.1a1.24,1.24,0,0,0-.18,1.74,1.24,1.24,0,1,0,1.92-1.57A1.23,1.23,0,0,0,226,136.1Z" style="fill:#3d8ed1"/><polygon points="196.69 183.51 196.34 183.26 202.37 174.87 210.16 175.03 215.71 165.51 222 164.66 225.55 157.03 225.94 157.21 222.29 165.04 215.97 165.9 210.4 175.46 202.59 175.29 196.69 183.51" style="fill:#3d8ed1"/><path d="M211.31,174.8a1.13,1.13,0,1,1-1.48-.59A1.13,1.13,0,0,1,211.31,174.8Z" style="fill:#f5eeec"/><path d="M210.8,176.48a1.34,1.34,0,1,1,.71-1.76A1.34,1.34,0,0,1,210.8,176.48Zm-.89-2.08a.92.92,0,1,0,1.21.49A.93.93,0,0,0,209.91,174.4Z" style="fill:#3d8ed1"/><path d="M216.89,165.33a1.13,1.13,0,1,1-1.48-.59A1.13,1.13,0,0,1,216.89,165.33Z" style="fill:#f5eeec"/><path d="M216.38,167a1.34,1.34,0,1,1,.71-1.76A1.34,1.34,0,0,1,216.38,167Zm-.89-2.08a.92.92,0,0,0,.73,1.69.92.92,0,0,0,.48-1.2A.93.93,0,0,0,215.49,164.93Z" style="fill:#3d8ed1"/><path d="M223.12,164.38a1.13,1.13,0,1,1-1.49-.59A1.14,1.14,0,0,1,223.12,164.38Z" style="fill:#f5eeec"/><path d="M203.53,174.74a1.13,1.13,0,0,1-2.08.89,1.13,1.13,0,1,1,2.08-.89Z" style="fill:#f5eeec"/><path d="M203,176.42a1.34,1.34,0,1,1,.71-1.77A1.36,1.36,0,0,1,203,176.42Zm-.89-2.08a.92.92,0,1,0,1.21.48A.92.92,0,0,0,202.13,174.34Z" style="fill:#3d8ed1"/><path d="M222.61,166.06a1.34,1.34,0,0,1-1.76-.7,1.34,1.34,0,1,1,2.46-1.06A1.34,1.34,0,0,1,222.61,166.06Zm-.89-2.08a.92.92,0,1,0,1.2.49A.92.92,0,0,0,221.72,164Z" style="fill:#3d8ed1"/><path d="M186.31,123.69s1.61-.51,1.74-1.47a5.34,5.34,0,0,1,1.07-2.08c.29-.4.76-2,1.27-1.6s-.64,2.63-.79,3.15,2.06-.47,2.61-.33,2,3.88.39,4.39-3.63,0-3.9.13a9.36,9.36,0,0,1-1.14.42Z" style="fill:#eea886"/><path d="M191.81,121.39s5-1.22,5.38-1,.45.47,0,.61l-4.78,1.32s6.14-.46,6.5-.37c.21,0,.34.57.1.67s-6.3.89-6.3.89,5.73-.41,6-.25a.4.4,0,0,1-.18.72l-5.72.74s4.19,0,4.34.24.23.62-.85.6-3.64.19-3.64.19Z" style="fill:#eea886"/><path d="M162.66,118.32s1.29,2.28,3,4.85l.49.71h0c.22.33.45.65.69,1s.56.77.85,1.14c1.6,2.08,3.29,3.85,4.57,4.16,2.77.69,16.7-2.4,16.7-2.4l-1.08-5.48a44.33,44.33,0,0,1-8.14,1.94c-2,.16-4.5.82-4.79.63s-6-8.42-6.42-9.31a29.59,29.59,0,0,0-3.79-6,3.1,3.1,0,0,0-3.25-1C156.84,111.5,162.66,118.32,162.66,118.32Z" style="fill:#dbdff0"/><path d="M169,211.08a10.58,10.58,0,0,0,4.34,2.73c2.19.47,3.72,1.08,3.74,2.38s-6.3,2.15-8.8.84c-3.73-1.95-4.11-1.36-4.53-2.34s.5-3.59.47-3.9S169,211.08,169,211.08Z" style="fill:#202338"/><path d="M168.71,210a9.13,9.13,0,0,1,.24,1.09s-4.93.56-4.78-.29c.12-.69.29-1.43.29-1.43Z" style="fill:#2f6b8c"/><path d="M163.78,146.36s2.26,16.43,3.19,22c1.08,6.49,1.45,11.86,1.75,15.22.38,4.23.88,25.87,1.14,27.11s-6.59.59-6.59.59-3.59-28.21-4.72-32.71c-1.05-4.2-4.11-22.31-5.07-21.17s-5,21.82-5.76,25.12S143,212.34,143,212.34s-4.25.77-6.83-.53c0,0,2-23.2,2.45-29.4.18-2.36.6-28.32,4.59-38.77C145.36,138.11,163.78,146.36,163.78,146.36Z" style="fill:#292c47"/><path d="M157.14,107s6,1.23,6.7,1.86,2.13,7.23,2.21,9.06a69.71,69.71,0,0,1-1.49,12.29c-.77,2.84-.49,16.82,0,20.76,0,0-8.87,4-23.85.36,0,0,2.61-13,2.14-16.85-.61-5-1.81-17.23-1.81-17.23s0-7.48,1-8.38,8.82-1.87,8.82-1.87Z" style="fill:#dbdff0"/><path d="M145.44,108.47s3.75,1,1.69,7.91c-1.62,5.39-1.84,6.55-1.84,6.55l-8.65-2.16s2.22-11.39,6.36-12.37A5.44,5.44,0,0,1,145.44,108.47Z" style="fill:#dbdff0"/><path d="M165.68,123.17l.49.71h0c.22.33.45.65.69,1a39.76,39.76,0,0,0-.67-7.66A40.45,40.45,0,0,1,165.68,123.17Z" style="fill:#a3a9c4"/><rect x="160.1" y="118.22" width="3.68" height="5.61" style="fill:#dbdff0"/><path d="M157.58,106.07a11.67,11.67,0,0,1-6.8-.19l-.22,1.52s4.16,1.58,7.41.85Z" style="fill:#dbdff0"/><path d="M136.36,150.7a10.64,10.64,0,0,0,.58,2.3,17.82,17.82,0,0,1,1,2.43c.06.26.46,2.08.54,2.31s-.46.57-.8.08A16.49,16.49,0,0,1,137,156c-.14-.38-.59-1.59-.73-1.38a15.85,15.85,0,0,0-.18,2.23,13.72,13.72,0,0,0,.31,2.22c.11.53.74,2.75.46,2.86s-.52.07-.86-.53a.64.64,0,0,1-.9-.43s-.52.17-.81-.78a1.26,1.26,0,0,1-.49-.55,20.87,20.87,0,0,1-.84-4.45c0-1.18.34-2,.31-2.83a22.77,22.77,0,0,0-.41-2.63Z" style="fill:#eea886"/><path d="M137.38,152.75a23.42,23.42,0,0,1-5,.07s1.68-19.09,1.59-20.17,3.86-18.73,6-21.42l3.28,10.38c-.25-.08-3.57,10.58-3.62,11.67C139.56,134.76,137.38,152.75,137.38,152.75Z" style="fill:#dbdff0"/><path d="M160.19,93.46a17,17,0,0,0-.29-5.19c-.35-1.4-2.62-1-2.62-1h0c-3.45-1-5.53-.56-6.84,0-2,1.61-2.11,4.34-2,5.84l.12,1.07h0c.18,1.49.36,2.79.36,2.79l.62.72s-.16-2.49.22-2.63c.21-.08.26-.58.26-1s0-.73,0-.73c4-1.84,8.48-.53,8.58-.27s.15.63.24,1.06c.06.26.11.49.15.63a20.46,20.46,0,0,1,.08,2.6l.78-1s.09-.48.22-1.22h0c0-.23.09-.5.13-.78A7.4,7.4,0,0,0,160.19,93.46Z" style="fill:#434343"/><rect x="71.74" y="179.57" width="23.3" height="1.38" style="fill:#e2d2ca"/><rect x="74.86" y="184.56" width="2.04" height="62.91" transform="translate(151.77 432.02) rotate(180)" style="fill:#706865"/><rect x="91.4" y="179.18" width="16.2" height="1.98" style="fill:#ccbdb7"/><rect x="96.43" y="162.33" width="6.13" height="18.63" style="fill:#ccbdb7"/><rect x="63.38" y="180.98" width="89.75" height="3.58" style="fill:#b59074"/><path d="M46.16,159.33s-1,13.77,1.71,15.41c1.68,1,8.4,4.52,8.2,5.17s-3.79,5.81-3.79,5.81S39.37,177.22,39,174.54s.64-20.15,2.41-21c1.33-.61,2-.11,3.71,1.14C47.42,156.46,46.16,159.33,46.16,159.33Z" style="fill:#323657"/><path d="M69.67,163.26l1.14-.42s-1.42-3.33-2-3.25a14.38,14.38,0,0,0-1.6.33Z" style="fill:#ead8cf"/><path d="M69.93,163.83c-.14-.1-2.41-4.46-2.41-4.46l-4.86.66,2.62,5.16Z" style="fill:#da9b5b"/><path d="M62,238.88s-.4,2.78-.45,3.2-4.46-.25-4.46-.25l-.36-3.31S61.48,238.48,62,238.88Z" style="fill:#424773"/><path d="M61.63,241.73a11.92,11.92,0,0,0,2.75,2.41c1.35.73,3.48,1,4.28,1.78.57.54,2.1,2.89-3.52,2.85s-8.32.33-8.92-.57.87-6.66.87-6.66A11.86,11.86,0,0,0,61.63,241.73Z" style="fill:#292c47"/><path d="M90.31,238.9s-.4,2.79-.45,3.21-4.46-.25-4.46-.25L85,238.55S89.76,238.51,90.31,238.9Z" style="fill:#424773"/><path d="M89.91,241.75a11.69,11.69,0,0,0,2.75,2.41c1.35.73,6.33,1.34,7.13,2.09.57.55,1.53,2.75-6.37,2.54-5.62-.14-8.33.34-8.93-.57s.87-6.66.87-6.66S86.62,242.08,89.91,241.75Z" style="fill:#292c47"/><path d="M47.8,190.77s16,2.71,19.67,3.28S90.74,199.51,93.2,201c2,1.19-1,29.67-1.72,40.54H83.74l-.56-32.6c-9.29.23-15.92-2.17-22.68-1.15s-12.41,2.49-16.7-3.27C43.8,204.52,43.64,192,47.8,190.77Z" style="fill:#292c47"/><path d="M63.61,241.56l-7.54-.46-.73-32.16a46.08,46.08,0,0,1-8.61-.55l-6.09-14.15C46,195.3,63.08,199.62,65.36,201,67.32,202.19,64.31,230.7,63.61,241.56Z" style="fill:#292c47"/><path d="M55.18,130.62s5.89-1.63,8.13,2.94,1.23,13.22-1.74,14-7.23-.13-8.46-3-2.21-6.88-1.91-9.49S53.62,131.24,55.18,130.62Z" style="fill:#eea886"/><path d="M60,146.69s-.07,3.47.31,4.21-8.19.55-8.19.55a17.46,17.46,0,0,0,.59-7.72C52,140.21,60,146.69,60,146.69Z" style="fill:#eea886"/><path d="M52.29,142.42s.45.93,2.67.78,5.15-2.83,6.09-3.07,1-.78,1-.78l.5.89,1,.15s-.65-2.69.78-3.63-.65-8.56-7.88-6.72c0,0-5.53,1-5.6,4.1S51.21,140.78,52.29,142.42Z" style="fill:#3a3f47"/><path d="M60.8,150.81s0-1.42-.66-1.55-6.74-1-7.53-.67l-.33,1.87S53.79,151.39,60.8,150.81Z" style="fill:#e2d2ca"/><path d="M62.57,138.72c-.16-1.16-1.48-2.49-2.24-.68s.51,4.43,1.36,4.29S62.79,140.3,62.57,138.72Z" style="fill:#eea886"/><path d="M86.35,167.52h0S86.39,167.54,86.35,167.52Z" style="fill:#323657"/><path d="M53.47,131.45s-7.17-.34-1.25,10.86Z" style="fill:#3a3f47"/><polygon points="37.49 245.38 38.02 246.88 60.56 239.9 59.48 236.86 37.49 245.38" style="fill:#918783"/><rect x="58.78" y="214.32" width="2.56" height="24.51" style="fill:#918783"/><rect x="52.5" y="213.02" width="15.11" height="1.44" style="fill:#5e5854"/><polygon points="82.82 245.38 82.29 246.88 59.75 239.9 60.74 236.66 82.82 245.38" style="fill:#918783"/><polygon points="66.94 246.72 66.94 248.47 59.75 239.9 60.74 236.66 66.94 246.72" style="fill:#918783"/><path d="M84.93,247.47a2.11,2.11,0,1,1-2.11-2.11A2.1,2.1,0,0,1,84.93,247.47Z" style="fill:#bfb2ac"/><path d="M67.12,247.47A2.11,2.11,0,1,1,65,245.36,2.1,2.1,0,0,1,67.12,247.47Z" style="fill:#bfb2ac"/><path d="M39.6,247.47a2.11,2.11,0,1,1-2.11-2.11A2.11,2.11,0,0,1,39.6,247.47Z" style="fill:#bfb2ac"/><rect x="42.25" y="207.55" width="35.8" height="5.47" rx="2.7" ry="2.7" style="fill:#e2d2ca"/><rect x="139.6" y="184.56" width="2.04" height="62.91" style="fill:#706865"/><rect x="73.01" y="133.94" width="52.96" height="37.36" rx="2.69" ry="2.69" style="fill:#f2e2d9"/><rect x="75.09" y="135.96" width="48.82" height="29.49" style="fill:#f5f7ff"/><path d="M101.2,167.8a1.71,1.71,0,1,1-1.7-1.7A1.7,1.7,0,0,1,101.2,167.8Z" style="fill:#918681"/><path d="M110.46,181v-.67s-.93-4.13-7.55-4.13-6.47,4.8-6.47,4.8Z" style="fill:#e2d2ca"/><path d="M96.36,176.84a6.46,6.46,0,0,0,2-.43c.52-.31,3.67-2.43,4.41-2.09s5.66,1.84,5.49,2.56-.62.65-1,.53a25.73,25.73,0,0,0-4.24-.76s3.51,1.28,3.53,2.22-.74,1.16-1.07,1.52-.73,1.23-1.64,1.29-5.32-1.47-6.22-1.54a21.91,21.91,0,0,1-2.71-.09A25.57,25.57,0,0,1,96.36,176.84Z" style="fill:#eea886"/><path d="M70.2,152.77c-4.58-.8-9.4-2-9.4-2l-8.52-.35s-7.83,1.72-10.92,3.12c-.29.13-.29,7-1.09,8.78l2.55,5.39s1.48,10.68,1.79,15.43c.14,2.18-.4,21.08-.4,21.08s.77.38,6.59,1,20.36-.23,20.45-.92-2.81-25.6-2.94-26.89c-.2-2,.57-11.13.57-11.13,1.1,1.47,3.89,8.12,6.81,11.29,1.71,1.86,10.2,3,11.8,3.06,3.49.11,9.84.81,10,.47s.55-5.64.15-5.77-12.15-.8-15.17-2.4c-1.11-.59-4.41-7.8-4.41-7.8S72.73,153.9,70.2,152.77Z" style="fill:#323657"/><path d="M39.08,169.52H53.4a5.19,5.19,0,0,1,5.19,5.19v23.82a5.18,5.18,0,0,1-5.18,5.18H39.08a5.18,5.18,0,0,1-5.18-5.18V174.7A5.18,5.18,0,0,1,39.08,169.52Z" style="fill:#e2d2ca"/><path d="M54.21,211.65A11.31,11.31,0,0,1,45.43,208c-4.94-5.45-4-15-4-15.43a1.38,1.38,0,0,1,2.74.27c0,.11-.8,8.79,3.31,13.32a8.57,8.57,0,0,0,6.74,2.73,1.37,1.37,0,0,1,0,2.74Z" style="fill:#e2d2ca"/><rect x="78.55" y="138.31" width="14.3" height="1.56" rx="0.39" ry="0.39" style="fill:#dfe1e8"/><rect x="78.55" y="141.65" width="14.3" height="1.56" rx="0.39" ry="0.39" style="fill:#dfe1e8"/><rect x="78.55" y="145.48" width="14.3" height="17.62" rx="1.3" ry="1.3" style="fill:#dfe1e8"/><rect x="95.74" y="138.31" width="25.46" height="24.79" rx="2.06" ry="2.06" style="fill:#dfe1e8"/><path d="M330.52,174.85c0,39.41-1.12,47.12-11,56-3.88,3.46-11,10.65-31.57,14.22a152.61,152.61,0,0,1-22.43,2,75.3,75.3,0,0,1-10-.37,51,51,0,0,1-7.05-1.23c-22.61-5.67-24.3-25-14.41-41.33a93.41,93.41,0,0,1,8.75-12c4.84-5.71,10-10.79,14.73-15.52a105.48,105.48,0,0,0,11.1-12.47,31.14,31.14,0,0,0,3-5.07,87,87,0,0,1,8.66-14.84,63.48,63.48,0,0,1,5-6.23,46.17,46.17,0,0,1,16.12-3.76C314.43,133.81,330.54,140.22,330.52,174.85Z" style="fill:#4373cf"/><path d="M277.94,234.18a24.24,24.24,0,0,0,.75,3.81c.43,1.16,2.76,3.85,1.78,6.44-1.07,2.8-5.73.1-7.63-.76s-1.47-2.4-1.67-4.3-1.13-2-.79-3.29a16.12,16.12,0,0,1,2.42-3.9Z" style="fill:#213a70"/><path d="M273.7,230.8s-1.19,1.67-1.16,1.72,5.11,3.13,5.46,2.13a10.34,10.34,0,0,0,.4-2Z" style="fill:#eea886"/><path d="M256.49,236.05a18.88,18.88,0,0,0-2.94,3.44c-1.39,2.09-5.09,2.2-5.24,5s5,2.93,7.74,2,3.12-3.71,4.77-4.41,2.5-1.26,2.37-2.62a16.81,16.81,0,0,0-1-3.56,10.48,10.48,0,0,1-1.62.39A13.48,13.48,0,0,1,256.49,236.05Z" style="fill:#213a70"/><path d="M275.12,158.88s-1,6.2-1.88,10.29h0a24.37,24.37,0,0,1-.84,3.39,47.31,47.31,0,0,1-4.59,5.09c-4.2,4.32-9.75,9.76-9.75,9.76l-2.17-4.11s4.93-5.78,8.27-9.64c1.55-1.78,2.76-3.15,3-3.35.7-.63,1.51-6.78,2.65-11.86a20.53,20.53,0,0,1,3.42-7.88Z" style="fill:#ffca55"/><path d="M267.81,177.65c-4.2,4.32-9.75,9.76-9.75,9.76l-2.17-4.11s4.93-5.78,8.27-9.64A7,7,0,0,1,267.81,177.65Z" style="fill:#eea886"/><path d="M256.73,234.15l-.24,1.9a9.33,9.33,0,0,0,5.66-.09l.06-1.68Z" style="fill:#eea886"/><path d="M295,186.58c.16.55-28.55,0-28.55,0s7.94-5.78,8.45-7.33-2-10.81-2.35-13.82c-.27-2.41-.93-13.21.66-14.86s7.65-3.52,7.65-3.52l8.72.32a13.58,13.58,0,0,1,2.47.78c1,.48,6.92,2.57,7.88,5.51s-5.88,12.4-5.88,12.4,0,.43,0,1.12h0c0,.93-.07,2.34-.1,3.88-.05,2-.09,4.16-.09,5.76A56.47,56.47,0,0,0,295,186.58Z" style="fill:#ffca55"/><path d="M295,186.58s3.9,5.73,4,9.65-6.93,17-8,18.9c-3.17,5.64-11.89,17.81-11.89,17.81s-1.5,0-6.19-1.86c0,0,5.8-16.07,6.53-17.74,3.12-7.07,4.86-12.09,3.81-13.3s-3.9-2.44-4.73-3.15-15.24,2.72-16.75,3.11c-3.91,1-2.13,7.82-1.26,10.87,1.45,5.1,2.71,23.53,2.71,23.53s-2.78,1.19-7.45.18c0,0-9.16-33.27-9.45-36.58s-.44-8.76,22.13-12.91Z" style="fill:#e8e8e8"/><path d="M283.25,128.09s-7.57-1.71-5.84,7.82,3.55,10.28,8.12,8.31,4.16-8.08,4.39-11.08S285.67,128.19,283.25,128.09Z" style="fill:#eea886"/><path d="M281.25,149.49s3.35,3.56,8.65.33c0,0-1.18-7.71-.56-11.47s-6.91,5.82-6.91,5.82.16.41.18.92a10.67,10.67,0,0,1-.08,1.53C282.37,147.87,282,149.18,281.25,149.49Z" style="fill:#eea886"/><path d="M289.55,138s-.19-3-1.29-3.1-1.27,1.11-1.27,1.11l-1.1.21s.35-2.63-.75-3.09-7.1,1.45-8,.68-.46-6.11,1.13-6.84,6-2.37,9.2-.2c0,0,2.51-.28,2.88,1.74S290.23,136.53,289.55,138Z" style="fill:#3a3f47"/><path d="M282.53,146.62c5.47-1.69,5.88-5,5.88-5-1.8,3.09-5.8,3.5-5.8,3.5A10.67,10.67,0,0,1,282.53,146.62Z" style="fill:#a77860"/><path d="M292.14,148.19s-4,8-10.47,7.46-1.11-8.53-.81-8.6S287.49,145.39,292.14,148.19Z" style="fill:#eea886"/><path d="M263.16,186.17s19.83,2.45,31.84.41l-22.95-2.87S271.91,184.29,263.16,186.17Z" style="fill:#ffca55"/><path d="M278,182.81l-1.48.74s.34,2.35,1.15,3.06l1.66-.42S279,183.61,278,182.81Z" style="fill:#eea886"/><path d="M300.93,178c-.29.34-4.19,1.91-8.59,3.61h0c-6,2.32-12.81,4.51-12.81,4.51L278,182.81s7.11-3.87,11.91-6.57c2.27-1.28,4-2.3,4.27-2.54.77-.73,1-1.91.4-4s-1.87-11.51-2-12.61.37-4.05,3.12-4.19a8.29,8.29,0,0,1,4.17.63s.69.29,1.2,7S301.63,177.19,300.93,178Z" style="fill:#ffca55"/><path d="M294,167.18h0c0,.93-.07,2.34-.1,3.88a19.35,19.35,0,0,1-1.11-12C292.52,160.89,294,167.1,294,167.18Z" style="fill:#c9a043"/><path d="M273.24,169.17h0a24.37,24.37,0,0,1-.84,3.39,34.9,34.9,0,0,1-.09-10.14A58.19,58.19,0,0,0,273.24,169.17Z" style="fill:#c9a043"/><path d="M292.34,181.61h0c-6,2.32-13,4.58-13,4.58L278,182.81s7.11-3.87,11.91-6.57C289.9,176.24,291.64,177.09,292.34,181.61Z" style="fill:#eea886"/><polygon points="277.56 186.38 249.38 185.97 263.61 193.19 277.56 186.38" style="fill:#444c94"/><polygon points="263.61 193.19 277.56 187.79 277.56 186.38 262.51 191.81 263.61 193.19" style="fill:#303669"/><path d="M276.83,183.6s-1.76-.27-3-.55c-.95-.22-3.29.08-3.88.68s-2.5,4.82-2.85,5.08.18.85.81.55c0,0,.58,1.84,2,1.15s2.39-2.19,3.14-2.46,5.1-1.6,5.1-1.6S278,183.16,276.83,183.6Z" style="fill:#eea886"/><path d="M270.41,183.46a13.29,13.29,0,0,0-1.43.79c-.29.24-1.49,1.14-1.78,1.35s.44.81,2.58-.12S270.41,183.46,270.41,183.46Z" style="fill:#eea886"/><polygon points="263.61 193.19 255.23 170.31 228.21 170.75 236.2 191.84 263.61 193.19" style="fill:#303669"/><path d="M246.58,180.43c.83,1.65.58,3.45-.55,4s-2.72-.31-3.55-2-.57-3.44.56-4S245.76,178.78,246.58,180.43Z" style="fill:#518afa"/><path d="M287,134.78a1,1,0,0,1,1.89.11c.14,1.26-.75,3.48-1.38,3.26S286.88,135.94,287,134.78Z" style="fill:#eea886"/></g></g></svg>