<svg id="Слой_1" data-name="Слой 1" xmlns="http://www.w3.org/2000/svg" xmlns:xlink="http://www.w3.org/1999/xlink" viewBox="0 0 374.37 273.86"><defs><linearGradient id="linear-gradient" x1="307.42" y1="200.22" x2="361.94" y2="200.22" gradientUnits="userSpaceOnUse"><stop offset="0" stop-color="#ff9f55"/><stop offset="1" stop-color="#ffd255"/></linearGradient><linearGradient id="linear-gradient-2" x1="341.61" y1="235.45" x2="367.52" y2="235.45" xlink:href="#linear-gradient"/></defs><title>strate</title><path d="M384.36,102.38V332.71H50.06c-20.29-20.29-41.38-54.8-8.48-93.92C94,176.43,156.75,225.79,193,144.15,228.8,63.59,308.26,58.35,384.36,102.38Z" transform="translate(-10 -58.86)" style="fill:#828282"/><path d="M262.09,65.18a106.3,106.3,0,0,0-40.6,24.23c-12.33,11.69-22.64,26.75-30.64,44.76-21.09,47.48-50.74,53.46-82.13,59.8-26.79,5.41-54.51,11-80.23,41.59C12.65,254.39,7,274.05,11.53,294c3,13.12,10.4,26.13,21.95,38.73H35C13.41,309.56-3.28,275,29.33,236.26,54.8,206,82.33,200.42,108.94,195c31.67-6.39,61.59-12.43,82.91-60.43,15.66-35.25,39.4-58.26,70.58-68.39,35.1-11.4,78-5.23,121.93,17.32V82.31C340.33,59.84,297.33,53.73,262.09,65.18Z" transform="translate(-10 -58.86)" style="fill:#c1c1c1"/><path d="M357.44,194.33a23.06,23.06,0,0,0-2.5-6l2.55-3.82L354,181l-3.53-3.53L346.6,180a23.84,23.84,0,0,0-6-2.5l-.91-4.5h-10l-.91,4.5a23.84,23.84,0,0,0-6,2.5l-3.83-2.54L315.4,181l-3.53,3.53,2.55,3.82a23.06,23.06,0,0,0-2.5,6l-4.5.9v10l4.5.91a23.2,23.2,0,0,0,2.5,6L311.87,216l3.53,3.53,3.53,3.53,3.83-2.54a23.46,23.46,0,0,0,6,2.49l.91,4.5h10l.91-4.5a23.46,23.46,0,0,0,6-2.49l3.83,2.54L354,219.5l3.53-3.53-2.55-3.82a23.2,23.2,0,0,0,2.5-6l4.5-.91v-10Zm-22.76,23.38a17.49,17.49,0,1,1,17.49-17.49A17.49,17.49,0,0,1,334.68,217.71Z" transform="translate(-10 -58.86)" style="fill:url(#linear-gradient)"/><path d="M365.38,232.65a11.15,11.15,0,0,0-1.19-2.87L365.4,228l-1.68-1.67-1.67-1.68-1.82,1.21a11.15,11.15,0,0,0-2.87-1.19l-.43-2.14h-4.74l-.43,2.14a10.94,10.94,0,0,0-2.86,1.19l-1.82-1.21-1.68,1.68L343.72,228l1.21,1.82a11.13,11.13,0,0,0-1.18,2.87l-2.14.43v4.74l2.14.43a10.92,10.92,0,0,0,1.18,2.86l-1.21,1.82,1.68,1.68,1.68,1.68,1.82-1.21a11.29,11.29,0,0,0,2.86,1.19l.43,2.13h4.74l.43-2.13a11.51,11.51,0,0,0,2.87-1.19l1.82,1.21,1.67-1.68,1.68-1.68-1.21-1.82a10.94,10.94,0,0,0,1.19-2.86l2.14-.43v-4.74Zm-10.82,11.11a8.31,8.31,0,1,1,8.31-8.31A8.31,8.31,0,0,1,354.56,243.76Z" transform="translate(-10 -58.86)" style="fill:url(#linear-gradient-2)"/><path d="M294.49,107.46c-.13-27-26-48.76-57.87-48.6S179.1,81,179.23,108A42.53,42.53,0,0,0,184.34,128s17.77,34.32,20.42,66.91c.07,15.24,14.7,27.53,32.67,27.44s32.47-12.52,32.4-27.76c2.33-32.63,19.75-67.11,19.75-67.11h0A42.43,42.43,0,0,0,294.49,107.46Z" transform="translate(-10 -58.86)" style="fill:#ffca55"/><rect x="216.62" y="122.22" width="2.14" height="74.26" transform="translate(-28.29 -30.25) rotate(-7.22)" style="fill:#fff"/><rect x="255.49" y="122.03" width="2.14" height="74.26" transform="translate(482.99 288.06) rotate(-173.36)" style="fill:#fff"/><polygon points="242.69 74.91 234.64 66.94 226.8 74.86 219.01 67.15 211.44 74.8 203 66.44 204.03 65.4 211.43 72.72 219 65.07 226.79 72.78 234.63 64.86 242.68 72.83 250.07 65.37 251.12 66.4 242.69 74.91" style="fill:#fff"/><path d="M255.91,239.63l-36.89.19a7.42,7.42,0,0,1-7.45-7.38l-.07-14.52,51.71-.25.07,14.51A7.41,7.41,0,0,1,255.91,239.63Z" transform="translate(-10 -58.86)" style="fill:#d46946"/><path d="M260.46,230.58l-46.08.23a11.13,11.13,0,0,1-11.19-11.08l-.12-24.17,68.35-.34.12,24.17A11.13,11.13,0,0,1,260.46,230.58Z" transform="translate(-10 -58.86)" style="fill:#7784f2"/><path d="M279.35,130.64s-1-56.51-40.77-64.47c0,0,27.58-1,39.42,19S279.35,130.64,279.35,130.64Z" transform="translate(-10 -58.86)" style="fill:#ffd578"/><path d="M165.26,147s5.35.91,4.44,9.28-5.63,7.64-5.95,7.62-4.74.11-5-10.13C158.77,153.72,158.7,146.15,165.26,147Z" transform="translate(-10 -58.86)" style="fill:#eea987"/><path d="M167.6,161.57a19.6,19.6,0,0,0,.12,4.22c.33.75-4.27,3.1-7.14.39a29.7,29.7,0,0,0,.4-5.1C160.8,159.75,167.6,161.57,167.6,161.57Z" transform="translate(-10 -58.86)" style="fill:#eea987"/><path d="M169.81,153.86s.59-.62.8,0-.75,3.38-.88,3.59c0,0-.11.24-.25.11A32.78,32.78,0,0,1,169.81,153.86Z" transform="translate(-10 -58.86)" style="fill:#eea987"/><path d="M158.83,153.64s-.56-.65-.8,0,.62,3.45.73,3.62c0,0,.18.29.33.16A31.87,31.87,0,0,0,158.83,153.64Z" transform="translate(-10 -58.86)" style="fill:#eea987"/><path d="M161.34,162.73a3.43,3.43,0,0,0,2.84,1.15A3.91,3.91,0,0,0,167,162.8a3.47,3.47,0,0,1-2.86,1.94A3.52,3.52,0,0,1,161.34,162.73Z" transform="translate(-10 -58.86)" style="fill:#c78d71"/><path d="M147.68,270.42a10.89,10.89,0,0,1-1.35,2.29c-.61.66-3,1.82-3,3.76s4,1.51,5.54,1.43,1.69-1.19,2.34-2.38,1.32-1,1.45-1.95a11.54,11.54,0,0,0-.51-3.1Z" transform="translate(-10 -58.86)" style="fill:#1d2033"/><path d="M147.61,269.81l-.11,1a8.69,8.69,0,0,0,4.78.08l-.13-1.36Z" transform="translate(-10 -58.86)" style="fill:#50558a"/><polygon points="236.14 215.38 235.57 215.36 238.4 144.36 189.49 144.36 186.66 215.38 186.09 215.36 188.94 143.79 238.99 143.79 236.14 215.38" style="fill:#1a598c"/><polygon points="240.72 215.38 237.89 144.36 188.97 144.36 191.8 215.36 191.24 215.38 188.39 143.79 238.43 143.79 241.28 215.36 240.72 215.38" style="fill:#1a598c"/><polygon points="191.52 192.28 241 192.28 238.16 120.99 188.68 120.99 191.52 192.28" style="fill:#bfb9b7"/><polygon points="234.46 192.28 184.98 192.28 187.82 120.99 237.3 120.99 234.46 192.28" style="fill:#f2ebe9"/><polygon points="200.84 170.8 200.3 170.61 204.99 157.45 215.16 154.76 218.81 140.32 226.66 136.86 228.42 125.63 228.98 125.72 227.18 137.26 219.3 140.74 215.63 155.23 205.43 157.93 200.84 170.8" style="fill:#3d8ed1"/><path d="M226.57,212.89a1.52,1.52,0,1,1-2.15-.22A1.53,1.53,0,0,1,226.57,212.89Z" transform="translate(-10 -58.86)" style="fill:#f5eeec"/><path d="M226.54,215.26a1.82,1.82,0,1,1,.25-2.55A1.81,1.81,0,0,1,226.54,215.26Zm-1.93-2.36a1.24,1.24,0,0,0,1.56,1.92,1.25,1.25,0,0,0,.18-1.75A1.23,1.23,0,0,0,224.61,212.9Z" transform="translate(-10 -58.86)" style="fill:#3d8ed1"/><path d="M230.27,198.51a1.52,1.52,0,1,1-2.14-.22A1.52,1.52,0,0,1,230.27,198.51Z" transform="translate(-10 -58.86)" style="fill:#f5eeec"/><path d="M230.24,200.88a1.81,1.81,0,1,1,.26-2.55A1.81,1.81,0,0,1,230.24,200.88Zm-1.93-2.36a1.24,1.24,0,0,0-.18,1.74,1.24,1.24,0,1,0,1.92-1.57A1.23,1.23,0,0,0,228.31,198.52Z" transform="translate(-10 -58.86)" style="fill:#3d8ed1"/><path d="M238,195a1.52,1.52,0,1,1-2.15-.22A1.53,1.53,0,0,1,238,195Z" transform="translate(-10 -58.86)" style="fill:#f5eeec"/><path d="M216.44,215.72a1.52,1.52,0,1,1-2.15-.22A1.52,1.52,0,0,1,216.44,215.72Z" transform="translate(-10 -58.86)" style="fill:#f5eeec"/><path d="M216.41,218.08a1.81,1.81,0,1,1,.25-2.55A1.81,1.81,0,0,1,216.41,218.08Zm-1.93-2.36a1.24,1.24,0,1,0,1.74.18A1.25,1.25,0,0,0,214.48,215.72Z" transform="translate(-10 -58.86)" style="fill:#3d8ed1"/><rect x="193.94" y="136.43" width="15.28" height="3.17" rx="1.1" ry="1.1" style="fill:#ded7d5"/><path d="M195,130.89h13.09a1.1,1.1,0,0,1,1.1,1.1v1a1.09,1.09,0,0,1-1.09,1.09H195a1.1,1.1,0,0,1-1.1-1.1v-1A1.09,1.09,0,0,1,195,130.89Z" style="fill:#ded7d5"/><path d="M238,197.32a1.82,1.82,0,1,1,.25-2.55A1.82,1.82,0,0,1,238,197.32ZM236,195a1.24,1.24,0,1,0,1.74.18A1.24,1.24,0,0,0,236,195Z" transform="translate(-10 -58.86)" style="fill:#3d8ed1"/><polygon points="196.69 183.51 196.34 183.26 202.37 174.87 210.16 175.03 215.71 165.51 222 164.66 225.55 157.03 225.94 157.21 222.29 165.04 215.97 165.9 210.4 175.46 202.59 175.29 196.69 183.51" style="fill:#3d8ed1"/><path d="M221.31,233.66a1.13,1.13,0,1,1-1.48-.59A1.13,1.13,0,0,1,221.31,233.66Z" transform="translate(-10 -58.86)" style="fill:#f5eeec"/><path d="M220.8,235.34a1.34,1.34,0,0,1-1.76-.7,1.34,1.34,0,1,1,2.46-1.06A1.33,1.33,0,0,1,220.8,235.34Zm-.89-2.08a.92.92,0,0,0,.72,1.69.92.92,0,1,0-.72-1.69Z" transform="translate(-10 -58.86)" style="fill:#3d8ed1"/><path d="M226.89,224.19a1.13,1.13,0,1,1-2.08.89,1.13,1.13,0,0,1,2.08-.89Z" transform="translate(-10 -58.86)" style="fill:#f5eeec"/><path d="M226.38,225.87a1.34,1.34,0,0,1-1.76-.7,1.34,1.34,0,1,1,2.46-1.06A1.34,1.34,0,0,1,226.38,225.87Zm-.89-2.08a.92.92,0,1,0,1.2.49A.92.92,0,0,0,225.49,223.79Z" transform="translate(-10 -58.86)" style="fill:#3d8ed1"/><path d="M233.11,223.24a1.13,1.13,0,1,1-1.48-.59A1.12,1.12,0,0,1,233.11,223.24Z" transform="translate(-10 -58.86)" style="fill:#f5eeec"/><path d="M213.53,233.6a1.13,1.13,0,0,1-2.08.89,1.13,1.13,0,1,1,2.08-.89Z" transform="translate(-10 -58.86)" style="fill:#f5eeec"/><path d="M213,235.27a1.34,1.34,0,1,1,.7-1.76A1.33,1.33,0,0,1,213,235.27Zm-.89-2.07a.92.92,0,1,0,1.2.48A.91.91,0,0,0,212.13,233.2Z" transform="translate(-10 -58.86)" style="fill:#3d8ed1"/><path d="M232.6,224.92a1.34,1.34,0,1,1,.71-1.76A1.34,1.34,0,0,1,232.6,224.92Zm-.89-2.08a.92.92,0,1,0,1.21.48A.93.93,0,0,0,231.71,222.84Z" transform="translate(-10 -58.86)" style="fill:#3d8ed1"/><path d="M196.3,182.55s1.62-.51,1.75-1.47a5.48,5.48,0,0,1,1.06-2.08c.3-.4.76-2,1.27-1.6s-.64,2.63-.78,3.15,2.06-.47,2.6-.33,2,3.88.39,4.38-3.63,0-3.89.14a8.91,8.91,0,0,1-1.14.41Z" transform="translate(-10 -58.86)" style="fill:#eea886"/><path d="M201.8,180.25s5-1.23,5.38-1,.45.47,0,.6-4.77,1.32-4.77,1.32,6.13-.45,6.49-.36.35.57.11.67-6.3.89-6.3.89,5.73-.41,6-.25a.4.4,0,0,1-.18.72l-5.72.74s4.19,0,4.35.24.23.62-.86.6-3.63.19-3.63.19Z" transform="translate(-10 -58.86)" style="fill:#eea886"/><path d="M172.65,177.18s1.3,2.28,3,4.85l.48.71h0c.22.33.45.65.68,1s.57.77.86,1.14c1.6,2.08,3.29,3.85,4.57,4.16,2.77.68,16.7-2.4,16.7-2.4l-1.08-5.48a44.29,44.29,0,0,1-8.15,1.94c-2,.16-4.49.82-4.79.63s-6-8.42-6.41-9.31a29.71,29.71,0,0,0-3.8-6,3.08,3.08,0,0,0-3.24-1C166.84,170.36,172.65,177.18,172.65,177.18Z" transform="translate(-10 -58.86)" style="fill:#dbdff0"/><path d="M179,269.93a10.48,10.48,0,0,0,4.34,2.74c2.19.47,3.71,1.08,3.73,2.38s-6.29,2.15-8.79.84c-3.74-1.95-4.12-1.36-4.53-2.34s.5-3.59.47-3.9S179,269.93,179,269.93Z" transform="translate(-10 -58.86)" style="fill:#202338"/><path d="M178.71,268.85a9.41,9.41,0,0,1,.24,1.08s-4.93.57-4.78-.28c.12-.69.29-1.44.29-1.44Z" transform="translate(-10 -58.86)" style="fill:#2f6b8c"/><path d="M173.78,205.22s2.26,16.43,3.18,22c1.09,6.5,1.45,11.87,1.75,15.23.38,4.23.88,25.87,1.15,27.1s-6.59.6-6.59.6-3.59-28.21-4.72-32.72c-1.05-4.19-4.11-22.3-5.07-21.16s-5.06,21.81-5.77,25.12S153,271.2,153,271.2s-4.25.77-6.83-.53c0,0,2-23.2,2.45-29.4.17-2.36.59-28.32,4.59-38.77C155.35,197,173.78,205.22,173.78,205.22Z" transform="translate(-10 -58.86)" style="fill:#292c47"/><path d="M167.14,165.8s6,1.24,6.7,1.87,2.13,7.23,2.21,9.05a70.66,70.66,0,0,1-1.49,12.3c-.77,2.84-.49,16.82,0,20.76,0,0-8.87,4-23.84.36,0,0,2.61-13,2.13-16.85-.61-5-1.8-17.23-1.8-17.23s0-7.48,1-8.38,8.82-1.88,8.82-1.88Z" transform="translate(-10 -58.86)" style="fill:#dbdff0"/><path d="M155.44,167.32s3.75,1,1.68,7.92c-1.61,5.39-1.83,6.55-1.83,6.55l-8.65-2.16s2.21-11.39,6.36-12.37A5.54,5.54,0,0,1,155.44,167.32Z" transform="translate(-10 -58.86)" style="fill:#dbdff0"/><path d="M175.68,182l.48.71h0c.22.33.45.65.68,1a39.24,39.24,0,0,0-.66-7.66A40.45,40.45,0,0,1,175.68,182Z" transform="translate(-10 -58.86)" style="fill:#a3a9c4"/><rect x="160.1" y="118.22" width="3.68" height="5.61" style="fill:#dbdff0"/><path d="M167.57,164.93a11.67,11.67,0,0,1-6.8-.19l-.21,1.52s4.16,1.57,7.4.85Z" transform="translate(-10 -58.86)" style="fill:#dbdff0"/><path d="M146.35,209.56a11.27,11.27,0,0,0,.58,2.3,16.19,16.19,0,0,1,1,2.43c.07.25.47,2.08.54,2.31s-.45.57-.79.08a14.78,14.78,0,0,1-.71-1.87c-.15-.39-.59-1.59-.73-1.38a14.48,14.48,0,0,0-.18,2.23,13.63,13.63,0,0,0,.3,2.22c.11.53.75,2.75.47,2.86s-.52.07-.87-.53c0,0-.58.3-.89-.43,0,0-.52.17-.81-.78a1.26,1.26,0,0,1-.49-.55,20.91,20.91,0,0,1-.85-4.45c0-1.18.34-2,.32-2.83a22.77,22.77,0,0,0-.41-2.63Z" transform="translate(-10 -58.86)" style="fill:#eea886"/><path d="M147.38,211.61a23.5,23.5,0,0,1-5,.07s1.68-19.09,1.6-20.17,3.85-18.73,6-21.42l3.29,10.37c-.25-.08-3.58,10.58-3.62,11.68C149.55,193.61,147.38,211.61,147.38,211.61Z" transform="translate(-10 -58.86)" style="fill:#dbdff0"/><path d="M170.19,152.32a17.34,17.34,0,0,0-.29-5.19c-.36-1.4-2.62-1-2.62-1h0c-3.46-1-5.54-.56-6.85,0-2,1.61-2.1,4.34-2,5.84,0,.36.08.72.12,1.06v0c.17,1.49.36,2.79.36,2.79l.62.72s-.16-2.49.22-2.63c.21-.08.26-.58.26-1s0-.73,0-.73c4-1.84,8.47-.53,8.57-.27a9,9,0,0,1,.25,1.06c.05.25.11.49.15.62a20.4,20.4,0,0,1,.07,2.61l.78-1s.1-.49.23-1.22h0c0-.23.08-.5.13-.78C170.15,153.15,170.18,152.83,170.19,152.32Z" transform="translate(-10 -58.86)" style="fill:#434343"/><rect x="71.74" y="179.57" width="23.3" height="1.38" style="fill:#e2d2ca"/><rect x="84.86" y="243.42" width="2.04" height="62.91" transform="translate(161.77 490.88) rotate(180)" style="fill:#706865"/><rect x="91.4" y="179.18" width="16.2" height="1.98" style="fill:#ccbdb7"/><rect x="96.43" y="162.33" width="6.13" height="18.63" style="fill:#ccbdb7"/><rect x="63.38" y="180.98" width="89.75" height="3.58" style="fill:#b59074"/><path d="M56.15,218.19s-1,13.76,1.71,15.41c1.69,1,8.4,4.51,8.2,5.17s-3.79,5.81-3.79,5.81S49.37,236.08,49,233.4s.64-20.16,2.41-21c1.33-.61,2-.11,3.7,1.14C57.41,215.32,56.15,218.19,56.15,218.19Z" transform="translate(-10 -58.86)" style="fill:#323657"/><path d="M79.67,222.12l1.14-.42s-1.42-3.33-2-3.25a14.38,14.38,0,0,0-1.6.33Z" transform="translate(-10 -58.86)" style="fill:#ead8cf"/><path d="M79.93,222.69c-.14-.11-2.42-4.46-2.42-4.46l-4.85.66,2.62,5.16Z" transform="translate(-10 -58.86)" style="fill:#da9b5b"/><path d="M72,297.74s-.4,2.78-.45,3.2-4.47-.25-4.47-.25l-.35-3.31S71.48,297.34,72,297.74Z" transform="translate(-10 -58.86)" style="fill:#424773"/><path d="M71.63,300.59A11.93,11.93,0,0,0,74.38,303c1.35.73,3.47,1,4.27,1.77.58.55,2.11,2.9-3.51,2.86s-8.33.33-8.93-.57.87-6.66.87-6.66A11.9,11.9,0,0,0,71.63,300.59Z" transform="translate(-10 -58.86)" style="fill:#292c47"/><path d="M100.31,297.76s-.4,2.79-.45,3.21-4.47-.25-4.47-.25L95,297.4S99.76,297.37,100.31,297.76Z" transform="translate(-10 -58.86)" style="fill:#424773"/><path d="M99.9,300.61a11.92,11.92,0,0,0,2.75,2.41c1.36.73,6.33,1.33,7.13,2.09.58.55,1.54,2.75-6.36,2.54-5.62-.14-8.33.34-8.93-.57s.87-6.66.87-6.66S96.61,300.94,99.9,300.61Z" transform="translate(-10 -58.86)" style="fill:#292c47"/><path d="M57.79,249.63s16.05,2.71,19.67,3.28,23.28,5.46,25.74,7c2,1.18-1,29.67-1.73,40.54H93.73l-.56-32.6c-9.29.23-15.91-2.17-22.68-1.15s-12.4,2.49-16.7-3.28C53.79,263.37,53.63,250.88,57.79,249.63Z" transform="translate(-10 -58.86)" style="fill:#292c47"/><path d="M73.61,300.42,66.07,300l-.74-32.16a45.91,45.91,0,0,1-8.6-.55L50.64,253.1c5.33,1.06,22.43,5.38,24.71,6.76C77.31,261,74.31,289.56,73.61,300.42Z" transform="translate(-10 -58.86)" style="fill:#292c47"/><path d="M65.18,189.48s5.88-1.63,8.13,2.94,1.22,13.22-1.74,14-7.23-.12-8.46-3-2.21-6.88-1.92-9.49S63.62,190.1,65.18,189.48Z" transform="translate(-10 -58.86)" style="fill:#eea886"/><path d="M70,205.54s-.06,3.48.32,4.22-8.19.55-8.19.55a17.37,17.37,0,0,0,.58-7.72C62,199.07,70,205.54,70,205.54Z" transform="translate(-10 -58.86)" style="fill:#eea886"/><path d="M62.28,201.27s.46.94,2.68.79,5.15-2.83,6.09-3.07,1-.78,1-.78l.49.89,1,.15s-.66-2.69.77-3.63-.64-8.56-7.88-6.72c0,0-5.52,1-5.59,4.1S61.21,199.64,62.28,201.27Z" transform="translate(-10 -58.86)" style="fill:#3a3f47"/><path d="M70.8,209.67s0-1.42-.66-1.55-6.74-1-7.53-.67l-.34,1.87S63.79,210.25,70.8,209.67Z" transform="translate(-10 -58.86)" style="fill:#e2d2ca"/><path d="M72.57,197.58c-.17-1.16-1.49-2.49-2.24-.68s.51,4.43,1.35,4.29S72.79,199.15,72.57,197.58Z" transform="translate(-10 -58.86)" style="fill:#eea886"/><path d="M96.34,226.38h0S96.38,226.4,96.34,226.38Z" transform="translate(-10 -58.86)" style="fill:#323657"/><path d="M63.46,190.31s-7.17-.34-1.25,10.85Z" transform="translate(-10 -58.86)" style="fill:#3a3f47"/><polygon points="37.49 245.38 38.02 246.88 60.56 239.9 59.48 236.86 37.49 245.38" style="fill:#918783"/><rect x="58.78" y="214.32" width="2.56" height="24.51" style="fill:#918783"/><rect x="52.5" y="213.02" width="15.11" height="1.44" style="fill:#5e5854"/><polygon points="82.82 245.38 82.29 246.88 59.75 239.9 60.74 236.66 82.82 245.38" style="fill:#918783"/><polygon points="66.94 246.72 66.94 248.47 59.75 239.9 60.74 236.66 66.94 246.72" style="fill:#918783"/><path d="M94.93,306.33a2.11,2.11,0,1,1-2.11-2.11A2.11,2.11,0,0,1,94.93,306.33Z" transform="translate(-10 -58.86)" style="fill:#bfb2ac"/><path d="M77.12,306.33A2.11,2.11,0,1,1,75,304.22,2.11,2.11,0,0,1,77.12,306.33Z" transform="translate(-10 -58.86)" style="fill:#bfb2ac"/><path d="M49.59,306.33a2.11,2.11,0,1,1-2.11-2.11A2.1,2.1,0,0,1,49.59,306.33Z" transform="translate(-10 -58.86)" style="fill:#bfb2ac"/><rect x="42.25" y="207.55" width="35.8" height="5.47" rx="2.7" ry="2.7" style="fill:#e2d2ca"/><rect x="139.6" y="184.56" width="2.04" height="62.91" style="fill:#706865"/><rect x="73.01" y="133.94" width="52.96" height="37.36" rx="2.69" ry="2.69" style="fill:#f2e2d9"/><rect x="75.09" y="135.96" width="48.82" height="29.49" style="fill:#f5f7ff"/><path d="M111.2,226.66a1.71,1.71,0,1,1-1.71-1.71A1.7,1.7,0,0,1,111.2,226.66Z" transform="translate(-10 -58.86)" style="fill:#918681"/><path d="M120.46,239.89v-.67s-.94-4.13-7.55-4.13-6.48,4.8-6.48,4.8Z" transform="translate(-10 -58.86)" style="fill:#e2d2ca"/><path d="M106.35,235.7a6.4,6.4,0,0,0,2-.43c.53-.32,3.68-2.43,4.42-2.09s5.66,1.84,5.49,2.56-.63.65-1,.52a26.78,26.78,0,0,0-4.24-.75s3.51,1.28,3.52,2.22-.73,1.16-1.06,1.51-.74,1.23-1.64,1.3-5.32-1.47-6.23-1.54a21.72,21.72,0,0,1-2.7-.09A24.19,24.19,0,0,1,106.35,235.7Z" transform="translate(-10 -58.86)" style="fill:#eea886"/><path d="M80.2,211.63c-4.58-.81-9.4-2-9.4-2l-8.53-.35s-7.83,1.72-10.91,3.12c-.29.13-.29,7-1.1,8.78l2.56,5.39S54.3,237.29,54.6,242c.14,2.18-.39,21.08-.39,21.08s.76.38,6.58,1,20.37-.23,20.46-.92-2.82-25.6-3-26.89c-.19-2,.58-11.13.58-11.13,1.09,1.47,3.89,8.12,6.8,11.29,1.72,1.86,10.21,3,11.81,3.06,3.48.11,9.84.81,10,.47s.55-5.64.16-5.78-12.15-.79-15.17-2.4c-1.11-.58-4.42-7.79-4.42-7.79S82.73,212.76,80.2,211.63Z" transform="translate(-10 -58.86)" style="fill:#323657"/><path d="M39.08,169.52H53.4a5.19,5.19,0,0,1,5.19,5.19v23.82a5.18,5.18,0,0,1-5.18,5.18H39.08a5.18,5.18,0,0,1-5.18-5.18V174.7A5.18,5.18,0,0,1,39.08,169.52Z" style="fill:#e2d2ca"/><path d="M64.2,270.51a11.29,11.29,0,0,1-8.77-3.63c-4.94-5.45-4-15-4-15.43a1.37,1.37,0,1,1,2.73.27c0,.11-.79,8.79,3.32,13.32a8.58,8.58,0,0,0,6.73,2.73,1.37,1.37,0,1,1,0,2.74Z" transform="translate(-10 -58.86)" style="fill:#e2d2ca"/><rect x="78.55" y="138.31" width="14.3" height="1.56" rx="0.39" ry="0.39" style="fill:#dfe1e8"/><rect x="78.55" y="141.65" width="14.3" height="1.56" rx="0.39" ry="0.39" style="fill:#dfe1e8"/><rect x="78.55" y="145.48" width="14.3" height="17.62" rx="1.3" ry="1.3" style="fill:#dfe1e8"/><rect x="95.74" y="138.31" width="25.46" height="24.79" rx="2.06" ry="2.06" style="fill:#dfe1e8"/><path d="M340.52,233.7c0,39.42-1.12,47.13-11,56-3.87,3.46-11,10.64-31.57,14.22a155.26,155.26,0,0,1-22.42,2.05,75.3,75.3,0,0,1-10-.37,53,53,0,0,1-7.06-1.23c-22.6-5.67-24.29-25-14.4-41.33a94.31,94.31,0,0,1,8.74-12c4.85-5.72,10-10.79,14.74-15.52A104.44,104.44,0,0,0,278.64,223a30.19,30.19,0,0,0,3-5.08,86.55,86.55,0,0,1,8.65-14.83,63.74,63.74,0,0,1,5-6.23,46.42,46.42,0,0,1,16.13-3.77C324.43,192.67,340.54,199.08,340.52,233.7Z" transform="translate(-10 -58.86)" style="fill:#4373cf"/><path d="M287.94,293a24.24,24.24,0,0,0,.75,3.81c.43,1.16,2.76,3.85,1.77,6.44-1.06,2.8-5.72.1-7.62-.76s-1.47-2.4-1.67-4.3-1.13-2-.79-3.29a16.12,16.12,0,0,1,2.42-3.9Z" transform="translate(-10 -58.86)" style="fill:#213a70"/><path d="M283.7,289.66s-1.2,1.67-1.16,1.72,5.11,3.13,5.46,2.13a10.49,10.49,0,0,0,.4-1.95Z" transform="translate(-10 -58.86)" style="fill:#eea886"/><path d="M266.48,294.91a19.34,19.34,0,0,0-2.94,3.44c-1.39,2.09-5.08,2.2-5.24,5s5,2.93,7.74,2,3.13-3.7,4.78-4.4,2.49-1.26,2.37-2.62a16.81,16.81,0,0,0-1-3.56,10.48,10.48,0,0,1-1.62.39A13.56,13.56,0,0,1,266.48,294.91Z" transform="translate(-10 -58.86)" style="fill:#213a70"/><path d="M285.12,217.74s-1,6.2-1.88,10.29h0a24.37,24.37,0,0,1-.84,3.39,47.81,47.81,0,0,1-4.59,5.08c-4.2,4.33-9.75,9.77-9.75,9.77l-2.17-4.11s4.93-5.78,8.27-9.64c1.55-1.78,2.75-3.15,3-3.35.7-.63,1.51-6.79,2.65-11.86a20.45,20.45,0,0,1,3.43-7.88Z" transform="translate(-10 -58.86)" style="fill:#ffca55"/><path d="M277.81,236.5c-4.2,4.33-9.75,9.77-9.75,9.77l-2.17-4.11s4.93-5.78,8.27-9.64A7,7,0,0,1,277.81,236.5Z" transform="translate(-10 -58.86)" style="fill:#eea886"/><path d="M266.73,293l-.25,1.9a9.37,9.37,0,0,0,5.67-.09l.06-1.69Z" transform="translate(-10 -58.86)" style="fill:#eea886"/><path d="M305,245.44c.15.55-28.56,0-28.56,0s7.94-5.78,8.46-7.33-2-10.81-2.35-13.82c-.27-2.41-.93-13.21.66-14.86s7.64-3.53,7.64-3.53l8.73.33a13.58,13.58,0,0,1,2.47.78c1,.47,6.92,2.57,7.87,5.51s-5.87,12.4-5.87,12.4,0,.43,0,1.12h0c0,.93-.06,2.34-.1,3.87,0,2-.08,4.17-.08,5.76A56.63,56.63,0,0,0,305,245.44Z" transform="translate(-10 -58.86)" style="fill:#ffca55"/><path d="M305,245.44s3.9,5.73,4,9.65-6.93,17-8,18.9c-3.18,5.64-11.89,17.81-11.89,17.81s-1.5,0-6.19-1.86c0,0,5.8-16.07,6.53-17.74,3.12-7.07,4.86-12.09,3.81-13.31s-3.91-2.43-4.73-3.14-15.24,2.72-16.75,3.11c-3.91,1-2.13,7.82-1.26,10.87,1.44,5.1,2.71,23.53,2.71,23.53s-2.79,1.19-7.45.18c0,0-9.16-33.27-9.46-36.58s-.43-8.76,22.14-12.91Z" transform="translate(-10 -58.86)" style="fill:#e8e8e8"/><path d="M293.25,187s-7.58-1.71-5.85,7.82,3.56,10.28,8.13,8.31,4.16-8.08,4.39-11.08S295.67,187.05,293.25,187Z" transform="translate(-10 -58.86)" style="fill:#eea886"/><path d="M291.25,208.35s3.35,3.56,8.65.32c0,0-1.19-7.7-.56-11.46s-6.92,5.82-6.92,5.82.17.41.18.92a9.39,9.39,0,0,1-.08,1.53C292.37,206.73,292,208,291.25,208.35Z" transform="translate(-10 -58.86)" style="fill:#eea886"/><path d="M299.55,196.9s-.2-3-1.3-3.1-1.26,1.11-1.26,1.11l-1.11.21s.35-2.63-.74-3.09-7.1,1.45-8,.68-.47-6.12,1.13-6.85,6-2.36,9.19-.19c0,0,2.51-.28,2.88,1.74S300.23,195.39,299.55,196.9Z" transform="translate(-10 -58.86)" style="fill:#3a3f47"/><path d="M292.52,205.48c5.47-1.69,5.88-5,5.89-5-1.8,3.09-5.81,3.5-5.81,3.5A9.39,9.39,0,0,1,292.52,205.48Z" transform="translate(-10 -58.86)" style="fill:#a77860"/><path d="M302.14,207.05s-4,8-10.48,7.46-1.1-8.53-.81-8.61S297.49,204.25,302.14,207.05Z" transform="translate(-10 -58.86)" style="fill:#eea886"/><path d="M273.16,245s19.82,2.45,31.84.41l-23-2.87S281.91,243.15,273.16,245Z" transform="translate(-10 -58.86)" style="fill:#ffca55"/><path d="M288,241.66l-1.48.75s.34,2.35,1.15,3.06l1.65-.42S289,242.47,288,241.66Z" transform="translate(-10 -58.86)" style="fill:#eea886"/><path d="M310.93,236.86c-.3.34-4.19,1.91-8.6,3.61h0c-6,2.31-12.8,4.51-12.8,4.51L288,241.66s7.1-3.86,11.9-6.56c2.27-1.28,4-2.31,4.27-2.54.78-.74,1-1.92.41-4s-1.88-11.51-2-12.61.36-4,3.12-4.19a8.23,8.23,0,0,1,4.16.63s.69.28,1.21,7S311.63,236.05,310.93,236.86Z" transform="translate(-10 -58.86)" style="fill:#ffca55"/><path d="M304,226h0c0,.93-.06,2.34-.1,3.87A19.41,19.41,0,0,1,302.8,218C302.51,219.75,304,226,304,226Z" transform="translate(-10 -58.86)" style="fill:#c9a043"/><path d="M283.24,228h0a24.37,24.37,0,0,1-.84,3.39,34.9,34.9,0,0,1-.09-10.14A55.92,55.92,0,0,0,283.24,228Z" transform="translate(-10 -58.86)" style="fill:#c9a043"/><path d="M302.33,240.47h0c-6,2.31-13,4.58-13,4.58L288,241.66s7.1-3.86,11.9-6.56C299.89,235.1,301.64,236,302.33,240.47Z" transform="translate(-10 -58.86)" style="fill:#eea886"/><polygon points="277.56 186.38 249.38 185.97 263.61 193.19 277.56 186.38" style="fill:#444c94"/><polygon points="263.61 193.19 277.56 187.79 277.56 186.38 262.51 191.81 263.61 193.19" style="fill:#303669"/><path d="M286.83,242.46s-1.76-.27-3-.55c-.94-.22-3.28.08-3.88.68s-2.49,4.82-2.85,5.07.19.86.82.56c0,0,.57,1.84,2,1.15s2.4-2.2,3.14-2.46,5.1-1.6,5.1-1.6S288,242,286.83,242.46Z" transform="translate(-10 -58.86)" style="fill:#eea886"/><path d="M280.4,242.32a11,11,0,0,0-1.42.79c-.3.24-1.49,1.14-1.78,1.35s.43.81,2.57-.12S280.4,242.32,280.4,242.32Z" transform="translate(-10 -58.86)" style="fill:#eea886"/><polygon points="263.61 193.19 255.23 170.31 228.21 170.75 236.2 191.84 263.61 193.19" style="fill:#303669"/><path d="M256.58,239.29c.82,1.65.58,3.45-.56,4s-2.71-.31-3.54-2-.57-3.44.56-4S255.75,237.64,256.58,239.29Z" transform="translate(-10 -58.86)" style="fill:#518afa"/><path d="M297,193.64a1,1,0,0,1,1.9.11c.13,1.26-.76,3.48-1.39,3.26S296.87,194.8,297,193.64Z" transform="translate(-10 -58.86)" style="fill:#eea886"/></svg>